<?xml version="1.0" encoding="UTF-8"?>
<svg id="_Layer_" data-name="&amp;lt;Layer&amp;gt;" xmlns="http://www.w3.org/2000/svg" xmlns:xlink="http://www.w3.org/1999/xlink" viewBox="0 0 1080 1080">
  <defs>
    <style>
      .cls-1 {
        fill: #fef5f9;
      }

      .cls-2 {
        fill: #fff;
      }

      .cls-3 {
        fill: #903520;
      }

      .cls-4 {
        fill: #9f3e25;
      }

      .cls-5 {
        fill: #f5cabf;
      }

      .cls-6 {
        fill: #ea5e2a;
      }

      .cls-7 {
        fill: #a2422c;
      }

      .cls-8 {
        fill: url(#_Áåçûìÿííûé_ãðàäèåíò_2);
      }

      .cls-9 {
        fill: #a33f36;
      }

      .cls-10 {
        fill: #eb5325;
      }

      .cls-11 {
        fill: #dfb39c;
      }

      .cls-12 {
        fill: #c18a89;
      }

      .cls-13 {
        fill: #eb5628;
      }
    </style>
    <linearGradient id="_Áåçûìÿííûé_ãðàäèåíò_2" data-name="Áåçûìÿííûé ãðàäèåíò 2" x1="626.46" y1="479.16" x2="854.85" y2="479.16" gradientUnits="userSpaceOnUse">
      <stop offset="0" stop-color="#c64227"/>
      <stop offset="1" stop-color="#e59475"/>
    </linearGradient>
  </defs>
  <path class="cls-11" d="M106.38,915.25s-185.37-298.3-39.83-481.14c216.63-272.15,364.07,114.62,447.52-45.44,138.04-264.77,589.63-196.82,451.46,132.42-72.49,172.74,170.04,146.92,71.17,394.5l-930.32-.34Z"/>
  <path class="cls-8" d="M842.8,544.18l8.66-20.28,.2-.48c1.04-2.48,.07-5.32-2.26-6.63l-16.05-9.02c-.27-.15-.51-.32-.74-.5-1.57-1.3-2.29-3.43-1.7-5.42,3.33-11.78,4.3-24.07,2.81-36.21-.05-.5-.04-1,.04-1.48,.3-1.81,1.57-3.38,3.32-4.06l14.38-5.41c1.89-.73,3.17-2.48,3.37-4.41,.04-.59,.02-1.22-.14-1.84l-5.63-21.8c-.69-2.68-3.35-4.42-6.11-3.94l-20.15,3.42c-1.99,.33-3.98-.5-5.13-2.16-1.69-2.37-3.46-4.67-5.38-6.9-3.61-4.2-7.5-7.97-11.64-11.33l-.02-.02c-1.73-1.41-2.41-3.68-1.71-5.79l6.49-19.72,.32-.99c.86-2.53-.39-5.34-2.88-6.4l-20.72-8.86c-2.53-1.06-5.47-.08-6.82,2.32l-10.05,17.86c-1.11,1.99-3.38,3.04-5.58,2.6-9.36-1.72-18.95-2.02-28.4-.81-2.41,.28-4.69-1.09-5.56-3.38l-6.45-17.03c-.99-2.59-3.73-3.98-6.38-3.29l-21.89,5.64c-2.59,.67-4.22,3.22-3.77,5.82l3.98,23.69c.35,2.01-.49,4.03-2.14,5.24-2.04,1.47-4.02,3.05-5.96,4.71-3.66,3.15-7.01,6.5-10.03,10.03-1.36,1.62-3.56,2.27-5.56,1.58l-23.69-7.82c-2.62-.85-5.42,.42-6.5,2.93l-8.9,20.8c-.93,2.21-.23,4.78,1.62,6.21,.19,.14,.4,.31,.64,.42l19.81,11.16c1.85,1.03,2.92,3.03,2.69,5.13-.01,.18-.03,.37-.08,.55-.12,.55-.23,1.06-.29,1.62-1.23,6.42-1.74,12.99-1.57,19.55,.09,2.19-1.28,4.2-3.37,4.96l-17.98,6.82c-2.55,.95-3.96,3.72-3.27,6.36l1.24,4.85,4.39,16.91c.67,2.66,3.28,4.34,6,3.89l19.85-3.37c2.12-.38,4.21,.65,5.29,2.51,2.81,4.88,6.16,9.61,9.99,14.06,2.84,3.3,5.9,6.39,9.1,9.18l-1.37,4.13-5.58,16.97c-.71,2.09,.02,4.39,1.72,5.68,.35,.29,.74,.5,1.17,.68l20.85,8.96c2.48,1.04,5.33,.03,6.65-2.27l6.84-12.22c1.16-2.06,3.62-3.11,5.91-2.5,9.47,2.57,19.25,3.62,28.97,3.11,2.3-.12,4.39,1.22,5.13,3.33l8.15,21.53c.93,2.4,3.49,3.74,6,3.1l22.12-5.73c2.62-.67,4.28-3.23,3.81-5.86l-4.15-24.65c-.38-2.12,.6-4.23,2.44-5.37,3.94-2.42,7.72-5.23,11.36-8.36,1.96-1.68,3.83-3.43,5.61-5.24,1.4-1.41,3.48-1.92,5.37-1.32l22.72,7.49c2.64,.87,5.47-.4,6.59-2.94Zm-59.05-95.12c10.23,15.01,11.48,31.98,5.86,45-19.8,45.62-81.23,41.54-95.15-5.48-3.41-12.08-1.96-25.55,6.75-38.67,20.41-30.38,62.97-29.52,82.55-.85Z"/>
  <path class="cls-6" d="M560.88,821.41l19.87-34.08,.47-.81c2.39-4.16,1.31-9.44-2.53-12.27l-26.49-19.58c-.44-.32-.84-.68-1.2-1.05-2.49-2.66-3.31-6.6-1.81-10,8.53-20.17,12.98-41.78,13.03-63.66,.02-.91,.16-1.79,.4-2.62,.94-3.14,3.54-5.65,6.8-6.47l26.73-6.41c3.51-.87,6.17-3.7,6.96-7.08,.21-1.04,.3-2.16,.16-3.3l-5.15-39.95c-.62-4.91-4.97-8.59-9.96-8.35l-36.54,1.59c-3.6,.15-6.95-1.78-8.63-4.98-2.48-4.58-5.11-9.05-8.02-13.45-5.47-8.25-11.55-15.82-18.14-22.71l-.03-.04c-2.75-2.88-3.45-7.07-1.75-10.66l15.9-33.57,.78-1.7c2.08-4.29,.49-9.57-3.7-12l-34.83-20.33c-4.26-2.45-9.7-1.36-12.62,2.6l-21.81,29.48c-2.42,3.28-6.67,4.65-10.49,3.37-16.24-5.14-33.19-7.8-50.24-7.75-4.34-.04-8.09-2.99-9.11-7.24l-7.67-31.67c-1.18-4.82-5.74-7.9-10.59-7.27l-40.12,5.15c-4.74,.62-8.21,4.77-7.99,9.5l1.81,42.95c.17,3.64-1.77,7.05-4.96,8.83-3.94,2.17-7.82,4.51-11.64,7.04-7.2,4.77-13.88,9.99-20.03,15.58-2.78,2.57-6.82,3.23-10.22,1.57l-40.32-19.15c-4.46-2.08-9.71-.45-12.18,3.76l-20.42,34.94c-2.13,3.71-1.47,8.43,1.5,11.39,.31,.3,.65,.64,1.03,.88l32.69,24.21c3.05,2.23,4.51,6.03,3.63,9.7-.07,.32-.13,.65-.26,.96-.33,.94-.64,1.82-.87,2.82-3.6,11.13-5.97,22.68-7.13,34.37-.32,3.91-3.2,7.17-7.09,8.07l-33.45,8.12c-4.74,1.13-7.86,5.72-7.23,10.56l1.13,8.89,4.03,31c.6,4.87,4.86,8.43,9.78,8.25l36-1.57c3.85-.2,7.33,2.09,8.83,5.63,3.91,9.28,8.8,18.43,14.61,27.18,4.31,6.5,9.06,12.65,14.11,18.32l-3.35,7.04-13.67,28.9c-1.73,3.56-.94,7.79,1.79,10.47,.56,.58,1.2,1.05,1.93,1.47l35.02,20.54c4.16,2.39,9.45,1.24,12.31-2.56l14.87-20.17c2.51-3.4,7.12-4.72,11.04-3.12,16.24,6.66,33.38,10.7,50.74,11.96,4.12,.3,7.52,3.14,8.38,7.05l9.68,40.03c1.12,4.47,5.37,7.42,9.97,6.84l40.55-5.26c4.81-.61,8.31-4.78,8.07-9.55l-1.9-44.69c-.2-3.85,2-7.38,5.53-8.99,7.53-3.43,14.87-7.57,22.03-12.31,3.85-2.55,7.56-5.24,11.13-8.05,2.8-2.2,6.6-2.64,9.83-1.14l38.67,18.34c4.49,2.12,9.8,.5,12.35-3.76Zm-83.71-182c4.98,9.7,8.47,20.72,10.12,33.01,.38,2.6,.49,5.56,.47,8.65-.28,13.35-4.29,29.52-10.2,39.54-45.3,76.6-153.46,55.7-167.72-30.87-.22-1.43-.43-2.85-.61-4.3-1.74-13.53,2.55-34.35,9.35-46.15,3.58-6.18,7.57-11.74,11.84-16.7,42.99-49.41,118.35-38.42,146.75,16.82Z"/>
  <path class="cls-3" d="M94.89,912.68s-1.06-8.23-3.5-13.12c-2.45-4.89-18.01-1.78-18.01-1.78,0,0-3.11,2.67-3.78,15.12l25.3-.22Z"/>
  <path class="cls-3" d="M147.93,912.57c-3.66-2.23-1.58-18.89-1.58-18.89,0,0,17.04-13.64,19.39-3.2,2.34,10.44,16.19,15.13,24.08,16.41,5.44,.88,7.13,3.9,7.65,5.68h-49.54Z"/>
  <path class="cls-2" d="M112.63,791.42c.69,3.82,1.13,6.96,1.25,9.21,1.58,30.91,26.02,101.58,30.39,103.22,6.76,2.55,17.41-2.87,22.98-4.65,2.31-.74,3.87-3.07,3.35-5.43-12.1-55.62-16.55-135.72-18.16-183.14-.82-23.88-4.92-40.38-4.92-40.38,0,0-59.59-15.9-59.94,4.21-.31,17.8,19.74,87.59,25.05,116.95Z"/>
  <path class="cls-3" d="M112.63,791.42l39.81-80.78c-.82-23.88-4.92-40.38-4.92-40.38,0,0-59.59-15.9-59.94,4.21-.31,17.8,19.74,87.59,25.05,116.95Z"/>
  <path class="cls-2" d="M125.88,674.54l-31.5,228.31s-13.83,3.34-24.59,.67c0,0-9.22-121.43-8.45-150.78,.77-29.36-6.62-78.55,1.69-83.98,8.3-5.43,62.86,5.78,62.86,5.78Z"/>
  <path class="cls-10" d="M56.88,670.74c-.15,2.06,1.17,3.94,3.15,4.52,4.39,1.27,9.46,2.16,19.23,4.19,9.18,1.91,21.52,3.59,36.7,3.69,24.13,.15,33.27-8.16,33.27-8.16,1.04,.02-.55-5.03-1.98-29.04-.48-8.13-.95-18.44-1.29-31.47-.3-11.73-.51-25.65-.53-42.18-.03-19.88-30.79-41.27-31.36-41.27h0c0,2.87-4.51,8.15-11.46,8.61-8.25,.54-18.36-3.56-18.36-8.31,0-.05-14.91,23.85-20.2,49.31-.67,3.23-1.19,6.63-1.61,10.22-1.26,10.8-.04,3.09-5.55,79.91Z"/>
  <path class="cls-10" d="M114.07,531s28.61-.24,35.5,9.41c6.89,9.66,21.98,61.61,14.1,78.9-7.88,17.29-22.62-7.15-30.8-17.74-8.18-10.59-18.8-70.57-18.8-70.57Z"/>
  <path class="cls-5" d="M114.36,526.63l-.02,2.96s.81,9.25-10.58,10.6c-11.39,1.35-19.87-1.7-19.56-8.84,1.03-5.53,2-11.23,2.08-15.8,.03-1.7-.09-3.5-.4-5.54l22.07-.44,6.5,1.06-.08,16Z"/>
  <path class="cls-13" d="M114.44,510.63l-.08,16c-2.34,1.09-4.99,1.76-7.96,1.76-10.14,0-16.7-7.44-20.13-12.84,.03-1.7-.09-3.5-.4-5.54l22.07-.44,6.5,1.06Z"/>
  <path class="cls-5" d="M84.18,506.46c2.56,13.78,20.34,13.33,28.03,12.46,2.16-.24,3.52-.52,3.52-.52,2.44-.65,3.8-4.49,4.43-9.52,1.25-9.96-.33-24.57-2.01-28.31-2.53-5.63-7.3-11.71-25.21-7.32-17.91,4.39-12.05,15.55-8.76,33.21Z"/>
  <path class="cls-13" d="M143.33,569.72s11.07,24.44,10.74,31.76c0,0-5.48-.19-10.74,1.38-8.65,2.58,0-33.14,0-33.14Z"/>
  <path class="cls-3" d="M123.65,467.46s-7.88-.61-17.18-4.65c-7.55-3.28-17.07,.33-20.16,1.96,.08-.5,.28-1.18,.75-1.86,0,0-1.39,.98-1.59,2.36-.14,.11-.21,.18-.17,.2,0,0-1.57-.29-2.58,.17,0,0,.71-.1,.96,.35,.03,.05,.07,.09,.11,.13-11.77,5.69-12.86,24.29-9.07,28.6,4.56,5.18,11.31,16.7,11.31,16.7,0,0,.71-2.62-.12-7.17-.83-4.56,3.11-4.56,8.08-6.63,4.97-2.07,.83-7.87,5.18-11.39,4.35-3.52,20.3-1.45,20.09-4.14,5.92-2.16,4.39-14.01,4.39-14.62Z"/>
  <path class="cls-13" d="M80.57,615.5c4.67,18.76,55.19,28.45,66.68,30.42-.48-8.13-.95-18.44-1.29-31.47l-65.39,1.05Z"/>
  <path class="cls-5" d="M91.66,621.59c-.48,0-11.23-1.6-13.16-2.57-1.93-.96-10.73-13.48-4.96-16.69,5.77-3.21,21.25,9.63,21.25,9.63l-3.13,9.63Z"/>
  <path class="cls-10" d="M157.04,625.31s-41.57,2.26-69.47-3.72c0,0-.7-8.06,8.06-11.64,0,0,43.48-9.22,53.93-6.65,10.45,2.57,7.48,22.01,7.48,22.01Z"/>
  <path class="cls-10" d="M61.57,592.69c8.63,10.4,19.91,18.9,32.34,20.89h0c.1-.16,3.76-5.72,3.08-13.89-.32-3.78-1.57-8.12-4.53-12.75-.91-1.42-1.72-3.08-2.45-4.93-6.79-17.32-5.78-50.72-5.78-50.72,0,0-28.83,3.02-37.82,15.86-5.5,7.86,1.51,29.09,15.15,45.54Z"/>
  <path class="cls-13" d="M112.21,518.92c2.16-.24,3.52-.52,3.52-.52,2.44-.65,3.8-4.49,4.43-9.52-4.57,1.13-6.67,4.66-7.54,6.16-.39,.68-.48,2.2-.41,3.88Z"/>
  <path class="cls-5" d="M123.83,526.72s9.96-16.43,2.21-17.15c-7.74-.71-10.86,4.53-11.97,6.45-1.12,1.93,.29,10.61,.29,10.61l9.47,.09Z"/>
  <path class="cls-10" d="M85.87,599.13c.3,2.08,.93,4,1.7,5.71,2.43,5.4,6.34,8.73,6.34,8.73h0c25.86-11.68,31.1-51.76,31.97-73.79,.35-8.85,0-14.79,0-14.79-11.67-3.86-14.95,2.85-14.95,2.85,0,0-13.78,32.76-20.92,54.17-2.73,8.19-4.5,14.73-4.15,17.12Z"/>
  <path class="cls-13" d="M61.57,592.69c8.63,10.4,19.91,18.9,32.34,20.89h0c25.86-11.68,31.1-51.76,31.97-73.79,0,0-12.24,44.39-28.9,59.9-3.01,2.81-6.17,4.67-9.42,5.15,0,0-21-5.94-25.41-11.53-.31-.4-.51-.6-.59-.63Z"/>
  <path class="cls-3" d="M945.76,510.85c-7.65-3.97-13.78-1.47-13.78-1.47-23.4-2.75-30.23,24.54-29.91,33.93,.31,9.39,1.39,19.47-9.06,31.67-30.19,35.24,33.03,36.79,33.03,36.79,.53-28.15,34.28-17.88,32.8-15.03,43.26,10.38,4.3-76.87-13.09-85.89Z"/>
  <path class="cls-5" d="M855.49,628.22s-4.11-6.27-7.43-6.39c-3.32-.12-9.46-1.84-8.97-.61,.49,1.23,4.3,1.35,4.67,2.09s-5.65,1.84-7.37,1.97c-1.72,.12-5.77,0-5.65,.86,.12,.86,7.31,4.42,12.37,3.93,5.07-.49,11.33,1.47,11.33,1.47l1.04-3.32Z"/>
  <path class="cls-4" d="M915,630.25s-2.24,4.43-6.29,9.52c-4.89,6.12-12.43,13.2-21.9,14.6-4.52,.67-8.94-.31-13.01-2.11-.01,0-.01,0-.01,0-11.5-5.1-20.14-16.84-20.14-16.84-2.03-5.53,1.29-9.28,1.29-9.28,0,0,23.22,5.22,25.43,4.12,2.21-1.11,15.11-38.26,18.18-42.93,3.07-4.67,13.54-7.09,13.54-7.09l2.92,50.02Z"/>
  <path class="cls-13" d="M908.71,639.76c-4.89,6.12-12.43,13.2-21.9,14.6-4.52,.67-8.94-.31-13.01-2.11,.45,.06,11.93,1.48,16.51-6.71,4.67-8.35,9.72-21.62,16.65-17.2,2.99,1.91,2.86,6.65,1.74,11.42Z"/>
  <path class="cls-3" d="M1001.62,880.85s7.08,6.46,5.7,11.06c-1.38,4.59-7.77,7.66-8.64,13.27-.86,5.61-4.32,8.68-7.43,8.68h-14.83s-2.29-3.95,3.24-5.14c5.53-1.19,7.61-7.79,7.27-13.91-.35-6.12,.52-14.29,.52-14.29l11.75-2.72,2.42,3.06Z"/>
  <path class="cls-3" d="M941.66,883.59s2.55,27.39-.56,28.92l-39.8-.08s0-4.59,6.39-5.61c6.39-1.02,17.62-4.76,19.52-13.1,1.9-8.34,14.45-10.12,14.45-10.12Z"/>
  <path class="cls-5" d="M970.02,687.11c-8.19-18.37-13.2-23.64-12.25-29.34,.71-4.24-2.17-79.11-2.17-79.11-.97-.3-2.92-.57-3.99-.81-3.36-.75-6.14-3.11-7.3-6.35-1.39-3.9-2.5-9.67-2.48-16.89l-1.05,.21-17.64,3.49s.4,5.55,.41,10.78c0,.04,0,.09,0,.13,.02,4.54-2.96,8.55-7.32,9.81-2.23,.64-4.17,1.19-4.17,1.19,0,0-6.48,18.49-7.71,37.49-1.24,19,11.78,27.25-.1,65.22-12.13,38.78,70.28,14.32,65.75,4.17Z"/>
  <path class="cls-13" d="M923.16,558.31s.4,5.55,.41,10.78c9.87-.28,15.09-9.28,17.23-14.27l-17.64,3.49Z"/>
  <path class="cls-5" d="M919.86,563.26s23.36,.39,23.37-14.16c.02-14.55,3.04-24.3-11.87-25.16-14.91-.86-17.81,4.69-19,9.54-1.19,4.85,1.42,29.31,7.5,29.78Z"/>
  <path class="cls-3" d="M920.73,523.58s6.4,17.07,16.21,19.59c9.81,2.52,14.07-.11,14.07-.11,0,0-7.53-5.98-9.09-16.42,0,0-16.37-11.19-21.19-3.07Z"/>
  <path class="cls-3" d="M922.31,524.97s-4.74,1.77-6.69,5.23c-1.91,3.38-3.53,7.86-3.16,13.36,0,0-4.82-11.6,.6-18.16,5.74-6.96,9.25-.42,9.25-.42Z"/>
  <path class="cls-11" d="M924.94,554.23s-1.61,2.12-4.84,1.97c-2.6-.12-3.6-2.38-3.6-2.38,0,0,4.77-1.15,8.43,.41Z"/>
  <path class="cls-4" d="M972.28,611.77s.59,8.36,0,18.4c-.39,6.65-7.12,15.56-8.08,17.76-2.4,5.53-5.1,6.43-5.1,6.43l-20.9,5.12-7.35,1.8-23.17-6.92s-10.55-29.46-6.32-46.04c4.24-16.58,10.71-28.1,10.71-28.1,0,0,18.91,18.51,43.53-1.57l16.67,33.12Z"/>
  <path class="cls-7" d="M966.16,632.88c-.39,6.65-1.01,12.85-1.96,15.05-2.4,5.53-5.1,6.43-5.1,6.43l-20.9,5.12-9.08-2.67s30.3-4.59,26.94-30.66l10.09,6.73Z"/>
  <path class="cls-2" d="M909.16,658.83s-11.48,35.72-12.21,47.88c-.74,12.16,21.94,172.75,22.85,178.36,.86,5.28,7.42,8.65,7.42,8.65,0,0,3.02,1.78,7.32,.56,5.97-1.69,7.86-3.71,7.86-3.71,0,0,8.93-114.53,3.4-155.45-5.53-40.91-5.59-76.29-5.59-76.29h-31.05Z"/>
  <path class="cls-3" d="M957.78,657.77s17.5,23.49,19.14,39.36c1.63,15.88,2.56,71.64,6.04,87.12,3.48,15.48,16.25,45.26,16.25,93.54,0,0-1.33,2.77-5.43,4.24-1.31,.47-3.07,.93-4.77,1.32-3.38,.77-6.85-.88-8.39-3.98-8.64-17.39-36.14-73.46-37.55-85.11-1-8.24-9.68-62.76-28.63-94.75-4.55-7.68,2.79-38.22,2.79-38.22l40.56-3.51Z"/>
  <path class="cls-2" d="M924.43,554.62s-.4,1.71-4.67,1.45c0,0-3.58-.22-3.47-2.11,0,0,3.47-1.34,8.14,.66Z"/>
  <path class="cls-3" d="M907.33,653.32s4.61,3.64,13.76,3.83c10.93,.22,38.02-2.79,38.02-2.79,0,0,1.2,3.36,1.15,6.91,0,0-33.08,8.34-52.25,1.22,0,0-2.47-4.65-.68-9.17Z"/>
  <path class="cls-2" d="M918.46,666.57c-2.75,0-4.99-2.53-4.99-5.65s2.24-5.64,4.99-5.64,4.99,2.53,4.99,5.64-2.24,5.65-4.99,5.65Zm0-9.64c-1.84,0-3.33,1.79-3.33,3.99s1.5,3.99,3.33,3.99,3.33-1.79,3.33-3.99-1.5-3.99-3.33-3.99Z"/>
  <rect class="cls-10" x="935.1" y="620.58" width="44.94" height="61.52" transform="translate(-192.32 788.94) rotate(-41.05)"/>
  <path class="cls-5" d="M951.46,659.89s-12.42,1.45-12.38,4.4c.04,2.95,3.09,9,4.63,9.27,1.53,.27,10.11-8.19,10.11-8.19l-2.36-5.48Z"/>
  <path class="cls-4" d="M955.61,578.65s16.58,1.16,22.93,16.61c6.36,15.45,18.41,41.39,18.41,45.75s-6.74,17.82-42.91,25.55c0,0-3.74-3.94-3.52-7.05,0,0,22.58-19.4,22.52-21.66-.11-4.29-3.7-9.95-23.53-29.78-5.39-5.39,6.08-29.42,6.08-29.42Z"/>
  <path class="cls-10" d="M592.67,429.37l9.89,34.56c.15,.51,.19,1.03,.16,1.52-.12,1.82-1.36,3.45-3.21,3.98l-60.02,17.17c-1.86,.53-3.78-.21-4.84-1.7-.29-.4-.51-.86-.65-1.36l-9.88-34.54c-.68-2.36,.69-4.82,3.05-5.5l60.01-17.17c2.35-.67,4.81,.68,5.5,3.04Z"/>
  <g>
    <path class="cls-4" d="M602.72,465.45c-.12,1.82-1.36,3.45-3.21,3.98l-60.02,17.17c-1.86,.53-3.78-.21-4.84-1.7l30.57-27.85,37.5,8.4Z"/>
    <path class="cls-4" d="M592.67,429.37l-26.87,33.36-41.18-11.96-.51-1.77c-.68-2.36,.69-4.82,3.05-5.5l60.01-17.17c2.35-.67,4.81,.68,5.5,3.04Z"/>
  </g>
  <path class="cls-13" d="M612.04,912.9h-.17c-1.01,0-1.82-.83-1.8-1.84l2.72-118.01,8.02-.94-6.84,118.96c-.06,1.03-.91,1.83-1.94,1.83Z"/>
  <path class="cls-13" d="M565.3,912.9h-.17c-1.01,0-1.82-.83-1.8-1.84l2.72-118.01,8.02-.94-6.84,118.96c-.06,1.03-.91,1.83-1.94,1.83Z"/>
  <path class="cls-13" d="M694.27,912.9h.17c1.01,0,1.82-.83,1.8-1.84l-2.72-118.01-8.02-.94,6.84,118.96c.06,1.03,.91,1.83,1.94,1.83Z"/>
  <path class="cls-13" d="M559.99,785.73v-80.87c0-14.23,11.54-25.77,25.77-25.77h58.26c14.23,0,25.76,11.54,25.76,25.77v83.96l-109.79-3.09Z"/>
  <path class="cls-13" d="M559.99,785.73h120.23v12.77h-119.05c-.65,0-1.18-.53-1.18-1.18v-11.58h0Z"/>
  <rect class="cls-13" x="602.87" y="785.73" width="96.55" height="12.77" rx=".59" ry=".59"/>
  <path class="cls-3" d="M690.4,765.58c-8.35,14.53-18.84,20.13-18.84,20.13h-43.68s68.89-31.22,62.52-20.13Z"/>
  <path class="cls-5" d="M656.85,877.98c-1.14,1.3-1.28,2.76-.72,4.32,0,0,0,.02,.01,.02,1.04,2.88,4.48,6.09,8.48,9.3,.51,.41,.97,.79,1.36,1.13,.1,.09,.21,.18,.31,.27,.08,.07,.16,.14,.24,.21,3.73,3.44,2.32,4.22,9.02,11.2,7.64,7.95,12.89,8.09,14.39,7.36,1.27-.62-1.31-4.83-4.15-9.57-.14-.23-.27-.46-.42-.69-.38-.63-.76-1.27-1.13-1.9-3.34-5.7-2.48-8.37-1.69-16.86,.64-6.89,10.72-38.51,10.72-38.51l-14.63-2.52s-4.41,25.18-9.26,29.06c-2.6,2.07-5.5,2.09-8,3.62-.18,.11-.35,.22-.52,.33-1.42,.94-2.86,1.91-4,3.22Z"/>
  <path class="cls-3" d="M656.85,877.98c-1.14,1.3-1.28,2.76-.72,4.32,0,0,0,.02,.01,.02,1.28,2.88,4.63,6.07,8.49,9.27,.5,.42,.95,.8,1.35,1.16,.1,.09,.21,.18,.31,.27,.08,.07,.16,.14,.24,.21,3.73,3.44,2.32,4.22,9.02,11.2,7.64,7.95,12.89,8.09,14.39,7.36,1.27-.62-1.31-4.83-4.15-9.57-1.49-.54-8.39-3.35-13.61-10.03-4.6-5.87-7.66-13.41-10.8-17.77-.18,.11-.35,.22-.52,.33-1.42,.94-2.86,1.91-4,3.22Z"/>
  <path class="cls-5" d="M774.85,868.84c.9,4.52,7.34,3.76,14.54,2.01,7.19-1.76,5.48,.33,15.72-.8,10.24-1.13,13.34-4.95,13.65-6.47,.28-1.35-4.78-1.83-10.21-2.45-.68-.08-1.37-.16-2.05-.25-6.13-.77-10.61-4.72-16.18-7.97-5.27-3.07-13.14-15.6-13.14-15.6l-14.04,1.11s7.37,11.19,10.22,16.06c1.68,2.86,1.59,6.65,1.38,9.57-.11,1.59-.21,3.21,.11,4.8Z"/>
  <path class="cls-3" d="M789.39,870.85c7.19-1.76,5.48,.33,15.72-.8,10.24-1.13,13.34-4.95,13.65-6.47,.28-1.35-4.78-1.83-10.21-2.45l-.05,.1s-6.14,4.35-14.66,4.56c-6.95,.17-14.3-1.82-19.1-1.74-.11,1.59-.21,3.21,.11,4.8,.9,4.52,7.34,3.76,14.54,2.01Z"/>
  <path class="cls-3" d="M721.05,779.06l-13.13,35.32-17.14,46.12s-4.65,.45-9.1-.83c-4.1-1.19-8.8-4.29-8.8-4.29,0,0,4.76-49.52,13.63-77.94,2.27-7.3,4.82-13.2,7.64-16.52,13.76-16.26,26.9,18.14,26.9,18.14Z"/>
  <path class="cls-2" d="M707.7,722.97c-8.6-2.77-33.12,.79-57.76,5.61l-5.16-8.51-53.21-4.16s-17.56,38.94-7.95,63.75c1.41,3.65,4.22,5.99,9.01,6.06,0,0,.77,0,.78,0,0,0,31.67-.02,41.96-.02,26.46,0,56.01-18.19,59.83-18.96,6.26-1.25,8.76,11.26,15.01,24.4,6.26,13.14,58.8,58.18,58.8,58.18,0,0,8.08,.08,11.41-1.17,3.59-1.35,4.9-3.09,4.9-3.09,0,0-58.22-115.84-77.62-122.1Z"/>
  <path class="cls-3" d="M642.69,565.12c-6.82-3.58-17.19-4.06-18.87-4.29-20.16-2.71-32.3,26.59-33.02,35.47-1.32,16.37-9.97,18.86-22.16,29.11-24.43,20.55-17.27,44.43-3.91,53.3,8.02,5.32,22.15,0,22.15,0,.2,.14,38.64-21.49,57.59-31.92,28.41-4.04,15.59-72.55-1.78-81.67Z"/>
  <path class="cls-5" d="M628.58,637.9c.08,.05-9.32,3.27-15.61,.48-5.92-2.62-10.4-12.35-10.31-12.36,2.69-.12,5.65-2.48,7.92-17.92l1.15,.41,19.27,6.93s-1.4,6.18-2.3,12.07c-.76,4.94-1.17,9.68-.12,10.38Z"/>
  <path class="cls-9" d="M631,615.46s-1.4,6.18-2.3,12.07c-11.07-1.99-15.41-13.02-16.97-19.01l19.27,6.93Z"/>
  <path class="cls-5" d="M633.87,621.59s-26.37-3.54-23.91-19.93c2.46-16.39,.71-27.88,17.65-26.31,16.94,1.57,19.27,8.31,19.78,13.98,.51,5.67-6.59,32.76-13.51,32.26Z"/>
  <path class="cls-3" d="M646.42,580.35s-16.88,14.55-28.36,15.72c-11.48,1.17-15.83-2.51-15.83-2.51,0,0,6.77-5.62,10.84-14.69,1.2-2.67,3.74-4.51,6.66-4.76,8.2-.71,23.74-1.03,26.69,6.24Z"/>
  <path class="cls-3" d="M635.87,579.05s5.65,5.46,7.42,9.51c1.72,3.91,2.23,13.26,.86,16.97,0,0,8.8-17.11,3.82-25.42-5.28-8.81-12.11-1.06-12.11-1.06Z"/>
  <path class="cls-12" d="M650.79,676.75c-.8,53.38-.22,42.22-6.06,47.29-1.41,1.22-5.36,1.95-10.57,2.29-16.37,1.09-45.14-1.61-46.23-4.63-3.78-10.47-1.11-13.72-4.26-29.74-.33-1.7-.73-3.55-1.21-5.56-2.63-11.01-5.18-14.75,4.14-32.43,8.45-16.02,17.23-29.01,18.02-28.54,22.29,13.23,24.09,2.11,24.09,2.11,0,0,22.48,23.18,22.09,49.22Z"/>
  <path class="cls-2" d="M707.92,814.38l-17.14,46.12s-4.65,.45-9.1-.83c-4.1-1.19-8.8-4.29-8.8-4.29,0,0,4.76-49.52,13.63-77.94l21.41,36.94Z"/>
  <path class="cls-12" d="M628.7,627.53s22.94,3.89,25.63,13.76c2.69,9.88,18.54,67.93,18.54,67.93,0,0-11.66,2.09-17.05-3.29s-18.74-49.98-18.74-49.98l-8.38-28.43Z"/>
  <path class="cls-1" d="M634.16,726.33c-16.37,1.09-45.14-1.61-46.23-4.63-3.78-10.47-1.11-13.72-4.26-29.74l7.89-22.23s-1.31,24.75,5.99,31.26c7.29,6.51,29.89,12.57,33.44,18.01,1.71,2.61,2.84,5.23,3.17,7.33Z"/>
  <path class="cls-5" d="M615.41,715.91s16.15-3.59,18.75-2.16c2.61,1.43,8.97,6.65,9.77,8.47,.8,1.82-5.8-1.38-7.95-1.95-1.39-.37-5.05,.9-6.86,1.5-7.62,2.54-12.29,1.23-12.29,1.23l-1.43-7.09Z"/>
  <path class="cls-12" d="M604.6,625.41s-21.68,1.34-29.19,11.8c-10.57,14.74-31.52,77.54-19.51,85.91,13.53,9.43,61.57,2.47,61.57,2.47,0,0,1.6-7.47-.63-11.09-2.22-3.61-38.37-9.45-40.04-11.12s20.85-32.53,20.85-37.54,6.94-40.44,6.94-40.44Z"/>
  <path class="cls-5" d="M634.94,718.25s3.38,4.36,4.49,4.89c1.11,.52,1.83,.39,1.83,.39l-2.28-4.1-4.04-1.17Z"/>
  <path class="cls-5" d="M634.16,713.75l9.84,4.78s-.42,.69-1.63,.63c-1.21-.05-4.27-1.17-4.27-1.17l-3.94-4.23Z"/>
  <g>
    <polygon class="cls-13" points="639.44 729.82 717.25 729.82 740.65 671.61 662.96 671.61 639.44 729.82"/>
    <polygon class="cls-10" points="718.16 727.55 615.41 727.55 615.41 729.82 717.25 729.82 718.16 727.55"/>
  </g>
  <path class="cls-2" d="M697.61,700.71c.59-2.05-.6-3.7-2.64-3.7s-4.18,1.66-4.77,3.7c-.59,2.05,.6,3.7,2.64,3.7s4.18-1.66,4.77-3.7Z"/>
  <rect class="cls-13" x="274.09" y="674.72" width="10.72" height="121.01" rx=".5" ry=".5"/>
  <path class="cls-13" d="M279.41,912.9h-.17c-1.01,0-1.82-.83-1.8-1.84l2.72-118.01,8.02-.94-6.84,118.96c-.06,1.03-.91,1.83-1.94,1.83Z"/>
  <path class="cls-13" d="M408.38,912.9h.17c1.01,0,1.82-.83,1.8-1.84l-2.72-118.01-8.02-.94,6.84,118.96c.06,1.03,.91,1.83,1.94,1.83Z"/>
  <path class="cls-13" d="M407.81,785.73h-133.71v5.03c0,4.27,3.46,7.74,7.74,7.74h125.98c3.16,0,5.72-2.56,5.72-5.72v-1.33c0-3.16-2.56-5.72-5.72-5.72Z"/>
  <path class="cls-3" d="M474.75,887.67s-1.97,24.47,2.41,24.79c.58,.04,22.22,.04,22.22,.04l27.63-.16s-.18-6.66-8.26-8.06c-8.08-1.41-24.06-8.2-28.95-18.87-5.15-11.23-15.06,2.26-15.06,2.26Z"/>
  <path class="cls-2" d="M308.55,753.62s.92,24.05,5.16,32.11h97.7s23.48,2.43,25.62,4.01c2.7,2-9.4,21.81,35.97,99.25l22.22-.57s-23.24-125.59-27.37-128.77c-6.18-4.75-78.46-21.3-90.83-21.66-12.37-.36-68.47,15.62-68.47,15.62Z"/>
  <path class="cls-5" d="M363.33,611.13c7.54,4.67,7.96,13.97,7.96,13.97-18.39,4.76-45.15-15.66-45.15-15.66,0,0,11.84-7.95,16.22-25.43,.22-.88,.42-1.79,.6-2.71,.57-2.94,.93-6.13,1-9.57l8.45,7.57,14.05,12.58s-.32,5.22-2.08,14.2c-.31,1.57-.66,3.25-1.06,5.04Z"/>
  <path class="cls-3" d="M373.72,707.67c-.63,4.1,.64,7.4,1.25,10.46,.24,1.16,.38,2.3,.28,3.42-1.01,11.35,3.04,12.79,1.77,16.45,0,0-4.32,2.53-12.24,5.53-3.44,1.3-7.57,2.7-12.32,4.01-.25,.07-.5,.14-.75,.2-18.38,4.97-37.71,6.03-43.17,5.88-10.43-.28-12.53-26.71-8.66-60.01,6.03-51.87,14.18-77.02,35.65-95.19,1.35-1.14,.44,2.75,7.66,6.23,6.67,3.21,14.72,3.96,20.96,2.58l4.91,5.04c9.76,15.41,10.78,33.7,9.95,48.94-1.05,19.27-3.49,34.65-5.3,46.46Z"/>
  <path class="cls-9" d="M366.46,591.89s.75-.79-1.01,8.2c-15.56-4.5-20.63-12.43-22.7-17.68-.59-1.48,5.78-2.28,9.67-3.1l14.05,12.58Z"/>
  <path class="cls-5" d="M373.7,591.93s-30.02,4.3-32.41-14.44c-2.39-18.74-7.87-30.8,11.19-34.34,19.07-3.54,23.71,3.14,26.03,9.2,2.32,6.06,2.94,37.98-4.81,39.58Z"/>
  <g>
    <rect class="cls-2" x="496.03" y="669.6" width="2.41" height="62.99" transform="translate(762.48 1518.67) rotate(-162.63)"/>
    <rect class="cls-2" x="422.9" y="727.22" width="66.1" height="3.95" transform="translate(904.3 1463.09) rotate(-179.41)"/>
  </g>
  <path class="cls-13" d="M331.71,543.53c-.24-.28-.8-.51-2.05-.59,0,0,1-.62,2.34-.64,.27-1.73,1.22-4.8,4.21-5.52,0,0-1.61,.84-1.84,2.69,3.49-3.52,10.92-6.05,31.42-4.27,27.02,2.35,17.98,19.59,14.46,21.63-3.52,2.04-12.28-3.69-18.81-3.23-6.53,.47-7.84,9.88-10.06,11.16-2.22,1.28-1.33-1-4.32-2.38-2.98-1.38-3.31,3.58-2.47,6.81,.84,3.23-3.31,7.45-3.31,7.45l-4.12-4.51c-4.12-4.51-7.89-23.5-5.97-27.53,.17-.36,.34-.72,.51-1.08Z"/>
  <path class="cls-13" d="M377.03,738s-4.32,2.53-12.24,5.53c-34.25-24.99-34.07-84.14-34.25-85.16l43.02,37.88,1.42,21.87c.24,1.16,.38,2.3,.28,3.42-1.01,11.35,3.04,12.79,1.77,16.45Z"/>
  <g>
    <path class="cls-5" d="M439.04,710.17s2.75,.45,5.66-.92c2.91-1.36,12.93-5.67,14.82-5.08,1.88,.59,8.03,4.06,9.48,4.72,1.45,.66,4.01,4.04,4.01,4.04-1.06,1.07-4.8-1.39-6.46-1.34-1.67,.05-13.99,6.78-17.65,6.92-3.66,.15-9.37-.6-9.37-.6l-.47-7.74Z"/>
    <path class="cls-5" d="M461.37,710.71c.03,.2,4.51,5.18,7.91,3.6l-3.74-3.69-4.18,.09Z"/>
    <path class="cls-5" d="M444.7,709.25s4.01-3.71,5.34-5.5c0,0,.8,.37,.83,1.04,.05,1.13-1.05,3.2-1.05,3.2l-5.13,1.25Z"/>
  </g>
  <path class="cls-3" d="M365.79,620.99c-22.05-13.43-48.07,10.03-37.13,33.41,12.69,27.11,33.81,60.18,50.59,62.13,11.96,1.39,46.15,5.78,60.63,3.08,0,0,7.01,.34,3.21-10.95,0,0-46.78-13.04-54.55-23.15-4.16-5.42-11.26-16.39-22.23-64.21-.05-.19-.34-.21-.51-.32Z"/>
  <path class="cls-4" d="M958.62,912.9h.24c1.39,0,2.51-1.15,2.48-2.54l-3.76-163.03-11.08-1.29,9.45,164.34c.08,1.42,1.26,2.53,2.68,2.53Z"/>
  <g>
    <path class="cls-4" d="M413.86,912.9h-.24c-1.39,0-2.51-1.15-2.48-2.54l3.76-163.03,11.08-1.29-9.45,164.34c-.08,1.42-1.26,2.53-2.68,2.53Z"/>
    <rect class="cls-4" x="395.34" y="730.66" width="580.38" height="19.67" rx=".91" ry=".91"/>
  </g>
  <path class="cls-13" d="M875.11,333.5c0,13.65,4.84,26.18,12.89,35.95,6.96,8.45,10.83,19.03,10.83,29.98v15.79c0,10.04,8.22,18.25,18.25,18.25h29.21c10.04,0,18.25-8.22,18.25-18.25v-15.82c0-10.97,3.93-21.54,10.89-30.02,8.09-9.85,12.92-22.47,12.83-36.23-.18-31.21-25.37-56.24-56.58-56.24-3.47,0-6.86,.31-10.16,.91-.73,.13-1.46,.28-2.18,.44-25.32,5.63-44.25,28.22-44.25,55.23Z"/>
  <path class="cls-12" d="M946.2,433.48l-.06,.49-.8,6.15-.21,1.62h0s-.21,1.65-.21,1.65l-.8,6.15-.21,1.62h0s-.21,1.65-.21,1.65l-.12,.9c-.41,3.12-3.97,5.5-8.24,5.5h-9.61c-1.02,0-1.99-.13-2.89-.38h0c-.81-.22-1.57-.54-2.24-.93l-.05-.03c-.55-.32-1.04-.69-1.46-1.11-.86-.85-1.43-1.87-1.59-2.99l-.34-2.38-.22-1.5h0s0-.04,0-.04h0s-.21-1.47-.21-1.47l-.82-5.7-.21-1.5v-.03s-.22-1.48-.22-1.48l-.88-6.18h31.63Z"/>
  <g>
    <path class="cls-13" d="M942.38,433.48h-5.43c-8.77,2.54-17.46,5.04-21.49,6.18l.21,1.48v.03s.22,1.5,.22,1.5c3.26-.9,11.1-3.15,30.25-8.7l.06-.49h-3.81Z"/>
    <path class="cls-13" d="M916.91,449.84h0s0,.04,0,.04h0s.22,1.51,.22,1.51c3.77-1.06,11.56-3.29,27.77-7.99l.21-1.63h0s.21-1.63,.21-1.63c-10.25,2.97-22.65,6.55-28.63,8.25l.21,1.47Z"/>
    <path class="cls-13" d="M920.52,457.87l.05,.03c.67,.39,1.43,.71,2.24,.93h0c4.45-1.27,11.05-3.18,20.86-6.02l.21-1.63h0s.21-1.63,.21-1.63c-8.77,2.54-18.83,5.44-25.04,7.22,.42,.41,.91,.79,1.46,1.11Z"/>
  </g>
  <rect class="cls-2" x="914.14" y="360.58" width="2.56" height="73.42" transform="translate(-53.5 158.48) rotate(-9.61)"/>
  <rect class="cls-2" x="911.01" y="396.58" width="72.43" height="2.56" transform="translate(385.36 1257.99) rotate(-79.63)"/>
  <path class="cls-2" d="M938.45,374.23c-.33,0-.69-.04-1.1-.13-.69-.16-1.12-.63-1.25-1.37-.29-1.6,.96-4.53,2.72-7.02-.92-1.61-2.15-2.93-3.43-3.32-1.9-.58-4.81,1.18-6.84,3.42,.37,.53,.71,1.07,1,1.63,1.04,1.96,1.79,4.48,.76,5.64-.38,.43-1.15,.82-2.69,.24-1.92-.72-2.61-2.35-1.89-4.46,.35-1.03,1-2.11,1.82-3.11-1.57-2.05-3.67-3.61-5.74-3.35-1.11,.14-2.05,.53-2.84,1.07,1.32,2.46,1.63,5.59,.71,7.27-.63,1.14-1.72,1.5-3.08,1.02-.98-.35-1.49-1.69-1.3-3.42,.19-1.77,1.08-3.72,2.66-5.06-.41-.64-.9-1.21-1.47-1.65-3.57-2.77-6.52,.2-6.64,.33l-.56-.54s3.57-3.59,7.67-.4c.62,.48,1.16,1.1,1.61,1.79,.87-.6,1.92-1.02,3.14-1.17,2.32-.29,4.64,1.35,6.36,3.53,2.21-2.4,5.36-4.17,7.55-3.51,1.39,.42,2.7,1.76,3.7,3.41,.93-1.21,1.97-2.26,2.98-2.93,1.62-1.07,2.67-.82,3.27-.43,.61,.4,1.14,.95,1.57,1.57,.49-.39,1-.72,1.5-.97,1.87-.93,3.59-.86,4.84,.19l-.5,.59c-1.35-1.14-3.08-.55-4-.09-.5,.25-.99,.57-1.44,.93,1.25,2.25,1.49,5.18,.77,6.6-.45,.89-1.25,1.2-2.19,.86-1.69-.62-2.11-1.79-2.15-2.65-.09-1.66,1.06-3.55,2.56-4.95-.39-.58-.85-1.08-1.4-1.44-.73-.48-1.72-.03-2.41,.43-1.01,.67-2.06,1.76-2.99,3.01,1.16,2.21,1.76,4.79,1.32,6.45-.21,.81-.83,2.01-2.59,2.01Zm.77-7.77c-1.53,2.24-2.61,4.76-2.37,6.12,.08,.43,.29,.67,.66,.76,1.52,.34,2.45-.1,2.77-1.32,.37-1.41-.12-3.61-1.07-5.56Zm-11.2-.06c-.71,.88-1.27,1.81-1.56,2.69-.59,1.73-.11,2.9,1.43,3.48,.62,.23,1.44,.42,1.83-.03,.61-.69,.25-2.65-.87-4.76-.25-.47-.53-.93-.83-1.38Zm-9.68-2.45c-1.35,1.21-2.11,2.91-2.28,4.46-.14,1.32,.18,2.4,.79,2.61,.98,.35,1.71,.13,2.14-.66,.79-1.44,.5-4.2-.65-6.41Zm28.58,.49c-1.35,1.29-2.26,2.95-2.19,4.23,.05,.93,.61,1.59,1.65,1.97,.57,.21,.96,.06,1.23-.48,.6-1.19,.34-3.73-.69-5.71Z"/>
  <rect class="cls-13" x="259.48" y="479.16" width="9.44" height="34.74"/>
  <path class="cls-4" d="M267.74,475.72h-6.65c-.65,0-1.18-.53-1.18-1.18h0c0-.65,.53-1.18,1.18-1.18h6.65c.65,0,1.18,.53,1.18,1.18h0c0,.65-.53,1.18-1.18,1.18Z"/>
  <rect class="cls-13" x="243.2" y="451.88" width="9.44" height="62.02"/>
  <path class="cls-4" d="M251.25,449.31h-6.65c-.65,0-1.18-.53-1.18-1.18h0c0-.65,.53-1.18,1.18-1.18h6.65c.65,0,1.18,.53,1.18,1.18h0c0,.65-.53,1.18-1.18,1.18Z"/>
  <rect class="cls-4" x="227.6" y="408.69" width="9.44" height="105.21"/>
  <path class="cls-4" d="M235.65,405.82h-6.65c-.65,0-1.18-.53-1.18-1.18h0c0-.65,.53-1.18,1.18-1.18h6.65c.65,0,1.18,.53,1.18,1.18h0c0,.65-.53,1.18-1.18,1.18Z"/>
  <rect class="cls-4" x="211.59" y="427.78" width="9.44" height="86.12"/>
  <path class="cls-4" d="M219.63,425.48h-6.65c-.65,0-1.18-.53-1.18-1.18h0c0-.65,.53-1.18,1.18-1.18h6.65c.65,0,1.18,.53,1.18,1.18h0c0,.65-.53,1.18-1.18,1.18Z"/>
  <rect class="cls-13" x="195.98" y="379.99" width="9.44" height="133.91"/>
  <path class="cls-4" d="M204.03,377.43h-6.65c-.65,0-1.18-.53-1.18-1.18h0c0-.65,.53-1.18,1.18-1.18h6.65c.65,0,1.18,.53,1.18,1.18h0c0,.65-.53,1.18-1.18,1.18Z"/>
  <rect class="cls-13" x="180.79" y="400.91" width="9.44" height="113"/>
  <path class="cls-4" d="M188.84,398.5h-6.65c-.65,0-1.18-.53-1.18-1.18h0c0-.65,.53-1.18,1.18-1.18h6.65c.65,0,1.18,.53,1.18,1.18h0c0,.65-.53,1.18-1.18,1.18Z"/>
  <g>
    <polygon class="cls-10" points="884.28 730.66 806.47 730.66 783.07 672.45 860.76 672.45 884.28 730.66"/>
    <polygon class="cls-10" points="805.56 728.39 908.31 728.39 908.31 730.66 806.47 730.66 805.56 728.39"/>
  </g>
  <path class="cls-2" d="M826.11,701.56c-.59-2.05,.6-3.7,2.64-3.7s4.18,1.66,4.77,3.7c.59,2.05-.6,3.7-2.64,3.7s-4.18-1.66-4.77-3.7Z"/>
  <path class="cls-5" d="M1081.22,912.94v.56c0,.9-.53,1.64-1.18,1.64H43.01c-.65,0-1.18-.74-1.18-1.64v-.56c0-.9,.53-1.64,1.18-1.64H1080.04c.65,0,1.18,.74,1.18,1.64Z"/>
  <ellipse class="cls-11" cx="450.87" cy="265.22" rx="116.16" ry="82.63" transform="translate(-55.48 396.5) rotate(-45)"/>
  <path class="cls-11" d="M325.82,280.69c3.98,19.65-5.22,38.09-20.53,41.19-15.32,3.1-30.96-10.32-34.94-29.97-3.98-19.65,5.22-38.09,20.53-41.19,15.32-3.1,30.96,10.32,34.94,29.97Z"/>
</svg>