<?xml version="1.0" encoding="UTF-8"?>
<svg id="OBJECTS" xmlns="http://www.w3.org/2000/svg" xmlns:xlink="http://www.w3.org/1999/xlink" viewBox="0 0 1080 1080">
  <defs>
    <style>
      .cls-1 {
        stroke: #7e3221;
        stroke-width: 4px;
      }

      .cls-1, .cls-2, .cls-3, .cls-4, .cls-5, .cls-6, .cls-7, .cls-8, .cls-9, .cls-10, .cls-11, .cls-12 {
        fill: none;
      }

      .cls-1, .cls-2, .cls-3, .cls-4, .cls-5, .cls-6, .cls-7, .cls-8, .cls-9, .cls-10, .cls-12 {
        stroke-miterlimit: 10;
      }

      .cls-13 {
        fill: #fae5db;
      }

      .cls-14 {
        fill: #fff;
      }

      .cls-15 {
        fill: #fffffd;
      }

      .cls-16 {
        fill: #da4b27;
      }

      .cls-2 {
        stroke: #582e21;
        stroke-width: 5px;
      }

      .cls-17 {
        fill: #f2e4e7;
      }

      .cls-18 {
        clip-path: url(#clippath-2);
      }

      .cls-19 {
        fill: #ac6a51;
      }

      .cls-3, .cls-7, .cls-9 {
        stroke: #130e0e;
      }

      .cls-4 {
        stroke: #8b3c1f;
      }

      .cls-4, .cls-7, .cls-8, .cls-10, .cls-12 {
        stroke-width: .5px;
      }

      .cls-5, .cls-6, .cls-10 {
        stroke: #010101;
      }

      .cls-20 {
        fill: #e85224;
      }

      .cls-6 {
        stroke-width: 3px;
      }

      .cls-21 {
        fill: #9f3e25;
      }

      .cls-22 {
        fill: #fdefea;
      }

      .cls-23 {
        clip-path: url(#clippath-1);
      }

      .cls-24 {
        fill: #f5cabf;
      }

      .cls-25 {
        fill: #431514;
      }

      .cls-26 {
        opacity: .69;
      }

      .cls-26, .cls-27 {
        fill: #eb5628;
      }

      .cls-8 {
        stroke: #fff;
      }

      .cls-9 {
        stroke-width: 2px;
      }

      .cls-28 {
        fill: #8b3c1f;
      }

      .cls-29 {
        fill: #ac4e3e;
      }

      .cls-30 {
        clip-path: url(#clippath);
      }

      .cls-31 {
        fill: #2a150d;
      }

      .cls-32 {
        fill: #582e21;
      }

      .cls-33 {
        fill: #bb8665;
      }

      .cls-34 {
        fill: #ad686a;
      }

      .cls-35 {
        fill: #893423;
      }

      .cls-36 {
        fill: #7e3221;
      }

      .cls-37 {
        fill: #f6cabe;
      }

      .cls-12 {
        stroke: #f47b47;
      }

      .cls-38 {
        fill: #010101;
      }

      .cls-39 {
        fill: #130e0e;
      }
    </style>
    <clipPath id="clippath">
      <path class="cls-11" d="M659.62,444.97c2.64-.48,5.2-1.43,7.53-2.75,5.4-3.06,9.59-7.91,12.82-13.2,.93-1.63,1.75-3.18,2.4-4.95,.1-.28,.2-.59,.09-.86-.12-.27-.41-.41-.69-.52-2.02-.77-4.24-.79-6.39-1.04-2.15-.25-4.4-.83-5.88-2.41-1.65-1.76-2.31-4.97-3.02-7.22-.89-2.8-1.46-5.71-1.58-8.64-.14-3.55,2.64-10.23-.09-13.18-2.36-2.55-7.71-2.99-10.83-2.41-4.24,.79-8.3,3.14-10.52,6.83-2.24,3.73-2.34,8.21-1.89,12.41,.39,3.61,2.17,8.23,.66,11.73-1.08,2.51-5.58,3.3-8.14,3.68-.5,.08-1.18,.36-1.03,.85,1.26,4.3,3.12,8.57,5.78,12.34,2.62,3.73,6.14,6.95,10.41,8.54,3.3,1.23,6.9,1.42,10.38,.78Z"/>
    </clipPath>
    <clipPath id="clippath-1">
      <path class="cls-11" d="M219.62,454.99c.05-.23,.06-.46,.09-.7-1.52-5.47-9.36-5.38-13.76-7.68-.89-.47-1.65-1.05-2.3-1.7-.09-.09-.18-.17-.26-.26-1.38-1.5-2.23-3.4-2.55-5.56-1.34-8.81,3.21-16.75,7.12-24.49-.12-.21-.27-.41-.46-.6-.99-.95-2.53-.92-3.9-.94-5.13-.06-9.93-1.68-14.09-4.65-1.98-1.41-3.77-3.08-5.47-4.82-.97-.99-2.76-4.45-4.25-4.58-.14-.01-.25,.06-.37,.11-1.75,7.01-1.89,13.57-6.12,19.85-1.6,2.38-3.49,4.49-5.73,6.04-1.18,1.13-2.61,1.95-4.58,2.28-.5,.08-1.01,.12-1.52,.14-.21,.03-.4,.09-.62,.11-.25,.02-.45-.04-.63-.13-3.18-.14-6.45-.89-8.9,.98-1.15,.88-1.87,2.21-2.43,3.54-4.14,9.85-1.23,22.67,4,31.53,3.99,6.75,10.98,12.99,18.6,15.11,7.25,2.02,14.81,.31,21.71-2.19,3.02-1.1,5.9-2.19,8.66-3.46,8.31-3.82,15.47-8.07,17.65-17.48,.04-.16,.07-.32,.1-.48Z"/>
    </clipPath>
    <clipPath id="clippath-2">
      <path class="cls-11" d="M183.06,681c-12.75-2.45-25.32-5.82-37.57-10.1-28.52-9.96-51.49-39.9-60.58-67.88-9.55-29.39-13.02-66.63-7.94-97.04,3.27-19.59,14.48-39.54,33.3-45.87,13.54-4.56,28.44-1.33,41.93,3.39,18.18,6.36,28.49,15.28,36.43,32.59,8.51,18.55,14.76,38.18,25.41,55.7,14.97,24.64,38.39,44.03,65.38,54.16,17.74,6.65,52.38,11.4,45.5,37.54-7.49,28.45-37.48,38.22-63.87,40.94-25.97,2.68-52.33,1.49-77.97-3.43Z"/>
    </clipPath>
  </defs>
  <path class="cls-26" d="M1000.44,717.92c-45.66,85.9-125.28,143.79-204.12,196.29-84.03,55.96-221.18,38.25-316.36,36.23-94.78-2.01-190.62-16.4-276.77-57.75-40.39-19.39-78.3-44.6-109.41-76.85C36.72,756.7,4.87,674.74,3.71,592.57c-1.16-82.17,27.69-163.92,77.56-229.24,30.29-39.69,67.75-73.23,105.03-106.44,33.92-30.22,68.14-60.57,107.1-83.93,75.73-45.41,167.7-62.12,255.04-49.09,87.34,13.03,169.64,55.22,233.26,116.45,34.05,32.77,62.86,70.72,97.64,102.71,43.52,40.02,96.8,71.26,128.51,121.16,47.57,74.87,34.23,175.4-7.4,253.73Z"/>
  <g>
    <rect class="cls-14" x="307.84" y="219.6" width="228.03" height="122.91"/>
    <rect class="cls-14" x="307.84" y="353.89" width="228.03" height="154.71"/>
    <rect class="cls-14" x="550.12" y="219.6" width="255.59" height="122.91"/>
    <rect class="cls-14" x="550.12" y="353.89" width="255.59" height="154.71"/>
  </g>
  <g>
    <g>
      <line class="cls-5" x1="328.97" y1="153" x2="328.97" y2="241.48"/>
      <path class="cls-16" d="M382.87,282.68h-107.8c0-27.28,24.07-46.79,53.9-49.39h0c29.77,0,53.9,22.11,53.9,49.39h0Z"/>
    </g>
    <g>
      <line class="cls-5" x1="488.65" y1="120.38" x2="488.65" y2="241.48"/>
      <path class="cls-16" d="M542.54,282.68h-107.8c0-27.28,24.07-46.79,53.9-49.39h0c29.77,0,53.9,22.11,53.9,49.39h0Z"/>
    </g>
    <g>
      <line class="cls-5" x1="648.32" y1="153" x2="648.32" y2="241.48"/>
      <path class="cls-16" d="M702.22,282.68h-107.8c0-27.28,24.07-46.79,53.9-49.39h0c29.77,0,53.9,22.11,53.9,49.39h0Z"/>
    </g>
  </g>
  <g>
    <path class="cls-13" d="M839.43,673.58H184.13c-8.13,0-14.72,6.59-14.72,14.72h0c0,8.13,6.59,14.72,14.72,14.72H839.43c8.13,0,14.72-6.59,14.72-14.72h0c0-8.13-6.59-14.72-14.72-14.72Z"/>
    <rect class="cls-13" x="222.91" y="635.24" width="684.73" height="29.43" rx="14.72" ry="14.72"/>
    <path class="cls-13" d="M932.05,739.99H94.03c-8.13,0-14.72-6.59-14.72-14.72h0c0-8.13,6.59-14.72,14.72-14.72H932.05c8.13,0,14.72,6.59,14.72,14.72h0c0,8.13-6.59,14.72-14.72,14.72Z"/>
    <path class="cls-13" d="M952.57,776.95H114.56c-8.13,0-14.72-6.59-14.72-14.72h0c0-8.13,6.59-14.72,14.72-14.72H952.57c8.13,0,14.72,6.59,14.72,14.72h0c0,8.13-6.59,14.72-14.72,14.72Z"/>
    <path class="cls-13" d="M911.52,813.92H73.51c-8.13,0-14.72-6.59-14.72-14.72h0c0-8.13,6.59-14.72,14.72-14.72H911.52c8.13,0,14.72,6.59,14.72,14.72h0c0,8.13-6.59,14.72-14.72,14.72Z"/>
    <path class="cls-13" d="M891,850.89H94.03c-8.13,0-14.72-6.59-14.72-14.72h0c0-8.13,6.59-14.72,14.72-14.72H891c8.13,0,14.72,6.59,14.72,14.72h0c0,8.13-6.59,14.72-14.72,14.72Z"/>
    <rect class="cls-13" x="182.25" y="858.42" width="698.6" height="29.46" rx="14.72" ry="14.72"/>
    <path class="cls-13" d="M133.04,910.11h0c0,8.13,6.59,14.72,14.72,14.72H834.25c8.13,0,14.72-6.59,14.72-14.72h0c0-8.13-6.59-14.72-14.72-14.72H147.75c-8.13,0-14.72,6.59-14.72,14.72Z"/>
    <path class="cls-13" d="M367.94,945.71h0c0,8.13,6.59,14.72,14.72,14.72H968.53c8.13,0,14.72-6.59,14.72-14.72h0c0-8.13-6.59-14.72-14.72-14.72H382.66c-8.13,0-14.72,6.59-14.72,14.72Z"/>
  </g>
  <path class="cls-29" d="M857.95,447.78c5.77-7.93,12.37-15.46,18.24-21.8,12.63-13.63,27.36-24.68,42.78-33.97,8.3,30.6,.25,64.43-15.07,91.43-9.78,17.25-22.34,32.24-35.68,46.09-7.47,7.75-15.26,14.84-23.01,22.4-.66,.65-1.57,1.33-2.35,.86-.6-.36-.75-1.22-.84-1.98-3.52-28.85-6.74-59.89,5.36-85.68,2.71-5.79,6.43-11.67,10.57-17.36Z"/>
  <path class="cls-29" d="M746.09,482.19c.15,19.56,.58,39.41,5.61,58.14,5.03,18.73,15.29,36.52,30.78,45.62,8.4,4.94,17.84,7.1,26.77,10.69,8.96,3.61,16.9,9.03,22.31,17.91,2.82-26.65-9.09-55.34-21.87-77.1-15-25.54-37.54-45.74-63.61-55.27Z"/>
  <path class="cls-29" d="M891.35,540.35c22.15-16.5,48.66-23.73,74.64-30.23-7.6,23.7-15.56,48.07-30.75,66.65-14.18,17.35-33.88,28.36-54.41,33.42-3.88,.96-28.12,11.37-29.65,10.42-3.78-2.34,2.16-17.45,3.01-21.06,5.86-24.8,17.82-44.8,37.16-59.2Z"/>
  <path class="cls-15" d="M915.6,555.95c-11.5,11.51-24.88,23.92-36.9,34.87-20.74,18.07-28.74,27.4-33.51,55.34-1.06,5.52-1.73,11.12-2.61,16.7,0,0-.2-.02-.2-.02,1.91-23.27,4.47-45.26,22.55-62.04,7.05-6.85,17.8-15.93,25.2-22.59,.06,.2,25.46-22.99,25.48-22.26h0Z"/>
  <path class="cls-15" d="M797.94,541.37c24,33.41,42.18,68.71,38.61,111-.75,13.23-1.96,26.39-.3,39.59-2.94-12.47-1.51-26.61-1.25-39.64,2.71-43.62-15.2-75.58-37.06-110.95h0Z"/>
  <path class="cls-15" d="M873.78,472.68c-13.02,32.34-27.17,65.01-30.58,100.04-2,17.39-1.83,34.99-2.44,52.5-.47,15.39-1.21,37.51-2.08,52.7,0,0-.2,0-.2,0,.87-31.21-.12-74.76,2.73-105.41,3.74-34.98,17.86-68.62,32.57-99.83h0Z"/>
  <path class="cls-19" d="M815.06,707.89h47.91c3.91-13.43,11.95-57.16,11.95-57.16h-73.09s9.22,43.31,13.22,57.16Z"/>
  <path class="cls-20" d="M584.92,672.51c-.14-.65-.26-1.34-.32-2.14-.98-12.21,14.28-13.84,23.12-14.9,10.6-1.27,23.72-2.05,30.3-11.8,8.04-11.91,8.81-29.11,9.48-42.93,.59-12.37,1.21-25.09,6.37-36.35,11.23-24.47,44.75-25.16,68.15-25.02,14.28,.09,29.33,2.35,40.51,11.24,8.95,7.13,14.46,17.87,17.3,28.96,2.84,11.09,3.24,22.63,3.59,34.07,.67,21.94-2.82,58.67-32.39,58.7l-166.1,.17Z"/>
  <path class="cls-39" d="M600.99,788.1c-1.11,.68-2.25,1.33-3.37,1.97-9.73,5.53-19.46,11.06-29.19,16.58-3.13,1.78-6.45,3.61-10.09,3.68-3.64,.07-7.6-2.35-7.76-5.84-.14-3.13,2.61-5.61,5.12-7.61,6.95-5.52,14.45-10.93,19.72-18.07,7.33-9.93,4.34-14.33-.2-24.29-1.48-3.26-.91-7.04,.12-10.46,.61-2.02,1.41-4.05,2.9-5.59,3.95-4.05,11.36-2.87,15.53,.96,5.58,5.12,8.46,14.67,12,21.26,3.35,6.24,7.64,14.76,2.57,21.28-1.96,2.52-4.58,4.43-7.36,6.13Z"/>
  <path class="cls-39" d="M472.82,797.29c-3.46,6.81-7.88,5.89-14.54,4.22-12.23-3.06-24.46-6.13-36.7-9.19-3.6-.9-7.26-1.83-10.43-3.76-10.09-6.12-5.23-13.87,4.67-14.66,7.95-.63,15.93-.76,23.9-.38,3.2,.15,6.48,.37,9.54-.59,2.68-.85,5.01-2.57,7.19-4.36,5.76-4.75,13.5-18.34,22.31-16.22,3.71,.89,6.22,4.69,6.63,8.52,1.03,9.74-5.57,20.69-9.44,29.1-1,2.18-1.89,4.92-3.11,7.31Z"/>
  <path class="cls-22" d="M568.89,757.33c5.36,3.48,12.45,4.62,22.19,1.97,8.97-2.44,16.72-9.98,18.11-19.18,1.85-12.22-5.13-27.21-8.05-38.97-3.59-14.46-7.4-28.87-11.22-43.27-5.26-19.88-13.44-48.24-28.1-63.74-10.34-10.93-34.13-13.8-41.91,1.66-4.68,9.3-3.45,20.4-1.4,30.61,6.03,30.04,18.08,58.34,28.91,86.85,5.82,15.33,9.04,36,21.46,44.07Z"/>
  <path class="cls-17" d="M518.89,469.34c-.76-.41-1.54-.79-2.35-1.12-3.97-1.61-8.31-1.92-12.5-2.56-5.16-.78-10.68-2.35-13.77-6.56-.99-1.34-1.69-3.06-1.2-4.66,.81-2.65,3.33-2.44,5.43-1.98,3.46,.75,7.02,1.19,10.51,1.78,1.45,.25,6.65,2.11,6.99-.45,.1-.79-.32-1.56-.85-2.16-.53-.6-1.17-1.1-1.64-1.74-.08-.11-.16-.23-.17-.36-.03-.33,.32-.57,.64-.65,1.65-.43,3.1,.81,4.46,1.49,1.63,.82,3.24,1.5,4.78,2.5,3.16,2.06,5.97,4.59,9.13,6.65,2.65,1.73,5.52,3.11,8.16,4.86,1.85,1.23,3.62,2.67,4.84,4.52,1.23,1.85,1.87,4.18,1.37,6.34-.66,2.84-3.46,5.37-6.32,4.6-3.4-.92-6.65-3.05-9.49-5.07-2.63-1.87-5.17-3.91-8.01-5.45Z"/>
  <path class="cls-35" d="M588.77,480.59c-5.59,6.99-14.91,13.03-16.56,22.35-.82,4.64,6.59,11.27,10.17,14.32,11.87,10.12,21.43-1.49,30.45-10.41,9.5-9.39,16.24-21.1,23.23-32.36,.27-.43,.53-.86,.8-1.29,7.22-11.56,14.26-23.67,16.48-37.11,.47-2.83,.7-5.79-.24-8.49-3.45-9.91-20.01-4.37-26.26-.44-2.14,1.35-4.03,3.05-5.91,4.75-6.53,5.91-11.31,15.56-15.76,23.13-3.86,6.57-7.61,13.25-11.94,19.53-1.42,2.06-2.9,4.07-4.46,6.03Z"/>
  <g>
    <path class="cls-27" d="M623.88,549.39h0c.03-.12,.06-.25,.09-.38l-.08,.38Z"/>
    <polygon class="cls-27" points="644.91 449.4 644.5 451.35 644.5 451.35 644.91 449.4"/>
    <path class="cls-27" d="M624.21,547.91c-.07,.38-.16,.74-.26,1.1l.3-1.42c-.02,.1-.02,.21-.04,.31Z"/>
  </g>
  <path class="cls-22" d="M517.41,604.97c.12-2.56,.66-5.07,1.64-7.37,4.14-9.68,13.81-17.27,23.16-21.27,27.58-11.78,59.17-12.56,88.66-14.62,7.68-.54,15.59-.62,22.82,2.01,13.1,4.78,27.35,22.01,26.95,36.46-.39,14.01-9.95,28.57-25.06,29.03-.33,.01-.66-.02-.99-.01-22.55,.12-45.1,.25-67.65,.37-10.71,.06-21.39,1.14-32.1,1.24-8.42,.08-18.96,1.62-26.43-3.19-7.15-4.6-11.42-13.96-11-22.64Z"/>
  <path class="cls-35" d="M619.96,438.23c2.39-15.55,17.5-17.52,31.08-17.95,12.98-.42,26.12,.18,38.82,5.14,13.96,5.45,26.98,15.94,33.86,29.36,7.22,14.11,.82,31.69,.69,46.37-.25,28.11,.32,56.3,1.72,84.53-13.87-.63-27.72-.74-41.61-1.46-11.16-.57-22.36-1.07-33.41-2.83-5.78-.92-15.56-.32-19.45-5.67-1.99-2.73-1.6-6.75-1.66-9.92-.11-5.5-.14-11.02-1.21-16.44-2.01-10.18-1.54-19.77-3.27-30.09-4.42-26.35-8.68-53.17-5.71-79.94,.04-.37,.09-.74,.15-1.1Z"/>
  <path class="cls-27" d="M538.4,620.57c16.92-11.28,85.21-27.85,94.52-31.51,18.43-7.25,38.74-10.29,58.44-7.69,16.7,2.2,34.22,5.03,38.36,23.87,2.67,12.15-2.3,25.04-12.44,32.25-4.85,3.44-10.15,3.94-13.7,8.89-4.3,6-9.62,8.72-16.74,10.4-20.95,4.95-42.83,3.28-64.3,4.95-7.99,.62-15.93,1.71-23.85,2.97-10.6,1.68-21.15,3.67-31.63,5.96-6.27,1.37-13.03,1.41-19.18,3.04-.35,.09-.68,.21-1.04,.28-.84,.18-1.68,.32-2.53,.42-12.32,1.4-22.23-5.77-24.95-18.14-2.98-13.54,4.76-26.18,19.04-35.7Z"/>
  <path class="cls-27" d="M556.79,613.8c-11.52,3.58-23,8.18-32.1,16.3-3.4,3.04-6.39,6.51-9.21,10.1-9.44,11.99-17.37,25.39-25.52,38.28-8.5,13.44-15.42,27.9-23.97,41.35-7.34,11.55-14.37,24.46-13.14,38.1,.22,2.41,.77,4.94,2.42,6.71,1.31,1.4,3.16,2.15,4.95,2.86,6.08,2.41,12.17,4.82,18.25,7.23,6.4,2.54,16.1,3.97,21.67-1.04,3.58-3.22,5.6-7.78,7.55-12.18,10.95-24.62,23.33-48.71,38.81-70.77,4.43-6.31,9.3-12.62,16-16.45,5.86-3.35,14.56-4.58,19.06-9.98,4.29-5.15,4.98-14.63,5.25-21.02,.08-1.97,.04-3.95-.3-5.89-.69-3.93-2.77-6.59-4.63-9.95-2.4-4.35-4.45-9.02-7.78-12.77-1.34-1.51-3.56-3.89-5.72-4.15-2.49-.3-6.64,1.8-9.06,2.52-.85,.25-1.69,.51-2.54,.77Z"/>
  <path class="cls-37" d="M659.62,444.97c2.64-.48,5.2-1.43,7.53-2.75,5.4-3.06,9.59-7.91,12.82-13.2,.93-1.63,1.75-3.18,2.4-4.95,.1-.28,.2-.59,.09-.86-.12-.27-.41-.41-.69-.52-2.02-.77-4.24-.79-6.39-1.04-2.15-.25-4.4-.83-5.88-2.41-1.65-1.76-2.31-4.97-3.02-7.22-.89-2.8-1.46-5.71-1.58-8.64-.14-3.55,2.64-10.23-.09-13.18-2.36-2.55-7.71-2.99-10.83-2.41-4.24,.79-8.3,3.14-10.52,6.83-2.24,3.73-2.34,8.21-1.89,12.41,.39,3.61,2.17,8.23,.66,11.73-1.08,2.51-5.58,3.3-8.14,3.68-.5,.08-1.18,.36-1.03,.85,1.26,4.3,3.12,8.57,5.78,12.34,2.62,3.73,6.14,6.95,10.41,8.54,3.3,1.23,6.9,1.42,10.38,.78Z"/>
  <path class="cls-37" d="M655.71,410.99c7.5-1.26,7.95-5.74,10.69-13.96l6.19-15.17c1.75-8.37-3.62-16.57-11.99-18.32h0c-7.11-1.49-17.16-6.1-22.87,.33-2.11,2.37-3.3,5.42-4.22,8.46-2.24,7.34-4.96,18.42-2.43,25.9,3.27,9.65,14.91,14.38,24.63,12.75Z"/>
  <path class="cls-39" d="M666.63,356.36c-.35-.13-.72-.24-1.08-.34-1.91-.49-3.92-.42-5.89-.56-4.6-.33-9.04-1.81-13.61-2.49-7.03-1.04-17.58,1.66-17.65,10.7-.02,2.75,1.56,5.33,3.69,7.07,2.14,1.73,4.78,2.72,7.43,3.45,6.24,1.73,12.82,2.2,19.24,1.39-2.48,.31,5.53,11.54,5.74,12.04,1.52,3.67,.58,9.43,.27,13.29,1.46,.03,2.85-.64,4.03-1.48,11.19-8.01,11.53-26.94,4.45-37.53-1.63-2.43-3.9-4.53-6.63-5.54Z"/>
  <path class="cls-25" d="M532.04,460.66c6.63,2.48,13.25,4.97,19.88,7.45,14.35,5.37,28.83,10.82,41.61,19.27,7.54,4.99,16.69,20.64,9.11,29.34-.85,.98-1.96,1.71-3.13,2.28-4.29,2.1-9.39,2.14-13.98,.83-3.75-1.07-7.2-2.98-10.38-5.21-3.06-2.15-6.5-3.8-9.66-5.86-7.34-4.78-14.66-9.92-21.79-14.89-7.67-5.35-14.18-13.86-20.78-20.5,3.34-3.97,6.26-8.29,8.69-12.87,.14,.05,.29,.11,.43,.16Z"/>
  <path class="cls-37" d="M659.44,388.65c.49,3.34,1.74,6.64,5.79,5.28,6.81-2.28,8.07-12.35,1.52-15.66-1.3-.65-2.89-.87-4.2-.25-.49,.23-.93,.57-1.31,.96-1.73,1.77-2.28,4.43-2.09,6.91,.07,.85,.15,1.81,.29,2.76Z"/>
  <path class="cls-39" d="M663.66,383.83c1.1-.21,2.33,.2,3.01,1.09,.69,.89,.77,2.22,.14,3.16-.63,.93-1.95,1.35-2.98,.89"/>
  <g>
    <path class="cls-9" d="M724.08,617.45c-19.23-17.69-39.06-27.33-66.55-24.26-31.44,3.51-64.58,31.19-50.89,68.91"/>
    <g>
      <rect class="cls-39" x="699.42" y="660" width="4.12" height="99.36"/>
      <path class="cls-3" d="M749.56,784.81c0-17.91-31.7-25.43-47.54-25.46-18.85-.04-47.53,6.91-47.53,25.46"/>
      <line class="cls-3" x1="701.5" y1="789.6" x2="701.5" y2="759.85"/>
      <path class="cls-39" d="M646.72,789.14c0,4.3,3.48,7.78,7.78,7.78s7.78-3.48,7.78-7.78-3.48-7.78-7.78-7.78-7.78,3.48-7.78,7.78Z"/>
      <path class="cls-39" d="M693.86,789.14c0,4.3,3.48,7.78,7.78,7.78s7.78-3.48,7.78-7.78-3.48-7.78-7.78-7.78-7.78,3.48-7.78,7.78Z"/>
      <path class="cls-39" d="M741,789.14c0,4.3,3.48,7.78,7.78,7.78s7.78-3.48,7.78-7.78-3.48-7.78-7.78-7.78-7.78,3.48-7.78,7.78Z"/>
    </g>
    <path class="cls-20" d="M783.42,613.64c-.77-25.13-2.58-53.99-12.52-77.33-2.87-6.74-6.53-13.35-12.07-18.14-5.55-4.79-13.29-7.51-20.36-5.6-15.58,4.2-18.12,21.1-18.12,34.36,0,19.55-.59,40.01-3.3,59.4-1.82,13-5.49,28.25-17.26,35.86-18.44,11.92-40.4,14.88-61.84,16.43-10.86,.79-21.74,1.26-32.56,2.49-2.93,.33-28.26,2.64-21.07,9.62,2.45,2.37,7.38,1.78,10.6,1.78,30.5-.03,60.99-.06,91.49-.09,21.54-.02,43.09-.04,64.63-.07,29.57-.03,33.07-36.76,32.39-58.7Z"/>
  </g>
  <path class="cls-37" d="M649.45,567.37c-3.58,.59-7.17,1.1-10.78,1.51-8.28,.95-16.45,.44-24.52-1.88-6.66,0-3.51-8.42,.08-10.2,5.71-2.82,16.08-2.02,22.43-2.76,2.38-.28,4.79-.56,7.03-1.4,11.1-4.13,22.81-7.89,32.61-14.75,10.8-7.56,32.68-35.37,47.12-19.01,1.67,1.89,2.46,4.38,3.07,6.82,.78,3.12,1.34,6.4,.68,9.55-1.08,5.17-5.25,9.12-9.62,12.07-18.77,12.66-46.17,16.43-68.1,20.03Z"/>
  <path class="cls-39" d="M696.01,352.05c2.13-5.96,.77-12.93-3.1-17.94-3.87-5.01-10.03-8.05-16.34-8.54-2.52-.2-5.09,0-7.52,.7-4.43,1.29-8.32,4.35-10.61,8.35-1.49,2.6-2.33,5.62-2.15,8.62,.44,7.5,6.84,13.25,13.38,16.95,9.56,5.41,22.3,3.19,26.35-8.14Z"/>
  <path class="cls-7" d="M621.89,497.41c-.02-10.57-.03-21.13-.05-31.7"/>
  <path class="cls-38" d="M632.54,422.75c1.12-.39,2.27-.7,3.44-.93,1.17,4.25,2.99,8.32,5.79,11.78,2.99,3.7,7.8,8.04,12.87,7.89,5.33-.15,11.29-3.39,14.88-7.19,3.65-3.87,6.07-8.56,9.44-12.58,1.27,.51,2.66,.56,4,.83,1.32,.27,2.76,.75,3.86,1.56-1.03,.72-1.59,2.65-2.25,3.73-1.03,1.66-2.1,3.3-3.23,4.89-2.19,3.08-4.61,6-7.36,8.6-4.99,4.7-13.25,8.58-20.21,8.27-6.83-.3-13.19-4.9-17.47-9.97-3.67-4.35-6.33-9.41-7.93-14.84,1.28-.87,2.74-1.52,4.19-2.03Z"/>
  <g class="cls-30">
    <path class="cls-39" d="M634.66,406.25c3.78,1.83,7.82,3.14,11.96,3.86,2.81,.49,5.88,.67,8.35-.76-4.97,3.17-10.48,6.47-16.32,5.72"/>
  </g>
  <path class="cls-35" d="M738.02,495.33c-.28-1.88-.62-3.75-1.02-5.58-4.07-18.92-10.13-38.57-24.44-51.61-9.43-8.59-25.6-12.8-27.22,4.71-.42,4.5,.8,8.98,2.04,13.33,5.15,18.07,16.11,40.64,9.33,59.73-.08,.22-.18,.43-.27,.64,3.99,1.18,7.85,2.71,11.42,4.51,7.93,3.97,14.98,9.65,19.34,17.11,11.23-11.42,13.04-27.74,10.8-42.84Z"/>
  <path class="cls-38" d="M728.25,532.99c-1.21-1.35-2.46-2.59-3.82-3.76-3.04-2.62-6.19-5.1-9.48-7.36-3.01-2.07-6.13-3.96-9.33-5.67-1.56-.83-3.14-1.61-4.73-2.35-.8-.37-1.69-.74-2.57-1.04-2.29,2.62-4.7,5.12-7.3,7.37,.08,.12,.15,.24,.23,.36,1.49,1.95,3.32,2.85,5.47,3.79,.36,.16,.72,.3,1.08,.46,.18,.08,.29,.12,.4,.17,.04,.02,.1,.05,.2,.09,.8,.37,1.6,.75,2.39,1.14,3.17,1.56,6.26,3.3,9.25,5.21,2.9,1.85,5.72,3.87,8.42,6.04,2.15,1.72,4.89,4.31,7.83,5.43,1.59-1.85,3.26-3.61,5.03-5.28-.61-1.72-1.96-3.35-3.07-4.59Z"/>
  <path class="cls-7" d="M699.85,513.11c2.47-4.67,2.75-10.26,1.81-15.46-.94-5.2-3.01-10.12-5.07-14.99"/>
  <path class="cls-7" d="M634.96,393.75c.66,2.4,3.07,3.98,5.52,4.41,2.45,.43,4.96-.06,7.39-.56"/>
  <path class="cls-6" d="M120.69,720.25c1.3,.67,105.73,58.96,105.73,58.96"/>
  <line class="cls-6" x1="219.49" y1="712.88" x2="107.7" y2="781.89"/>
  <polyline class="cls-6" points="102.93 806.01 133.26 659.28 213.86 667.32 229.46 808.02"/>
  <path class="cls-37" d="M288.01,570.63c.1-9.11-.17-17.4,2.19-26.47,1.63-6.29,4.73-12.5,10.08-16.19,6.2-4.29,15.04-4.35,21.3-.15,6.44,4.32,9.65,12.29,10.1,20.03,.65,11.24-2.84,23.52-6.03,34.2-3.47,11.64-7.5,23.12-12.06,34.38-.04,.11-25.16-3.07-27.36-3.46,2.54-13.52,1.63-28.62,1.77-42.34Z"/>
  <path class="cls-34" d="M311.7,699.83c7.22-2.03,10.84-2.68,17.82-5.44,.01,31.78,4.48,85.37,4.33,94.51-8.97,1.01-15.99,4.32-25.06,4.42-7.11-11.02-10.01-42.2-14.03-54.25-.93-2.79-4.98-16.7-9.51-32.54,8.88-1.99,17.69-4.25,26.45-6.71Z"/>
  <path class="cls-22" d="M183.06,681c-12.75-2.45-25.32-5.82-37.57-10.1-28.52-9.96-51.49-39.9-60.58-67.88-9.55-29.39-13.02-66.63-7.94-97.04,3.27-19.59,14.48-39.54,33.3-45.87,13.54-4.56,28.44-1.33,41.93,3.39,18.18,6.36,28.49,15.28,36.43,32.59,8.51,18.55,14.76,38.18,25.41,55.7,11.48,18.89,27.92,34.7,47.13,45.61,18.21,10.34,38.55,13.37,44.93,36.66,2.56,9.34,1.54,19.59-2.67,28.32-8.37,17.33-24.68,20.23-42.39,22.06-25.97,2.68-52.33,1.49-77.97-3.43Z"/>
  <path class="cls-38" d="M295.11,636.08c10.34,2.38,20.95,3.48,31.43,5.02,5.52,.81,16.81,3.95,22.02,.1,6.59-4.88-4.2-7.73-9.09-10.46-8.41-4.7-16.93-9.18-25.41-13.75-7.83-4.22-17.88-13.23-25.87-4.52-5.14,5.6-5.72,14.54-6.31,21.72,4.48,.16,8.82,.87,13.22,1.88Z"/>
  <path class="cls-20" d="M127.89,598.81c4.78-15.09,26.42-18.55,39.78-17.48,27.79,2.23,55.67,2.91,83.31,5.17,22.52,1.84,47.02,6.71,62.51,24.66,12.65,14.67,14.69,34.86,18.28,53.25,4.17,21.4,7.23,43.03,9.17,64.75,.49,5.46,.48,11.93-3.91,15.22-2.83,2.12-6.65,2.2-10.19,2.18-7.27-.03-14.54-.06-21.81-.09-6.32-.03-13.44-.4-17.62-5.14-2.89-3.27-3.62-7.86-4.23-12.18-.8-5.67-13.25-75.74-12.52-75.84-22.82,3.62-46.08,4.52-69.11,2.67-16.28-1.31-32.84-4.12-47.04-12.18-13.73-7.79-32.13-27.52-26.6-44.98Z"/>
  <path class="cls-27" d="M121.26,592.9c.96,2.8,1.51,4.7,2.33,6.04,4.18-.06,8.37,0,12.55,.07,10.96,.17,22.01,.32,32.79-1.94,9.37-1.97,18.7-4.83,27.73-8,13.94-4.9,27.02-8.35,26-25.43-1.29-22.01-3.95-49.74,2.26-71.21,2.51-8.66,3.87-15.12,7.62-23.33,1.03-2.25,2.07-4.58,2.21-7.05,.11-1.77-.25-3.53-.67-5.25-6.94-28.17-30.49-28.51-55.48-30.72-3.87-.34-7.79-.68-11.62-.03-4.72,.81-9.06,3.09-13.16,5.55-21.9,13.14-24.56,34.32-31.15,57.13-3.29,11.39-8.45,22.17-11.76,33.56-7.05,24.31,2.45,47.63,10.33,70.61Z"/>
  <path class="cls-38" d="M340,783.76c2.69,1.5,6.71,2.4,9.59,3.27,7.45,2.24,15.16,3.51,22.51,6.1,3.85,1.36,7.53,6.18,3.34,9.59-1.83,1.49-4.29,1.86-6.63,2.13-18.63,2.15-37.47,1.11-56.2,.06-1.02-.06-2.14-.16-2.86-.87-.41-.41-.64-.96-.84-1.51-2.28-5.97-3.84-12.63-5.28-18.73,2.51-.61,5.17,.43,7.69,.63,3.27,.25,6.85,.51,9.84-1.14,4.03-2.22,7.74-5.03,10.96-8.32,.3-.31,.61-.62,1.01-.79,1.3-.53,2.58,.88,3.02,2.22,.86,2.6,.9,5.52,3.37,7.07,.16,.1,.32,.2,.49,.29Z"/>
  <path class="cls-20" d="M287.22,564.59c-.22-3.09,.02-5.96,2.91-7.05,3.99-1.5,5.34,.62,7.88-3.51,4.91-7.96,8.4-17.91,11.72-26.64,4.01-10.52,11.56-24.24,11.16-35.55-.02-.59-.07-1.21-.42-1.69-.4-.55-1.11-.78-1.77-.95-5.89-1.54-12.08-1.38-18.15-.99-40.04,2.57-62.4,45.99-81.34,75.73-2.86,4.48-19.5,26.07-23.87,25.72,15.3,1.21,27.09,8.96,41.24,13.24,8.69,2.62,18.24,10.37,26.37,11.48,2.63,.36,13.35-19.35,14.91-21.93,4.1-6.76,9.89-14.48,9.76-22.68-.02-1.61-.3-3.43-.42-5.18Z"/>
  <path class="cls-20" d="M334.96,568.36c-.84,6.21-1.74,12.41-2.67,18.59-.3,2.02-.68,4.17-2.07,5.67-2.07,2.22-5.54,2.2-8.56,1.93-10.99-.97-21.9-2.97-32.52-5.97-3.22-.91-6.61-2.03-8.74-4.62-1.88-2.28-2.48-5.33-2.87-8.25-2.86-21.14,3.9-41.79,3.61-63.03-.15-11.34,4.06-18.19,9.82-27.44,5.53-8.88,13.31-11.89,23.28-8.51,16.81,5.7,26.42,23.51,25.63,40.43-.8,17.07-2.63,34.2-4.93,51.21Z"/>
  <path class="cls-37" d="M178.53,404.17c-.16,2.05,4.12,6.73,5.43,8.2,2.08,2.34,4.5,4.15,7.42,5.3,7.61,3,15.59,3.28,21.55-3,2.83-2.98,4.76-6.7,6.37-10.48,2.46-5.76,5.88-21.64,4.33-27.71-1.41-5.5-7.31-.71-12.69-2.55-4.68-1.61-8.23-3.05-13.24-2.18-4.45,.77-8.73,2.98-11.53,6.59-.75,.97-1.43,1.96-2.06,2.94-1.48,3.14-2.84,6.34-3.82,9.67-.82,2.78-1.1,5.6-1.54,8.41-.03,1.6-.1,3.2-.23,4.79Z"/>
  <path class="cls-37" d="M175.37,440.77c4.42,3.1,9.89,5.15,15.27,5.58,1.03,.08,14.17-1.38,12.29-3.87-4.93-6.51-2.24-12.3,.85-19.37,.47-1.09,4.61-7.76,4.19-8.51-.12-.21-.27-.41-.46-.6-.99-.95-2.53-.92-3.9-.94-5.13-.06-9.93-1.68-14.09-4.65-1.98-1.41-3.77-3.08-5.47-4.82-.97-.99-2.76-4.45-4.25-4.58-.14-.01-.25,.06-.37,.11-1.75,7.01-1.89,13.57-6.12,19.85-1.6,2.38-3.49,4.49-5.73,6.04-1.15,1.1-2.55,1.91-4.46,2.25,3.01,5.33,7.19,9.93,12.25,13.48Z"/>
  <path class="cls-28" d="M178.42,402.23c1.98,.8,4.28,.46,6.18-.52,3.36-1.72,5.06-4.41,5.51-8.09,.13-1.08,.27-2.39,1.26-2.84,1.01-.45,2.1,.37,3.18,.61,2.8,.63,5.05-3.94,6.56-5.77,.51-.62,1.06-1.26,1.8-1.54,.92-.35,1.95-.08,2.91,.17,4.02,1.07,8.13,1.83,12.27,2.26,2.12,.22,4.45,.31,6.19-.92,2.4-1.69,2.7-5.25,1.76-8.03-1.44-4.28-5.07-7.5-9.04-9.67-10.28-5.62-23.69-6.26-33.24,1.07-1.23,.94-2.43,1.96-3.29,3.24-.85,1.26-1.34,2.73-1.78,4.19-1.73,5.68-8.43,22.54-.29,25.82Z"/>
  <path class="cls-27" d="M306.82,481c-7.82-11.07-18.74-19.89-30.61-26.57-11.8-6.65-24.57-11.32-37.44-15.44-11.41-3.65-23.34-10-35.63-9.02-.32,.03-.65,.08-.97,.17,.13,1.59,.21,3.18,.23,4.78,5.62,8.83,9.11,19.31,11.37,29.5,1.28,5.76,1.95,12,5.71,16.55,6.9,8.34,17.76,10.53,27.86,10.62,10.47,.09,16.71,8.27,20.5,17.68,3.54,8.8,5.12,18.42,9.82,26.66s14.02,15.07,23.21,12.71c6.9-1.78,11.67-8.19,14.29-14.82,5.92-14.97,3.45-32.46-4.37-46.53-1.21-2.17-2.53-4.27-3.96-6.29Z"/>
  <g class="cls-23">
    <path class="cls-28" d="M192.07,416.87c.2,.11,.43,.2,.68,.3,4.32,1.77,9.08,2.87,13.63,2.2,1.14,.49,.76,1.42,.19,3.1-.8,2.36-1.53,4.75-2.17,7.16-4.2-4.29-8.4-8.59-12.61-12.88,.09,.04,.19,.08,.28,.12Z"/>
  </g>
  <path class="cls-27" d="M126.24,446.79c-8.61,9.84-12.14,23.1-15.06,35.53-3.78,16.06-7.56,32.12-11.34,48.17-.89,3.77-1.78,7.57-1.89,11.44-.18,6.21,1.61,14.12,3.06,20.1,1.87,7.68,6.47,7.21,13.31,6.53,10.82-1.07,25.53-4.35,32.84-13.17,3.47-4.19,4.59-9.8,5.59-15.15,1.38-7.36,2.75-14.72,4.13-22.07,5.62-30.06,11.24-61.07,4.88-90.99-15.15,2.25-26.66,9.5-35.51,19.61Z"/>
  <path class="cls-4" d="M162.05,476.64c-12.5,3.26-11.38,19.26-12.52,29.13-1.67,14.58-4.45,29.03-8.31,43.19"/>
  <path class="cls-4" d="M294.88,511.83c-4.78,20.63-15.74,51.96-15.94,73.13"/>
  <path class="cls-14" d="M205.57,405.63c.75,1.94,2.39,3.36,4.19,3.62,1.8,.25,3.68-.67,4.8-2.34"/>
  <path class="cls-6" d="M80.05,581.17c34.63-7.86,73.69-14.3,104.86,.37,20.3,9.55,33.99,27.33,37.84,46.26,3.84,18.93-.05,35.5-11.73,52.12"/>
  <g class="cls-18">
    <path class="cls-35" d="M274.88,689.87c-5.43-1.36-10.84-2.76-16.23-4.29-11.78-3.35-23.19-7.51-34.2-12.87-21.07-10.25-41.64-22.04-59.54-37.27-16.61-14.14-31.59-30.39-43.42-48.75-5.75-8.91-10.38-18.31-14.93-27.86-4.3-9.02-8.66-18.01-12.57-27.21-6.86-16.1-13.68-34.2-13.02-52.08-.06-.18-.11-.35-.17-.54-12.22,37.18-15.71,77.85-5.53,115.65,10.18,37.79,34.86,72.33,69.55,90.47,24.25,12.68,52,16.98,79.31,18.71,13.62,.86,48.74,4.99,55.11-11.82-.93-.42-1.89-.91-2.87-1.4-.49-.25-.98-.49-1.48-.73Z"/>
  </g>
  <path class="cls-4" d="M271.42,657.78c-.95-7.18-1.16-16.07-2.1-23.24"/>
  <path class="cls-4" d="M279.42,591.9c-22.29-3.39-36.64-.42-65.34-.42"/>
  <path class="cls-4" d="M229.12,488.94c-3.35-1.76-13.16-3.4-14.85-6.79"/>
  <path class="cls-37" d="M183.39,392.86c0,3.65,2.96,6.6,6.6,6.6s6.6-2.96,6.6-6.6-2.96-6.6-6.6-6.6-6.6,2.96-6.6,6.6Z"/>
  <path class="cls-37" d="M144.2,535.69c6.71,1.47,13.29,3.61,19.87,5.6,10.45,3.16,21.04,4.99,31.66,7.81,3.02,.8,6.08,1.59,9.2,1.62,5.37,.05,10.55-2.12,15.92-2.24,7.18-.16,14.19,3.85,18.09,9.81,6.57,10.04-4.32,7.35-11.17,7.25-5.34-.08-10.68-.16-16.03-.23-11.04-.16-22.08-.32-33.12-.48-12.67,0-25.35-.37-38.02-.55-6.66-.1-13.37-.45-20.02-.29-4.8,.12-9.99,.98-14.05-2.35-2.15-1.76-3.38-4.37-4.53-6.89-.64-1.39-1.28-2.78-1.92-4.18-.74-1.62-1.5-3.27-1.73-5.03-.24-1.77,.11-3.7,1.34-4.99,.85-.9,2.03-1.41,3.18-1.86,10.3-4.1,21.46-5.6,32.52-4.43,2.97,.31,5.91,.82,8.83,1.46Z"/>
  <path class="cls-19" d="M600.77,536.19h-158.39c-2.52,0-4.69-1.8-5.15-4.28l-15.71-84.14c-.6-3.22,1.87-6.2,5.15-6.2h158.39c2.52,0,4.69,1.8,5.15,4.28l15.71,84.14c.6,3.22-1.87,6.2-5.15,6.2Z"/>
  <g>
    <path class="cls-36" d="M537.27,530.72h-40.67c-.71,0-1.32-.51-1.45-1.21l-4.01-21.49c-.17-.91,.53-1.75,1.45-1.75h40.67c.71,0,1.32,.51,1.45,1.21l4.01,21.49c.17,.91-.53,1.75-1.45,1.75Z"/>
    <rect class="cls-36" x="482.98" y="559.78" width="49.93" height="4.09"/>
    <path class="cls-1" d="M508.43,560.64c-2.85-14.56,.38-30.2,8.75-42.45"/>
  </g>
  <g>
    <rect class="cls-32" x="27.5" y="563.62" width="759.71" height="8.57"/>
    <line class="cls-2" x1="52.79" y1="569.04" x2="52.79" y2="816.37"/>
    <line class="cls-2" x1="763.5" y1="569.04" x2="763.5" y2="816.37"/>
  </g>
  <g>
    <path class="cls-20" d="M773.5,909.8h128.22c33.44,0,75.33,3.18,107.29-7.77,36.25-12.42,62.94-44.05,66.95-82.16,2.34-22.33-7.26-44.09-9.33-66.44-2.63-28.48,6.99-57.79-.24-85.46-5.3-20.29-19.93-37.95-38.88-46.95-39.54-18.77-71.75,4.23-98.6,32.16-13.7,14.25-26.45,29.71-35.19,47.44-17.75,36.02,2.69,83.07-34.67,109.5-3.05,2.16-6.38,3.97-9.99,5.35-11.67,4.47-24.8,3.89-36.47,8.37-8,3.08-14.92,8.39-21.59,13.77-5.34,4.3-10.79,8.94-13.48,15.25-3.28,7.71-5.91,18.33-8.39,26.57-2.57,8.53-1.94,18.11,1.95,26.14,.71,1.47,1.53,2.88,2.42,4.22Z"/>
    <path class="cls-38" d="M951.91,606.63c-16.43,.16-32.86-.33-49.24-1.48-1.32-.09-2.7-.21-3.82-.9-2.78-1.71-2.55-6.01-.71-8.7,2.06-2.99,5.7-4.08,6.7-7.52,.85-2.91-1.24-6.13,.66-8.94,1.16-1.72,3.64-2.47,4.19-4.47,.4-1.45-.42-2.92-1.02-4.3-3.16-7.3,.38-16.8,7.55-20.25,4.92-2.37,10.71-1.99,16.06-.9,14.25,2.91,22.22,10.7,29.82,22.48,2.27,3.53,5.66,5.73,8.01,9.11,2.57,3.7,1.03,7.07,2.11,11.05,1.28,4.74,11.17,13.79-.31,14.28-6.66,.28-13.33,.45-20,.52Z"/>
    <path class="cls-31" d="M898.28,676.8c-9.55,28.07-35.45,49.89-64.73,54.54,3.62,6.22,5.13,11.9,7.07,18.83,20.13,.27,41.17-5.36,55.5-19.5,14.33-14.14,20.02-37.86,9.81-55.21-1.25-2.12-6.85-.98-7.64,1.34Z"/>
    <path class="cls-24" d="M885.4,664.98c-.72-7.45,2.57-15.15,5.84-22.23,5.27-11.41,13.06-21.44,20.79-31.35,.56-.71,1.15-1.46,1.99-1.81,.88-.37,1.87-.25,2.82-.11,5.79,.82,11.57,1.76,17.32,2.81,3.72,.68,7.49,1.43,10.87,3.12,6.07,3.04,10.01,8.64,13.51,14.25,3.36,5.4,7.47,9.98,10.07,15.93,5.27,12.06,6.25,25.56,6.44,38.56,.33,22.99,.66,45.98,.99,68.97,.02,1.36-14.32,8.62-16.53,9.54-6.67,2.76-15.18,.47-22.21,1.09-11.65,1.04-25.05,3.83-36.03-1.47-1.45-12.02-2.15-24.13-2.09-36.23,.07-14.29,3.73-28.84-3.84-41.97-2.19-3.8-5.03-7.19-7.27-10.96-1.58-2.65-2.4-5.38-2.66-8.15Z"/>
    <path class="cls-36" d="M912.89,608.68c.16-3.12,.43-6.34,.07-9.44-.3-2.56-2.14-3.62-4.08-5.22-3.87-3.18-6.45-7.71-8.06-12.46-2.71-7.99-7.19-27.04,6.6-26.97,1.29,0,2.6,.25,3.86-.04,2.75-.63,4.27-3.48,6.23-5.51,4.88-5.05,15.38-5.59,17.79,1.9,2.54,7.91,3.81,16.69,4.05,25.02,.25,8.45,.5,16.9,.75,25.36,.27,9.08,1,20.53-8.49,25.3-3.28,1.65-7.17,2.04-10.71,1.08-2.1-.57-4.11-1.64-5.56-3.26-3.64-4.08-2.7-10.75-2.44-15.76Z"/>
    <path class="cls-38" d="M926.39,596.46c4.22,1.35,8.79,1.89,13.21,2.05,.28-.04,.57-.06,.85-.1-.04-4.35-.39-8.69-1.21-12.96-3.43,4.51-8.58,8.37-14.13,10.53,.43,.16,.84,.35,1.28,.49Z"/>
    <path class="cls-20" d="M958.47,776.3l13.99,1.61c-33.05-8.77-67.9-6.35-102.01-3.86-32.5,2.38-74.84-7.23-102.72,12.44-52.15,36.79-37.09,74.92-1.48,117,10.5,12.41,20.18,6.31,34.62,6.31h163.34c7.76,0,24.7,3.38,31.93,0,12.79-5.99,24.61-14.03,33.33-25.04,6.19-7.82,10.56-17.19,12.27-27.03,1.5-8.66,1.18-21.61-2.78-29.59-2.14-4.31-5.91-7.56-8.64-11.53-4.52-6.59-6.88-18.54-14.99-21.97-6.33-2.67-13.48-2.85-19.86-5.4-5.85-2.33-10.98-5.58-16.99-7.53-6.62-2.15-13.08-4.25-20.02-5.4Z"/>
    <path class="cls-36" d="M704.25,892.83c4.44-4.58,8.89-9.15,13.33-13.73,4.81-4.96,9.65-9.95,13.49-15.69,3.27-4.9,5.77-10.31,7.39-15.98,1.43-5.03,2.1-10.7-.43-15.28-2.84-5.13-9.23-7.58-15.07-6.99-5.83,.59-11.13,3.72-15.61,7.51-10.15,8.58-16.65,20.38-22.77,31.96-6.44,12.18-13.2,23.31-21.74,34.14-2.77,3.52-5.64,8.18-3.58,12.16,1.63,3.16,5.62,4.2,9.16,4.53,7.36,.68,14.42-.58,19.68-6,5.38-5.54,10.76-11.08,16.15-16.63Z"/>
    <path class="cls-38" d="M666.44,897.1c-.98-.49-2.01-.71-3.08-.43-3,.78-5.17,4.71-8.1,6.14-4.27,2.08-9.02,3.49-13.65,4.55-2.76,.63-5.54,1.11-8.33,1.58-4.29,.73-8.58,1.46-12.87,2.19-2.96,.5-5.97,1.02-8.66,2.37-7.48,3.75-6.48,12.49,.67,15.77,5.26,2.41,12.19,2.42,17.82,1.54,14.36-2.24,28.75,1.6,43.13,.01,10.81-1.19,13.84-9.21,16.77-18.64,.45-1.44,.99-2.87,1.39-4.29-3.47-1.37-8.01-.82-11.79-2.2-3.49-1.27-6.75-3.2-9.51-5.68-1.16-1.04-2.43-2.23-3.79-2.91Z"/>
    <path class="cls-33" d="M869.5,827.73c8.97,.88,17.95,1.76,26.92,2.64,14.96,1.47,30.3,2.9,44.78-1.41,11.48-3.41,22.63-11.18,28.41-22.69,1.37-2.72,2.37-5.67,3.07-8.76,2.73-12.05,.87-26.23-1.83-37.48-1.35-5.64-3.38-11.44-7.58-15.1-4.2-3.66-11.12-4.2-14.61,.25-1.18,1.5-1.87,3.41-3.06,4.9-3.6,4.49-12.65,1.47-17.31,1.35-7.29-.19-14.58,.24-21.85,.73-17.74,1.19-35.45,2.74-53.16,4.29-14.22,1.29-28.74-1.14-42.92-2.03-6.06-.38-14.28-2.07-20.17-.65-8.03,1.94-16.77,9.05-23.99,13.06-14.69,8.15-27.58,19.06-40.14,30.12-8.19,7.22-14.38,16.31-22.11,24.14-10.15,10.27-19.52,21.31-28.02,32.99-1.47,2.03-2.98,4.22-3.12,6.72-.17,3.02,1.68,5.76,3.57,8.12,5.56,6.94,12.35,13.03,20.39,16.83,6.93,3.27,19.48,6.57,26.95,2.93,7.33-3.58,12.7-15.95,17.64-22.28,12.37-15.86,26.79-31.86,44.97-41.12,25.01-12.73,57.27-.07,83.17,2.47Z"/>
    <path class="cls-36" d="M984.84,653.86c17.56,9.8,20.31,31.35,20.87,50.5,.29,9.84-.27,19.93-3.97,29.06-9.92,24.46-39.96,30.61-63.43,29.79-30.38-1.05-60.53-7.3-88.4-18.32-.23-5.74,.45-9.64,1.72-15.26,17.8,4.72,36.32,7.18,54.87,7.3,13.41,.09,27.03-1.09,39.53-5.49,8.08-2.84,16.02-7.44,19.54-14.61,6.33-12.86-4.23-26.67-5.72-39.48-.52-4.5-1.02-9.19,.57-13.43,.69-1.84,1.75-3.51,2.83-5.15,1.59-2.43,3.31-4.91,5.81-6.41,3.65-2.19,8.38-1.87,12.3-.2,1.22,.52,2.38,1.09,3.48,1.7Z"/>
    <path class="cls-38" d="M757.19,759.97h123.78c.87,0,1.72-.22,2.44-.63h0c3.4-1.94,1.71-6.3-2.44-6.3h-123.78c-.87,0-1.72,.22-2.44,.63h0c-3.4,1.94-1.71,6.3,2.44,6.3Z"/>
    <path class="cls-38" d="M756.34,760.28h117.44c1.44,0,2.3-1.62,1.49-2.81l-40.05-58.78c-.33-.49-.89-.79-1.49-.79h-117.44c-1.44,0-2.3,1.62-1.49,2.81l40.05,58.78c.33,.49,.89,.79,1.49,.79Z"/>
    <path class="cls-31" d="M790.54,734.93c2.52-.94,4.26-2.84,4.26-5.05,0-3.14-3.48-5.69-7.78-5.69-2.35,0-4.43,.78-5.86,1.99,3.09,2.96,6.28,5.81,9.38,8.75Z"/>
    <path class="cls-38" d="M912.99,569.22c4.32,.11,8.64,.11,12.96-.02,.9-.03,1.82-.06,2.69-.34,3.66-1.17,4.03-5.22,5.99-7.81,2.35,3.56,2.41,11.49,2.79,15.7,.46,5.04-.77,16.48,3.13,19.94,4.06,3.59,21.15,4.69,24.96,.1,2.06-2.48-.03-11.34-.34-14.6-.52-5.65-1.34-11.46-4.2-16.47-9.19-16.08-28.9-32.48-47.86-19.71-1.43,.96-2.8,2.09-4.45,2.6-1.02,.31-2.1,.37-3.14,.6-8.32,1.88-10.9,11.46-12.2,18.67,6.53,.73,13.1,1.18,19.67,1.35Z"/>
    <path class="cls-36" d="M931.43,571.45c1.86-3.28,5.93-5.35,9.45-3.2,3.73,2.28,3.09,7.66,.07,10.26-2.86,2.46-7.95,1.94-9.22-2.03-.25-.78-.26-1.52-.17-2.22-.54-.76-.73-1.76-.13-2.82Z"/>
    <path class="cls-20" d="M852,868.52c-6.12,.29-12.23,.67-18.34,1.18-10.13,.86-20.82,1.62-30.01-2.74-3.23-1.53-6.15-3.65-8.88-5.97-54.23-46.26,85.89-69.05,112.98-63.8,10.66,2.07,20.83,6.15,31.37,8.75,10.55,2.6,21.95,3.64,32.06-.32,6.62-2.59,12.32-7.19,18.96-9.73,13.14-5.04,33.36-.96,38.36,13.43,5.95,17.15-2.85,32.62-19.03,39.65-10.6,4.61-22.23,5.03-32.89,9.31-11.63,4.67-24.63,5.17-37.05,6.44-29.22,2.99-58.42,2.41-87.53,3.79Z"/>
    <path class="cls-24" d="M965.71,689.81c-3,.77-5.95,1.7-8.79,2.94-2.49-4.04-4.97-8.08-7.46-12.12-4.54-7.38-8.54-15.23-12.69-22.87-2.99-5.51-2.99-11.83-1.57-17.8,.92-3.89,.68-7.22,1.17-11.01,.73-5.53,2.74-10.95,3.46-16.55,.14-1.12,27.11,8.55,30.11,10.99,17.27,14.01,29.92,33.61,35.59,55.11-6.12,.59-11.67,3.72-17.46,5.8-7.22,2.59-14.94,3.59-22.36,5.51Z"/>
    <path class="cls-10" d="M915.95,584.87c-2.3,2.17-6.29,2.18-8.6,.02"/>
    <path class="cls-36" d="M792.76,877.29c1.51-8.56,4.23-17.05,6.12-25.57,.86-3.87,1.56-7.84,1.18-11.79-.38-3.95-1.95-7.92-4.97-10.49-5.17-4.4-13.32-3.51-18.96,.26-14.68,9.8-17.35,28.35-14.58,44.42,.94,5.47,2.27,10.85,3.34,16.29,1.08,5.47,.62,11.61,1.89,16.91,1.96,8.15,12.59,9.55,19.39,7.04,8.14-3.01,6.27-14.38,5.68-21.12-.47-5.36,0-10.67,.93-15.95Z"/>
    <path class="cls-38" d="M790.4,901.42c-.62,.11-1.38,.38-2.43,.62-4.47,1.01-9.1,2.1-13.62,.7-2.16-.66-3.96-2.2-6.11-2.9-2.15-.7-5.09-.07-5.66,2.11-.73,2.78,.2,4.95-.93,7.76-1.34,3.34-3.39,6.49-5.52,9.38-4.53,6.13-10.2,11.34-16.04,16.19-3.3,2.74-8.86,6.54-8.07,11.49,.59,3.69,4.73,5.72,8.45,6.05,5.56,.48,11.08-1.45,15.95-4.18,4.87-2.73,9.24-6.25,13.9-9.32,4.3-2.83,8.85-5.28,13.59-7.3,2.25-.96,4.56-1.84,6.51-3.31,4.09-3.07,5.73-8.52,4.73-13.43-.69-3.4-.47-9.73-2.35-12.59-.82-1.25-1.44-1.44-2.4-1.26Z"/>
    <path class="cls-33" d="M748.54,814.86c0,6.88,.07,13.76,.18,20.67,.31,18.66-6.87,41.23,18.04,45.26,10.81,1.75,22.17-.2,31.78-5.44,22.79-12.44,5.06-60.82,6.21-82.24,.42-7.82,1.4-32.44,15.93-29.66-17.77-3.4-30.31-16.47-49.72-13.67-10.18,1.47-20.17,8.33-22.48,18.35-3.22,13.98,.08,32.28,.05,46.74Z"/>
    <path class="cls-38" d="M957.76,681.18c-.69-1.12-1.44-2.21-2.16-3.31,.23,4.74,.13,9.52,.18,14.17,.03,2.86,.09,5.74,.13,8.62,2.59-2.37,6.89-5.93,7.19-8.9,.32-3.16-3.78-8.03-5.34-10.58Z"/>
    <path class="cls-10" d="M1027.25,811.58c-17.82-7.51-37.86-9.68-56.87-6.16-8.29,1.53-16.59,4.13-24.97,3.22-4.53-.49-8.87-2-13.31-3-17.04-3.85-34.77-.21-51.86,3.42"/>
  </g>
  <path class="cls-29" d="M1030.55,765.01c1-.94,2.01-1.86,3.03-2.76,18.72-16.46,38.35,16.44,41.54,34.48,1.85,10.47,.94,21.26,.02,31.88-6.16-2.32-12.41-4.68-17.77-8.72-7.81-5.89-11.64-14.99-17.98-22.03-11.24,15.85-18.01,32.34-33.43,45.07-3.35,2.76-10.09,12.72-12.49,4.18-1.93-6.85-.64-14.26,1.19-21.13,6.25-23.5,18.89-44.93,35.89-60.97Z"/>
  <path class="cls-15" d="M1010.95,816.5c-7.8,15.97-14.28,32.54-15.76,50.27-1.2,13.36,.05,27.17-3.4,40.35-1.19,4.44-2.87,8.77-5.31,12.61l-.27-.13c1.91-4.05,3.21-8.37,4.03-12.77,2.47-13.31,.84-26.86,1.97-40.31,1.62-17.99,8.77-35.11,18.5-50.18,0,0,.25,.16,.25,.16h0Z"/>
  <path class="cls-15" d="M975.25,879.73c-1.33,3.2-2.76,6.24-4.16,8.81-4.41-3.37-7.56-12.95-10.32-18.19-3.94-7.45-7.87-14.91-11.77-22.39-4.95-9.5-9.89-19.08-13.26-29.33-8.61-26.11-7.29-55.73-4.34-82.8,27.59,3.07,47.82,40.41,44.83,67.27-2.28,20.45,8.9,40.31,4.26,60.74-1.09,4.81-3.02,10.57-5.23,15.88Z"/>
  <path class="cls-29" d="M962.42,823.04c2.62,8.91,4.94,17.88,7.17,26.88,1.62,6.83,3.63,13.6,4.01,20.68,.47,7.06-1.81,14.12-2.76,20.88-1.34,9.04-1.27,18.27,.06,27.33,.67,4.55,1.71,9.05,2.98,13.52-1.9-4.24-3.34-8.69-4.43-13.24-2.11-9.15-2.57-18.66-1.43-27.99,.57-4.7,1.74-9.23,2.31-13.69,1.36-9.06-1.4-18.04-3.02-26.97-1.79-9.09-3.49-18.21-4.89-27.39h0Z"/>
  <path class="cls-29" d="M1032.12,674.47c.63-3.23,1.1-6.49,1.26-9.82,.47-10.15-2.6-9.14-10.94-6.93-13.34,3.54-25.63,11.49-35.02,22.36-13.46,15.58-17.32,35.98-15.17,57.02,.76,7.45,3.44,15.58,2.9,23.01-.67,9.08-4.28,17.67-6.68,26.35-3.29,11.94-3.82,25.04,4.19,34.89,4.5,5.54,9.01,11.09,13.51,16.63,4.05-25.57,17.51-47.81,26.64-71.48,9.49-24.61,9.82-50.64,15.61-76.2,1.19-5.28,2.66-10.51,3.7-15.82Z"/>
  <path class="cls-15" d="M972.57,928.29c1.19-2.81,2.82-6.49,3.89-9.27,2.46-6.2,3.65-12.55,3.8-19.21,.3-4.25-.31-8.63,.46-12.86,.24-1.52,1.01-5.83,1.3-7.41,2.74-15.98,4.98-32.77-.1-48.5-1.98-6.41-4.92-12.69-5.93-19.52-2.43-14.1,5.31-27.14,13.21-38.12,0,0,.26,.15,.26,.15-3.43,5.76-6.82,11.59-9.14,17.87-7.73,19.76,3.7,30.23,6.7,48.53,1.64,9.99,.87,20.2-.65,30.16-.94,6.53-2.58,13.29-3.67,19.79-.31,6.67-.28,13.49-1.91,20.03-1.63,6.57-4.81,12.58-7.94,18.49l-.27-.14h0Z"/>
  <path class="cls-19" d="M956.28,960.29h48.77c3.98-13.67,12.17-58.18,12.17-58.18h-74.4s9.39,44.08,13.46,58.18Z"/>
  <path class="cls-15" d="M1039.21,796.67c-.27-4.38,.02-8.07,.57-12.28,.65-4.15,1.65-8.41,4.4-11.88,0,0,.29,.06,.29,.06-1.15,5.85-1.42,12.57-2.94,18.35-.51,2.01-1.19,3.98-2.06,5.87,0,0-.28-.12-.28-.12h0Z"/>
  <g>
    <path class="cls-19" d="M308.92,564.91H175.39c-1.76,0-3.18-1.42-3.18-3.18h0c0-1.76,1.42-3.18,3.18-3.18h133.53c1.76,0,3.18,1.42,3.18,3.18h0c0,1.76-1.42,3.18-3.18,3.18Z"/>
    <path class="cls-19" d="M312.54,564.91h-119.54l10.4-68.69c.36-2.38,2.39-4.16,4.74-4.16h110.07c2.84,0,4.98,2.56,4.54,5.44l-10.21,67.41Z"/>
    <g>
      <line class="cls-8" x1="268.37" y1="526.37" x2="273.56" y2="530.68"/>
      <line class="cls-8" x1="261.56" y1="526.37" x2="266.74" y2="530.68"/>
      <line class="cls-8" x1="254.75" y1="526.37" x2="259.93" y2="530.68"/>
    </g>
  </g>
  <rect class="cls-21" x="545.56" y="560.25" width="112.19" height="3.54"/>
  <g>
    <g>
      <path class="cls-29" d="M392.62,680.35c5.03-4.96,10.06-9.92,13.66-15.95,4.92-8.23,7.12-18.34,14.2-24.8,1.42-1.3,3.12-2.46,5.05-2.59,3.36-.23,6.12,2.69,7.6,5.72,1.73,3.55,2.44,7.53,2.52,11.47,.07,3.41-.32,6.82-.71,10.21-3.65,31.83-6.69,72.25-30.95,96.51-7.37,8.92-15.14,17.16-22.83,25.9-.66,.75-1.58,1.55-2.44,1.11-.67-.34-.91-1.25-1.07-2.05-6.52-32.5-16.22-72.37,8.97-99.44,1.93-2.08,3.96-4.09,5.99-6.09Z"/>
      <path class="cls-29" d="M283.03,742.46c-2.25-.03-4.36-.03-6.31,0-2.25,.03-4.74,.23-6.27,1.88-2.13,2.3-1.17,5.98,.08,8.86,6.87,15.87,18.83,29.48,33.68,38.33,7.08,4.22,14.95,7.51,20.5,13.61,8.46,9.3,10.69,22.73,19.17,32.11,4.55,5.03,25.53,13.36,25.24,20.55,1.36-33.72-3.92-65.52-22.2-94.66-10.64-16.95-42.93-20.39-63.89-20.68Z"/>
      <path class="cls-29" d="M432.34,769.37c6.28-2.1,13.06-3.41,20.26-4.06,13.94-1.26,28.33-2.64,40.64-9.32-2.16,15.19-11.06,28.45-19.71,41.12-13.87,20.31-31.4,32.13-55.51,38.08-4.17,1.03-30.23,12.22-31.89,11.2-6.05-3.76,7.77-40.58,10.54-46.02,8.24-16.24,20.51-25.93,35.67-31.01Z"/>
      <path class="cls-12" d="M455.33,776.79c-14.84,13.16-29.67,26.31-44.51,39.47-7.87,6.98-15.86,14.1-21.48,23.4-9.12,15.08-10.97,34.03-12.56,52.15"/>
      <path class="cls-12" d="M323.47,774.99c24,20.32,47.28,53.36,45.33,85.14-1.5,24.49-2.63,42.38,1.18,63"/>
      <path class="cls-12" d="M407.89,684.14c-3.22,21.44-9.37,42.29-15.87,62.93-6.49,20.61-19.1,45.78-15.66,67.78,2.06,13.13,1.45,24.07-.52,37.24-2.6,17.36-3.1,39.71-.19,57.03"/>
    </g>
    <path class="cls-19" d="M347.31,940.23h51.51c4.2-14.44,12.85-61.46,12.85-61.46h-78.58s9.91,46.56,14.22,61.46Z"/>
  </g>
  <path class="cls-14" d="M694.25,546.73c-.66-1.67-1.9-3.06-3.56-3.78-1.83-.8-3.81-.64-5.72-.28,.28-1.03,.53-2.08,.7-3.16h-52.13c2.07,13.19,12.94,23.27,26.07,23.27,4.19,0,8.15-1.03,11.66-2.86,.87,.19,1.77,.27,2.52,.31,2,.1,3.98-.04,5.96-.34,3.72-.58,7.69-1.93,10.8-4.08,2.95-2.04,5.14-5.42,3.71-9.07Zm-4.08,4.26c-.98,1.4-2.6,2.28-4.09,3.02-1.82,.91-3.73,1.56-5.68,2.1-1.56,.43-3.16,.73-4.77,.93,3.21-2.59,5.84-5.93,7.65-9.78,.7-.18,1.4-.4,2.1-.56,1.56-.35,3.49-.75,4.69,.6,.97,1.09,.92,2.53,.1,3.69Z"/>
  <rect class="cls-14" x="621.56" y="560.74" width="77.74" height="2.98"/>
  <polygon class="cls-19" points="383.94 563.47 360.41 563.47 353.74 512.89 390.61 512.89 383.94 563.47"/>
  <polygon class="cls-29" points="356.42 533.22 360.41 563.47 383.94 563.47 387.93 533.22 356.42 533.22"/>
  <path class="cls-12" d="M810.23,767.42c-5.96,14.59-8.23,30.67-6.54,46.34"/>
  <path class="cls-12" d="M748.98,849.25c-.4-22.61-1.15-45.22-2.25-67.81"/>
</svg>