<?xml version="1.0" encoding="utf-8"?>
<!-- Generator: Adobe Illustrator 26.0.3, SVG Export Plug-In . SVG Version: 6.00 Build 0)  -->
<svg version="1.0" id="Layer_1" xmlns="http://www.w3.org/2000/svg" xmlns:xlink="http://www.w3.org/1999/xlink" x="0px" y="0px"
	 viewBox="0 0 346 270" style="enable-background:new 0 0 346 270;" xml:space="preserve">
<style type="text/css">
	.st0{fill:#03334F;}
	.st1{fill:#EB5E21;}
	.st2{fill:#7D7D7D;}
</style>
<path class="st0" d="M181.9,104.9h17.7v6.4l-8,34.6h8.2v8.3H181v-6.9l7.9-34.1h-7L181.9,104.9L181.9,104.9z M276.5,129.8
	L276.5,129.8v0.2c2.6,0.7,4.4,3,4.5,5.7l0.1,18.4h-10l-0.1-20.7h-3.2l0.1,20.7h-10l-0.4-49.2h16.1c4,0,7.2,3.2,7.2,7.2l0.1,12
	C280.9,126.9,279,129.2,276.5,129.8L276.5,129.8z M270.8,111.3h-3.2l0.1,15h3.2L270.8,111.3z M248.2,105L248.2,105l6.3,49.2h-9.8
	l-0.8-10.4h-4.2l-0.7,10.4h-9.7l1.2-10.4h-4.4l1.3,10.4h-9.8l-0.8-10.4h-4.2l-0.7,10.4h-9.7l5.6-49.2h13.4l4,31.7h6.1l3.6-31.7
	H248.2z M216.3,136.7L216.3,136.7l-1.6-23.5h-0.3l-1.4,23.4L216.3,136.7z M243.4,136.7L243.4,136.7l-1.6-23.4h-0.3l-1.4,23.4H243.4z
	 M151,112.1L151,112.1v9.8c0,2.7-1.8,5-4.4,5.7v0.2c2.6,0.7,4.4,3,4.5,5.7V147c0,0.9-0.2,1.8-0.5,2.6l-9.6-13.8v-4.6h-3.2
	l-10.1-14.4v-11.9h16.1C147.7,104.9,151,108.1,151,112.1L151,112.1z M140.9,111.3h-3.2v12.8h3.2L140.9,111.3L140.9,111.3z
	 M179.1,154.2h-9.8l-0.8-10.4h-4.2l-0.7,10.4h-9.7l5.7-49.2h13.4L179.1,154.2L179.1,154.2z M168,136.6L168,136.6l-1.6-23.5h-0.3
	l-1.4,23.5H168z"/>
<path class="st1" d="M101.3,104.9h16.3v16.9h-10.1v-10.5h-3.2l0.1,36.6h3.2v-13.3h-1.4v-7h11.6l0.1,26.6h-16.3c-4,0-7.2-3.2-7.2-7.2
	v0l-0.1-34.8C94.1,108.1,97.3,104.9,101.3,104.9L101.3,104.9L101.3,104.9z M80.3,154.2h10l-0.1-49.3h-10L80.3,154.2L80.3,154.2z
	 M75.9,112.1L75.9,112.1v9.8c0,2.7-1.9,5-4.5,5.7v0.2c2.6,0.7,4.4,3,4.5,5.7V147c0,4-3.2,7.2-7.2,7.2c0,0,0,0,0,0H52.6l-0.1-49.3
	h16.1C72.6,104.9,75.8,108.1,75.9,112.1L75.9,112.1z M65.9,131.2h-3.3v16.6h3.2L65.9,131.2L65.9,131.2z M65.9,111.2h-3.3v12.8h3.2
	L65.9,111.2L65.9,111.2z M141,135.8L141,135.8v12h-3.2l-0.1-16.6l-10.1-14.4l0.1,37.4h16.1c3,0,5.6-1.8,6.7-4.6L141,135.8L141,135.8
	z"/>
<path class="st1" d="M293.5,98.1c-1,0.1-1.8,0.7-2.2,1.6c-1.8,3.2-5.2,5.2-8.9,5.2c0.5-0.8,4.1-1.5,2-4.5c-0.8-1.2-0.8-1.6-0.7-1.8
	c-0.6-0.3-0.8-1-0.6-1.6c-0.5-0.2-0.7-0.8-0.5-1.3c-0.4-0.2-0.6-0.5-0.8-0.8c1.2-0.2,2.4,0.2,3.3,1.1c1.9,1.6,2.2,2.5,3.5,2.5
	c1.3,0,2.2-1.4,3.4-1.4C292.7,97.2,293.3,97.6,293.5,98.1L293.5,98.1z"/>
<path class="st2" d="M127.6,161.9h1.7l3.4,8.1l3.4-8.1h1.6c-0.1,0.2-0.2,0.4-0.2,0.6c0,0.3,0,0.7,0,1v7c0,0.3,0,0.7,0.1,1
	c0,0.2,0.1,0.4,0.2,0.6h-1.9c0.1-0.2,0.1-0.4,0.2-0.6c0-0.4,0.1-0.7,0.1-1.1l0.1-6.5l-3.4,8.3h-0.3l-3.4-8.2l0.2,6.4
	c0,0.4,0,0.7,0.1,1.1c0,0.2,0.1,0.4,0.2,0.5h-1.9c0.1-0.2,0.2-0.4,0.2-0.6c0-0.3,0.1-0.7,0.1-1v-7c0-0.4,0-0.7-0.1-1.1
	C127.8,162.2,127.7,162,127.6,161.9L127.6,161.9z M144.1,168.9L144.1,168.9c-0.6,0-1.2,0.1-1.8,0.4c-0.4,0.2-0.6,0.6-0.6,1
	c0,0.3,0.1,0.6,0.3,0.8c0.2,0.2,0.5,0.3,0.8,0.3c0.3,0,0.7-0.1,0.9-0.3c0.2-0.2,0.4-0.5,0.4-0.8V168.9L144.1,168.9z M144.1,168
	L144.1,168v-1.2c0-0.3-0.1-0.5-0.3-0.7c-0.3-0.2-0.6-0.2-0.9-0.2c-0.4,0-0.8,0.1-1.1,0.2c-0.3,0.1-0.7,0.4-0.9,0.6l-0.2-0.6
	c0,0,0-0.1,0-0.1c0,0,0-0.1,0-0.1c0-0.2,0.3-0.4,0.8-0.7c0.6-0.2,1.2-0.3,1.8-0.3c0.6,0,1.2,0.1,1.7,0.5c0.4,0.4,0.6,0.9,0.5,1.4
	v3.8c0,0.3,0,0.5,0.1,0.8c0.1,0.2,0.3,0.4,0.5,0.5l-0.9,0.4c-0.1,0-0.1,0.1-0.2,0.1h-0.1c-0.1,0-0.2-0.1-0.3-0.2
	c-0.1-0.2-0.2-0.3-0.3-0.5c-0.2,0.2-0.5,0.4-0.8,0.5c-0.3,0.1-0.7,0.2-1,0.2c-0.5,0-1-0.2-1.4-0.5c-0.4-0.4-0.5-0.8-0.5-1.4
	c0-0.7,0.3-1.4,0.9-1.8C142.2,168.2,143.1,167.9,144.1,168L144.1,168z M149.9,161.1L149.9,161.1v6.2c0,0.2,0,0.5,0,0.7v0.1
	c1.2-1.4,2-2.3,2.4-2.7c0.4-0.4,0.7-0.6,0.8-0.6c0.1,0,0.1,0,0.1,0.1c0.1,0,0.1,0.1,0.2,0.1l0.5,0.6c-0.1,0.1-0.3,0.1-0.4,0.2
	c-0.1,0.1-0.3,0.2-0.4,0.3l-2,2l2.2,2.5c0.1,0.2,0.3,0.3,0.4,0.4c0.2,0.1,0.3,0.2,0.5,0.3l-0.7,0.7c0,0-0.1,0.1-0.1,0.1
	c-0.1,0-0.1,0-0.2,0c-0.1,0-0.2,0-0.2-0.1c-0.1-0.1-0.2-0.2-0.3-0.3l-2.3-3l-0.4,0.4v1.1c0,0.4,0,0.7,0,1.1c0,0.2,0.1,0.5,0.2,0.7
	h-1.7c0.1-0.2,0.1-0.4,0.1-0.7c0-0.4,0.1-0.8,0.1-1.1V163c0-0.3,0-0.5-0.1-0.8c0-0.2-0.1-0.4-0.2-0.6L149.9,161.1L149.9,161.1z
	 M156.2,172.1L156.2,172.1c0.1-0.2,0.1-0.4,0.2-0.7c0-0.4,0.1-0.7,0.1-1.1v-3.7c0-0.3,0-0.5-0.1-0.8c0-0.2-0.1-0.4-0.2-0.6l1.5-0.5
	v5.6c0,0.4,0,0.7,0,1.1c0,0.2,0.1,0.5,0.2,0.7L156.2,172.1z M157,161.6L157,161.6c0.2,0,0.4,0.1,0.6,0.2c0.1,0.1,0.2,0.4,0.2,0.6
	c0,0.4-0.3,0.8-0.8,0.8c-0.4,0-0.8-0.3-0.8-0.8C156.2,162,156.5,161.7,157,161.6C157,161.6,157,161.6,157,161.6L157,161.6z
	 M162.2,164.8L162.2,164.8l0.1,0.8c0.3-0.3,0.7-0.5,1.1-0.6c0.4-0.1,0.8-0.2,1.2-0.2c0.6-0.1,1.2,0.1,1.7,0.5c0.4,0.4,0.6,1,0.5,1.6
	v3.5c0,0.4,0,0.7,0.1,1.1c0,0.2,0.1,0.5,0.2,0.7h-1.7c0.1-0.2,0.1-0.5,0.2-0.7c0-0.4,0-0.7,0-1.1v-3.2c0-0.4-0.1-0.7-0.3-1
	c-0.2-0.2-0.6-0.3-0.9-0.3c-0.3,0-0.7,0.1-1,0.2c-0.3,0.1-0.7,0.3-0.9,0.6v3.6c0,0.4,0,0.7,0.1,1.1c0,0.2,0.1,0.5,0.2,0.7h-1.7
	c0.1-0.2,0.1-0.4,0.2-0.7c0-0.4,0-0.7,0-1.1v-3.7c0-0.3,0-0.5-0.1-0.8c0-0.2-0.1-0.4-0.2-0.6L162.2,164.8L162.2,164.8z M170.8,167.3
	L170.8,167.3c0,0.4,0.1,0.9,0.3,1.2c0.2,0.3,0.6,0.5,1,0.4c0.4,0,0.8-0.1,1-0.4c0.3-0.4,0.4-0.8,0.4-1.2c0-0.4-0.1-0.9-0.4-1.2
	c-0.3-0.3-0.6-0.4-1-0.4c-0.4,0-0.8,0.1-1,0.4C170.9,166.4,170.7,166.8,170.8,167.3L170.8,167.3z M172.6,172.1L172.6,172.1
	c-0.5,0-1,0.1-1.5,0.3c-0.3,0.1-0.5,0.4-0.5,0.7c0,0.3,0.2,0.6,0.5,0.8c0.4,0.2,0.9,0.3,1.4,0.3c0.5,0,1-0.1,1.4-0.3
	c0.3-0.1,0.5-0.4,0.5-0.8c0-0.3-0.2-0.6-0.5-0.7C173.4,172.2,173,172.1,172.6,172.1L172.6,172.1z M173.6,165L173.6,165h0.2h0.4
	c0.3,0,0.7,0,1,0c0.2,0,0.4-0.1,0.6-0.1l-0.1,0.7c0,0.1-0.1,0.3-0.2,0.4c-0.1,0.1-0.3,0.1-0.5,0.1c-0.1,0-0.3,0-0.4,0
	c-0.1,0-0.2,0-0.2,0c0.1,0.2,0.2,0.4,0.2,0.6c0.1,0.2,0.1,0.4,0.1,0.6c0,0.6-0.2,1.3-0.6,1.8c-0.5,0.5-1.1,0.7-1.8,0.7
	c-0.3,0-0.7,0.1-1,0.2c-0.2,0.1-0.3,0.3-0.3,0.5c0,0.5,0.5,0.7,1.6,0.7h0.2c0.7,0,1.4,0.1,2,0.5c0.4,0.3,0.7,0.8,0.7,1.3
	c0,0.6-0.3,1.2-0.9,1.5c-0.7,0.4-1.4,0.6-2.2,0.6c-0.8,0-1.6-0.1-2.3-0.5c-0.5-0.3-0.8-0.8-0.8-1.4c0-0.4,0.1-0.7,0.4-1
	c0.3-0.3,0.6-0.5,1-0.6c-0.2-0.1-0.4-0.3-0.6-0.5c-0.1-0.2-0.2-0.4-0.2-0.6c0-0.2,0.1-0.5,0.2-0.7c0.1-0.2,0.3-0.4,0.6-0.5
	c-0.4-0.1-0.7-0.4-0.9-0.8c-0.2-0.4-0.3-0.8-0.3-1.3c0-0.7,0.2-1.4,0.7-1.9c0.5-0.5,1.2-0.8,1.8-0.7c0.2,0,0.4,0,0.6,0.1L173.6,165
	L173.6,165z M182.2,161.9h2c-0.1,0.2-0.2,0.4-0.2,0.7c0,0.3-0.1,0.7-0.1,1v7c0,0.3,0,0.7,0.1,1c0,0.2,0.1,0.4,0.2,0.6h-2
	c0.1-0.2,0.2-0.4,0.2-0.6c0-0.3,0.1-0.7,0.1-1v-7c0-0.3,0-0.7-0.1-1C182.3,162.3,182.3,162.1,182.2,161.9L182.2,161.9z M188.5,164.8
	L188.5,164.8l0.1,0.8c0.3-0.3,0.7-0.5,1.1-0.6c0.4-0.1,0.8-0.2,1.2-0.2c0.6-0.1,1.2,0.1,1.7,0.5c0.4,0.4,0.6,1,0.5,1.6v3.5
	c0,0.4,0,0.7,0.1,1.1c0,0.2,0.1,0.5,0.2,0.7h-1.7c0.1-0.2,0.1-0.5,0.1-0.7c0-0.4,0-0.7,0-1.1v-3.2c0-0.4-0.1-0.7-0.3-1
	c-0.3-0.2-0.6-0.3-0.9-0.3c-0.3,0-0.7,0.1-1,0.2c-0.4,0.1-0.7,0.3-1,0.6v3.7c0,0.4,0,0.7,0.1,1.1c0,0.2,0.1,0.5,0.2,0.7H187
	c0.1-0.2,0.1-0.4,0.2-0.7c0-0.4,0.1-0.7,0.1-1.1v-3.7c0-0.3,0-0.5-0.1-0.8c0-0.2-0.1-0.4-0.2-0.6L188.5,164.8L188.5,164.8z
	 M200.4,166.5L200.4,166.5c-0.2-0.2-0.4-0.4-0.6-0.5c-0.2-0.1-0.5-0.2-0.8-0.2c-0.5,0-1,0.3-1.3,0.7c-0.4,0.6-0.5,1.2-0.5,1.9
	c0,0.7,0.1,1.4,0.5,1.9c0.3,0.4,0.8,0.7,1.3,0.7c0.3,0,0.6-0.1,0.9-0.2c0.3-0.1,0.5-0.3,0.6-0.6L200.4,166.5L200.4,166.5z
	 M201.6,161.1L201.6,161.1v9.1c0,0.3,0,0.6,0.1,0.9c0.1,0.2,0.2,0.5,0.4,0.6l-0.8,0.4l-0.2,0.1h-0.1c-0.1,0-0.2-0.1-0.2-0.2
	c-0.1-0.2-0.2-0.4-0.3-0.6c-0.3,0.3-0.6,0.5-1,0.6c-0.3,0.1-0.7,0.2-1.1,0.2c-0.8,0-1.5-0.4-2-1.1c-0.6-0.8-0.8-1.7-0.8-2.7
	c-0.1-1,0.2-1.9,0.8-2.7c0.5-0.7,1.3-1,2.1-1c0.6,0,1.2,0.2,1.7,0.5v-2.6c0-0.2,0-0.4-0.1-0.6c0-0.2-0.1-0.3-0.2-0.5L201.6,161.1
	L201.6,161.1z M204.7,172.1L204.7,172.1c0.1-0.2,0.1-0.4,0.1-0.7c0-0.4,0-0.7,0-1.1v-3.7c0-0.3,0-0.5-0.1-0.8c0-0.2-0.1-0.4-0.2-0.6
	l1.5-0.5v5.6c0,0.4,0,0.7,0,1.1c0,0.2,0.1,0.5,0.2,0.7L204.7,172.1z M205.5,161.6L205.5,161.6c0.2,0,0.4,0.1,0.6,0.2
	c0.1,0.2,0.2,0.4,0.2,0.6c0,0.2-0.1,0.4-0.2,0.5c-0.3,0.3-0.8,0.2-1.1-0.1c-0.3-0.3-0.3-0.7,0-1
	C205.1,161.7,205.3,161.6,205.5,161.6L205.5,161.6z M212.7,168.9L212.7,168.9c-0.6,0-1.2,0.1-1.8,0.4c-0.4,0.2-0.6,0.6-0.6,1
	c0,0.3,0.1,0.6,0.3,0.8c0.2,0.2,0.5,0.3,0.8,0.3c0.3,0,0.7-0.1,0.9-0.3c0.2-0.2,0.4-0.5,0.4-0.8L212.7,168.9L212.7,168.9z
	 M212.7,168L212.7,168v-1.2c0-0.3-0.1-0.5-0.3-0.7c-0.3-0.2-0.6-0.2-0.9-0.2c-0.4,0-0.8,0.1-1.1,0.2c-0.3,0.2-0.7,0.4-0.9,0.6
	l-0.2-0.7v-0.1v-0.1c0-0.2,0.3-0.4,0.8-0.7c0.6-0.2,1.2-0.3,1.8-0.3c0.6,0,1.2,0.1,1.6,0.5c0.4,0.4,0.6,0.9,0.5,1.4v3.8
	c0,0.3,0,0.5,0.1,0.7c0.1,0.2,0.3,0.4,0.5,0.5l-0.9,0.4l-0.2,0.1h-0.1c-0.1,0-0.2-0.1-0.3-0.2c-0.1-0.2-0.2-0.3-0.3-0.5
	c-0.2,0.2-0.5,0.4-0.8,0.5c-0.3,0.1-0.7,0.2-1,0.2c-0.5,0-1-0.1-1.4-0.5c-0.4-0.4-0.5-0.8-0.5-1.4c0-0.7,0.3-1.4,0.9-1.8
	C210.8,168.2,211.8,168,212.7,168L212.7,168z M223.8,171L223.8,171c0.8,0,1.5-0.2,2.2-0.6c0.5-0.4,0.8-1,0.8-1.7
	c0-0.5-0.2-0.9-0.6-1.2c-0.5-0.3-1-0.5-1.6-0.4c-0.2,0-0.3,0-0.5,0l-0.6,0.1l-0.6,3.9L223.8,171z M226.4,166.5L226.4,166.5
	c0.5,0.1,1,0.4,1.3,0.8c0.3,0.4,0.5,0.9,0.4,1.4c0,1-0.4,1.9-1.1,2.5c-0.9,0.7-2,1-3.1,0.9c-0.3,0-0.6,0-1,0s-0.8,0-1,0h-0.4h-0.4
	c0.1-0.2,0.2-0.4,0.3-0.6c0.1-0.3,0.2-0.6,0.2-0.9l1-6.5c0-0.1,0-0.2,0.1-0.3c0-0.1,0-0.1,0-0.2c0-0.2-0.1-0.4-0.2-0.5
	c-0.2-0.1-0.4-0.2-0.6-0.2h-0.4h-0.1l0.3-0.6c0.1-0.2,0.2-0.3,0.3-0.4c0.1-0.1,0.3-0.1,0.4-0.1c0.3,0,0.5,0.1,0.7,0.2
	c0.2,0.2,0.4,0.4,0.5,0.6c0.3-0.3,0.6-0.5,1-0.7c0.4-0.2,0.8-0.2,1.2-0.2c0.6,0,1.3,0.2,1.8,0.6c0.4,0.4,0.7,1,0.7,1.6
	c0,0.6-0.2,1.2-0.5,1.6C227.5,165.9,227,166.3,226.4,166.5L226.4,166.5z M223.6,166.1L223.6,166.1h0.2h0.2c0.8,0,1.5-0.2,2.2-0.6
	c0.5-0.4,0.8-1,0.8-1.6c0-0.3-0.1-0.6-0.3-0.8c-0.2-0.2-0.6-0.3-0.9-0.3c-0.3,0-0.7,0.1-1,0.2c-0.3,0.2-0.6,0.4-0.8,0.7L223.6,166.1
	L223.6,166.1z M231.5,168.9L231.5,168.9L231.5,168.9c0,0.2,0,0.4,0,0.5c0,0.5,0.1,0.9,0.4,1.3c0.3,0.3,0.7,0.5,1.1,0.5
	c0.3,0,0.7-0.1,1-0.2c0.4-0.2,0.7-0.4,1-0.7l-0.1,0.7c-0.1,0.4-0.3,0.8-0.7,1c-0.5,0.3-1,0.4-1.5,0.4c-0.7,0-1.3-0.2-1.7-0.7
	c-0.4-0.6-0.7-1.3-0.6-2c0-0.6,0.1-1.3,0.3-1.9c0.2-0.6,0.5-1.1,0.9-1.6c0.3-0.4,0.7-0.7,1.2-0.9c0.4-0.2,0.9-0.3,1.4-0.3
	c0.4,0,0.8,0.1,1.1,0.4c0.3,0.2,0.5,0.6,0.4,0.9c0,0.8-0.4,1.6-1.1,2c-0.9,0.6-1.9,0.8-2.9,0.8L231.5,168.9z M231.7,168.1
	L231.7,168.1c0.7,0,1.4-0.2,2-0.6c0.4-0.2,0.7-0.7,0.8-1.2c0-0.2,0-0.3-0.2-0.4c-0.1-0.1-0.3-0.2-0.4-0.2c-0.5,0-0.9,0.3-1.2,0.7
	C232.2,166.9,231.9,167.5,231.7,168.1L231.7,168.1z M240.8,165.9L240.8,165.9c-0.2,0-0.5,0.1-0.7,0.2c-0.3,0.1-0.5,0.3-0.6,0.5
	c-0.3,0.4-0.6,0.9-0.8,1.4c-0.2,0.5-0.3,1.1-0.3,1.7c0,0.4,0.1,0.8,0.3,1.1c0.2,0.3,0.5,0.4,0.8,0.4c0.3,0,0.6-0.1,0.8-0.3
	c0.3-0.2,0.5-0.5,0.7-0.9c0.2-0.5,0.4-0.9,0.6-1.4c0.1-0.5,0.2-1,0.2-1.5c0-0.3-0.1-0.7-0.3-0.9C241.3,166,241.1,165.9,240.8,165.9
	L240.8,165.9z M241.6,170.8L241.6,170.8c-0.2,0.4-0.6,0.8-1,1.1c-0.4,0.3-0.9,0.4-1.3,0.4c-0.6,0-1.2-0.2-1.6-0.7
	c-0.4-0.5-0.6-1.2-0.6-1.9c0-1.1,0.3-2.2,0.9-3.1c0.3-0.5,0.8-1,1.3-1.3c0.5-0.3,1-0.5,1.6-0.5c0.3,0,0.6,0.1,0.9,0.2
	c0.3,0.1,0.5,0.3,0.6,0.6c0.1-0.2,0.1-0.3,0.3-0.4c0.1-0.1,0.2-0.1,0.3-0.1h0.9c-0.4,0.8-0.6,1.6-0.8,2.5c-0.2,0.9-0.3,1.8-0.3,2.6
	c0,0.4,0.1,0.7,0.2,1c0.2,0.2,0.5,0.4,0.8,0.3c0,0.2-0.1,0.4-0.3,0.6c-0.2,0.1-0.4,0.2-0.6,0.2c-0.3,0-0.6-0.1-0.8-0.4
	C241.8,171.6,241.7,171.2,241.6,170.8L241.6,170.8z M252.1,164.9L252.1,164.9l-0.8,5c0,0.1,0,0.1,0,0.2c0,0.2,0,0.3,0,0.5
	c0,0.2,0,0.4,0.2,0.5c0.2,0.1,0.3,0.2,0.5,0.2h0.3h0.1l-0.3,0.6c0,0.1-0.1,0.2-0.3,0.3c-0.1,0.1-0.3,0.1-0.5,0.1
	c-0.3,0-0.6-0.1-0.9-0.3c-0.2-0.2-0.4-0.5-0.4-0.8c-0.3,0.3-0.6,0.6-1.1,0.8c-0.4,0.2-0.9,0.3-1.3,0.3c-0.4,0-0.8-0.1-1.2-0.4
	c-0.3-0.3-0.4-0.6-0.4-1c0-0.1,0-0.2,0-0.4c0-0.1,0.1-0.3,0.1-0.6l0.4-3c0-0.1,0-0.2,0-0.3v-0.2c0-0.2-0.1-0.4-0.2-0.5
	c-0.2-0.1-0.4-0.2-0.6-0.2l0.2-0.6c0-0.1,0.1-0.2,0.2-0.3c0.1-0.1,0.2-0.1,0.4-0.1c0.3,0,0.6,0.1,0.9,0.4c0.2,0.3,0.3,0.6,0.3,1
	c0,0.1,0,0.3-0.1,0.6l-0.1,0.4l-0.4,3c0,0.1,0,0.2,0,0.2c0,0.1,0,0.1,0,0.2c0,0.2,0,0.3,0.1,0.4c0.1,0.1,0.3,0.1,0.4,0.1
	c0.3,0,0.6-0.1,0.9-0.2c0.3-0.1,0.5-0.3,0.8-0.5c0.2-0.2,0.3-0.4,0.4-0.7c0.1-0.4,0.2-0.8,0.3-1.3l0.4-2.4c0,0,0-0.1,0-0.1
	c0-0.2,0-0.3,0-0.5c0-0.1,0-0.1,0-0.2c0-0.1,0-0.2,0-0.2L252.1,164.9L252.1,164.9z M257.3,162.8L257.3,162.8L257,165h0.4h0.3
	l0.4-0.1l-0.1,0.6c0,0.1-0.1,0.2-0.2,0.3c-0.1,0.1-0.3,0.1-0.4,0.1h-0.5l-0.6,3.9c0,0.1,0,0.3,0,0.3v0.2c0,0.2,0.1,0.5,0.2,0.7
	c0.2,0.2,0.4,0.2,0.6,0.2c0.1,0,0.2,0,0.4,0c0.1,0,0.3-0.1,0.4-0.1l-0.1,0.6c0,0.2-0.1,0.3-0.3,0.4c-0.2,0.1-0.5,0.2-0.8,0.1
	c-0.5,0-0.9-0.1-1.3-0.4c-0.3-0.3-0.5-0.7-0.4-1.2c0-0.2,0-0.4,0-0.6c0-0.2,0.1-0.5,0.1-0.7l0.5-3.4c-0.2,0-0.3,0-0.5,0h-0.4
	l0.1-0.6c0-0.1,0.1-0.3,0.1-0.4c0.1-0.1,0.3-0.1,0.4-0.1h0.5l0.1-1.1v-0.2v-0.1c0-0.1,0-0.2,0-0.3c0-0.1,0-0.1,0-0.2L257.3,162.8
	L257.3,162.8z M262.3,164.8L262.3,164.8l-0.7,4.9c0,0.2,0,0.4-0.1,0.5s0,0.2,0,0.3c0,0.2,0.1,0.4,0.2,0.6c0.2,0.1,0.4,0.2,0.6,0.2
	h0.3l-0.3,0.6c0,0.1-0.1,0.2-0.2,0.3c-0.1,0.1-0.2,0.1-0.4,0.1c-0.4,0-0.8-0.1-1.1-0.4c-0.3-0.3-0.4-0.8-0.4-1.2c0-0.1,0-0.3,0-0.4
	c0-0.2,0-0.3,0.1-0.5l0.5-3.5c0-0.1,0-0.2,0-0.3c0-0.1,0-0.2,0-0.3c0-0.1,0-0.3-0.1-0.4v-0.1L262.3,164.8L262.3,164.8z M262.1,161.9
	L262.1,161.9c0.4,0,0.7,0.3,0.7,0.7c0,0,0,0,0,0l0,0c0,0.2-0.1,0.4-0.3,0.6c-0.2,0.2-0.4,0.2-0.6,0.2c-0.2,0-0.4-0.1-0.5-0.2
	c-0.1-0.1-0.2-0.3-0.2-0.5c0-0.2,0.1-0.4,0.3-0.6C261.6,161.9,261.9,161.8,262.1,161.9L262.1,161.9z M269,162L269,162l-0.2,0.4
	c-0.1-0.1-0.2-0.1-0.3-0.2c-0.1,0-0.2-0.1-0.3-0.1c-0.2,0-0.4,0.1-0.5,0.3c-0.2,0.2-0.3,0.5-0.3,0.8l-0.3,1.8h0.6c0.1,0,0.2,0,0.3,0
	l-0.1,0.5c0,0.1-0.1,0.3-0.2,0.4c-0.1,0.1-0.2,0.1-0.4,0.1H267l-0.8,5.2c-0.1,1-0.3,1.9-0.7,2.9c-0.3,0.7-0.6,1-0.9,1h-1.2
	c0.4-0.4,0.7-0.9,0.9-1.5c0.3-0.8,0.5-1.6,0.6-2.5l0.8-5.1h-0.2c-0.1,0-0.2,0-0.3,0c-0.1,0-0.2,0-0.3,0l0.1-0.6
	c0-0.1,0.1-0.2,0.1-0.3c0.1-0.1,0.2-0.1,0.4-0.1h0.4l0.3-1.8c0.1-0.6,0.3-1.1,0.7-1.6c0.4-0.4,0.9-0.5,1.4-0.5c0.2,0,0.4,0,0.7,0.1
	c0.1,0.1,0.2,0.2,0.2,0.3c0,0.1,0,0.1,0,0.2C269.1,161.9,269.1,162,269,162L269,162z M275.9,164.9L275.9,164.9l-0.8,5
	c0,0.1,0,0.1,0,0.2c0,0.3,0,0.4,0,0.5c0,0.2,0,0.4,0.2,0.5c0.2,0.1,0.4,0.2,0.5,0.2h0.2h0.1h0.1l-0.3,0.6c0,0.1-0.1,0.2-0.3,0.3
	c-0.1,0.1-0.3,0.1-0.5,0.1c-0.3,0-0.6-0.1-0.9-0.2c-0.2-0.2-0.4-0.5-0.4-0.8c-0.3,0.3-0.7,0.6-1.1,0.8c-0.4,0.2-0.9,0.3-1.3,0.2
	c-0.4,0-0.8-0.1-1.2-0.3c-0.3-0.3-0.4-0.6-0.4-1c0-0.1,0-0.2,0-0.4c0-0.1,0-0.3,0.1-0.6l0.4-3c0-0.1,0-0.2,0-0.3v-0.2
	c0-0.2-0.1-0.4-0.2-0.5c-0.1-0.1-0.3-0.2-0.5-0.2l0.2-0.6c0-0.1,0.1-0.2,0.2-0.3c0.1-0.1,0.2-0.1,0.4-0.1c0.3,0,0.7,0.1,0.9,0.4
	c0.2,0.3,0.3,0.6,0.3,1c0,0.1,0,0.3-0.1,0.6c0,0.2,0,0.3-0.1,0.4l-0.4,3c0,0.1,0,0.2,0,0.2c0,0.1,0,0.1,0,0.2c0,0.2,0,0.3,0.1,0.4
	c0.1,0.1,0.3,0.1,0.5,0.1c0.3,0,0.6-0.1,0.9-0.2c0.3-0.1,0.5-0.3,0.8-0.5c0.2-0.2,0.3-0.4,0.4-0.7c0.1-0.4,0.2-0.9,0.3-1.3l0.4-2.4
	v-0.1c0-0.2,0-0.3,0-0.5c0-0.1,0-0.1,0-0.2c0-0.1,0-0.2,0-0.2L275.9,164.9L275.9,164.9z M281.1,161.1L281.1,161.1l-1.3,8.6
	c0,0.2-0.1,0.3-0.1,0.5c0,0.1,0,0.2,0,0.4c0,0.2,0,0.4,0.2,0.6c0.2,0.1,0.4,0.2,0.6,0.2h0.3h0.1l-0.3,0.6c0,0.1-0.1,0.2-0.2,0.3
	c-0.1,0.1-0.3,0.1-0.4,0.1c-0.4,0-0.8-0.1-1.1-0.4c-0.3-0.3-0.4-0.7-0.4-1.1c0-0.4,0.1-0.7,0.1-1.1v-0.1l1.1-7.2c0-0.1,0-0.3,0-0.4
	c0-0.1,0-0.2,0-0.2c0-0.1,0-0.1,0-0.2c0-0.1,0-0.1,0-0.2L281.1,161.1L281.1,161.1z"/>
</svg>
