<?xml version="1.0" encoding="utf-8"?>
<!-- Generator: Adobe Illustrator 26.0.3, SVG Export Plug-In . SVG Version: 6.00 Build 0)  -->
<svg version="1.0" id="Layer_1" xmlns="http://www.w3.org/2000/svg" xmlns:xlink="http://www.w3.org/1999/xlink" x="0px" y="0px"
	 viewBox="0 0 549 391.4" style="enable-background:new 0 0 549 391.4;" xml:space="preserve">
<style type="text/css">
	.st0{fill-rule:evenodd;clip-rule:evenodd;fill:#ED1D24;}
</style>
<path class="st0" d="M286.5,146h32.2c0,23.4-20.1,42.7-44.2,42.7c-24.4,0-44.3-19.2-44.3-42.7s19.9-42.7,44.3-42.7
	c10.9,0,30.4,6.6,37.2,18.3L286.5,146z M258.9,162.3V150h26v12.3c0,7.2-5.8,13-13,13S258.9,169.5,258.9,162.3 M284.9,131.1v12.4h-26
	v-12.4c0-7.2,5.8-13,13-13S284.9,123.9,284.9,131.1"/>
<path class="st0" d="M124.4,268.1c-0.1,5.5-1.6,9.8-4.4,12.9c-2.4,2.8-6.3,5.1-11.7,7l-2.3-3.5c2.6-0.8,4.4-1.9,5.2-3.1
	s1.2-3,1.2-5.8l0.1-5.2c-5.3,3.1-9.6,4.6-12.9,4.6c-3.9,0-7.7-1.5-11.4-4.4c-3.4-2.5-6-6-7.5-10c-1.1-3.1-1.6-6.5-1.6-9.8
	c0-7.5,2.6-13.6,7.8-18.2c3.4-3.1,9.2-6.2,17.3-9.5c5.8,0,11.9,2.7,18.2,8.2l-6.4,9.9c-4.2-6.4-9.4-10.2-15.4-11.4
	c-3.7,0.9-6.3,2.5-7.8,4.7c-1.6,2.5-2.4,6.5-2.4,12c-0.2,5.8,1.6,11.4,5,16.1c3.3,4.3,6.9,6.5,10.8,6.5c0.9,0,3.1-2.1,6.5-6.2
	l0.2-8.2c0-1.4-0.4-2.3-1.2-2.5h-0.5h-1.6v-3.5l15.4-1.7L124.4,268.1z M152.7,272.9c-0.9,0.3-3.1,0.4-6.7,0.1l-4.5-0.3l-2.9,0.2
	l-4.8,0.4l-0.2-47.4c0-0.8-0.5-3.4-1.3-7.9c-0.2-1.3-0.6-1.9-1.2-1.9l-0.5-0.1l-1.6,0.4v-3.7l13.3-3.7c2.1,8,3.2,14.5,3.2,19.5v6.8
	l-0.4,31.4l3,0.4l1.3,0.1l1,0.1c0.5-0.1,1-0.2,1.4-0.5l4.8-3.1l2.5,3C156.8,270.2,154.6,272.2,152.7,272.9 M196.9,268.9
	c-1.8,1.7-4.6,3-8.5,4l-9.2,1.7c-5.9-0.6-11.3-3.4-15.2-7.9c-3.8-4.4-5.7-9.9-5.6-16.6c0-7.7,2.5-13.8,7.4-18.3
	c3.8-3.4,9.8-6.4,17.9-8.8c5.6,0,11.3,2.9,17,8.6l-8,6.8c-2.4-2.6-5.2-4.9-8.3-6.8c-2.7-1.5-4.6-2.2-5.7-2.2c-2.6,0-4.8,1.9-6.6,5.8
	c-1.4,2.9-2.2,6.1-2.4,9.4l17.5,0.4c2.9,0,5.7-0.9,8.1-2.4l2,3.6c-2.5,1.7-5.1,3.1-7.9,4.1c-2.9,0.9-5.9,1.3-8.9,1.3l-10.5,0.1
	c0.7,4.3,2.7,8.2,5.9,11.2c3.5,3.6,7,5.4,10.6,5.4c3.2,0,5.7-4,7.5-12.1l7.7,2.8C200.4,263.6,198.9,266.9,196.9,268.9 M239.9,273.9
	c-0.9,0-1.6-0.6-2.1-1.8c-0.5-0.9-0.8-2-0.7-3v-1.5l0.1-1.3l2.3-23.3c0-0.4,0.1-0.7,0.1-1.1c0-2.4-1.3-4.8-4-7.1
	c-2.3-2.1-5.3-3.4-8.5-3.5c-2.1,1.5-3.8,3.6-4.8,6c-1.3,2.4-2,5.1-2.1,7.9l-0.4,27.3l-11.3,1.7l0.6-33l-0.3-2.7l-0.4-2.4l-1.3-4.7
	c0.1-0.2,0.1-0.4-0.1-0.6c-0.2-0.2-0.2-0.2-0.3-0.1h-1.5l-1-3.9l12.9-3.5l2.1,6.1l0.6,2.4c5.1-4.9,9.8-7.8,14.2-8.7
	c4.7,0.7,9,3,12.1,6.5c3.7,4,5.3,8.2,5.1,12.7c0,0.4-0.1,1.1-0.2,2l-2.5,21.9c0,0.6,0.1,1.3,0.3,1.9c0,0.1,0,0.1,0,0.2l0.2,0
	l2.1-0.2l0.4,4.1L239.9,273.9z M314.6,274l-0.6-0.5c-0.1,0-0.1-0.1-0.2-0.1c-1.1-1-1.6-3-1.4-5.7l0.1-1.3l2.3-24.4
	c0.1-2.6-0.8-5.1-2.6-7.1c-1.9-2.3-4-3.5-6.3-3.5c-0.8,0-1.7,0.2-2.5,0.5c-1.3,1.9-2.5,3.9-3.5,5.9l-0.4,1l-0.4,33.6l-11.3,1.7
	l0.7-32.1c0.1-2.6-0.7-5.1-2.2-7.2c-1.4-2.1-3.8-3.4-6.4-3.4c-0.3,0-0.6,0-0.9,0.1l-1.8,0.5l-2.7,4.5c-0.5,0.6-0.8,1.3-1,2.1
	l-0.3,33.8l-11.3,1.7l0.6-33l-0.3-2.7l-0.4-2.4l-1.3-4.7c0.1-0.2,0-0.4-0.1-0.6c-0.1-0.2-0.2-0.2-0.3-0.1h-1.4l-1-3.9l12.8-3.5
	c1.1,3.1,1.9,5.4,2.3,7c3-3.4,6.9-5.9,11.2-7.2h0.6c5,0,9.3,2.9,12.9,8.6c3.1-4.1,7.5-7.2,12.5-8.6c4.2,0,8,2,11.4,6
	c3.4,4,5.2,8,5.2,11.9l-0.2,1.4l-0.2,2l-2.3,20.7c-0.1,1.2,0,2.3,0.2,3.5h0.4l2-0.6l0.4,4.4L314.6,274z M365.3,275.1l-4.4-6.3
	l-1.7-3.1c-6.5,4.7-13,7.4-19.3,8.1c-2.1-0.7-4-1.9-5.5-3.5c-1.6-1.6-2.6-3.7-2.7-6c0-6.5,6.8-12.9,20.5-19.2
	c-1.4-4.6-2.3-7.2-2.5-7.8c-1-2.5-2.7-4.7-4.9-6.2l-4.2,2.8l-2.6-3.1l7.1-5.6l2.6-1.8l2.1-0.5c2.9,0,5.7,1.9,8.6,5.7
	c1.6,2.2,3.5,7.7,5.7,16.4c2,8.4,5.6,16.4,10.6,23.4L365.3,275.1z M353.5,250.2l1.1,0.7h-1.5c-2.9-0.1-5.8,0.8-8.2,2.6
	c-2,1.3-3.2,3.6-3.3,6c0,1.9,1.8,4.3,5.3,7.3l0.4,0h0.7c4.2,0,7-2.4,8.3-7.3L353.5,250.2z M391.7,260.2l-0.2,12.3l-11.3,1.6
	l0.6-32.9l-0.3-2.7l-0.4-2.4l-1.3-4.7c0.1-0.2,0.1-0.4-0.1-0.6c-0.1-0.1-0.3-0.2-0.4-0.1h-1.4l-1-3.9l12.8-3.5l1.6,4.2l0.5,1.8
	c3.3-2.6,7-4.7,10.9-6.3c5.5,0.5,9.9,2.3,13.2,5.4c3.6,3.4,5.4,7.8,5.4,13.4c0,7-4.6,12.3-13.8,15.9c6.5,7.8,11.1,11.7,13.9,11.7
	h0.7l2-0.3v3.5c-2.3,1.2-4.8,1.9-7.3,1.9c-0.9,0.1-1.8,0.2-2.7,0.2c-4.2,0-8.8-2.4-13.6-7.3l-3.7-3.6l-0.7-0.9
	C394.1,262,392.9,261,391.7,260.2 M391.7,256.4h1.3c3.7,0.1,7.3-0.7,10.6-2.4c3.4-1.8,5.4-5.3,5.3-9.1c0-3.6-1.3-7.1-3.8-9.8
	c-2.5-2.8-5.2-4.3-8.1-4.3c-0.3,0-0.5,0-0.8,0.1l-1.3,0.5c-1.3,2.4-2.2,5-2.7,7.8c-0.2,1.5-0.4,3-0.4,4.5L391.7,256.4z M448.6,248.9
	c1.9,0.9,4.5,3.3,7.5,7.4l2.9,3.8l0.6,1c4.2,5.4,7.4,8.2,9.6,8.2l0.7,3.3l-5.4,1.7l-4.1,0.5c-2.1,0-4.5-1.4-7.3-4.3
	c-0.7-0.8-2.7-3.1-5.8-6.9l-0.6-0.9c-2.6-3.2-4.3-4.9-5.2-5.1l-1,1.1v13.6l-11.3,1.9v-38.3c0-4.9-0.3-9.7-1-14.5
	c-0.5-3.2-0.9-4.8-1.3-4.8h-0.6l-1.4,0.3l-0.9-3.9l13.1-3.8c2.3,5.8,3.4,15.5,3.4,29.1V250c7.7-9.1,12.3-17.8,13.8-26h11.9
	c-1.8,3.9-4.1,7.7-6.6,11.2C456.7,239.1,453.1,243.7,448.6,248.9"/>
</svg>
