<?xml version="1.0" encoding="utf-8"?>
<!-- Generator: Adobe Illustrator 26.0.3, SVG Export Plug-In . SVG Version: 6.00 Build 0)  -->
<svg version="1.0" id="Layer_1" xmlns="http://www.w3.org/2000/svg" xmlns:xlink="http://www.w3.org/1999/xlink" x="0px" y="0px"
	 viewBox="0 0 826 626" style="enable-background:new 0 0 826 626;" xml:space="preserve">
<style type="text/css">
	.st0{fill:#E91A4E;}
	.st1{fill:#00205B;}
	.st2{fill:url(#SVGID_1_);}
	.st3{fill:url(#SVGID_00000116913992676412683540000009413473853431937174_);}
</style>
<g>
	<g>
		<path class="st0" d="M107.3,368.3c-0.1,1.2-0.3,2.5-0.3,3.7c0,19.2,0,38.4,0,57.6c0,4.5-0.6,5.1-5,5.1c-3.1,0-6.2,0-9.3,0
			c-3.6,0-4.2-0.6-4.3-4.4c0-2.7,0-5.3,0-8c0-29.8,0-59.6,0.1-89.4c0-1.3,0.7-3.3,1.6-3.8c1.8-0.9,4-1,5.8,0.9
			c14.1,15.1,28.3,30.1,42.4,45.2c5.5,5.9,11,11.7,16.6,17.5c0.6,0.6,1.3,1.1,2.6,2.1c0.1-2.2,0.3-3.6,0.3-5c0-17.7,0-35.5,0-53.2
			c0-6.3,0-6.3,6.2-6.4c2.9,0,5.9,0,8.8,0c3.1,0,3.8,0.8,3.9,4c0,1.7,0,3.5,0,5.2c0,30.8,0,61.6,0,92.5c0,3.8-1.1,4.8-4.7,4.3
			c-0.9-0.1-1.8-0.8-2.4-1.4c-10.6-11.6-21.2-23.2-31.8-34.8c-9-9.9-18-19.7-27-29.6c-0.8-0.8-1.7-1.5-2.6-2.3
			C107.9,368.1,107.6,368.2,107.3,368.3z"/>
		<path class="st0" d="M281.5,382.4c0-15.6,0-31.3,0-46.9c0-4.8,0.3-5.2,5.1-5.2c13.7,0,27.4-0.2,41.2,0
			c18.2,0.2,32.5,15.2,31.7,33.3c-0.6,12.1-7.2,20.6-17.4,26.5c-0.7,0.4-1.4,0.8-2.2,1.1c-1.9,0.8-2.4,1.9-1.3,3.9
			c4,7.4,8,14.8,11.9,22.2c2.3,4.2,4.6,8.3,6.8,12.5c1.8,3.4,0.8,5-2.9,5c-4.4,0-8.8-0.1-13.2,0c-2.1,0.1-3.2-0.9-4.1-2.6
			c-5.6-11.1-11.1-22.2-16.7-33.3c-0.5-0.9-0.9-1.8-1.3-2.7c-0.8-1.9-2.1-2.7-4.2-2.7c-3.5,0.2-6.9,0-10.4,0c-3.9,0-4.1,0.1-4.1,3.9
			c0,10.6,0,21.2,0,31.8c0,0.8,0,1.6,0,2.5c-0.1,1.8-1,2.9-2.9,2.9c-4.3,0-8.6,0.1-12.9,0c-2.5,0-2.9-1.7-2.9-3.8c0-7.7,0-15.4,0-23
			C281.6,399.4,281.6,390.9,281.5,382.4C281.6,382.4,281.6,382.4,281.5,382.4z M300.4,362.7L300.4,362.7c0,4,0.1,8,0,12.1
			c-0.1,2.3,0.7,3.3,3.1,3.3c7.4-0.1,14.8,0,22.2-0.1c6.4,0,10.7-3.4,13.4-8.9c4.9-10.1-2.2-21.3-13.8-21.6
			c-7.2-0.2-14.4,0-21.6-0.1c-2.6,0-3.4,1.1-3.3,3.5C300.5,354.8,300.4,358.8,300.4,362.7z"/>
		<path class="st0" d="M390.8,426.2c4.1,1,8.2,2.3,12.4,2.9c16.5,2.2,30.5-3,41.7-15.2c9.6-10.4,13.9-22.9,11.7-36.8
			c-4-25.9-33.5-38.6-54.9-23.4c-14.4,10.3-19.7,30.1-9.9,46.6c8.3,14,25.1,20.4,40,15.7c0.7-0.2,1.4-0.4,2.1-0.6
			c0.1,0.2,0.3,0.4,0.4,0.6c-1.9,1.2-3.7,2.5-5.7,3.5c-17.6,8.8-38.4,4.5-50.9-10.6c-11.5-13.9-12.3-29.5-6.3-45.7
			c8.5-22.7,30.1-36.8,54.3-35.1c31.3,2.3,53.2,29.2,50.2,59.2c-2.1,21.4-13.5,36.7-33.3,44.9C424.6,439.7,407.1,437.3,390.8,426.2z
			"/>
		<path class="st0" d="M198.5,382.3c0-15.7,0-31.5,0-47.2c0-4.4,0.5-4.9,4.9-4.9c19.1,0,38.2,0,57.4,0c3.2,0,3.9,0.7,3.9,3.9
			c0,3,0,6,0,9.1c0,3.8-0.5,4.3-4.2,4.3c-12.5,0-25.1,0-37.6,0c-5.5,0-5.5,0-5.5,5.6c0,5.2,0,10.4,0,15.6c0,4.1,0.2,4.2,4.1,4.2
			c10.3,0,20.7,0,31,0c4.4,0,5,0.6,5,4.8c0,2.7,0,5.5,0,8.2c0,3.7-0.6,4.4-4.3,4.4c-10.6,0-21.2,0-31.8,0c-4,0-4,0-4,4
			c0,6.6,0.1,13.2,0,19.8c0,2.5,0.9,3.4,3.4,3.4c13.1-0.1,26.2,0,39.2,0c4.4,0,4.7,0.4,4.8,4.6c0,3,0.1,6,0.1,9.1
			c0,2.4-1.1,3.7-3.7,3.7c-19.6,0-39.1-0.1-58.7,0c-2.8,0-3.7-1.4-3.7-3.9c0-10.2-0.1-20.5-0.1-30.7
			C198.5,394.2,198.5,388.2,198.5,382.3z"/>
		<path class="st0" d="M643,434.8c-0.9,0-1.8-0.1-2.7,0c-4.7,0.8-7-1.6-8.6-5.7c-1.5-3.8-3.4-7.5-5.1-11.2c-0.7-1.7-1.8-2.3-3.6-2.3
			c-13.4,0-26.9,0-40.3,0c-2.1,0-3.1,0.9-3.9,2.7c-1.9,4.4-4.1,8.8-6,13.2c-1.1,2.3-2.7,3.5-5.3,3.4c-3.6-0.1-7.1,0-10.7,0
			c-3.5-0.1-4.5-1.5-3-4.7c6.5-14.1,13.1-28.2,19.6-42.3c8.3-17.8,16.5-35.6,24.7-53.5c0.5-1.1,0.8-2.3,1.6-3.2c1-1,2.3-2.2,3.6-2.2
			c1.1,0,2.6,1.2,3.3,2.2c1.4,2.3,2.3,5,3.4,7.5c12.8,27.9,25.6,55.8,38.4,83.7c1.3,2.7,2.4,5.5,3.6,8.3c1.1,2.6,0.2,4-2.6,4.1
			C647.2,434.8,645.1,434.7,643,434.8C643,434.7,643,434.7,643,434.8z M602.5,399.6c4.2,0,8.4,0,12.6,0c1.9,0,3-0.7,2-2.9
			c-4.4-9.6-8.8-19.3-13.2-28.9c-0.2-0.5-0.9-1.3-1.2-1.2c-0.6,0.1-1.2,0.7-1.5,1.3c-4.3,9.6-8.5,19.2-12.8,28.7c-1,2.3-0.2,3,2,3
			C594.5,399.6,598.5,399.6,602.5,399.6z"/>
		<path class="st0" d="M649.2,382.4c0.1-25.5,17.7-47.4,42.9-52.5c17.1-3.4,32.9-0.1,46.3,11.9c2.3,2.1,2.4,3.2,0.2,5.5
			c-2.3,2.4-4.5,4.8-6.8,7.1c-2.5,2.5-3.2,2.5-6,0.3c-9.3-7.3-19.8-9.7-31.2-6.6c-14,3.9-24,16.6-24.8,31.2
			c-0.8,14.1,4.5,25.6,16.6,33c11.5,7.1,23.4,6.6,35.2,0c1.7-0.9,3.3-2,4.8-3.1c1.8-1.2,3.4-1.2,4.9,0.3c2.7,2.7,5.4,5.5,8,8.3
			c1.8,1.9,0.9,3.7-0.8,4.9c-5,3.3-9.8,7.1-15.2,9.6c-10,4.5-20.6,5-31.4,2.8C666.8,429.8,649.1,408,649.2,382.4z"/>
		<path class="st0" d="M489.8,382.5c0-15.1,0-30.2,0-45.2c0-1.1,0.1-2.2,0.1-3.3c-0.1-2.7,1.2-3.8,3.9-3.7c3.7,0.1,7.5,0.1,11.2,0
			c2.6,0,3.7,1.2,3.7,3.6c0,1.5,0,2.9,0,4.4c0,25,0,49.9,0,74.9c0,4.2,0,4.3,4.3,4.3c10,0,19.9,0,29.9,0c3.4,0,4.2,0.8,4.2,4.2
			c0,3.1,0,6.2,0,9.3c-0.1,2.9-0.9,3.8-3.8,3.8c-16.6,0-33.3,0-49.9,0c-2.8,0-3.6-1-3.6-4.3c0-13.2,0-26.3,0-39.5
			C489.8,388.1,489.8,385.3,489.8,382.5z"/>
	</g>
	<g>
		<g>
			<g>
				<path class="st1" d="M176.3,241.2h10.6c5.4,0,9.2,3.5,9.2,8.5s-3.8,8.5-9.2,8.5h-5.7v8.8h-4.9L176.3,241.2L176.3,241.2z
					 M181.2,254.3h4.9c2.9,0,4.9-1.9,4.9-4.6s-2-4.6-4.9-4.6h-4.9V254.3z"/>
				<path class="st1" d="M205.5,241.2h4.7l10.6,25.8h-5.1l-2.4-6.1h-10.8l-2.4,6.1H195L205.5,241.2z M203.8,257.2h8.1l-4-10.3
					L203.8,257.2z"/>
				<path class="st1" d="M223.5,241.2h4.9V265v2h-4.9V241.2z"/>
				<path class="st1" d="M234.3,241.2h5L253,260v-18.8h4.7V267h-5L239,248.2V267h-4.7V241.2z"/>
				<path class="st1" d="M270,245.3h-8.5v-4h21.9v4h-8.5v21.8H270V245.3L270,245.3z"/>
			</g>
			<g>
				<path class="st1" d="M317.1,221.5c0,6.5-5.8,10.9-14,10.9c-4.3,0-9-0.9-14-2.9l2.1-7.1c4.1,1.6,8,2.6,11.1,2.6
					c3.4,0,5.3-1.3,5.3-3.4c0-5.9-18.4-1.5-18.4-14.9c0-6.3,5.7-10.7,13.8-10.7c4.1,0,8.2,0.8,12.7,2.5l-2.1,7.1
					c-3.6-1.4-6.9-2.1-9.9-2.1c-3.1,0-5.1,1.2-5.1,3.2C298.7,212.3,317.1,207.7,317.1,221.5z"/>
				<polygon class="st1" points="358.1,196.6 358.1,231.8 367.7,231.8 367.7,229.5 367.7,196.6 				"/>
				<path class="st1" d="M274.6,216.8c-6.6-9.2-14.9-19-16.1-20.2h-9.1v35.2h8.9v-22c4.6,5.4,12.7,16.8,15.9,22h9.3v-35.2h-8.8
					L274.6,216.8L274.6,216.8z"/>
				<path class="st1" d="M232.7,196.6h-9.9c-6.3,13.1-11.4,27.5-13.3,34.4l-15-18.1c4.6-4.5,11.6-12.5,14.5-16.4h-11.4
					c-2.4,3-10.3,11.3-12,12.8v-12.8h-9.2v35.2h9.2v-10.3c0,0,2-1.8,2.8-2.6l10.7,12.9h19.5c0.1-0.5,1.6-4.9,2.3-7.1h13.9
					c0.8,2.2,2.2,6.6,2.3,7.1h9.2C244.4,225.2,239.2,210.2,232.7,196.6z M223.3,217.7c0.2-0.5,3.1-7.9,4.4-10.9
					c1.3,3,4.2,10.3,4.4,10.9H223.3z"/>
				<path class="st1" d="M341.4,196.6h-9.9c-6.5,13.7-11.8,28.7-13.5,35.2h9.2c0.1-0.5,1.6-4.9,2.3-7.1h13.9
					c0.8,2.2,2.2,6.6,2.3,7.1h9.2C353.2,225.2,348,210.2,341.4,196.6z M332.1,217.7c0.2-0.5,3.1-7.9,4.4-10.9
					c1.3,3,4.2,10.3,4.4,10.9H332.1z"/>
			</g>
		</g>
		<g>
			
				<linearGradient id="SVGID_1_" gradientUnits="userSpaceOnUse" x1="85.7" y1="-10.9" x2="165" y2="-10.9" gradientTransform="matrix(1 0 0 1 0 252)">
				<stop  offset="0" style="stop-color:#8A2432"/>
				<stop  offset="3.640000e-02" style="stop-color:#991F31"/>
				<stop  offset="0.1438" style="stop-color:#BF132E"/>
				<stop  offset="0.2" style="stop-color:#CE0E2D"/>
			</linearGradient>
			<path class="st2" d="M118,274.2H95.3c-2,0-4.4-2-6.3-3.9c-1.3-1.2-3.3-3.5-3.3-5.7c0,0,0-0.2,0-0.4c0.3-2.3,3.9-6.8,9-12.3
				c1.8,2,4,4.4,6.8,7.3C105.7,263.7,112.7,270.3,118,274.2z M96.9,208c-9.4,9.4-11.2,13-11.2,15.1c0,2.2,1.6,5.2,4.3,8.6
				c3.2-3.9,8-8.7,13.8-14.4C100.5,213.2,98.2,210.1,96.9,208z M115.7,230.9c-4.6,4.5-9.4,9.1-13.8,13.5c2.7,2.6,5.5,5.3,8.5,8.2
				c7.5,7.1,21.5,18.7,25.9,21.6H165c-4.8-3.6-24.9-18.5-42.5-36.2C120.1,235.5,117.8,233.1,115.7,230.9z"/>
			
				<linearGradient id="SVGID_00000166637404087422414260000015116037330731616651_" gradientUnits="userSpaceOnUse" x1="85.7" y1="-25.0463" x2="165" y2="-25.0463" gradientTransform="matrix(1 0 0 1 0 252)">
				<stop  offset="0" style="stop-color:#00AAE7"/>
				<stop  offset="6.700000e-02" style="stop-color:#009EDE"/>
				<stop  offset="0.2576" style="stop-color:#0080C9"/>
				<stop  offset="0.4219" style="stop-color:#006EBD"/>
				<stop  offset="0.54" style="stop-color:#0068B8"/>
			</linearGradient>
			<path style="fill:url(#SVGID_00000166637404087422414260000015116037330731616651_);" d="M165,189.4c-5,3.5-24.7,17.4-43.9,36.2
				c-15.1,14.9-35.4,33.6-35.4,38.9c0,0.5,0-24.6,0-24.6c0-5.4,10-14.7,24.1-28.6c16.5-15.5,25.2-21.3,26.5-21.9
				C136.3,189.4,165,189.4,165,189.4z M118,189.4H95.3c-1.3,0-4,1.4-6.2,3.8c-1.5,1.6-3.4,3.9-3.4,5.8c0,0.6,0,18,0,24.1
				c0-2.4,2.2-6.5,14.6-18.5C104.8,200.3,112.7,193.3,118,189.4z"/>
		</g>
	</g>
</g>
</svg>
