<?xml version="1.0" encoding="utf-8"?>
<!-- Generator: Adobe Illustrator 19.2.1, SVG Export Plug-In . SVG Version: 6.00 Build 0)  -->
<svg version="1.1" id="layer" xmlns="http://www.w3.org/2000/svg" xmlns:xlink="http://www.w3.org/1999/xlink" x="0px" y="0px"
	 viewBox="0 0 652 652" style="enable-background:new 0 0 652 652;" xml:space="preserve">
<style type="text/css">
	.st0{fill-rule:evenodd;clip-rule:evenodd;fill:#ED1C24;}
	.st1{fill:#ED1C24;}
</style>
<path class="st0" d="M350.9,321.9V344c0,3,2,5.1,4.9,5.1h35.7c2.9,0,4.9-2.1,4.9-5.1v-20.9c0-3.1-2-5.2-4.9-5.2h-36.9
	C351.7,318,350.9,318.9,350.9,321.9 M599.9,369.7l0.6-0.4l-0.6-0.7v-51.1c0-11.3-8.8-20.7-19.6-20.7h-64.6l-0.2-0.3l-0.6,0.3v72.9
	h20.8l0.6-0.4l-0.6-0.4v-51.6h43.4v52.4H599.9z M508.4,369.7l0.7-0.4l-0.7-0.5v-51.3c0-11.3-8.9-20.7-19.6-20.7h-65.4v72.9h20.8v0
	l0.7-0.3l-0.7-0.6v-51.4h43.4v52.4H508.4z M238.9,272.4l0.7-0.4l0.2,0.4h18.9v24.7h48c10.6,0,17.2,10.3,17.2,22.1v26.1
	c0,13.6-9.5,24.7-21,24.7h-41.8c-10.5,0-22.2-12.5-22.2-24.7V272.4z M221.6,370.1l0.6-0.3l-0.6-0.5V318h11.1l0.7-0.4l-0.7-1.9v-18.6
	h-6.1c-14.9,0-25.5,5.5-25.8,20.8l-1.3,52.1H221.6z M20.9,282.9l0.7-0.3l0.4,0.3h23.5v31.2h9.9l33.3-31.2l26.7,0.8l-36.6,42.1
	c7.2,8.6,28.6,40.8,37.7,44l-0.7,0.3H88.6l-30.8-33.9H45.5v32.9l0.6,0.7l-0.6,0.3H20.9V282.9z M259.8,320.6v24.7
	c0,3,0.9,3.8,3.7,3.8h39.4v-28.6c0-3-0.8-3.9-3.6-3.9h-35.7C260.7,316.7,259.8,317.6,259.8,320.6 M129.3,344v5.1H170
	c2.8,0,3.7-0.8,3.7-3.8V344c0-3-0.9-3.9-3.7-3.9h-37C130.1,340.1,129.3,341,129.3,344 M330,349.2v-33.8c0-10.3,11.8-18.2,22.2-18.2
	h40.7c10.3,0,23.4,7.6,23.4,18.2v35.2c0,10.8-12.9,19.5-23.4,19.5h-39.4C343,370.1,330,359.6,330,349.2 M177.3,298.5l-69-1.4V318h64
	c1.5,0.1,1.3,0.7,1.3,3.9l-45.6,0.1c-11.5,0-18.4,9-18.4,20v6c0,11.5,11.7,22.1,21,22.1h41.8c8.4,0,20.9-10,20.9-19.5v-36.4
	C193.3,305.4,185.9,298.7,177.3,298.5"/>
<path class="st1" d="M604.7,277.6c0.8-0.2,2-0.3,3.1-0.3c1.8,0,2.9,0.3,3.7,1c0.6,0.6,1,1.4,1,2.4c0,1.7-1.1,2.8-2.4,3.3v0
	c1,0.4,1.6,1.2,1.9,2.6c0.4,1.8,0.7,3,1,3.5h-1.7c-0.2-0.4-0.5-1.5-0.8-3c-0.4-1.8-1.1-2.4-2.5-2.5h-1.6v5.5h-1.6V277.6
	 M606.3,283.4h1.7c1.8,0,2.9-1,2.9-2.4c0-1.6-1.2-2.4-2.9-2.4c-0.8,0-1.4,0.1-1.6,0.2V283.4z"/>
<path class="st1" d="M613.5,290.5h-2.4l-0.1-0.2c-0.2-0.4-0.5-1.3-0.9-3.1c-0.3-1.6-0.9-2.2-2.2-2.2h-1.2v5.5h-2.3v-13.1l0.3-0.1
	c0.8-0.2,2-0.3,3.2-0.3c1.8,0,3.1,0.3,3.9,1.1c0.7,0.6,1.1,1.6,1.1,2.7c0,1.4-0.7,2.6-2,3.3c0.7,0.5,1.2,1.3,1.5,2.5
	c0.4,1.6,0.7,2.9,1,3.4L613.5,290.5 M611.5,289.8h1c-0.2-0.7-0.5-1.7-0.8-3.1c-0.3-1.3-0.8-2-1.7-2.3l-0.2-0.1v-0.5l0.2-0.1
	c1.4-0.5,2.2-1.6,2.2-2.9c0-0.9-0.3-1.7-0.9-2.2c-0.7-0.6-1.8-1-3.5-1c-1,0-2,0.1-2.8,0.2v12h1v-5.5h1.9c1.7,0.1,2.5,0.8,2.9,2.7
	C610.9,288,611.2,289.3,611.5,289.8 M608,283.7h-2v-5.2l0.2-0.1c0.4-0.1,1-0.2,1.7-0.2c2.1,0,3.2,1,3.2,2.7
	C611.2,282.6,609.9,283.7,608,283.7 M606.6,283h1.4c1.6,0,2.5-0.8,2.5-2.1c0-1.3-0.9-2-2.6-2c-0.6,0-1,0-1.3,0.1V283z"/>
<path class="st1" d="M608.8,295.8c-6.7,0-12.1-5.4-12.1-12.1c0-6.7,5.4-12.1,12.1-12.1c6.7,0,12.1,5.4,12.1,12.1
	C620.9,290.4,615.5,295.8,608.8,295.8 M608.8,272.2c-6.3,0-11.5,5.1-11.5,11.5c0,6.3,5.1,11.5,11.5,11.5c6.3,0,11.5-5.1,11.5-11.5
	C620.3,277.4,615.1,272.2,608.8,272.2"/>
</svg>
