<svg version="1.2" xmlns="http://www.w3.org/2000/svg" viewBox="0 0 1510 484" width="1510" height="484">
	<title>PI-Dark-svg</title>
	<style>
		.s0 { fill: #002247 } 
	</style>
	<g id="Symbols">
		<g id="Desktop-/-Global-/-Navigation-/-Light-/-PGIM-Investments">
			<g id="Navigation">
				<g id="Site-Branding">
					<g id="Assets-/-Logos-/-Investments-/-Light">
						<g id="PI-Dark">
							<path id="PGIM-Logo" fill-rule="evenodd" class="s0" d="m417.2 398.1c-41.8 55.6-113.7 85.9-180.2 85.9-58.2 0-129.4-21.1-180.9-85.9zm521.6-294.8c31.8 0 46.1 13.4 53.8 21.4 0.4 0.4-0.4 0 0 0.4l15.9-17.2h13.1v87.2h-13.9c-9.4-30.6-23.2-78.4-66.4-78.4-52.4 0-60.8 82.6-61.1 134.8v2.7c0 54.1 7.3 132 55 132 13.8 0 24.8-4.2 32.6-15.9 5.3-7.5 6.9-20.5 6.9-29.3v-61.2c0 0 0.8-15.5-5.7-21.8-4.9-5-12.6-5.5-20-5.5h-6.1v-13h111.6v13h-2c-7.3 0-14.7 0.5-19.6 5.5-6.1 5.9-5.7 20-5.7 21.6v118.8h-13l-26.5-25.6h-0.4c-9.3 15.9-29.7 29.8-59.4 29.8-68.1 0-105.1-62.9-105.1-148.4 0-87.6 47.2-150.9 116-150.9zm-238 6.3c56.6 0 106.3 21 106.3 81.7 0 57.9-48.5 80.9-106.3 80.9h-20v85.5c0 8.8 0.8 16 5.3 20.6 3.3 3.7 10.2 5.8 21.6 5.8h11.4v12.6h-122.2v-12.6h3.3c10.2 0 17.9-1.6 21.6-5 4-3.8 6.5-10.1 6.5-21.4v-206.6c0-13.4-2.5-22.6-8.6-26-4.1-2.5-11.8-2.9-22-2.9h-0.8v-12.6zm480.4 0v12.6h-6.1c-11.8 0-16.7 2.1-20.4 5.9-4.1 4.6-5.3 15.5-5.3 24.3v205.3c0 8.8 0.8 16 4.9 20.6 3.7 3.7 10.6 5.8 22 5.8h4.9v12.6h-116.1v-12.6h5.3c9.8 0 16.3-1.6 19.9-5 4.1-3.8 6.6-10 6.6-21.4v-205.3c0-13.4-2.5-23.9-8.6-27.3-3.7-2.3-6.4-2.8-14.7-2.9h-8.5v-12.6zm117.1 0l60.7 199.9 59.9-199.9h90.9v12.6h-4.5c-13 0-20 2.5-23.7 8.8-2.8 5-3.6 14.7-3.6 24.3v198.2c0 22.3 4.9 30.6 28.1 30.6h3.7v12.6h-115.7v-12.6h3.6c23.3 0 27.7-8.3 27.7-30.6v-210.3l-78.2 253.5h-11.8l-79-253.5 1.2 185.2c0.4 34.8 4.1 42.8 9 47.8 4.5 4.6 10.6 7.9 18.7 7.9h4.5v12.6h-79v-12.6h2c7.8 0 14.3-3.3 18.7-7.9 4.9-5 8.6-11.8 9-47.8l1.2-176.4c0-14.3-2.4-22.3-10.6-26.5-4.4-2.5-8.1-3.3-16.3-3.3h-4v-12.6zm-1059.9-109.1c137.7 0 211 112.8 223.3 171.3l-121.2-33.8-104.9-62.8-38.3-7.1v29l29.4 28.1-41.1-3.4c0 0 1.4 2.1 35.6 39.4l156.2 26.8 27.4 18.3-71.2 3.5-29.5 110.7-96.6 66.2h-62.9l21.1-42.9-3.3-1.4-57 44.3h-13.6l58.2-83.8c2.8-24 1.4-13.4 4.8-56.4l-8.9-12.7-23.3 93-48.6 59.9h-12.4l28.8-41.5 40.4-127.6-10.3 4.9-17.8 50.8-12.3 7c0 0-28.8 71.9-43.8 107.2-21.9-32.5-46.6-76.2-46.6-152.3 0-114.2 95.2-234.7 238.4-234.7zm200.7 252.3l31.5 11.3c-2.8 40.9-15.8 82.5-43.9 122.6h-52.7l50-81zm-40.4-16.2l31.5 13.4-21.9 52.9-19.9 17.6-39.8 66.2h-26l26-47.2 20.6-17.6zm-62.4 72l6.2 11.9-34.3 66.2h-32.8zm-98-292.5c-134.2 0-221.9 113.5-221.9 219.2 0 60.6 14.4 90.9 30.1 119.8 19.8-55 59.6-164.2 59.6-164.2 0 0 18.5-9.9 18.5-8.5l26.7-69.8 17.2-9.1 21.2-46.6 46.6 7.8 94.5 54.3 106.2 30.3c-27.4-71.9-104.8-133.2-198.7-133.2zm112.4 200.8l40.3 16.9-28.7 55.8-15.7 2.8 4.1-32.4-4.1-6.4zm349.9-95.1h-19.9v136.6h19.9c44.8 0 53.4-33.1 53.4-67 0-34-8.2-69.6-53.4-69.6z"/>
						</g>
					</g>
				</g>
			</g>
		</g>
	</g>
</svg>