<?xml version="1.0" encoding="utf-8"?>
<!-- Generator: Adobe Illustrator 26.0.3, SVG Export Plug-In . SVG Version: 6.00 Build 0)  -->
<svg version="1.0" id="Layer_1" xmlns="http://www.w3.org/2000/svg" xmlns:xlink="http://www.w3.org/1999/xlink" x="0px" y="0px"
	 viewBox="0 0 830 646" style="enable-background:new 0 0 830 646;" xml:space="preserve">
<style type="text/css">
	.st0{clip-path:url(#SVGID_00000125604976983333414730000017043461034888726965_);}
	.st1{fill-rule:evenodd;clip-rule:evenodd;fill:url(#SVGID_00000155845554343970726060000003845289932069695155_);}
	.st2{clip-path:url(#SVGID_00000053540143440715713800000011766625248967678391_);}
	.st3{fill-rule:evenodd;clip-rule:evenodd;fill:#FFC20D;}
	.st4{clip-path:url(#SVGID_00000071532182179714094520000006384172724045792681_);}
	.st5{fill-rule:evenodd;clip-rule:evenodd;fill:#223F9A;}
	.st6{clip-path:url(#SVGID_00000098193284866529441180000004370266829206429606_);}
	.st7{clip-path:url(#SVGID_00000082337867813523560540000007186632044368857269_);}
	.st8{clip-path:url(#SVGID_00000053512444032914252910000016725345767878552198_);}
	.st9{clip-path:url(#SVGID_00000084522320817514607620000017792400077646222239_);}
	.st10{clip-path:url(#SVGID_00000149382445488529457840000012560176032686055610_);}
	.st11{clip-path:url(#SVGID_00000091707386910233212060000017511245521656539780_);}
	.st12{clip-path:url(#SVGID_00000008108982638797520500000003823755620875732659_);}
	.st13{clip-path:url(#SVGID_00000134957809421720779750000008059266650551258531_);}
	.st14{clip-path:url(#SVGID_00000054233594574410029390000012768883559454040255_);}
	.st15{clip-path:url(#SVGID_00000095324437574143511620000006790749467264786049_);}
</style>
<g>
	<defs>
		<rect id="SVGID_1_" x="79.5" y="153.6" width="671" height="338.9"/>
	</defs>
	<clipPath id="SVGID_00000112596144240579988080000003438994065551831182_">
		<use xlink:href="#SVGID_1_"  style="overflow:visible;"/>
	</clipPath>
	<g style="clip-path:url(#SVGID_00000112596144240579988080000003438994065551831182_);">
		
			<linearGradient id="SVGID_00000161625526673703315450000015137498531993807264_" gradientUnits="userSpaceOnUse" x1="49.0933" y1="5.1026" x2="494.4833" y2="5.1026" gradientTransform="matrix(1.5 0 0 1.5 6.31 330.17)">
			<stop  offset="0" style="stop-color:#00A1DA"/>
			<stop  offset="0.18" style="stop-color:#029CD7"/>
			<stop  offset="0.4" style="stop-color:#068DCD"/>
			<stop  offset="0.64" style="stop-color:#0E75BD"/>
			<stop  offset="0.89" style="stop-color:#1953A6"/>
			<stop  offset="1" style="stop-color:#1E419B"/>
		</linearGradient>
		<path style="fill-rule:evenodd;clip-rule:evenodd;fill:url(#SVGID_00000161625526673703315450000015137498531993807264_);" d="
			M537.5,326.3c-1.3-0.2-1.2-0.8-1.8-1.4c-0.8-0.8,0.4-2.1,1.5-2.8c2.3-0.7,4.3-0.2,4.5,1.1c0.2,1-0.4,1.9-1.4,2.2
			C539.1,325.8,539,326.6,537.5,326.3z M547.8,324c-1.5-0.1-0.9-1.5-1.5-2.2c-0.8-0.8-2-0.3-2-1.9c1-2.4,8.5-1.3,8.6,0.9
			c0.2,1-0.4,1.9-1.4,2.1c-0.1,0-0.3,0-0.4,0C549.8,323,549.3,324.2,547.8,324z M567.3,323.2c0.6-1.8,2.7-2.3,6,0
			c3.3,0,5.4,1.9,5,2.9c-0.3,1.5-1.2,1.5-2.1,1.2c-2.3-0.1-1.7-1.7-3.6-1.7c-1,0-1.9,1-3.6,0.6C567.7,326.2,567.2,324.1,567.3,323.2
			z M506.5,322.5c0.6-1.8,3-0.1,7.7-0.4c2.2-0.1,4.3-0.8,5.8-0.7c2,0.1,3,0.6,2.4,2.5c-0.7,1.2-4.1,1.8-5,1.6
			c-2-0.3-2.7-0.5-3.9-0.7c-1,0-4.6,0.7-6.3,0.2C505.9,325,506.1,323.1,506.5,322.5z M520.6,315.2c0.2,1.2-1.5,0.6-2,1.5
			c-1,1.9-2.5,2.2-4.9,2c-2.3-0.5-3.6-1.9-3.3-2.9c0.2-1.1,1.2-1.9,2.3-1.7c0.1,0,0.2,0,0.2,0c2.4,0.1,2,1.6,3.2,1.7
			c1,0,1.3-2.8,3-2.3C520.5,313.6,520.7,314.3,520.6,315.2L520.6,315.2z M487.3,313.5c0.6-1.8,2.8-2.4,6-2.1
			c2.3,0.5,4.3,1.9,3.7,3.3c-0.1,1.1-1.1,1.8-2.2,1.7c-0.1,0-0.2,0-0.3-0.1c-1.2-0.3-1.5-1.4-2.7-1.6c-1,0-1,1.4-2.7,0.9
			c-1,0-1.8-0.7-1.8-1.7C487.3,313.7,487.3,313.6,487.3,313.5L487.3,313.5z M568.1,330.7c-0.7,1.9-1.3,3.5-3.9,3.9
			c-1,0.1-2.6-0.3-4-0.2c-2.5,0.2-4.7,0.8-5.3,0.3c-0.8-2.2,1.4-2.4,2.8-3c1.3-1.3,0.1-2.3,1.6-3.1c2.3-0.7,4.4-1.2,6.3-0.3
			C567.5,328.6,568.2,329.7,568.1,330.7L568.1,330.7z M480.7,329.9c3.8,0.9,6.1-3.9,9.4-1.7c1.9,1,1.9,2.3,1.3,3.5s-4.5,1.1-5.3,1.7
			c-1.7,0.4-1.7-0.7-2.9-0.7C480.1,332.6,479.3,330.9,480.7,329.9L480.7,329.9z M425.6,325.8c3.1,0.2,4.7-3.4,7.1-1.9
			c1.9,1-0.2,1.9-0.8,3.1s-2,1.3-2.8,1.8C426.6,329.9,423.4,327.4,425.6,325.8L425.6,325.8z M749.9,391.2c0.3-0.6,0.1-1.3-0.4-1.8
			c-193.6-135.3-460.8-139-663.8-18.2c-0.6,0.8-0.5,2,0.3,2.7c3.9-0.2,7.2,0.5,11.3-3c3.1-4.8,6.9-5.2,10.9-4.2
			c0.4,1.1,0.3,2.3-0.4,3.2c-2.2,0.8-4.1-1.1-6.3,0.3c-1.7,2.9-5.8,3.4-8.6,5c-1.8,1.3-3.5,2.7-5.3,4c-1.2-0.6-2.6-0.7-3.8-0.2
			c-1.9,0.9-3.7,2.6-3.8,4.5c1.8,0.5,3.3-2.1,4.6-0.6c-0.2,1.5-4.2,1.5-4,3.4c0.5,1.2,2.8-0.5,3.6,0.3c0.6,0.6-1.1,2.6,0,3.2
			c0.8,0.5,1.9,0.4,2.7-0.1c1.8-0.3,2.2-2.5,4.1-3c1.8-0.1,3.4,0.2,5.1-0.4c-0.6-1.6,0.6-1.9,0.8-2.9c7.2-0.1,3.4-4.1,11.4-6.7
			c2.8-1.4,7.1,1.7,8.2-3.9c7.7,2.9,8.6-3.8,13.7-5.3c4,4.1,5.6-1.5,7.5,0.8c0,1.9-1.2,3.2-5,3.6c-2.8,0.2-10,3.7-14.9,8.7
			c-5.2-0.1-7.5,0.5-6.7,3.2c4.2,4.6,7.1-1.8,10.7-2.7c4.3-0.4,6.3-5.1,9.7-6.1c2.3-0.4,2.8,3.6,5.1,2.6c3-0.7,1.6-2.8,3.1-4.1
			c1-0.9,3.5-0.3,4.6-1.9c1.2-1.8,3.4-2.6,5.5-2c1.2,2.3-3.7,2.2-6,7c-2.2,3.1-7,4.9-6.4,6.3c0.5,0.9,1.4,0.6,2.7,0.2
			c2.7-1.2,5.2-3,7.1-5.2c2.6-3.6,6.4-4.1,8.3-5.9c2-1.8,2.2-4,2.8-4s1.4-0.4,1.8,1.8c0.2,1.1,2.4-0.1,3.3,0.6
			c0.6,0.5,0.4,2.8-1,4.4c-1,1.2-5-1-6.9,0.4c-3.4,2.6-3.9,6.8-9.3,9.2c-1,0.5-6.5,4-2,4.1c0.3,0,0.6-1.4,1.7-1.9s2.8,0.7,4.3-1.1
			c2.5-3,4.9-1.9,5.5-2.2c1-0.5-0.1-3.9,1.7-4.4c2.1-0.7,5.5-3.9,5.9-1c0.1,0.6-2,3.3-0.4,3.3c3.2,0,5.5-1.9,8.1-1.7
			c1.6,0.1-0.2-3,1.4-3.4s3.7,1.3,5.7,1c2.4-0.4,2.4-4.5,5-5c2.3-0.5,1.5,2.2,4.2,2.1s5.3-3.2,8.8-2.8c4.9,0.6,5.2-1.3,8.2-3.5
			c2.2-1.6,2.7,1.1,5.8-0.7c4.5-2.8,3.1,1.2,6.3,0.6c1-0.2-0.5-2.6,1.1-3s1.9,2.5,7.4-3.3c3.8-3.2,2.6,2,6,1.9
			c1.6-0.1,0.7-3.8,2.7-4.5c3-1.1,3.1,2.8,5.4,2.5s2.8-2.6,4.9-1.7c2.5,1.1,1.8-3.9,5.8-2.6c4.7,1.5,4.7-2.2,7.9-3.1
			c2.1-0.6,1.6,2.2,3.3,2.3c2.3,0.1,1.2-2.5,4.7-2.7c1.5-0.1,0.3-1.3,1.7-2s3.2,0.9,5.5,0.5c1.4-0.2,2-1.9,3.4-2.6s3.5,0.3,4.6-0.1
			c2.1-0.8,0.5,2.4,2.2,2.3c2.1-0.1,3.2-4.3,4.9-4.6c2.3-0.5,0.2,3.8,2.4,3.8c1.7,0,4.4-3.9,5.9-4.6c0.7-0.4,2.2,0.5,3.1,0.4
			s1.6-0.8,2.2-0.4c0.9,0.5,1,1.3,1.9,1.3c2,0,2-3.1,3.7-3.1s0.3,3.9,3.1,4c3.1,0.1,3.9-2.1,6.6-2.7c1.1-0.2,4.1-2.3,5.1-1.7
			s0.7,3.4,1.6,3.2c1.8-0.3,1.6-4.5,3.2-4.7c0.6-0.1,2.5-0.8,3.5,0.1s-1.3,3.3,1.6,3.3c3.6,0,2.6-4,10.1-5.4c2-0.5,4.1-0.7,6.2-0.9
			c1.5,0,2.8,0.5,3.5,0.4c3.1-0.2,7.8-3.3,8-1.4s-9,3.4-7.8,5.8c1.5,2.8,7.5-3.5,10.6-3.8c6.3-1.6,4.8,2.3,10.3,1.8
			c7.1-0.7,6.2-6.9,10.4-7.6c4.9-0.7-0.2,3.1,3.5,4c7,2.5,10.6-3,17.5-2.7c2.6-0.8,5.5-2.5,8-2.4c1.6,1.4-1.5,4,2.7,4.3
			c2.6-0.3,5.9-0.2,7.8-1.4c1.1-2.8,2.9-4.9,5.8-5c4.7-1.3,4.5,1.8,3,3.2c-1.3,1.2-1.7,2.2,0.1,3.4c1.5,0,2.4-2.5,3.6-2.3
			c1,0,1,1.7,2.8,2.3c2.4-0.2,2.1-4.6,6-1.2c1.2,1,2.4-1.5,3.9-1.2c1.2,0.3,3.3-0.2,4.2,0.9s-1.5,3.4,1.5,3.7
			c1.6,0.1,1.4-2.3,2.6-3.5c0.7-0.7,1.4-0.7,1.8-1.7c0.3-1.3-4.9-3.9,1.9-6c6.1-0.2,1.1,3.1,4.4,5.1c2.8,0.4,6.4-2.8,6.5,1.4
			c0.1,1.7-4.7,1.2-4,3.5c1.8,1.8,5.2-2.4,10.8-3c1.7-0.2,3-0.6,3.5,0.4c0.1,2-2.1,1.6-1.9,3.2c0.6,1.2,2.5,0.2,3.9,0.3
			c1.2-0.1,1.2-0.9,1.4-2.1c-0.6-1.5,5.5,0.7,12.6,0.1c1.7-0.1,2.8,1.1,4,1.1c4,0.4,8.8-2.9,11.4,0.4c0.9,1.5,16.6-0.4,16.5,2
			c1.1,2.5-6,1.8-8.8,2.7c-2,0.4-3.9,1-2.4,3.1c0.6,1,1.8,0.9,3.3,0.8c2.3-3.2,7.3-1,10.6-2.5c1.3-1.3,2.2-3.7,6-3.4
			c1.5-0.1,2.8,0.7,3.4,2c3.3,0.5,8.7-1.8,10.4,3.7c1.8-0.5,4.7-4,7,0.9c4.1-2.3,10.3-0.6,12.2,2.3c4.7,0.7,8.7-0.1,13.3,3.4
			c4-0.1,9.4-0.4,13.5,0.5c4-0.4,4.2,1.3,3.5,3.2c1.1,0.6,1.7,0.9,2.4,3.3c6.1,0.5,10.8-1.7,16.2,0.2c2.6,1.3,7,2.1,7.9,3.9
			c-0.1,1-7.9-1.5-7.3,0.4c0.2,0.9,4.9,1.6,7,3.6c2.5,1.2,1.5-0.3,4.1-0.5c0.6,0,1.7,0.9,2.7,0.9c1.4,0.1,2.7-0.7,3.1-0.3
			c0.8,0.6-0.6,1.9,1.3,3c1.2,0.8,3.2,0,4.5,1c0.8,0.6,1.8-0.2,2.5,0.4s0.8,2,1.6,2.2c1.9,1.1,3.9,0.5,6.2,1
			c4.1,0.8,7.8,2.8,10.8,5.7c3.4,0.8,4.9-1.4,7.8-0.4c1.6,0.6,2.2,3.1,5.5,5.1c1.8,1.1,4.2-0.5,6.9,0.1c4,0.9,7.5,0.8,7.6,0.3
			c0.5-2.5-5.3-3.4-8.6-2.5c-5.5,2.4-3.5-2.6-5.5-3c-5.3-1-8.2-2.9-6.9-7.7c0.8-1,2.8-0.8,3.8,2.3c0.3,0.8,2.5-0.1,3.2,0.5
			c1.2,1,1.4,2.8,2.8,3.5s2.7-1,3.8-0.3c2,1.2,4.1,1.3,4.7,0.7c0.9-1.8-1.8-4.9-7.1-4.9c-2.3,0-2.7-3.9-4.4-4.3
			c-3.5-0.8-6.9-0.6-7.8-0.8c-2.5-1.3-5-2.6-7.5-3.9c-1.2-0.8-2.4-1.1-3.2,0.2c0.2,2.3-1.8,2.2-3.8,1.9c-2.6-0.7-5.5-1.5-6.8-3
			c-0.7-0.8,1.6-3.4-1.6-3.7c-3.1-0.2-5.2,0.3-8.4-1.5c-2.7-3.6,4,0.5,3.6-2.4c1.4-2-24-3.8-21.1-7.6c2.5,0.4,4.9,0.6,7.4,1
			c1.5-0.8,1-2.5-1-3c-3.5-0.3-6.4-2.2-10.2-2c-3.9-0.2-6.1,2.9-10.5,2.6c-2.2-0.4-7.3-2.2-3.7-3.3c2-0.7,1.5-2.5-0.8-3.2
			c-0.8-0.1-2.8,0.6-3.7,0s-0.7-2.3-2.2-2.4c-1.3,0-2.7,2.3-3.9,1.9s-0.8-2.3-1.8-2.9c-0.7-0.4-1.8,0-2.8,0c-1.6-0.1-3.1-0.5-4.3,0
			c-5.4,2.3-9.8,0-15.2-0.7c-1.8-0.6-2.5-1.7-0.6-2.5c1.1,0.1,4.3,0.6,5-0.6c0.3-0.7-2-3.2-1.3-3.5c0.5-0.2,3.2,2.2,3.7,2
			c0.9-0.4,1.8-1.3,2.7-1.5c0.8-0.1,2.2,2.1,3,1.9c1.2-0.3,2.2-1.8,3.3-1.7c4.2,0.1,6,4.2,10.1,4.8c1.6,0.2,3.8-0.9,5.5-1
			c3.8-0.2,0,2.7,3.1,3.7c3.5,1.1,8-1.1,11.3-0.6c1.8,0.3,0,4.2,2.4,4.4c2,0.7,3-2,4.9-2.2c1.3-0.1,2.3,2,3.3,2.2
			c1.6,0.3,2.8-2.1,4.1-1.6c0.7,0.3,1.3,1.1,2.1,1.4s1.8-0.1,2.6,0.5c1.6,1.4-1.2,3.4,2.4,3.9c1.4,0.2,3-1.9,4.2-2
			c2.1-0.2,1.3,1.8,1.9,2.2s2-2.2,2.9-0.9s-2.7,3.9-0.2,5.1c1,0.5,2.8-1.8,4.3-2.1c1-0.2,1.9,1.3,2.4,1.7s3.3,0.4,4.3,0.8
			c1.5,0.5,3.8,0.9,3.3,2.2c-0.3,0.8-6-0.2-7.7,0.2s0.3,2.1,0.5,2.2c3.8,0,7.3,2.6,11.5,0.2c2.5-1.2,1.6,1.6,3.8,1.7
			c1.5,0.4,4.1-0.6,4.8,1.2c0.5,1.5-3.2,2.1-2,5.3c1.7,1.2,2.2-1.4,3.3-1.4s2.2,1.9,3.2,2c0.9,0.6,2,0.1,2.8,0.7s1.2,2.3,2,2.9
			c1.2,0,2.2-0.8,3.3-0.8s2.2,1.4,3.5,0.9c0.1-0.1,0.6-2.4-0.5-3s-3.5,0.8-4.9,0.1c-3.7-1.9-7.7-4.3-6.2-5.9c0.9-0.8,2-1.1,3.2-0.8
			c0.7,0.3,1.3,0.7,1.7,1.3c0.5,0.7,1.2,1.2,1.9,1.6c1.2,0.6,3-0.2,4.2,0.3c2.1,1,3.2,3,3.4,2.8c1.8,0.8,1.6-2.9,4.8,0.3
			c0.7,1.2,2.4,1.4,3.2,2.5s0.9,3.8,2.7,3.8c1.3,0-0.7-4.5,0.6-4.5c1,0,4.2,4,6.3,4.3c1.7,1.1,4.4-0.5,6,0.6
			c1.3,0.9,1.5,4.5,2.8,5.4c1.6,0.5,2.4-1.6,4.1-1.1s4.2,3.5,5.8,4c1.8,0.9,5.8,0.4,7.7,1.2c2.8,1.3,0.8,3.6,3.2,4.3
			c1.7,0.4,2.9-0.9,4.5-0.5c2.2,0.5,3.5,4.6,7.2,3.4"/>
	</g>
</g>
<g>
	<defs>
		<rect id="SVGID_00000009580852269884791540000016214817088886123961_" x="79.5" y="153.6" width="671" height="338.9"/>
	</defs>
	<clipPath id="SVGID_00000040543030836473670980000013092951615883132336_">
		<use xlink:href="#SVGID_00000009580852269884791540000016214817088886123961_"  style="overflow:visible;"/>
	</clipPath>
	<g style="clip-path:url(#SVGID_00000040543030836473670980000013092951615883132336_);">
		<path class="st3" d="M411.8,154.1c30.2,0,54.8,25.3,54.8,56.3s-24.6,56.3-54.8,56.3S357,241.3,357,210.3S381.6,154,411.8,154.1"/>
	</g>
</g>
<g>
	<defs>
		<rect id="SVGID_00000098212938533259716540000016156280080201960110_" x="201.9" y="395.5" width="421" height="96.9"/>
	</defs>
	<clipPath id="SVGID_00000181787632140851793970000018148721944896539037_">
		<use xlink:href="#SVGID_00000098212938533259716540000016156280080201960110_"  style="overflow:visible;"/>
	</clipPath>
	<g style="clip-path:url(#SVGID_00000181787632140851793970000018148721944896539037_);">
		<path class="st5" d="M487.2,397.2c5.8,0,10.5,3.5,10.5,7.8s-4.7,7.8-10.5,7.8s-10.5-3.5-10.5-7.8S481.5,397.2,487.2,397.2"/>
	</g>
</g>
<g>
	<defs>
		<rect id="SVGID_00000181776342878771199120000007327735309731886260_" x="201.9" y="395.5" width="421" height="96.9"/>
	</defs>
	<clipPath id="SVGID_00000037674915459194513610000005189379476462559395_">
		<use xlink:href="#SVGID_00000181776342878771199120000007327735309731886260_"  style="overflow:visible;"/>
	</clipPath>
	<g style="clip-path:url(#SVGID_00000037674915459194513610000005189379476462559395_);">
		<path class="st5" d="M201.9,487v-85c0.6-3.1,1.2-3.4,4.3-4.1c12.4,0,25.1-0.2,37.6-0.2c24,1.6,33.7,15,32.3,29.9
			c-1.2,13.5-13.5,23.6-33.6,24.8c-7.1,0-12.2,0.4-19.2,0.4v34.8c-0.5,1.5-1.6,2.4-3.6,2.6h-14.9C203.6,490,202.4,489.4,201.9,487z
			 M223.1,406.6c13.6-0.8,31.3,1.1,31.4,17.4c-0.1,18.3-18,19.2-31.4,18.9V406.6"/>
	</g>
</g>
<g>
	<defs>
		<rect id="SVGID_00000091002961651858846000000005624620348488747905_" x="201.9" y="395.5" width="421" height="96.9"/>
	</defs>
	<clipPath id="SVGID_00000183230874926235415850000010713070481021634227_">
		<use xlink:href="#SVGID_00000091002961651858846000000005624620348488747905_"  style="overflow:visible;"/>
	</clipPath>
	<g style="clip-path:url(#SVGID_00000183230874926235415850000010713070481021634227_);">
		<path class="st5" d="M289.4,422.5h14.7c1.4,0,2.6,1.2,2.6,2.6v62.6c0,1.4-1.2,2.6-2.6,2.6h-14.7c-1.4,0-2.6-1.2-2.6-2.6v-62.6
			C286.8,423.7,287.9,422.6,289.4,422.5C289.4,422.5,289.4,422.5,289.4,422.5"/>
	</g>
</g>
<g>
	<defs>
		<rect id="SVGID_00000098921299448270419160000008668960795376244158_" x="201.9" y="395.5" width="421" height="96.9"/>
	</defs>
	<clipPath id="SVGID_00000052087555982195960140000016724096796682439843_">
		<use xlink:href="#SVGID_00000098921299448270419160000008668960795376244158_"  style="overflow:visible;"/>
	</clipPath>
	<g style="clip-path:url(#SVGID_00000052087555982195960140000016724096796682439843_);">
		<path class="st5" d="M296.7,397.2c5.8,0,10.5,3.5,10.5,7.8s-4.7,7.8-10.5,7.8s-10.5-3.5-10.5-7.8S291,397.2,296.7,397.2"/>
	</g>
</g>
<g>
	<defs>
		<rect id="SVGID_00000181786948553279980450000003476450744458284208_" x="201.9" y="395.5" width="421" height="96.9"/>
	</defs>
	<clipPath id="SVGID_00000132768503060867442140000003577346521774160819_">
		<use xlink:href="#SVGID_00000181786948553279980450000003476450744458284208_"  style="overflow:visible;"/>
	</clipPath>
	<g style="clip-path:url(#SVGID_00000132768503060867442140000003577346521774160819_);">
		<path class="st5" d="M407.6,422.5h14.7c1.4,0,2.6,1.2,2.6,2.6v62.6c0,1.4-1.2,2.6-2.6,2.6h-14.7c-1.4,0-2.6-1.2-2.6-2.6v-62.6
			C405,423.7,406.2,422.5,407.6,422.5"/>
	</g>
</g>
<g>
	<defs>
		<rect id="SVGID_00000088114507189545903570000011854303751449750700_" x="201.9" y="395.5" width="421" height="96.9"/>
	</defs>
	<clipPath id="SVGID_00000120555539231776963650000002899489790090144429_">
		<use xlink:href="#SVGID_00000088114507189545903570000011854303751449750700_"  style="overflow:visible;"/>
	</clipPath>
	<g style="clip-path:url(#SVGID_00000120555539231776963650000002899489790090144429_);">
		<path class="st5" d="M415,397.2c5.8,0,10.5,3.5,10.5,7.8s-4.7,7.8-10.5,7.8s-10.5-3.5-10.5-7.8S409.2,397.2,415,397.2"/>
	</g>
</g>
<g>
	<defs>
		<rect id="SVGID_00000171000879152696883650000008572521299285816705_" x="201.9" y="395.5" width="421" height="96.9"/>
	</defs>
	<clipPath id="SVGID_00000127042071012532209440000001447250038510888844_">
		<use xlink:href="#SVGID_00000171000879152696883650000008572521299285816705_"  style="overflow:visible;"/>
	</clipPath>
	<g style="clip-path:url(#SVGID_00000127042071012532209440000001447250038510888844_);">
		<path class="st5" d="M479.9,422.5h14.7c1.4,0,2.6,1.2,2.6,2.6c0,0,0,0,0,0v62.6c0,1.4-1.2,2.6-2.6,2.6h-14.7
			c-1.4,0-2.6-1.1-2.6-2.6c0,0,0,0,0,0v-62.6C477.3,423.7,478.5,422.5,479.9,422.5C479.9,422.5,479.9,422.5,479.9,422.5"/>
	</g>
</g>
<g>
	<defs>
		<rect id="SVGID_00000031915816981729295980000009028185809986769064_" x="201.9" y="395.5" width="421" height="96.9"/>
	</defs>
	<clipPath id="SVGID_00000002353362155299382440000002929264499940354213_">
		<use xlink:href="#SVGID_00000031915816981729295980000009028185809986769064_"  style="overflow:visible;"/>
	</clipPath>
	<g style="clip-path:url(#SVGID_00000002353362155299382440000002929264499940354213_);">
		<path class="st5" d="M443.2,397.4h14.7c1.4,0,2.6,1.2,2.6,2.6v87.8c0,1.4-1.2,2.6-2.6,2.6h-14.7c-1.4,0-2.6-1.2-2.6-2.6V400
			C440.6,398.6,441.7,397.4,443.2,397.4"/>
	</g>
</g>
<g>
	<defs>
		<rect id="SVGID_00000047764489936708963600000018304069644466104229_" x="201.9" y="395.5" width="421" height="96.9"/>
	</defs>
	<clipPath id="SVGID_00000177457452701217684810000016474580469891583109_">
		<use xlink:href="#SVGID_00000047764489936708963600000018304069644466104229_"  style="overflow:visible;"/>
	</clipPath>
	<g style="clip-path:url(#SVGID_00000177457452701217684810000016474580469891583109_);">
		<path class="st5" d="M371.4,397.4h14.7c1.4,0,2.6,1.2,2.6,2.6v82.2c0,1.4-1,2-2.1,2.9c-4.4,3.1-10.3,4.9-16.6,6.3
			c-1.1,0.3-51,8.9-49.8-32c2.5-41.8,45.4-36.1,48.7-28.1V400C368.8,398.6,369.9,397.4,371.4,397.4
			C371.4,397.4,371.4,397.4,371.4,397.4z M368.8,436.7c-11.6-7.8-29.7,0.7-29.8,19.9c0.1,27.4,23.4,29.9,29.8,21.5V436.7"/>
	</g>
</g>
<g>
	<defs>
		<rect id="SVGID_00000141436912227225244670000018311595389522922683_" x="201.9" y="395.5" width="421" height="96.9"/>
	</defs>
	<clipPath id="SVGID_00000158729196849857981000000002750042476421274553_">
		<use xlink:href="#SVGID_00000141436912227225244670000018311595389522922683_"  style="overflow:visible;"/>
	</clipPath>
	<g style="clip-path:url(#SVGID_00000158729196849857981000000002750042476421274553_);">
		<path class="st5" d="M517.2,404.3l14.6-7.5c1.6-0.9,2.7,0.8,2.7,2.1v23.6h13.4c0.5,0,0.8,0.4,0.8,0.8c0,0,0,0,0,0v4.8
			c0.1,0.4-0.2,0.8-0.6,0.9c-0.1,0-0.1,0-0.2,0h-13.4v45c0.4,9.3,8.8,8.9,14.1,9.3c4.5,0.2,4.2,4.7-1.3,6.9
			c-6.1,2.4-17.8,3-26.3-2.9c-5.5-4.3-6.4-9.5-6.4-14.1V429h-9c-0.4,0-0.8-0.3-0.8-0.8c0,0,0,0,0,0c0-1.7,0-3.4,0.1-5.1
			c0-0.4,0.4-0.8,0.8-0.8c0,0,0,0,0,0l8.9,0.1v-15.6C514.5,405.5,515.9,404.9,517.2,404.3"/>
	</g>
</g>
<g>
	<defs>
		<rect id="SVGID_00000094614473854046525580000010659356423962167199_" x="201.9" y="395.5" width="421" height="96.9"/>
	</defs>
	<clipPath id="SVGID_00000135672129960979052170000004343938260065358217_">
		<use xlink:href="#SVGID_00000094614473854046525580000010659356423962167199_"  style="overflow:visible;"/>
	</clipPath>
	<g style="clip-path:url(#SVGID_00000135672129960979052170000004343938260065358217_);">
		<path class="st5" d="M572.2,456.9c14.7-1.5,29.6-3.3,44.4-4.8c2.5-0.3,5.3-1.8,4.5-6.4c-1.3-12.4-14.5-23.2-30.6-22.5
			c-27.4,1.4-35.9,19.3-35.1,36.3c1.1,21.6,14.4,31.7,35.4,32.7c14,0.5,28-9.7,30.4-19c2.5-6.4-4.3-10.3-7.6-4.5
			C600.7,484.4,573.1,480.1,572.2,456.9z M601,446.3c1.4-6.4-5-14.3-15.2-13.2c-11.6,1.4-14.7,11.6-14,16.4
			C580.8,448.6,592.1,447.1,601,446.3"/>
	</g>
</g>
</svg>
