<?xml version="1.0" encoding="UTF-8"?>
<svg xmlns="http://www.w3.org/2000/svg" xmlns:xlink="http://www.w3.org/1999/xlink" width="76pt" height="59pt" viewBox="0 0 76 59" version="1.1">
<g id="surface1">
<path style=" stroke:none;fill-rule:evenodd;fill:rgb(65.098572%,80.799866%,21.998596%);fill-opacity:1;" d="M 22.550781 10.875 L 69.898438 10.875 L 69.898438 34.84375 C 69.898438 42.972656 63.246094 49.625 55.117188 49.625 L 7.769531 49.625 L 7.769531 25.65625 C 7.769531 17.527344 14.421875 10.875 22.550781 10.875 "/>
<path style="fill:none;stroke-width:20.0013;stroke-linecap:butt;stroke-linejoin:miter;stroke:rgb(65.098572%,80.799866%,21.998596%);stroke-opacity:1;stroke-miterlimit:22.9256;" d="M 211.835938 499.023438 L 685.3125 499.023438 L 685.3125 259.335938 C 685.3125 178.046875 618.789063 111.523438 537.5 111.523438 L 64.023438 111.523438 L 64.023438 351.210938 C 64.023438 432.539063 130.546875 499.023438 211.835938 499.023438 Z M 211.835938 499.023438 " transform="matrix(0.1,0,0,-0.1,0,59)"/>
<path style=" stroke:none;fill-rule:evenodd;fill:rgb(100%,100%,100%);fill-opacity:1;" d="M 21.183594 9.097656 L 68.53125 9.097656 L 68.53125 33.066406 C 68.53125 41.195313 61.878906 47.847656 53.75 47.847656 L 6.402344 47.847656 L 6.402344 23.878906 C 6.402344 15.746094 13.054688 9.097656 21.183594 9.097656 "/>
<path style=" stroke:none;fill-rule:evenodd;fill:rgb(92.89856%,12.5%,16.899109%);fill-opacity:1;" d="M 32.5 36.816406 L 35.675781 36.746094 C 36.695313 36.605469 41.394531 36.769531 42.722656 36.820313 C 47.714844 37.011719 54.046875 37.59375 58.871094 38.785156 L 61.683594 39.566406 C 61.695313 37.179688 63.355469 35.621094 65.71875 35.542969 C 65.648438 35.007813 64.277344 33.207031 64.257813 31.054688 C 64.238281 28.824219 65.632813 26.996094 65.722656 26.566406 C 63.339844 26.488281 61.71875 24.925781 61.683594 22.539063 C 61.191406 22.589844 60.066406 23.015625 59.4375 23.175781 C 58.667969 23.378906 57.953125 23.539063 57.148438 23.703125 C 55.601563 24.019531 53.929688 24.3125 52.335938 24.5 C 49.464844 24.839844 44.621094 25.339844 41.800781 25.308594 L 38.261719 25.371094 C 36.140625 25.488281 33.585938 25.339844 31.46875 25.246094 C 29.289063 25.148438 27.128906 24.980469 24.996094 24.761719 C 22.984375 24.558594 20.902344 24.265625 18.925781 23.898438 C 17.988281 23.722656 16.996094 23.519531 16.089844 23.28125 L 13.421875 22.535156 C 13.390625 24.925781 11.75 26.503906 9.382813 26.5625 C 9.433594 26.789063 9.726563 27.328125 9.839844 27.566406 C 10.34375 28.605469 10.808594 29.824219 10.824219 31.054688 C 10.851563 33.265625 9.464844 34.996094 9.386719 35.542969 C 11.769531 35.59375 13.375 37.1875 13.421875 39.566406 C 13.90625 39.515625 14.996094 39.105469 15.566406 38.957031 C 17.898438 38.347656 19.988281 38.003906 22.421875 37.648438 C 25.722656 37.171875 29.113281 36.980469 32.5 36.816406 "/>
<path style=" stroke:none;fill-rule:evenodd;fill:rgb(65.098572%,80.799866%,21.998596%);fill-opacity:1;" d="M 24.5 44.660156 C 25.007813 45.03125 26.613281 45.253906 27.414063 45.257813 C 28.484375 45.261719 29.484375 45.085938 30.433594 44.796875 C 34.851563 43.449219 38.132813 40.289063 42.6875 39.59375 C 44.28125 39.347656 45.273438 39.742188 45.902344 39.738281 C 44.90625 38.398438 43.117188 37.007813 40.59375 37.496094 C 37.585938 38.078125 33.726563 41.414063 30.535156 43.007813 C 26.585938 44.984375 25.328125 44.40625 24.5 44.660156 "/>
<path style=" stroke:none;fill-rule:evenodd;fill:rgb(13.699341%,12.199402%,12.5%);fill-opacity:1;" d="M 47.933594 18.636719 C 47.824219 18.9375 47.644531 19.183594 47.429688 19.34375 C 47.285156 19.445313 46.75 19.835938 46.511719 19.605469 C 46.101563 19.222656 47.195313 18.460938 47.933594 18.636719 Z M 40.75 18.15625 C 40.761719 17.589844 41.230469 17.070313 41.683594 16.957031 C 41.582031 17.460938 41.183594 18.054688 40.75 18.15625 Z M 42.570313 14.90625 L 43.882813 15.222656 C 43.878906 15.417969 43.820313 15.601563 43.703125 15.78125 L 42.632813 15.78125 Z M 48.222656 21.003906 L 48.230469 21.324219 C 49.128906 22.273438 49.167969 20.050781 50.570313 18.144531 C 50.816406 18.246094 50.933594 18.382813 51.171875 18.484375 C 51.039063 18.921875 49.058594 21.742188 49.660156 22.226563 C 50.097656 22.582031 50.238281 21.953125 50.363281 21.691406 C 50.617188 21.167969 51.421875 19.5 51.878906 19.128906 C 52.257813 19.328125 52.289063 19.765625 52.8125 19.742188 C 53.117188 19.128906 52.675781 18.863281 52.3125 18.585938 C 52.175781 18.484375 52.066406 18.398438 52.042969 18.253906 C 51.957031 17.722656 52.054688 18.179688 51.71875 17.480469 C 51 15.988281 51.128906 15.398438 50.847656 14.695313 C 50.480469 14.613281 50.441406 14.640625 50.191406 14.890625 C 50.132813 15.617188 50.675781 16.929688 50.933594 17.5 C 50.566406 17.320313 50.164063 17.042969 49.765625 16.816406 C 48.597656 16.152344 47.15625 15.523438 45.875 15.082031 C 45.238281 14.863281 41.9375 13.898438 41.277344 13.949219 C 40.894531 13.976563 40.683594 14.480469 41.207031 14.640625 C 41.636719 14.769531 41.847656 14.820313 41.753906 16.023438 C 41.183594 16.195313 40.5625 16.742188 40.324219 17.144531 C 40 17.691406 39.832031 18.839844 40.691406 18.777344 C 41.296875 18.730469 41.863281 18.039063 42.101563 17.609375 C 42.574219 16.757813 42.210938 16.414063 43.429688 16.496094 C 43.429688 16.9375 42.605469 18.648438 42.648438 19.015625 C 42.691406 19.371094 43.179688 19.628906 43.429688 19.132813 L 43.679688 18.410156 C 43.941406 17.671875 44.621094 15.980469 44.730469 15.433594 L 45.433594 15.683594 C 45.203125 16.339844 44.917969 17.039063 44.683594 17.710938 C 44.523438 18.160156 43.839844 19.566406 44.441406 19.734375 C 44.921875 19.867188 44.96875 19.335938 45.097656 18.972656 L 46.214844 15.972656 C 47.328125 16.179688 48.0625 16.703125 48.132813 17.882813 C 45.53125 17.730469 44.90625 20.039063 46.417969 20.359375 C 47.335938 20.550781 48.046875 19.910156 48.351563 19.480469 C 48.847656 18.789063 49.035156 18.167969 48.910156 17.140625 L 49.773438 17.644531 C 49.621094 18.085938 48.339844 20.269531 48.222656 21.003906 "/>
<path style=" stroke:none;fill-rule:evenodd;fill:rgb(13.699341%,12.199402%,12.5%);fill-opacity:1;" d="M 27.105469 18.609375 C 26.84375 18.015625 27.449219 17.285156 27.8125 17.125 C 27.90625 17.496094 27.9375 17.792969 27.753906 18.113281 C 27.632813 18.324219 27.386719 18.597656 27.105469 18.609375 Z M 28.292969 15.484375 C 28.589844 15.300781 29.289063 15.164063 29.671875 15.066406 C 30.351563 14.886719 30.234375 14.210938 29.566406 14.355469 C 27.527344 14.804688 24.96875 15.914063 23.289063 17.117188 C 22.9375 17.371094 22.394531 17.582031 22.902344 18.105469 C 23.285156 18.097656 23.761719 17.558594 24.140625 17.375 L 24.265625 17.777344 C 23.761719 18.046875 23.386719 18.285156 23.148438 18.742188 C 23.015625 18.996094 22.929688 19.273438 23.007813 19.570313 C 23.085938 19.878906 23.273438 19.902344 23.484375 20.066406 C 23.34375 20.546875 23.15625 20.945313 23.476563 21.453125 C 23.6875 21.789063 24.089844 22 24.664063 22.003906 C 25.351563 22.011719 27.144531 21.488281 26.933594 20.804688 C 26.332031 20.441406 25.691406 21.601563 24.644531 21.265625 C 23.832031 21.003906 23.863281 19.449219 24.824219 19.71875 C 24.871094 19.949219 24.789063 20.140625 24.957031 20.246094 C 25.28125 20.460938 25.96875 19.980469 25.648438 19.214844 C 25.222656 18.203125 24.328125 19.265625 23.886719 19.085938 C 23.738281 18.964844 23.84375 18.804688 23.992188 18.671875 C 24.050781 18.621094 24.269531 18.464844 24.375 18.398438 C 24.636719 18.246094 24.914063 18.152344 25.25 18.015625 L 24.925781 16.925781 C 25.289063 16.644531 26.976563 15.863281 27.460938 15.777344 L 27.628906 16.46875 C 27.410156 16.636719 27.316406 16.644531 27.117188 16.824219 C 25.9375 17.898438 26.109375 19.464844 27.148438 19.289063 C 27.6875 19.199219 27.902344 18.863281 28.199219 18.671875 L 28.335938 18.949219 C 28.367188 19.035156 28.386719 19.136719 28.4375 19.238281 C 28.527344 19.425781 28.679688 19.550781 28.945313 19.445313 C 29.351563 19.28125 29.117188 18.679688 29.023438 18.332031 C 28.835938 17.652344 28.515625 17.242188 29.226563 16.707031 C 29.230469 16.703125 29.457031 16.5625 29.476563 16.558594 L 29.726563 16.59375 C 29.878906 17.09375 29.046875 17.976563 30.054688 17.910156 C 30.460938 17.367188 30.609375 16.472656 30.167969 15.941406 C 29.566406 15.214844 28.730469 16.3125 28.527344 16.464844 L 28.292969 15.484375 "/>
<path style=" stroke:none;fill-rule:evenodd;fill:rgb(65.098572%,80.799866%,21.998596%);fill-opacity:1;" d="M 32.5 36.816406 C 32.410156 37.246094 31.210938 39.007813 30.914063 39.398438 C 29.683594 41.011719 28.273438 42.414063 26.429688 43.285156 C 24.816406 44.046875 23.890625 44.070313 23.296875 44.328125 C 27.234375 44.453125 31.359375 42.523438 33.679688 39.742188 C 34.03125 39.324219 35.550781 37.371094 35.675781 36.746094 L 32.5 36.816406 "/>
<path style=" stroke:none;fill-rule:evenodd;fill:rgb(100%,100%,98.799133%);fill-opacity:1;" d="M 58.554688 33.699219 L 58.558594 28.578125 C 59.445313 28.597656 59.164063 29.394531 59.164063 31.132813 C 59.164063 31.65625 59.164063 32.183594 59.152344 32.707031 C 59.140625 33.324219 59.226563 33.667969 58.554688 33.699219 Z M 56.117188 27.40625 C 56.117188 29.132813 56.570313 28.121094 56.605469 29.300781 L 56.613281 32.703125 C 56.613281 33.667969 56.171875 33.605469 56.09375 33.953125 L 56.085938 35.375 L 59.160156 35.386719 C 61.535156 35.386719 61.148438 34.140625 61.140625 31.65625 L 61.140625 30.21875 C 61.136719 26.832031 61.039063 26.648438 56.125 26.796875 L 56.117188 27.40625 "/>
<path style=" stroke:none;fill-rule:evenodd;fill:rgb(100%,100%,98.799133%);fill-opacity:1;" d="M 21.78125 28.566406 C 22.378906 28.59375 22.34375 28.824219 22.355469 29.429688 C 22.371094 30.046875 22.410156 30.242188 21.789063 30.28125 Z M 19.425781 26.765625 C 19.347656 27 19.378906 27.441406 19.382813 27.730469 C 19.386719 29.035156 19.816406 27.859375 19.820313 29.367188 C 19.820313 29.847656 19.882813 33.015625 19.792969 33.308594 C 19.554688 34.050781 19.320313 32.980469 19.386719 35.320313 L 22.210938 35.332031 C 22.253906 32.886719 22.0625 34.109375 21.824219 33.335938 C 21.753906 33.105469 21.789063 32.4375 21.796875 32.164063 C 22.542969 32.195313 22.367188 32.703125 22.375 33.816406 L 22.394531 35.316406 L 24.617188 35.332031 C 24.683594 33.144531 24.535156 34.003906 24.25 33.398438 C 24.140625 33.164063 24.1875 32.75 24.171875 32.4375 C 24.144531 31.765625 23.945313 31.535156 23.496094 31.277344 C 23.125 31.058594 23.664063 31.386719 23.410156 31.222656 C 23.328125 31.171875 23.320313 31.164063 23.285156 31.132813 C 23.710938 30.78125 24.023438 30.59375 24.128906 29.9375 C 24.226563 29.359375 24.207031 28.546875 24.074219 28.019531 C 23.683594 26.488281 22.300781 26.734375 20.5625 26.730469 L 19.425781 26.765625 "/>
<path style=" stroke:none;fill-rule:evenodd;fill:rgb(100%,100%,98.799133%);fill-opacity:1;" d="M 47.253906 28.589844 C 47.808594 28.535156 47.703125 28.980469 47.710938 29.496094 C 47.726563 30.414063 47.867188 33.257813 47.5625 33.65625 L 47.316406 33.675781 C 46.964844 33.324219 47.113281 31.777344 47.109375 31.199219 C 47.105469 30.539063 46.992188 29.039063 47.253906 28.589844 Z M 45.152344 29.824219 C 45.152344 32.359375 44.664063 35.347656 47.183594 35.535156 C 50.257813 35.761719 49.675781 32.605469 49.675781 30.152344 C 49.675781 28.710938 49.75 26.722656 47.582031 26.601563 C 45.25 26.46875 45.152344 28.296875 45.152344 29.824219 "/>
<path style=" stroke:none;fill-rule:evenodd;fill:rgb(100%,100%,98.799133%);fill-opacity:1;" d="M 36.019531 31.761719 C 35.957031 31.191406 36.210938 30.097656 36.261719 29.464844 L 36.628906 31.765625 Z M 33.527344 35.328125 L 36.148438 35.34375 C 36.15625 34.984375 36.164063 34.621094 36.15625 34.269531 C 36.152344 33.691406 35.960938 33.894531 36.03125 33.316406 L 36.707031 33.296875 C 36.746094 33.753906 36.339844 34.066406 36.554688 35.355469 L 39.101563 35.355469 L 39.121094 33.832031 C 38.453125 33.394531 38.566406 33.332031 38.433594 32.421875 L 37.671875 26.78125 L 34.84375 26.753906 C 34.730469 27.542969 34.199219 33.035156 34.042969 33.359375 C 33.675781 34.125 33.445313 33.007813 33.527344 35.328125 "/>
<path style=" stroke:none;fill-rule:evenodd;fill:rgb(100%,100%,98.799133%);fill-opacity:1;" d="M 44.242188 30.746094 L 41.976563 30.746094 L 41.976563 32.441406 C 42.054688 32.460938 42.136719 32.464844 42.15625 32.472656 L 42.261719 32.511719 C 42.277344 32.519531 42.300781 32.535156 42.3125 32.542969 C 42.328125 32.546875 42.351563 32.558594 42.367188 32.574219 C 42.375 32.847656 42.421875 33.207031 42.316406 33.453125 C 42.222656 33.671875 41.933594 33.761719 41.78125 33.53125 C 41.632813 33.300781 41.652344 29.679688 41.671875 29.035156 C 41.683594 28.574219 41.703125 28.472656 42.15625 28.519531 C 42.398438 28.9375 42.261719 29.375 42.316406 29.921875 L 44.230469 29.933594 C 44.625 27.636719 43.15625 26.101563 41.171875 26.683594 C 39.289063 27.230469 39.722656 29.640625 39.726563 31.722656 C 39.726563 34.191406 39.605469 35.488281 42.480469 35.472656 C 43.515625 35.464844 44.242188 35.054688 44.261719 34.011719 C 44.277344 33.039063 44.324219 31.691406 44.242188 30.746094 "/>
<path style=" stroke:none;fill-rule:evenodd;fill:rgb(100%,100%,98.799133%);fill-opacity:1;" d="M 16.363281 28.550781 C 17.128906 28.554688 16.980469 29.007813 16.980469 29.695313 C 16.976563 30.308594 17.160156 30.886719 16.367188 30.824219 Z M 13.992188 35.28125 L 16.808594 35.308594 C 17.121094 32.949219 16.226563 34.046875 16.402344 32.664063 C 17.46875 32.632813 18.394531 32.574219 18.671875 31.660156 C 18.835938 31.117188 18.804688 29.140625 18.761719 28.457031 C 18.703125 27.542969 18.140625 26.917969 17.214844 26.777344 C 16.445313 26.65625 14.824219 26.683594 14 26.722656 C 13.949219 27.039063 13.96875 27.535156 13.972656 27.867188 C 13.972656 28.507813 14.1875 28.242188 14.355469 28.640625 C 14.4375 28.839844 14.464844 33.074219 14.382813 33.324219 C 14.238281 33.757813 13.777344 33.417969 13.992188 35.28125 "/>
<path style=" stroke:none;fill-rule:evenodd;fill:rgb(100%,100%,98.799133%);fill-opacity:1;" d="M 50.523438 33.820313 L 50.511719 35.289063 C 51.253906 35.429688 54.324219 35.320313 55.203125 35.261719 C 55.292969 34.964844 55.277344 31.71875 55.21875 31.28125 L 53.644531 31.273438 L 53.625 33.09375 C 53.542969 33.519531 53.625 33.222656 53.480469 33.355469 C 53.234375 33.597656 53.300781 33.683594 52.820313 33.628906 C 52.800781 32.429688 52.828125 31.21875 52.808594 30.023438 C 52.796875 29.308594 52.675781 28.902344 53.070313 28.449219 C 53.289063 28.199219 53.253906 27.15625 53.175781 26.785156 L 50.433594 26.777344 C 50.398438 27.101563 50.417969 27.421875 50.414063 27.730469 C 50.410156 28.300781 50.339844 28.191406 50.625 28.476563 C 50.957031 28.800781 50.84375 29.636719 50.847656 30.21875 L 50.855469 33.164063 C 50.828125 33.539063 50.640625 33.609375 50.523438 33.820313 "/>
<path style=" stroke:none;fill-rule:evenodd;fill:rgb(100%,100%,98.799133%);fill-opacity:1;" d="M 28.617188 28.257813 C 29.140625 28.554688 29.1875 28.714844 29.367188 29.390625 C 29.511719 29.925781 29.628906 30.355469 29.773438 30.894531 C 30.03125 31.851563 30.523438 33.289063 29.601563 33.8125 L 29.597656 35.332031 L 32.410156 35.34375 L 32.421875 33.796875 C 31.410156 33.269531 32.324219 30.773438 32.671875 29.441406 C 32.855469 28.722656 32.835938 28.617188 33.378906 28.253906 L 33.40625 26.742188 L 31.203125 26.734375 C 31.164063 27.464844 31.292969 28.597656 31.113281 29.0625 C 31.074219 29.164063 31.058594 29.175781 31.03125 29.222656 C 30.917969 29.046875 30.910156 28.886719 30.875 28.664063 C 30.734375 27.761719 30.832031 27.605469 30.792969 26.738281 L 28.625 26.734375 L 28.617188 28.257813 "/>
<path style=" stroke:none;fill-rule:evenodd;fill:rgb(100%,100%,98.799133%);fill-opacity:1;" d="M 25.371094 35.292969 C 25.710938 35.367188 27.644531 35.367188 27.988281 35.292969 L 27.992188 33.816406 C 27.558594 33.441406 27.703125 33.480469 27.699219 32.246094 C 27.699219 31.597656 27.566406 28.707031 27.796875 28.355469 C 27.914063 28.175781 27.824219 28.433594 27.898438 28.183594 L 27.90625 26.742188 L 25.324219 26.738281 C 25.257813 29.074219 25.480469 28.027344 25.695313 28.679688 L 25.734375 33.355469 C 25.652344 33.863281 25.371094 33.503906 25.363281 34.136719 C 25.359375 34.519531 25.371094 34.910156 25.371094 35.292969 "/>
<path style=" stroke:none;fill-rule:evenodd;fill:rgb(13.699341%,12.199402%,12.5%);fill-opacity:1;" d="M 36.574219 14.265625 L 36.542969 15.023438 L 35.347656 15.261719 C 35.390625 14.769531 35.46875 14.796875 35.3125 14.28125 Z M 37.269531 16.40625 C 37.308594 15.722656 37.378906 15.011719 37.390625 14.308594 L 38.527344 14.300781 C 38.644531 14.078125 38.667969 13.988281 38.613281 13.703125 C 38.324219 13.5625 37.878906 13.574219 37.488281 13.566406 L 36.359375 12.625 C 36.144531 12.464844 35.949219 12.328125 35.757813 12.183594 C 35.589844 12.054688 35.34375 11.824219 35.203125 11.742188 C 34.878906 11.558594 34.582031 11.742188 34.589844 12.085938 C 34.597656 12.523438 35.808594 13.039063 36.199219 13.539063 C 35.503906 13.550781 33.554688 13.574219 33.042969 13.777344 C 32.976563 14.039063 33.011719 14.171875 33.089844 14.417969 L 34.171875 14.367188 C 34.882813 15.328125 33.855469 15.902344 32.773438 15.894531 C 32.65625 16.089844 32.523438 16.238281 32.535156 16.53125 C 32.707031 16.664063 33.238281 16.765625 33.480469 16.878906 C 34.625 17.40625 34.421875 19.03125 35.511719 18.359375 C 35.539063 17.953125 35.238281 17.515625 35.050781 17.207031 C 34.777344 16.753906 34.527344 16.664063 34.316406 16.335938 C 34.566406 16.015625 35.992188 15.808594 36.492188 15.734375 C 36.480469 16.269531 36.292969 17.800781 36.417969 18.175781 C 36.589844 18.402344 36.71875 18.417969 36.976563 18.324219 C 37.324219 18.054688 37.242188 16.890625 37.269531 16.40625 "/>
<path style=" stroke:none;fill-rule:evenodd;fill:rgb(65.098572%,80.799866%,21.998596%);fill-opacity:1;" d="M 38.261719 25.371094 L 41.800781 25.308594 L 41.15625 25.308594 C 41.628906 24.332031 43.039063 23.082031 43.933594 22.519531 C 45.058594 21.816406 46.574219 21.335938 48.230469 21.324219 L 48.222656 21.003906 C 47.695313 21.277344 45.175781 20.332031 41.996094 21.890625 C 40.816406 22.46875 38.589844 24.34375 38.261719 25.371094 "/>
<path style=" stroke:none;fill-rule:evenodd;fill:rgb(65.098572%,80.799866%,21.998596%);fill-opacity:1;" d="M 22.199219 44.121094 C 23.8125 44.136719 28.621094 42.414063 28.863281 39.953125 C 29.152344 37.046875 24.007813 37.652344 25.335938 39.480469 C 26.019531 40.425781 27.539063 40.082031 26.53125 41.292969 C 25.542969 42.484375 23.691406 43.261719 22.199219 44.121094 "/>
<path style=" stroke:none;fill-rule:evenodd;fill:rgb(13.699341%,12.199402%,12.5%);fill-opacity:1;" d="M 44.335938 12.84375 C 44.109375 13.746094 44.835938 14.371094 45.546875 14.5625 C 46.210938 14.738281 47.808594 14.644531 47.492188 13.789063 C 46.976563 13.671875 45.832031 14.40625 45.011719 13.390625 C 44.835938 13.171875 44.851563 12.941406 44.613281 12.753906 L 44.335938 12.84375 "/>
<path style=" stroke:none;fill-rule:evenodd;fill:rgb(13.699341%,12.199402%,12.5%);fill-opacity:1;" d="M 45.90625 12.640625 C 45.410156 12.914063 45.730469 13.804688 46.34375 13.492188 C 46.832031 13.246094 46.476563 12.332031 45.90625 12.640625 "/>
<path style=" stroke:none;fill-rule:evenodd;fill:rgb(13.699341%,12.199402%,12.5%);fill-opacity:1;" d="M 28.320313 20.199219 C 28.574219 19.777344 27.964844 19.289063 27.667969 19.667969 C 27.285156 20.152344 28.070313 20.617188 28.320313 20.199219 "/>
</g>
</svg>
