<?xml version="1.0" encoding="iso-8859-1"?>
<!-- Generator: Adobe Illustrator 27.0.0, SVG Export Plug-In . SVG Version: 6.00 Build 0)  -->
<svg version="1.1" id="Layer_1" xmlns="http://www.w3.org/2000/svg" xmlns:xlink="http://www.w3.org/1999/xlink" x="0px" y="0px"
	 viewBox="0 0 500 500" style="enable-background:new 0 0 500 500;" xml:space="preserve">
<g id="watermark_1_">
	<g>
		<g id="watermark" style="opacity:0.61;">
			<g>
				<g>
					<g>
						<g>
							<polygon style="fill:#FFFFFF;" points="213.765,461.172 208.204,474.017 205.268,474.017 199.726,461.172 202.938,461.172 
								206.846,470.347 210.81,461.172 							"/>
						</g>
						<g>
							<path style="fill:#FFFFFF;" d="M223.507,469.741h-7.469c0.275,1.23,1.321,1.982,2.826,1.982c1.046,0,1.798-0.312,2.477-0.954
								l1.523,1.651c-0.917,1.046-2.294,1.597-4.074,1.597c-3.413,0-5.634-2.147-5.634-5.083c0-2.954,2.257-5.083,5.267-5.083
								c2.899,0,5.138,1.945,5.138,5.12C223.562,469.191,223.526,469.503,223.507,469.741 M216.002,468.071h4.863
								c-0.202-1.248-1.138-2.055-2.422-2.055C217.139,466.016,216.204,466.805,216.002,468.071"/>
						</g>
						<g>
							<path style="fill:#FFFFFF;" d="M224.735,468.934c0-2.973,2.294-5.083,5.505-5.083c2.074,0,3.707,0.899,4.423,2.514
								l-2.22,1.193c-0.532-0.936-1.321-1.358-2.221-1.358c-1.45,0-2.587,1.009-2.587,2.734c0,1.725,1.138,2.734,2.587,2.734
								c0.899,0,1.688-0.404,2.221-1.358l2.22,1.211c-0.716,1.578-2.349,2.495-4.423,2.495
								C227.029,474.017,224.735,471.907,224.735,468.934"/>
						</g>
						<g>
							<path style="fill:#FFFFFF;" d="M242.828,473.393c-0.587,0.422-1.45,0.624-2.331,0.624c-2.33,0-3.688-1.193-3.688-3.542
								v-4.055h-1.523v-2.202h1.523v-2.404h2.863v2.404h2.459v2.202h-2.459v4.019c0,0.844,0.458,1.303,1.229,1.303
								c0.422,0,0.844-0.128,1.156-0.367L242.828,473.393z"/>
						</g>
					</g>
					<g>
						<path style="fill:#FFFFFF;" d="M262.474,463.997v2.643c-0.238-0.018-0.422-0.037-0.642-0.037
							c-1.578,0-2.624,0.862-2.624,2.753v4.661h-2.863v-9.873h2.734v1.303C259.776,464.493,260.951,463.997,262.474,463.997"/>
					</g>
					<g>
						<path style="fill:#FFFFFF;" d="M263.299,472.53l1.009-2.239c1.083,0.789,2.697,1.339,4.239,1.339
							c1.762,0,2.477-0.587,2.477-1.376c0-2.404-7.469-0.752-7.469-5.524c0-2.184,1.762-4,5.413-4c1.615,0,3.267,0.385,4.459,1.138
							l-0.918,2.257c-1.193-0.679-2.422-1.009-3.56-1.009c-1.761,0-2.44,0.66-2.44,1.468c0,2.367,7.468,0.734,7.468,5.45
							c0,2.147-1.78,3.982-5.45,3.982C266.492,474.017,264.437,473.411,263.299,472.53"/>
					</g>
					<g>
						<path style="fill:#FFFFFF;" d="M285.428,469.741h-7.469c0.275,1.23,1.321,1.982,2.826,1.982c1.046,0,1.798-0.312,2.477-0.954
							l1.523,1.651c-0.918,1.046-2.294,1.597-4.074,1.597c-3.413,0-5.634-2.147-5.634-5.083c0-2.954,2.257-5.083,5.267-5.083
							c2.9,0,5.138,1.945,5.138,5.12C285.484,469.191,285.447,469.503,285.428,469.741 M277.923,468.071h4.863
							c-0.202-1.248-1.138-2.055-2.422-2.055C279.061,466.016,278.125,466.805,277.923,468.071"/>
					</g>
					<g>
						<path style="fill:#FFFFFF;" d="M297.007,469.741h-7.469c0.275,1.23,1.321,1.982,2.826,1.982c1.046,0,1.798-0.312,2.477-0.954
							l1.523,1.651c-0.918,1.046-2.294,1.597-4.074,1.597c-3.413,0-5.634-2.147-5.634-5.083c0-2.954,2.257-5.083,5.267-5.083
							c2.899,0,5.138,1.945,5.138,5.12C297.062,469.191,297.025,469.503,297.007,469.741 M289.501,468.071h4.863
							c-0.202-1.248-1.138-2.055-2.422-2.055C290.639,466.016,289.703,466.805,289.501,468.071"/>
					</g>
					<g>
						<polygon style="fill:#FFFFFF;" points="303.208,470.145 301.831,471.503 301.831,474.017 298.969,474.017 298.969,460.401 
							301.831,460.401 301.831,468.108 306.016,464.144 309.429,464.144 305.318,468.328 309.796,474.017 306.327,474.017 						"/>
					</g>
					<g>
						<path style="fill:#FFFFFF;" d="M256.601,475.359L256.601,475.359l-2.86-2.86c-0.435,0.508-0.953,0.943-1.534,1.284
							c-0.092,0.069-0.186,0.136-0.283,0.199l3.027,3.027c0.456,0.456,1.195,0.456,1.65,0
							C257.057,476.554,257.057,475.815,256.601,475.359"/>
					</g>
					<g>
						<path style="fill:#FFFFFF;" d="M249.984,463.244c0.221-0.173,0.495-0.281,0.797-0.281c0.042,0,0.083,0.002,0.124,0.006
							c-0.214-0.156-0.478-0.249-0.764-0.249c-0.395,0-0.744,0.18-0.981,0.458c-0.051,0-0.1,0.006-0.151,0.008
							c0.039-0.077,0.064-0.162,0.064-0.255c0-0.234-0.143-0.434-0.346-0.519c0.087,0.126,0.138,0.279,0.138,0.445
							c0,0.122-0.031,0.237-0.081,0.341c-2.811,0.201-5.03,2.539-5.03,5.4c0,2.993,2.426,5.42,5.42,5.42
							c2.993,0,5.42-2.426,5.42-5.42C254.595,465.879,252.593,463.635,249.984,463.244 M247.983,464.656
							c0.435,0,0.844,0.112,1.199,0.309c0.374-0.245,0.82-0.387,1.299-0.387c0.711,0,1.348,0.312,1.784,0.806
							c-0.435-0.379-1.004-0.61-1.627-0.61c-0.449,0-0.87,0.12-1.234,0.329c-0.079,0.046-0.156,0.096-0.229,0.15
							c-0.065-0.048-0.133-0.093-0.204-0.134c-0.369-0.219-0.8-0.344-1.26-0.344c-0.3,0-0.588,0.054-0.854,0.152
							C247.196,464.754,247.578,464.656,247.983,464.656 M251.772,469.098c0.115,0.305,0.181,0.634,0.181,0.979
							c0,1.534-1.244,2.777-2.778,2.777c-1.534,0-2.777-1.243-2.777-2.777c0-0.345,0.066-0.674,0.181-0.979
							c-0.62-0.382-1.035-1.064-1.035-1.846c0-1.197,0.971-2.168,2.168-2.168c0.565,0,1.078,0.218,1.463,0.572
							c0.386-0.354,0.899-0.572,1.464-0.572c1.197,0,2.168,0.971,2.168,2.168C252.807,468.034,252.392,468.716,251.772,469.098"/>
					</g>
					<g>
						<path style="fill:#FFFFFF;" d="M251.666,467.061c0,0.497-0.404,0.901-0.901,0.901c-0.497,0-0.901-0.404-0.901-0.901
							s0.404-0.901,0.901-0.901c0.101,0,0.197,0.017,0.287,0.047c-0.03,0.062-0.045,0.132-0.045,0.204
							c0,0.273,0.221,0.494,0.494,0.494c0.05,0,0.099-0.008,0.146-0.022C251.66,466.941,251.666,467,251.666,467.061"/>
					</g>
					<g>
						<path style="fill:#FFFFFF;" d="M248.255,467.061c0,0.376-0.305,0.681-0.681,0.681c-0.376,0-0.681-0.305-0.681-0.681
							s0.305-0.681,0.681-0.681c0.076,0,0.149,0.013,0.217,0.035c-0.023,0.047-0.034,0.1-0.034,0.155
							c0,0.206,0.167,0.374,0.374,0.374c0.038,0,0.075-0.006,0.11-0.017C248.25,466.97,248.255,467.015,248.255,467.061"/>
					</g>
					<g>
						<g>
							<g>
								<rect x="242.908" y="467.83" style="fill:#FFFFFF;" width="0.616" height="0.616"/>
							</g>
							<g>
								<rect x="254.827" y="467.83" style="fill:#FFFFFF;" width="0.616" height="0.616"/>
							</g>
							<g>
								<path style="fill:#FFFFFF;" d="M255.205,468.082h-0.14c0-3.248-2.642-5.89-5.89-5.89c-3.248,0-5.89,2.642-5.89,5.89h-0.14
									c0-1.611,0.627-3.125,1.766-4.264c1.139-1.139,2.653-1.766,4.264-1.766c1.611,0,3.125,0.627,4.264,1.766
									C254.578,464.957,255.205,466.471,255.205,468.082"/>
							</g>
						</g>
						<g>
							<rect x="248.868" y="461.814" style="fill:#FFFFFF;" width="0.616" height="0.616"/>
						</g>
						<g>
							<rect x="244.95" y="462.052" style="fill:#FFFFFF;" width="8.45" height="0.14"/>
						</g>
						<g>
							<path style="fill:#FFFFFF;" d="M245.174,462.15c0,0.108-0.088,0.196-0.196,0.196c-0.108,0-0.196-0.088-0.196-0.196
								c0-0.108,0.088-0.196,0.196-0.196C245.086,461.954,245.174,462.042,245.174,462.15"/>
						</g>
						<g>
							<path style="fill:#FFFFFF;" d="M253.596,462.15c0,0.108-0.088,0.196-0.196,0.196c-0.108,0-0.196-0.088-0.196-0.196
								c0-0.108,0.088-0.196,0.196-0.196C253.509,461.954,253.596,462.042,253.596,462.15"/>
						</g>
					</g>
				</g>
				<g>
					<path style="fill:#FFFFFF;" d="M314.356,473.409c0,1.559-2.364,1.559-2.364,0C311.993,471.851,314.356,471.851,314.356,473.409
						z"/>
				</g>
				<g>
					<g>
						<g>
							<path style="fill:#FFFFFF;" d="M161.739,466.549l1.772,6.088l1.855-6.088h2.215l-2.823,8.14h-2.33l-0.837-2.396l-0.722-2.708
								l-0.722,2.708l-0.837,2.396h-2.33l-2.839-8.14h2.231l1.855,6.088l1.756-6.088H161.739z"/>
						</g>
						<g>
							<path style="fill:#FFFFFF;" d="M176.713,466.549l1.772,6.088l1.855-6.088h2.215l-2.823,8.14h-2.33l-0.837-2.396l-0.722-2.708
								l-0.722,2.708l-0.837,2.396h-2.33l-2.839-8.14h2.231l1.855,6.088l1.756-6.088H176.713z"/>
						</g>
						<g>
							<path style="fill:#FFFFFF;" d="M191.687,466.549l1.772,6.088l1.855-6.088h2.215l-2.823,8.14h-2.33l-0.837-2.396l-0.722-2.708
								l-0.722,2.708l-0.837,2.396h-2.33l-2.839-8.14h2.231l1.855,6.088l1.756-6.088H191.687z"/>
						</g>
					</g>
					<g>
						<path style="fill:#FFFFFF;" d="M200.908,473.52c0,1.559-2.364,1.559-2.364,0C198.545,471.962,200.908,471.962,200.908,473.52z
							"/>
					</g>
					<g>
						<path style="fill:#FFFFFF;" d="M322.71,473.409c-0.935,0.919-1.919,1.28-3.117,1.28c-2.346,0-4.3-1.411-4.3-4.282
							s1.953-4.284,4.3-4.284c1.149,0,2.035,0.329,2.921,1.199l-1.264,1.329c-0.476-0.428-1.066-0.64-1.623-0.64
							c-1.346,0-2.33,0.985-2.33,2.396c0,1.542,1.05,2.362,2.297,2.362c0.64,0,1.28-0.18,1.772-0.672L322.71,473.409z"/>
					</g>
					<g>
						<path style="fill:#FFFFFF;" d="M331.805,470.472c0,2.33-1.591,4.217-4.217,4.217c-2.626,0-4.201-1.887-4.201-4.217
							c0-2.314,1.609-4.217,4.185-4.217C330.149,466.255,331.805,468.158,331.805,470.472z M325.389,470.472
							c0,1.231,0.739,2.38,2.199,2.38c1.46,0,2.199-1.149,2.199-2.38c0-1.215-0.854-2.396-2.199-2.396
							C326.144,468.077,325.389,469.258,325.389,470.472z"/>
					</g>
					<g>
						<path style="fill:#FFFFFF;" d="M338.572,474.689v-4.332c0-1.068-0.559-2.035-1.658-2.035c-1.082,0-1.722,0.967-1.722,2.035
							v4.332h-2.003v-8.107h1.855l0.148,0.985c0.426-0.82,1.362-1.116,2.133-1.116c0.969,0,1.937,0.394,2.396,1.51
							c0.723-1.149,1.658-1.478,2.708-1.478c2.297,0,3.43,1.412,3.43,3.84v4.365h-2.003v-4.365c0-1.066-0.442-1.97-1.526-1.97
							c-1.082,0-1.756,0.935-1.756,2.003v4.332H338.572z"/>
					</g>
				</g>
			</g>
		</g>
		<g style="opacity:0.61;">
			<g>
				<g>
					<path style="fill:#FFFFFF;" d="M345.988,431.299c-0.006-1.224-0.959-2.121-2.189-2.14c-0.924-0.014-0.832,0.12-0.834-0.867
						c-0.003-1.097-0.007-2.194,0.003-3.292c0.003-0.379-0.112-0.691-0.362-0.976c-2.342-2.668-4.678-5.342-7.019-8.011
						c-0.12-0.137-0.275-0.244-0.414-0.366c-6.214,0-12.427,0-18.641,0c-0.794,0.293-1.14,0.868-1.138,1.709
						c0.01,3.748,0.004,7.496,0.004,11.243c0,0.556-0.003,0.589-0.55,0.551c-1.497-0.102-2.516,0.986-2.497,2.492
						c0.044,3.476,0.013,6.953,0.014,10.429c0.001,1.58,0.867,2.443,2.45,2.449c0.582,0.002,0.582,0.002,0.582,0.6
						c0,2.219-0.001,4.438,0.001,6.657c0.001,1.192,0.58,1.771,1.768,1.771c8.013,0.001,16.027,0.001,24.04,0
						c1.168,0,1.755-0.583,1.757-1.745c0.002-2.256,0-4.512,0.001-6.768c0-0.512,0.002-0.511,0.52-0.515
						c0.271-0.002,0.541,0.008,0.809-0.058c0.996-0.246,1.69-1.044,1.694-2.069C346.003,438.696,346.005,434.997,345.988,431.299z
						 M317.537,417.162c5.337,0,10.674,0,16.01,0c0.548,0,0.554,0.007,0.554,0.561c0.001,2.243-0.001,4.486,0.001,6.73
						c0.001,0.811,0.249,1.059,1.06,1.059c1.91,0.001,3.821,0,5.731,0.001c0.458,0,0.479,0.021,0.481,0.483
						c0.003,0.887,0.002,1.775,0,2.662c-0.001,0.477-0.024,0.498-0.504,0.499c-3.895,0.001-7.79,0-11.684,0
						c-3.882,0-7.765,0-11.647,0c-0.55,0-0.552-0.001-0.552-0.561c-0.001-3.624-0.001-7.247,0-10.871
						C316.987,417.166,316.991,417.162,317.537,417.162z M340.822,451.579c-3.883,0.001-7.766,0-11.65,0c-3.871,0-7.742,0-11.613,0
						c-0.572,0-0.574-0.002-0.574-0.579c-0.001-1.997-0.001-3.994,0.001-5.991c0-0.464,0.023-0.486,0.478-0.487
						c7.803-0.001,15.607-0.001,23.41,0c0.478,0,0.499,0.02,0.499,0.503c0.002,1.997,0.001,3.994,0,5.991
						C341.375,451.574,341.37,451.579,340.822,451.579z"/>
				</g>
				<g>
					<g>
						<rect x="327.418" y="417.053" style="fill:#FFFFFF;" width="1.757" height="1.054"/>
					</g>
					<g>
						<rect x="325.662" y="418.107" style="fill:#FFFFFF;" width="1.757" height="1.054"/>
					</g>
					<g>
						<rect x="327.418" y="419.161" style="fill:#FFFFFF;" width="1.757" height="1.054"/>
					</g>
					<g>
						<rect x="325.662" y="420.215" style="fill:#FFFFFF;" width="1.757" height="1.054"/>
					</g>
					<g>
						<rect x="327.418" y="421.269" style="fill:#FFFFFF;" width="1.757" height="1.054"/>
					</g>
					<g>
						<rect x="325.662" y="422.323" style="fill:#FFFFFF;" width="1.757" height="1.054"/>
					</g>
					<g>
						<rect x="327.418" y="423.378" style="fill:#FFFFFF;" width="1.757" height="1.054"/>
					</g>
					<g>
						<rect x="325.662" y="424.432" style="fill:#FFFFFF;" width="1.757" height="1.054"/>
					</g>
					<g>
						<rect x="327.418" y="425.486" style="fill:#FFFFFF;" width="1.757" height="1.054"/>
					</g>
					<g>
						<rect x="325.662" y="426.54" style="fill:#FFFFFF;" width="1.757" height="1.054"/>
					</g>
					<g>
						<rect x="327.418" y="427.594" style="fill:#FFFFFF;" width="1.757" height="1.054"/>
					</g>
					<g>
						<rect x="325.662" y="428.648" style="fill:#FFFFFF;" width="1.757" height="1.054"/>
					</g>
				</g>
			</g>
			<g>
				<path style="fill:#FFFFFF;" d="M187.637,431.299c-0.006-1.224-0.959-2.121-2.189-2.14c-0.924-0.014-0.832,0.12-0.834-0.867
					c-0.003-1.097-0.007-2.194,0.003-3.292c0.003-0.379-0.112-0.691-0.362-0.976c-2.342-2.668-4.678-5.342-7.019-8.011
					c-0.12-0.137-0.275-0.244-0.414-0.366c-6.214,0-12.427,0-18.641,0c-0.794,0.293-1.14,0.868-1.138,1.709
					c0.01,3.748,0.004,7.496,0.004,11.243c0,0.556-0.003,0.589-0.55,0.551c-1.497-0.102-2.516,0.986-2.497,2.492
					c0.044,3.476,0.013,6.953,0.014,10.429c0.001,1.58,0.867,2.443,2.45,2.449c0.582,0.002,0.582,0.002,0.582,0.6
					c0,2.219-0.001,4.438,0.001,6.657c0.001,1.192,0.58,1.771,1.768,1.771c8.013,0.001,16.027,0.001,24.04,0
					c1.168,0,1.755-0.583,1.757-1.745c0.002-2.256,0-4.512,0.001-6.768c0-0.512,0.002-0.511,0.52-0.515
					c0.271-0.002,0.541,0.008,0.809-0.058c0.996-0.246,1.69-1.044,1.694-2.069C187.652,438.696,187.655,434.997,187.637,431.299z
					 M159.187,417.162c5.337,0,10.674,0,16.01,0c0.548,0,0.554,0.007,0.554,0.561c0.001,2.243-0.001,4.486,0.001,6.73
					c0.001,0.811,0.249,1.059,1.06,1.059c1.91,0.001,3.821,0,5.731,0.001c0.458,0,0.479,0.021,0.481,0.483
					c0.003,0.887,0.002,1.775,0,2.662c-0.001,0.477-0.024,0.498-0.504,0.499c-3.895,0.001-7.79,0-11.684,0
					c-3.882,0-7.765,0-11.647,0c-0.55,0-0.552-0.001-0.552-0.561c-0.001-3.624-0.001-7.247,0-10.871
					C158.636,417.166,158.64,417.162,159.187,417.162z M182.472,451.579c-3.883,0.001-7.766,0-11.65,0c-3.871,0-7.742,0-11.613,0
					c-0.572,0-0.574-0.002-0.574-0.579c-0.001-1.997-0.001-3.994,0.001-5.991c0-0.464,0.023-0.486,0.478-0.487
					c7.803-0.001,15.607-0.001,23.41,0c0.478,0,0.499,0.02,0.499,0.503c0.002,1.997,0.001,3.994,0,5.991
					C183.024,451.574,183.019,451.579,182.472,451.579z"/>
			</g>
			<g>
				<path style="fill:#FFFFFF;" d="M159.779,440.669v-7.897h2.779c0.375,0,0.726,0.061,1.053,0.182
					c0.327,0.121,0.612,0.292,0.855,0.513c0.242,0.221,0.434,0.483,0.573,0.789c0.14,0.305,0.21,0.642,0.21,1.009
					c0,0.375-0.07,0.715-0.21,1.02c-0.14,0.305-0.331,0.568-0.573,0.789c-0.243,0.221-0.528,0.392-0.855,0.513
					c-0.327,0.121-0.678,0.182-1.053,0.182h-1.29v2.901H159.779z M162.58,436.356c0.39,0,0.684-0.111,0.882-0.331
					c0.199-0.22,0.298-0.474,0.298-0.761c0-0.14-0.024-0.276-0.072-0.408c-0.048-0.132-0.121-0.248-0.221-0.347
					c-0.099-0.099-0.223-0.178-0.37-0.237c-0.147-0.059-0.32-0.089-0.518-0.089h-1.312v2.173H162.58z"/>
				<path style="fill:#FFFFFF;" d="M166.308,432.771h1.731l3.177,5.294h0.088l-0.088-1.522v-3.772h1.478v7.897h-1.566l-3.353-5.592
					h-0.088l0.088,1.522v4.07h-1.467V432.771z"/>
				<path style="fill:#FFFFFF;" d="M177.922,436.334h3.872c0.022,0.089,0.04,0.195,0.055,0.32c0.014,0.125,0.022,0.25,0.022,0.375
					c0,0.507-0.077,0.985-0.231,1.434c-0.154,0.449-0.397,0.849-0.728,1.202c-0.353,0.375-0.776,0.666-1.268,0.871
					c-0.493,0.206-1.055,0.309-1.688,0.309c-0.574,0-1.114-0.103-1.622-0.309c-0.507-0.206-0.948-0.492-1.323-0.86
					c-0.375-0.367-0.673-0.803-0.894-1.307c-0.221-0.504-0.331-1.053-0.331-1.649c0-0.595,0.11-1.145,0.331-1.649
					c0.221-0.504,0.518-0.939,0.894-1.307c0.375-0.367,0.816-0.654,1.323-0.86c0.507-0.206,1.048-0.309,1.622-0.309
					c0.64,0,1.211,0.11,1.715,0.331c0.504,0.221,0.935,0.526,1.296,0.915l-1.025,1.004c-0.258-0.272-0.544-0.48-0.861-0.623
					c-0.316-0.143-0.695-0.215-1.136-0.215c-0.361,0-0.703,0.065-1.026,0.193c-0.324,0.129-0.607,0.311-0.85,0.546
					c-0.242,0.235-0.436,0.52-0.579,0.855c-0.143,0.335-0.215,0.708-0.215,1.119c0,0.412,0.072,0.785,0.215,1.12
					c0.143,0.335,0.338,0.62,0.584,0.855c0.246,0.235,0.531,0.418,0.855,0.546c0.323,0.129,0.669,0.193,1.037,0.193
					c0.419,0,0.773-0.061,1.064-0.182c0.29-0.121,0.538-0.278,0.744-0.469c0.148-0.132,0.275-0.3,0.381-0.502
					c0.106-0.202,0.189-0.428,0.248-0.678h-2.482V436.334z"/>
			</g>
			<g>
				<path style="fill:#FFFFFF;" d="M224.019,431.299c-0.006-1.224-0.959-2.121-2.189-2.14c-0.924-0.014-0.832,0.12-0.834-0.867
					c-0.003-1.097-0.007-2.194,0.003-3.292c0.003-0.379-0.112-0.691-0.362-0.976c-2.342-2.668-4.678-5.342-7.019-8.011
					c-0.12-0.137-0.275-0.244-0.414-0.366c-6.214,0-12.427,0-18.641,0c-0.794,0.293-1.14,0.868-1.138,1.709
					c0.01,3.748,0.004,7.496,0.004,11.243c0,0.556-0.003,0.589-0.55,0.551c-1.497-0.102-2.516,0.986-2.497,2.492
					c0.044,3.476,0.013,6.953,0.014,10.429c0.001,1.58,0.867,2.443,2.45,2.449c0.582,0.002,0.582,0.002,0.582,0.6
					c0,2.219-0.001,4.438,0.001,6.657c0.001,1.192,0.58,1.771,1.768,1.771c8.013,0.001,16.027,0.001,24.04,0
					c1.168,0,1.755-0.583,1.757-1.745c0.002-2.256,0-4.512,0.001-6.768c0-0.512,0.002-0.511,0.52-0.515
					c0.271-0.002,0.541,0.008,0.809-0.058c0.997-0.246,1.69-1.044,1.694-2.069C224.034,438.696,224.036,434.997,224.019,431.299z
					 M195.568,417.162c5.337,0,10.674,0,16.01,0c0.548,0,0.554,0.007,0.554,0.561c0.001,2.243-0.001,4.486,0.001,6.73
					c0.001,0.811,0.249,1.059,1.06,1.059c1.91,0.001,3.821,0,5.731,0.001c0.458,0,0.479,0.021,0.481,0.483
					c0.003,0.887,0.002,1.775,0,2.662c-0.001,0.477-0.024,0.498-0.504,0.499c-3.895,0.001-7.79,0-11.684,0
					c-3.882,0-7.765,0-11.647,0c-0.55,0-0.552-0.001-0.552-0.561c-0.001-3.624-0.001-7.247,0-10.871
					C195.018,417.166,195.022,417.162,195.568,417.162z M218.854,451.579c-3.883,0.001-7.766,0-11.65,0c-3.871,0-7.742,0-11.613,0
					c-0.572,0-0.574-0.002-0.574-0.579c-0.001-1.997-0.001-3.994,0.001-5.991c0-0.464,0.023-0.486,0.478-0.487
					c7.803-0.001,15.607-0.001,23.41,0c0.478,0,0.499,0.02,0.499,0.503c0.002,1.997,0.001,3.994,0,5.991
					C219.406,451.574,219.401,451.579,218.854,451.579z"/>
			</g>
			<g>
				<path style="fill:#FFFFFF;" d="M205.111,432.771h1.699l2.967,7.897h-1.644l-0.651-1.886h-3.044l-0.651,1.886h-1.643
					L205.111,432.771z M206.997,437.415l-0.706-1.974l-0.287-0.96h-0.088l-0.287,0.96l-0.706,1.974H206.997z"/>
				<path style="fill:#FFFFFF;" d="M211.331,434.536c-0.125,0-0.245-0.024-0.359-0.072c-0.114-0.048-0.213-0.114-0.298-0.199
					c-0.084-0.084-0.151-0.182-0.198-0.292c-0.048-0.11-0.072-0.232-0.072-0.364s0.024-0.254,0.072-0.364
					c0.048-0.11,0.114-0.208,0.198-0.292c0.084-0.084,0.184-0.151,0.298-0.198c0.114-0.048,0.233-0.072,0.359-0.072
					c0.257,0,0.478,0.09,0.662,0.27c0.184,0.181,0.276,0.399,0.276,0.656s-0.092,0.476-0.276,0.656
					C211.809,434.446,211.589,434.536,211.331,434.536z M210.615,440.669v-5.404h1.445v5.404H210.615z"/>
			</g>
			<g>
				<path style="fill:#FFFFFF;" d="M261.044,431.299c-0.006-1.224-0.959-2.121-2.189-2.14c-0.924-0.014-0.832,0.12-0.834-0.867
					c-0.003-1.097-0.007-2.194,0.003-3.292c0.003-0.379-0.112-0.691-0.362-0.976c-2.342-2.668-4.678-5.342-7.019-8.011
					c-0.12-0.137-0.275-0.244-0.414-0.366c-6.214,0-12.427,0-18.641,0c-0.794,0.293-1.14,0.868-1.138,1.709
					c0.01,3.748,0.004,7.496,0.004,11.243c0,0.556-0.003,0.589-0.55,0.551c-1.497-0.102-2.516,0.986-2.497,2.492
					c0.044,3.476,0.013,6.953,0.014,10.429c0.001,1.58,0.867,2.443,2.45,2.449c0.582,0.002,0.582,0.002,0.582,0.6
					c0,2.219-0.001,4.438,0.001,6.657c0.001,1.192,0.58,1.771,1.768,1.771c8.013,0.001,16.027,0.001,24.04,0
					c1.168,0,1.755-0.583,1.757-1.745c0.002-2.256,0-4.512,0.001-6.768c0-0.512,0.002-0.511,0.52-0.515
					c0.271-0.002,0.541,0.008,0.809-0.058c0.996-0.246,1.69-1.044,1.694-2.069C261.059,438.696,261.061,434.997,261.044,431.299z
					 M232.593,417.162c5.337,0,10.674,0,16.01,0c0.548,0,0.554,0.007,0.554,0.561c0.001,2.243-0.001,4.486,0.001,6.73
					c0.001,0.811,0.249,1.059,1.06,1.059c1.91,0.001,3.821,0,5.731,0.001c0.458,0,0.479,0.021,0.481,0.483
					c0.003,0.887,0.002,1.775,0,2.662c-0.001,0.477-0.024,0.498-0.504,0.499c-3.895,0.001-7.79,0-11.684,0
					c-3.882,0-7.765,0-11.647,0c-0.55,0-0.552-0.001-0.552-0.561c-0.001-3.624-0.001-7.247,0-10.871
					C232.042,417.166,232.047,417.162,232.593,417.162z M255.878,451.579c-3.883,0.001-7.766,0-11.65,0c-3.871,0-7.742,0-11.613,0
					c-0.572,0-0.574-0.002-0.574-0.579c-0.001-1.997-0.001-3.994,0.001-5.991c0-0.464,0.023-0.486,0.478-0.487
					c7.803-0.001,15.607-0.001,23.41,0c0.478,0,0.499,0.02,0.499,0.503c0.002,1.997,0.001,3.994,0,5.991
					C256.431,451.574,256.426,451.579,255.878,451.579z"/>
			</g>
			<g>
				<path style="fill:#FFFFFF;" d="M236.361,440.845c-0.338,0-0.662-0.048-0.971-0.143c-0.309-0.095-0.592-0.239-0.849-0.43
					c-0.257-0.191-0.481-0.425-0.673-0.7c-0.191-0.276-0.342-0.597-0.452-0.965l1.401-0.551c0.103,0.397,0.283,0.726,0.54,0.987
					c0.257,0.261,0.596,0.392,1.015,0.392c0.154,0,0.303-0.02,0.447-0.061c0.143-0.04,0.272-0.099,0.386-0.176
					s0.204-0.175,0.27-0.292c0.066-0.118,0.099-0.254,0.099-0.408c0-0.147-0.026-0.279-0.077-0.397
					c-0.051-0.117-0.138-0.227-0.259-0.331c-0.121-0.103-0.28-0.202-0.475-0.298c-0.195-0.095-0.435-0.195-0.722-0.298l-0.485-0.176
					c-0.213-0.073-0.429-0.173-0.645-0.298c-0.217-0.125-0.413-0.276-0.59-0.452c-0.177-0.176-0.322-0.384-0.436-0.623
					c-0.114-0.239-0.171-0.509-0.171-0.81c0-0.309,0.06-0.597,0.182-0.866c0.121-0.268,0.294-0.503,0.518-0.706
					c0.224-0.202,0.492-0.36,0.805-0.474s0.66-0.171,1.042-0.171c0.397,0,0.74,0.053,1.031,0.16
					c0.291,0.107,0.537,0.243,0.739,0.408c0.202,0.165,0.366,0.348,0.491,0.546c0.125,0.199,0.217,0.386,0.276,0.563l-1.312,0.551
					c-0.074-0.221-0.208-0.419-0.402-0.596c-0.195-0.176-0.462-0.265-0.8-0.265c-0.324,0-0.592,0.075-0.805,0.226
					c-0.213,0.151-0.32,0.348-0.32,0.59c0,0.235,0.103,0.436,0.309,0.601c0.206,0.165,0.533,0.325,0.982,0.48l0.497,0.165
					c0.316,0.111,0.605,0.237,0.866,0.381c0.261,0.143,0.485,0.314,0.673,0.513c0.187,0.199,0.331,0.425,0.43,0.678
					c0.1,0.254,0.149,0.546,0.149,0.877c0,0.412-0.083,0.767-0.248,1.064c-0.165,0.298-0.377,0.542-0.634,0.734
					c-0.258,0.191-0.548,0.335-0.872,0.43C236.986,440.797,236.67,440.845,236.361,440.845z"/>
				<path style="fill:#FFFFFF;" d="M239.516,432.771h1.61l1.633,4.754l0.287,1.015h0.088l0.309-1.015l1.699-4.754h1.61l-2.879,7.897
					h-1.566L239.516,432.771z"/>
				<path style="fill:#FFFFFF;" d="M251.097,436.334h3.871c0.022,0.089,0.04,0.195,0.055,0.32c0.015,0.125,0.023,0.25,0.023,0.375
					c0,0.507-0.078,0.985-0.232,1.434c-0.154,0.449-0.397,0.849-0.728,1.202c-0.353,0.375-0.775,0.666-1.268,0.871
					c-0.493,0.206-1.055,0.309-1.688,0.309c-0.574,0-1.114-0.103-1.621-0.309c-0.507-0.206-0.949-0.492-1.324-0.86
					c-0.375-0.367-0.673-0.803-0.894-1.307c-0.22-0.504-0.331-1.053-0.331-1.649c0-0.595,0.11-1.145,0.331-1.649
					c0.221-0.504,0.518-0.939,0.894-1.307c0.375-0.367,0.816-0.654,1.324-0.86c0.507-0.206,1.047-0.309,1.621-0.309
					c0.64,0,1.211,0.11,1.715,0.331c0.504,0.221,0.936,0.526,1.296,0.915l-1.026,1.004c-0.257-0.272-0.544-0.48-0.861-0.623
					c-0.316-0.143-0.694-0.215-1.136-0.215c-0.36,0-0.702,0.065-1.026,0.193c-0.323,0.129-0.607,0.311-0.849,0.546
					c-0.243,0.235-0.436,0.52-0.579,0.855c-0.143,0.335-0.215,0.708-0.215,1.119c0,0.412,0.072,0.785,0.215,1.12
					c0.143,0.335,0.338,0.62,0.585,0.855c0.246,0.235,0.531,0.418,0.854,0.546c0.324,0.129,0.669,0.193,1.037,0.193
					c0.419,0,0.774-0.061,1.064-0.182c0.29-0.121,0.539-0.278,0.745-0.469c0.147-0.132,0.274-0.3,0.38-0.502
					c0.107-0.202,0.189-0.428,0.248-0.678h-2.482V436.334z"/>
			</g>
			<g>
				<path style="fill:#FFFFFF;" d="M297.3,431.299c-0.006-1.224-0.959-2.121-2.189-2.14c-0.924-0.014-0.832,0.12-0.834-0.867
					c-0.003-1.097-0.007-2.194,0.003-3.292c0.003-0.379-0.112-0.691-0.362-0.976c-2.342-2.668-4.678-5.342-7.019-8.011
					c-0.12-0.137-0.275-0.244-0.414-0.366c-6.214,0-12.427,0-18.641,0c-0.794,0.293-1.14,0.868-1.138,1.709
					c0.01,3.748,0.004,7.496,0.004,11.243c0,0.556-0.003,0.589-0.55,0.551c-1.497-0.102-2.516,0.986-2.497,2.492
					c0.044,3.476,0.013,6.953,0.014,10.429c0.001,1.58,0.867,2.443,2.45,2.449c0.582,0.002,0.582,0.002,0.582,0.6
					c0,2.219-0.001,4.438,0.001,6.657c0.001,1.192,0.58,1.771,1.768,1.771c8.013,0.001,16.027,0.001,24.04,0
					c1.168,0,1.755-0.583,1.757-1.745c0.002-2.256,0-4.512,0.001-6.768c0-0.512,0.002-0.511,0.52-0.515
					c0.271-0.002,0.541,0.008,0.809-0.058c0.996-0.246,1.69-1.044,1.694-2.069C297.315,438.696,297.318,434.997,297.3,431.299z
					 M268.85,417.162c5.337,0,10.674,0,16.01,0c0.548,0,0.554,0.007,0.554,0.561c0.001,2.243-0.001,4.486,0.001,6.73
					c0.001,0.811,0.249,1.059,1.06,1.059c1.91,0.001,3.821,0,5.731,0.001c0.458,0,0.479,0.021,0.481,0.483
					c0.003,0.887,0.002,1.775,0,2.662c-0.001,0.477-0.024,0.498-0.504,0.499c-3.895,0.001-7.79,0-11.684,0
					c-3.882,0-7.765,0-11.647,0c-0.55,0-0.552-0.001-0.552-0.561c-0.001-3.624-0.001-7.247,0-10.871
					C268.299,417.166,268.303,417.162,268.85,417.162z M292.135,451.579c-3.883,0.001-7.766,0-11.65,0c-3.871,0-7.742,0-11.613,0
					c-0.572,0-0.574-0.002-0.574-0.579c-0.001-1.997-0.001-3.994,0.001-5.991c0-0.464,0.023-0.486,0.478-0.487
					c7.803-0.001,15.607-0.001,23.41,0c0.478,0,0.499,0.02,0.499,0.503c0.001,1.997,0.001,3.994,0,5.991
					C292.687,451.574,292.682,451.579,292.135,451.579z"/>
			</g>
			<g>
				<path style="fill:#FFFFFF;" d="M272.966,434.183v1.831h3.165v1.412h-3.165v1.831h3.518v1.412h-5.007v-7.897h5.007v1.412H272.966
					z"/>
				<path style="fill:#FFFFFF;" d="M277.852,440.669v-7.897h2.779c0.375,0,0.726,0.061,1.053,0.182
					c0.327,0.121,0.612,0.292,0.855,0.513c0.243,0.221,0.434,0.483,0.574,0.789c0.14,0.305,0.209,0.642,0.209,1.009
					c0,0.375-0.07,0.715-0.209,1.02c-0.14,0.305-0.331,0.568-0.574,0.789c-0.243,0.221-0.528,0.392-0.855,0.513
					c-0.327,0.121-0.678,0.182-1.053,0.182h-1.29v2.901H277.852z M280.653,436.356c0.389,0,0.684-0.111,0.882-0.331
					c0.199-0.22,0.298-0.474,0.298-0.761c0-0.14-0.024-0.276-0.072-0.408c-0.048-0.132-0.121-0.248-0.221-0.347
					c-0.099-0.099-0.222-0.178-0.37-0.237c-0.147-0.059-0.32-0.089-0.518-0.089h-1.312v2.173H280.653z"/>
				<path style="fill:#FFFFFF;" d="M286.797,440.845c-0.338,0-0.662-0.048-0.971-0.143c-0.309-0.095-0.592-0.239-0.849-0.43
					c-0.257-0.191-0.482-0.425-0.673-0.7c-0.191-0.276-0.342-0.597-0.452-0.965l1.401-0.551c0.103,0.397,0.283,0.726,0.541,0.987
					c0.257,0.261,0.595,0.392,1.015,0.392c0.154,0,0.303-0.02,0.447-0.061c0.143-0.04,0.272-0.099,0.386-0.176
					c0.114-0.077,0.204-0.175,0.27-0.292c0.066-0.118,0.1-0.254,0.1-0.408c0-0.147-0.026-0.279-0.077-0.397
					c-0.051-0.117-0.138-0.227-0.259-0.331c-0.121-0.103-0.279-0.202-0.474-0.298c-0.195-0.095-0.436-0.195-0.723-0.298
					l-0.485-0.176c-0.213-0.073-0.428-0.173-0.645-0.298c-0.217-0.125-0.414-0.276-0.59-0.452c-0.176-0.176-0.322-0.384-0.436-0.623
					c-0.114-0.239-0.171-0.509-0.171-0.81c0-0.309,0.061-0.597,0.182-0.866c0.121-0.268,0.294-0.503,0.518-0.706
					c0.224-0.202,0.493-0.36,0.805-0.474c0.312-0.114,0.66-0.171,1.042-0.171c0.397,0,0.741,0.053,1.031,0.16
					c0.29,0.107,0.537,0.243,0.739,0.408c0.202,0.165,0.365,0.348,0.491,0.546c0.125,0.199,0.217,0.386,0.276,0.563l-1.312,0.551
					c-0.074-0.221-0.208-0.419-0.403-0.596c-0.195-0.176-0.462-0.265-0.799-0.265c-0.324,0-0.592,0.075-0.805,0.226
					c-0.213,0.151-0.32,0.348-0.32,0.59c0,0.235,0.103,0.436,0.309,0.601c0.206,0.165,0.533,0.325,0.982,0.48l0.496,0.165
					c0.316,0.111,0.605,0.237,0.866,0.381c0.261,0.143,0.485,0.314,0.673,0.513c0.187,0.199,0.331,0.425,0.43,0.678
					c0.099,0.254,0.149,0.546,0.149,0.877c0,0.412-0.083,0.767-0.248,1.064c-0.165,0.298-0.377,0.542-0.634,0.734
					c-0.258,0.191-0.548,0.335-0.872,0.43C287.422,440.797,287.105,440.845,286.797,440.845z"/>
			</g>
			<g>
				<path style="fill:#FFFFFF;" d="M321.394,439.168l4.004-4.985h-3.827v-1.412h5.559v1.5l-3.96,4.985h4.004v1.412h-5.779V439.168z"
					/>
				<path style="fill:#FFFFFF;" d="M328.409,432.771h1.489v7.897h-1.489V432.771z"/>
				<path style="fill:#FFFFFF;" d="M331.486,440.669v-7.897h2.779c0.375,0,0.726,0.061,1.053,0.182
					c0.327,0.121,0.612,0.292,0.855,0.513s0.434,0.483,0.574,0.789c0.14,0.305,0.209,0.642,0.209,1.009
					c0,0.375-0.07,0.715-0.209,1.02c-0.14,0.305-0.331,0.568-0.574,0.789c-0.243,0.221-0.528,0.392-0.855,0.513
					c-0.327,0.121-0.678,0.182-1.053,0.182h-1.29v2.901H331.486z M334.288,436.356c0.389,0,0.684-0.111,0.882-0.331
					c0.199-0.22,0.298-0.474,0.298-0.761c0-0.14-0.024-0.276-0.072-0.408c-0.048-0.132-0.121-0.248-0.221-0.347
					c-0.099-0.099-0.222-0.178-0.37-0.237c-0.147-0.059-0.32-0.089-0.518-0.089h-1.312v2.173H334.288z"/>
			</g>
		</g>
		<g style="opacity:0.61;">
			<path style="fill:#FFFFFF;" d="M300.133,433.27h9.067v2.242h-9.067V433.27z M300.133,437.136h9.067v2.243h-9.067V437.136z"/>
		</g>
	</g>
	<g style="opacity:0.61;">
		<path style="fill:#FFFFFF;" d="M156.756,478.878h1.607c1.263,0,2.114,0.812,2.114,1.974c0,1.161-0.851,1.973-2.114,1.973h-1.607
			V478.878z M158.34,482.464c1.049,0,1.725-0.665,1.725-1.612c0-0.947-0.677-1.613-1.725-1.613h-1.167v3.225H158.34z"/>
		<path style="fill:#FFFFFF;" d="M165.139,480.851c0-1.15,0.879-2.007,2.075-2.007c1.184,0,2.069,0.851,2.069,2.007
			c0,1.156-0.885,2.007-2.069,2.007C166.019,482.858,165.139,482.002,165.139,480.851z M168.866,480.851
			c0-0.942-0.705-1.635-1.652-1.635c-0.953,0-1.663,0.693-1.663,1.635c0,0.941,0.71,1.635,1.663,1.635
			C168.162,482.486,168.866,481.793,168.866,480.851z"/>
		<path style="fill:#FFFFFF;" d="M179.596,478.878l-1.331,3.947h-0.44l-1.156-3.366l-1.161,3.366h-0.434l-1.331-3.947h0.429
			l1.139,3.394l1.178-3.394h0.389l1.161,3.411l1.156-3.411H179.596z"/>
		<path style="fill:#FFFFFF;" d="M187.731,478.878v3.947h-0.344l-2.537-3.202v3.202h-0.417v-3.947h0.344l2.543,3.203v-3.203H187.731
			z"/>
		<path style="fill:#FFFFFF;" d="M193.093,478.878h0.417v3.586h2.21v0.361h-2.627V478.878z"/>
		<path style="fill:#FFFFFF;" d="M200.061,480.851c0-1.15,0.879-2.007,2.075-2.007c1.184,0,2.069,0.851,2.069,2.007
			c0,1.156-0.885,2.007-2.069,2.007C200.941,482.858,200.061,482.002,200.061,480.851z M203.788,480.851
			c0-0.942-0.705-1.635-1.652-1.635c-0.953,0-1.663,0.693-1.663,1.635c0,0.941,0.71,1.635,1.663,1.635
			C203.083,482.486,203.788,481.793,203.788,480.851z"/>
		<path style="fill:#FFFFFF;" d="M211.636,481.77h-2.199l-0.474,1.054h-0.434l1.804-3.947h0.412l1.804,3.947h-0.44L211.636,481.77z
			 M211.484,481.432l-0.947-2.12l-0.947,2.12H211.484z"/>
		<path style="fill:#FFFFFF;" d="M217.28,478.878h1.607c1.263,0,2.114,0.812,2.114,1.974c0,1.161-0.851,1.973-2.114,1.973h-1.607
			V478.878z M218.864,482.464c1.049,0,1.725-0.665,1.725-1.612c0-0.947-0.677-1.613-1.725-1.613h-1.167v3.225H218.864z"/>
		<path style="fill:#FFFFFF;" d="M234.041,481.77h-2.199l-0.474,1.054h-0.434l1.804-3.947h0.412l1.804,3.947h-0.44L234.041,481.77z
			 M233.889,481.432l-0.947-2.12l-0.947,2.12H233.889z"/>
		<path style="fill:#FFFFFF;" d="M239.685,478.878h0.417v3.586h2.21v0.361h-2.627V478.878z"/>
		<path style="fill:#FFFFFF;" d="M247.082,478.878h0.417v3.586h2.21v0.361h-2.627V478.878z"/>
		<path style="fill:#FFFFFF;" d="M260.449,479.239v1.551h2.041v0.361h-2.041v1.675h-0.417v-3.947h2.706v0.361H260.449z"/>
		<path style="fill:#FFFFFF;" d="M267.678,478.878h0.417v3.947h-0.417V478.878z"/>
		<path style="fill:#FFFFFF;" d="M273.456,478.878h0.417v3.586h2.21v0.361h-2.627V478.878z"/>
		<path style="fill:#FFFFFF;" d="M283.644,482.464v0.361h-2.791v-3.947h2.706v0.361h-2.289v1.404h2.041v0.355h-2.041v1.466H283.644z
			"/>
		<path style="fill:#FFFFFF;" d="M294.672,479.239v1.551h2.041v0.361h-2.041v1.675h-0.417v-3.947h2.706v0.361H294.672z"/>
		<path style="fill:#FFFFFF;" d="M301.5,480.851c0-1.15,0.879-2.007,2.075-2.007c1.184,0,2.069,0.851,2.069,2.007
			c0,1.156-0.885,2.007-2.069,2.007C302.379,482.858,301.5,482.002,301.5,480.851z M305.226,480.851
			c0-0.942-0.705-1.635-1.652-1.635c-0.953,0-1.663,0.693-1.663,1.635c0,0.941,0.71,1.635,1.663,1.635
			C304.522,482.486,305.226,481.793,305.226,480.851z"/>
		<path style="fill:#FFFFFF;" d="M313.351,482.825l-0.902-1.269c-0.102,0.011-0.203,0.017-0.316,0.017h-1.06v1.252h-0.417v-3.947
			h1.477c1.004,0,1.613,0.507,1.613,1.353c0,0.62-0.327,1.054-0.902,1.24l0.964,1.353H313.351z M313.328,480.231
			c0-0.632-0.417-0.992-1.207-0.992h-1.048v1.979h1.048C312.911,481.218,313.328,480.851,313.328,480.231z"/>
		<path style="fill:#FFFFFF;" d="M322.907,478.878v3.947h-0.4v-3.158l-1.551,2.656h-0.197l-1.551-2.639v3.14h-0.4v-3.947h0.344
			l1.714,2.926l1.697-2.926H322.907z"/>
		<path style="fill:#FFFFFF;" d="M330.744,481.77h-2.199l-0.473,1.054h-0.434l1.804-3.947h0.411l1.804,3.947h-0.44L330.744,481.77z
			 M330.592,481.432l-0.947-2.12l-0.947,2.12H330.592z"/>
		<path style="fill:#FFFFFF;" d="M336.957,479.239h-1.387v-0.361h3.192v0.361h-1.387v3.586h-0.417V479.239z"/>
		<path style="fill:#FFFFFF;" d="M343.063,482.346l0.164-0.321c0.282,0.276,0.784,0.479,1.302,0.479c0.739,0,1.06-0.31,1.06-0.699
			c0-1.083-2.43-0.417-2.43-1.877c0-0.581,0.451-1.083,1.455-1.083c0.446,0,0.908,0.13,1.224,0.35l-0.141,0.333
			c-0.338-0.22-0.733-0.327-1.083-0.327c-0.722,0-1.043,0.321-1.043,0.716c0,1.083,2.43,0.429,2.43,1.866
			c0,0.581-0.462,1.077-1.472,1.077C343.937,482.858,343.356,482.65,343.063,482.346z"/>
	</g>
</g>
<g>
</g>
<g>
	<path style="fill-rule:evenodd;clip-rule:evenodd;fill:#E20613;" d="M98.415,28h303.169v167.821
		c-99.69-73.783-200.76-72.951-303.169,0V28L98.415,28z"/>
	<path style="fill-rule:evenodd;clip-rule:evenodd;fill:#009EE2;" d="M98.415,472h303.169V309.302
		c-99.69,71.537-200.76,70.731-303.169,0V472L98.415,472z"/>
	<path style="fill-rule:evenodd;clip-rule:evenodd;fill:#FFFFFF;" d="M150.064,407.628l19.03-4.273v-14.492l-19.643-12.272h-20.61
		l-19.787,12.413V439l20.481,12.983h20.201L169.526,439v-16.003H150.16c-4.532,14.564-20.749,9.323-21.177,1.679v-20.91
		c-0.74-9.654,18.143-12.122,21.134-0.383L150.064,407.628L150.064,407.628z M178.187,381.219v70.295l21.189-4.946v-23.119
		l13.444-4.373v32.16l20.625-4.835v-70.596l-20.778,5.566v16.51l-13.291,5.404l-0.141-27.198L178.187,381.219L178.187,381.219z
		 M245.025,381.219v70.295l21.192-4.946c0-23.509-0.014-46.976-0.139-70.481L245.025,381.219L245.025,381.219z M277.092,376.779
		v75.406h47.345l4.972-16.985H297.8v-13.158h25.39V405.77h-25.494v-12.743h26.216l5.29-16.594L277.092,376.779L277.092,376.779z
		 M338.853,376.779v75.406l20.697-5.957v-24.186h21.189V405.77h-21.304v-12.743h26.216l5.295-16.594L338.853,376.779
		L338.853,376.779z"/>
	<path style="fill-rule:evenodd;clip-rule:evenodd;fill:#FFFFFF;" d="M139.152,126.637l20.789-4.682v-19.321l29.277,23.09
		l9.064-15.73l-23.438-18.626c39.118,5.355,36.74-39.997,8.719-39.997h-5.517H139.82C139.82,51.372,138.798,126.566,139.152,126.637
		L139.152,126.637z M158.933,66.816h19.298c3.824,0,6.945,3.136,6.945,6.965l0,0c0,3.836-3.121,6.965-6.945,6.965h-19.298V66.816
		L158.933,66.816z M219.073,51.533v74.741h46.962l4.293-15.968h-30.884V97.024h25.122V80.614H239.6V67.922h26.741l4.319-16.098
		L219.073,51.533L219.073,51.533z M286.711,51.533v74.874h46.829c39.214-4.641,35.168-72.043,0.602-74.741
		C334.142,51.666,286.711,51.228,286.711,51.533L286.711,51.533z M302.956,68.051v41.057h20.85c23.503,0,25.646-41.387,1.143-40.898
		L302.956,68.051L302.956,68.051z"/>
	<path style="fill-rule:evenodd;clip-rule:evenodd;fill:#1D1D1B;" d="M327.137,320.943c-14.273-3.571-28.883-10.026-42.882-15.246
		c-1.131-6.012-0.89-11.822-2.065-17.858c-0.768-3.99-3.795-12.62-2.954-15.96c11.544-0.395,16.401-2.151,24.97,3.936
		c1.684,1.218,2.678,2.286,4.322,3.504c1.687,1.25,2.027,2.145,3.803,3.299c3.193,2.056,6.571,3.024,9.47,5.321
		c0.21,5.961,0.294,12.304,1.388,17.896C324.203,310.807,326.587,316.906,327.137,320.943L327.137,320.943z M262.395,252.023
		c10.921,10.662,21.114,58.157,13.332,62.401c-10.567,1.926-22.741-15.359-26.666-21.863c-6.49-10.748-10.242-24.532-6.392-38.836
		L262.395,252.023L262.395,252.023z M336.641,225.367c2.834-6.769-1.094-5.022,5.048-9.9l7.763-6.45
		c2.396-1.929,2.525-2.554,5.442-3.933c6.712,4.474,6.153,11.451,8.431,21.646c1.543,7.049,7.337,16.548,6.87,22.399
		c-3.979,4.448-8.451,2.654-15.496,2.75l-0.133,3.11c2.931,2.122,3.188,0.443,7.774,1.681l0.179,7.507
		c-6.7,0.982-10.596-2.692-11.31,3.196c6.879,1.915,13.976-1.126,11.456,10.947c-1.359,6.533-9.447,6.412-16.302,6.409
		c-13.775-0.043-25.707-1.013-35.597-9.092c-8.241-6.727-12.707-30.135,5.554-37.126c4.722-1.808,3.694-2.226,6.372-5.059
		c1.889-1.952,3.622-3.299,6.461-4.897C331.744,227.065,334.765,226.432,336.641,225.367L336.641,225.367z M252.142,238.597
		c5.401,1.44,10.011,3.265,8.81,8.659c-2.415,0.961-4.495,1.834-7.938,1.203L252.142,238.597L252.142,238.597z M326.723,201.488
		l20.691,1.347c-0.161,1.567,0.852-0.035-0.945,1.664l-36.365,27.725c-15.307,12.56-12.445,11.875-27.99,10.812
		c-0.665-3.015,1.008-8.016,2.14-11.4l17.777,3.375l2.741-18.502l19.652,2.231L326.723,201.488L326.723,201.488z M262.275,234.35
		c3.014-4.336,5.71-7.714,9.651-11.102c1.607-1.402,1.543-1.457,3.259-3.159c7.51-7.405,45.692-32.472,50.543-30.785
		c2.376,1.875,7.757,6.49,9.516,9.694c-3.731-0.221-7.826-1.428-11.324-0.648l-2.038,17.677l-20.369-2.715l-2.292,17.196
		c-4.65-0.298-14.011-3.704-17.831-2.894l-3.634,15.811l-11.891,0.42L262.275,234.35L262.275,234.35z M349.625,199.916
		c-11.601-0.673-8.157-0.264-16.061-8.246c-1.114-1.123-2.419-3.029-3.331-4.19c3.873,1.077,7.054,3.185,10.204,5.12
		C343.714,194.642,348.018,196.881,349.625,199.916L349.625,199.916z M252.275,222.965c2.885-2.975,5.407-4.955,8.358-7.466
		c1.44-1.229,2.413-2.537,3.902-3.884l17.161-14.146c8.816-6.674,11.917-9.084,22.499-15.189c5.601-3.225,5.226-3.657,12.24-1.812
		c3.475,0.923,7.993,2.534,10.236,4.466c-5.701,1.405-14.766,6.016-20.288,8.698c-12.39,6.076-32.954,21.544-41.307,32.033
		c-1.567,1.961-5.379,6.608-7.08,7.256L252.275,222.965L252.275,222.965z M158.818,178.523c27.653-8.448,75.694-10.605,104.45-8.482
		c6.844,0.498,13.901,1.22,20.604,2.445c3.676,0.679,14.883,2.314,17.65,4.947c-1.993,1.912-5.258,3.893-7.449,5.329
		c-9.087,6.001-34.664,26.87-41.307,34.12c-7.376,8.042-7.737,4.472-1.595,14.582l-4.149,0.93
		c-1.408,5.816,2.401,6.895-0.008,12.974c-2.053,5.093-4.849,2.66-8.875,3.129c-4.356,8.653-2.2,25.929,0.714,35.73
		c0.924,3.09,2.79,6.686,3.346,9.179c-7.743,8.611-53.308,32.712-64.474,35.755c-0.553-0.682-0.061,0.176-0.979-1.27
		c-0.294-0.437-0.533-0.929-0.789-1.422l-8.073-16.671c-5.509,0.521-12.059,2.069-15.788-1.437
		c-0.795-5.747,3.113-6.654,3.697-11.381c-3.893-3.574-11.679-3.617-15.186-7.121c0.855-2.053,1.16-1.883,4.322-5.033
		c1.754-1.751,2.997-2.267,4.697-5.137c-4.319-0.8-13.697-5.736-15.727-8.324c2.758-4.308,6.617-4.564,9.666-7.866
		c-4.129-1.975-10.323-5.163-11.926-8.701l11.952-6.084c-0.907-2.295-4.466-5.497-6.446-7.236c-1.76-1.526-5.272-4.054-6.672-6.409
		c3.7-3.737,6.905-3.859,12.073-6.737c-1.604-2.333-7.279-9.001-8.183-11.365l10.921-4.423c-1.702-4.593-6.107-7.895-7.95-12.528
		c1.017-1.083,4.645-3.884,6.528-4.745l-2.508-10.85L158.818,178.523L158.818,178.523z M134.844,180.956l2.845,12.119
		c-1.342,1.777-5.842,5.183-7.728,6.15c1.218,2.554,5.658,7.993,7.694,10.12c-2.087,3.001-6.948,4.176-9.936,6.517
		c1.264,4.224,4.434,7.313,5.905,11.385c-2.37,2.972-6.634,4.267-9.154,7.219c3.795,4.014,6.775,8.641,10.256,12.882
		c-1.696,1.492-2.232,2.13-4.38,3.648c-1.704,1.209-3.475,2.833-5.278,3.798c0.737,1.261,0.098,0.412,0.958,1.396
		c2.169,2.41,5.779,4.192,8.488,7.337c-1.989,3.328-5.28,6.087-6.21,9.559c3.297,1.601,7.777,5.906,10.613,8.414l-4.103,8.988
		c2.496,2.345,10.587,7.136,13.651,8.786l-2.753,13.443l17.331,1.91c2.01,2.027,4.46,6.504,5.986,9.527l3.499,7.864
		c0.74,1.748,0.803,1.805,1.632,2.971c28.961-7.017,59.352-32.887,70.458-38.098c2.041,2.087,4.143,5.482,6.176,8.076l11.065,10.372
		c1.512,0.993,2.71,1.699,4.357,2.755c3.317,2.065,6.738,3.746,11.129,4.19c1.678-1.529,0.846-0.648,2.061-2.623l4.21-9.309
		c11.58,2.069,39.798,15.424,54.022,19.87c-2.614-9.773-11.203-16.928-9.188-41.805c31.679,0.207,41.186,2.75,37.832-25.571
		c-1.33-11.298,4.791-7.792,9.182-12.696c0.945-2.234-7.78-23.624-9.83-32.386c-3.015-12.799-1.921-14.23-17.192-25.364
		c-38.298-27.849-95.239-29.544-142.351-26.052c-12.997,0.965-25.266,2.77-37.71,5.342
		C151.778,175.117,146.238,178.246,134.844,180.956L134.844,180.956z"/>
	<path style="fill-rule:evenodd;clip-rule:evenodd;fill:#1D1D1B;" d="M185.253,307.695c4.685-4.823,25.517-12.367,32.479-13.04
		l1.255,5.315C200.853,301.726,200.095,304.006,185.253,307.695L185.253,307.695z M180.582,299.834
		c6.185-5.62,24.995-12.7,34.765-14.35l0.962,5.77c-6.821,0.463-12.747,1.644-18.793,3.296L180.582,299.834L180.582,299.834z
		 M174.551,289.59c6.328-5.013,28.868-11.399,39.322-11.684c0.599,3.467,1.164,3.075-0.388,5.716
		c-6.865,0.944-13.654,0.823-20.815,1.981C186.321,286.632,180.05,288.801,174.551,289.59L174.551,289.59z M171.305,278.927
		c4.901-3.395,33.898-12.297,41.443-10.429l0.037,5.797c-7.817,0.281-14.405,0.19-22.243,1.22
		C183.853,276.394,177.521,278.009,171.305,278.927L171.305,278.927z M176.33,265.038c10.694-3.47,24.376-6.787,35.64-6.551
		c0.743,8.143-0.786,6.623-7.909,6.536c-17.492-0.267-24.564,3.047-37.947,4.236L176.33,265.038L176.33,265.038z M164.864,258.013
		c5.799-4.642,35.568-9.554,47.356-9.517l-0.378,7.073C193.747,254.787,182.549,255.47,164.864,258.013L164.864,258.013z
		 M161.046,248.347c13.723-5.875,34.713-10.594,52.217-10.233l-0.826,6.985l-27.486,0.304
		C177.381,245.925,167.968,248.145,161.046,248.347L161.046,248.347z M159.036,235.786c3.841-2.371,20.342-6.25,26.13-7.405
		c8.46-1.662,21.779-3.562,30.739-2.554l-1.828,7.665c-10.268-0.185-19.436-0.982-29.974-0.429
		C180.516,233.264,159.399,235.914,159.036,235.786L159.036,235.786z M158.573,224.269c11.708-6.418,46.326-11.115,61.681-10.27
		l-3.398,8.278c-10.518-0.106-19.553-1.598-30.581-0.656C177.657,222.34,166.347,224.111,158.573,224.269L158.573,224.269z
		 M159.88,208.799c8.292,0.043,24.434-9.766,67.644-7.696c-1.013,2.33-4.187,7.267-5.678,8.592
		c-5.068,0.02-10.389-1.113-15.615-1.316c-5.555-0.195-10.818-0.552-16.41-0.42c-10.374,0.262-21.975,2.193-31.284,2.117
		C161.104,208.799,159.183,209.484,159.88,208.799L159.88,208.799z M166.007,198.102c5.966-3.02,27.06-6.507,32.853-7.284
		c13.545-1.811,24.149-1.033,37.478-0.8c-1.696,3.334-4.662,5.087-6.674,8.58c-4.665,0.328-10.605-1.129-15.664-1.471
		C195.88,195.948,183.992,196.901,166.007,198.102L166.007,198.102z M166.007,185.981c6.948-3.288,31.088-7.262,40.236-8.293
		c15.833-1.817,30.944-1.67,46.409,0.081c-2.384,1.489-4.167,2.707-6.188,4.353l-6.127,4.867c-5.695,0.003-12.68-1.541-18.471-1.961
		c-6.378-0.449-12.773-0.725-19.234-0.754C197.939,184.258,166.284,186.067,166.007,185.981L166.007,185.981z M159.88,208.799
		c-1.964,0.043-2.2-0.1-4.236,1.353l-0.697,0.724c1.382,1.537,1.805,1.592,3.314,3.553c-1.713,1.912-2.908,1.33-4.667,3.628
		c3.156,2.032,2.701,1.615,3.57,3.602l-4.852,2.882l4.195,3.6l-4.42,3.363c1.901,2.145,1.91,1.316,3.999,3.061
		c-1.494,1.462-3.211,2.608-4.529,4.002l4.146,2.903c-2.111,2.087-1.829,2.13-4.518,3.383c0.685,0.725,0.303,0.521,1.302,1.249
		c0.44,0.321,0.887,0.499,1.391,0.781c1.154,0.639,1.063,0.512,2.154,1.221c-1.852,2.136-2.946,2.425-4.423,4.264l4.73,2.811
		l-4.014,4.083l4.466,2.179l-3.749,4.732l4.892,1.293c-1.443,3.19-1.471,1.322-3.41,5.606l4.639,1.131
		c-0.567,1.768,0.17,0.138-0.585,1.517c-0.956,1.73-1.022,0.677-2.34,3.749l4.903,0.959l-2.951,5.459l5.044,0.685
		c-0.723,2.053-1.886,3.525-2.715,5.69l5.436-0.004l-2.695,5.86l5.546-0.041l-2.102,5.872l5.255-0.417l-1.82,6.094l5.26-0.886
		l-1.486,6.269l5.307-1.302l-1.276,5.983c10.121-0.838,37.811-14.748,46.751-20.437c-1.408-9.441-6.861-17.806-7.492-37.1
		c-0.878-26.738,8.385-56.481,27.472-73.242c4.23-3.732,6.789-6.703,12.902-9.841c2.243-1.141,4.791-1.933,6.734-3.617
		c-13.147-3.818-40.541-2.807-54.566-1.451c-22.905,2.228-32.234,6.562-48.545,9.145c1.1,2.448,1.92,2.836,3.196,5.209l-4.906,1.886
		c0.855,1.98,1.5,2.675,3.017,4.278c-1.353,1.403-3.113,1.736-5.062,2.37l3.778,4.659l-5.148,1.764
		c1.054,2.698-0.009,1.051,1.955,3.13C159.252,207.722,158.918,206.947,159.88,208.799L159.88,208.799z"/>
	<path style="fill-rule:evenodd;clip-rule:evenodd;fill:#FBFBFB;" d="M231.296,299.189l-4.708-0.002l1.811-4.771h4.491
		L231.296,299.189L231.296,299.189z M234.512,291.683l-4.604,0.023l1.615-4.73l4.734-0.121L234.512,291.683L234.512,291.683z
		 M227.57,286.356l-4.86-0.077l1.716-4.596l4.794-0.084L227.57,286.356L227.57,286.356z M232.497,279.78l-4.803-0.046l1.71-4.812
		l4.88,0.043L232.497,279.78L232.497,279.78z M225.549,274.254l-4.884,0.314l1.575-4.917l4.995-0.066L225.549,274.254
		L225.549,274.254z M231.302,266.575l-4.737,0.156l1.472-4.847l5.162,0.035L231.302,266.575L231.302,266.575z M224.198,261.309
		l-4.794,0.055l1.796-4.717l4.898-0.149L224.198,261.309L224.198,261.309z M232.595,255.043l-4.947-0.074
		c0.648-2.365,0.734-3.347,2.724-4.686l3.797,0.038L232.595,255.043L232.595,255.043z M220.72,249.691
		c0.564-2.548,0.397-2.249,1.831-4.624l4.584-0.228c-0.585,2.431-0.723,3.28-2.439,4.846L220.72,249.691L220.72,249.691z
		 M231.915,243.296c0.018-2.439,0.948-4.026,2.255-5.725l5.442,0.099l-2.433,5.614L231.915,243.296L231.915,243.296z
		 M225.12,231.203l6.302,0.207l-2.675,5.433l-5.54-0.015L225.12,231.203L225.12,231.203z M235.166,231.056
		c1.356-4.388,0.861-5.747,5.171-5.71l2.819,0.115l-1.967,5.529L235.166,231.056L235.166,231.056z M229.16,219.014l5.427,0.058
		l-1.696,5.696l-6.36-0.28L229.16,219.014L229.16,219.014z M243.435,214.704l5.548-0.092c-0.239,2.157-1.037,3.786-2.229,5.738
		l-5.701-0.265L243.435,214.704L243.435,214.704z M235.068,208.327l5.601,0.104c-0.461,2.194-0.91,3.524-2.474,5.528l-5.465-0.386
		L235.068,208.327L235.068,208.327z M249.24,210.909c0.645-2.412,1.028-4.61,3.199-5.834l4.86,0.2l-2.085,5.505L249.24,210.909
		L249.24,210.909z M242.966,198.669l6.087,0.207l-2.373,5.516l-5.756-0.08L242.966,198.669L242.966,198.669z M260.907,195.862
		l6.009,0.051l-2.171,5.693l-5.977-0.158L260.907,195.862L260.907,195.862z M252.508,189.558l6.185-0.108l-2.695,5.667l-5.537-0.147
		L252.508,189.558L252.508,189.558z M273.069,187.305l5.868-0.009l-2.41,5.612l-5.868-0.037L273.069,187.305L273.069,187.305z
		 M264.35,180.812l6.185,0.098l-2.516,5.603l-2.776,0.006l-2.727-0.124L264.35,180.812L264.35,180.812z M282.724,185.499
		c1.626-6.095,1.359-6.13,7.92-5.658c-0.628,2.405-1.166,3.763-2.623,5.532L282.724,185.499L282.724,185.499z M159.88,208.799
		c-0.962-1.851-0.628-1.076-1.846-2.358c-1.964-2.079-0.901-0.432-1.955-3.13l5.148-1.764l-3.778-4.659
		c1.949-0.634,3.709-0.967,5.062-2.37c-1.517-1.603-2.162-2.298-3.017-4.278l4.906-1.886c-1.275-2.373-2.096-2.761-3.196-5.209
		c16.311-2.583,25.64-6.916,48.545-9.145c14.025-1.356,41.419-2.367,54.566,1.451c-1.943,1.684-4.491,2.476-6.734,3.617
		c-6.113,3.138-8.672,6.11-12.902,9.841c-19.087,16.76-28.35,46.504-27.472,73.242c0.631,19.294,6.084,27.659,7.492,37.1
		c-8.94,5.689-36.63,19.6-46.751,20.437l1.276-5.983l-5.307,1.302l1.486-6.269l-5.26,0.886l1.82-6.094l-5.255,0.417l2.102-5.872
		l-5.546,0.041l2.695-5.86l-5.436,0.004c0.829-2.166,1.992-3.637,2.715-5.69l-5.044-0.685l2.951-5.459l-4.903-0.959
		c1.319-3.072,1.385-2.019,2.34-3.749c0.755-1.379,0.018,0.25,0.585-1.517l-4.639-1.131c1.938-4.285,1.967-2.417,3.41-5.606
		l-4.892-1.293l3.749-4.732l-4.466-2.179l4.014-4.083l-4.73-2.811c1.477-1.839,2.571-2.128,4.423-4.264
		c-1.091-0.709-1-0.582-2.154-1.221c-0.504-0.282-0.95-0.461-1.391-0.781c-0.999-0.728-0.616-0.523-1.302-1.249
		c2.689-1.254,2.407-1.296,4.518-3.383l-4.146-2.903c1.318-1.394,3.035-2.54,4.529-4.002c-2.09-1.745-2.099-0.916-3.999-3.061
		l4.42-3.363l-4.195-3.6l4.852-2.882c-0.87-1.987-0.414-1.57-3.57-3.602c1.759-2.298,2.954-1.716,4.667-3.628
		c-1.509-1.961-1.932-2.016-3.314-3.553l0.697-0.724C157.681,208.698,157.916,208.842,159.88,208.799L159.88,208.799z
		 M276.709,173.447l5.64-0.012l-1.981,5.609l-6.282-0.007L276.709,173.447L276.709,173.447z M141.354,184.419l2.508,10.85
		c-1.883,0.861-5.511,3.662-6.528,4.745c1.843,4.633,6.248,7.935,7.95,12.528l-10.921,4.423c0.904,2.364,6.579,9.032,8.183,11.365
		c-5.168,2.879-8.373,3-12.073,6.737c1.399,2.355,4.912,4.884,6.672,6.409c1.981,1.74,5.539,4.941,6.446,7.236l-11.952,6.084
		c1.604,3.538,7.797,6.726,11.926,8.701c-3.049,3.302-6.908,3.559-9.666,7.866c2.03,2.588,11.408,7.524,15.727,8.324
		c-1.699,2.87-2.943,3.386-4.697,5.137c-3.162,3.149-3.467,2.98-4.322,5.033c3.507,3.504,11.293,3.547,15.186,7.121
		c-0.585,4.728-4.492,5.634-3.697,11.381c3.729,3.507,10.279,1.958,15.788,1.437l8.073,16.671c0.256,0.493,0.495,0.985,0.789,1.422
		c0.918,1.446,0.426,0.588,0.979,1.27c11.166-3.043,56.731-27.144,64.474-35.755c-0.555-2.494-2.422-6.089-3.346-9.179
		c-2.914-9.801-5.07-27.077-0.714-35.73c4.025-0.469,6.822,1.964,8.875-3.129c2.41-6.079-1.399-7.158,0.008-12.974l4.149-0.93
		c-6.142-10.109-5.782-6.539,1.595-14.582c6.643-7.25,32.22-28.119,41.307-34.12c2.192-1.436,5.457-3.417,7.449-5.329
		c-2.767-2.632-13.974-4.268-17.65-4.947c-6.703-1.224-13.76-1.947-20.604-2.445c-28.756-2.122-76.797,0.035-104.45,8.482
		L141.354,184.419L141.354,184.419z"/>
	<path style="fill-rule:evenodd;clip-rule:evenodd;fill:#FDFDFD;" d="M341.093,228.33c1.809-4.463,6.338-4.772,10.806-3.79
		c3.999,0.875,6.628,2.776,7.535,6.45C350.569,232.003,347.906,231.762,341.093,228.33L341.093,228.33z M336.641,225.367
		c-1.877,1.065-4.897,1.699-7.489,3.187c-2.839,1.598-4.572,2.945-6.461,4.897c-2.678,2.833-1.65,3.251-6.372,5.059
		c-18.261,6.991-13.795,30.4-5.554,37.126c9.89,8.079,21.822,9.049,35.597,9.092c6.856,0.004,14.943,0.125,16.302-6.409
		c2.52-12.074-4.578-9.032-11.456-10.947c0.714-5.888,4.61-2.214,11.31-3.196l-0.179-7.507c-4.587-1.239-4.843,0.44-7.774-1.681
		l0.133-3.11c7.045-0.095,11.517,1.699,15.496-2.75c0.467-5.851-5.327-15.35-6.87-22.399c-2.277-10.195-1.719-17.172-8.431-21.646
		c-2.917,1.379-3.046,2.004-5.442,3.933l-7.763,6.45C335.548,220.345,339.475,218.597,336.641,225.367L336.641,225.367z"/>
	<path style="fill-rule:evenodd;clip-rule:evenodd;fill:#FDFDFD;" d="M242.669,253.725c-3.85,14.305-0.098,28.088,6.392,38.836
		c3.925,6.505,16.098,23.789,26.666,21.863c7.783-4.244-2.41-51.739-13.332-62.401L242.669,253.725L242.669,253.725z"/>
	<path style="fill-rule:evenodd;clip-rule:evenodd;fill:#FDFDFD;" d="M284.255,305.696c13.999,5.22,28.609,11.675,42.882,15.246
		c-0.55-4.037-2.934-10.135-3.948-15.107c-1.094-5.592-1.178-11.935-1.388-17.896c-2.899-2.297-6.277-3.264-9.47-5.321
		c-1.776-1.154-2.116-2.05-3.803-3.299c-1.644-1.218-2.638-2.286-4.322-3.504c-8.569-6.087-13.426-4.331-24.97-3.936
		c-0.841,3.34,2.186,11.97,2.954,15.96C283.365,293.874,283.124,299.684,284.255,305.696L284.255,305.696z"/>
	<path style="fill-rule:evenodd;clip-rule:evenodd;fill:#FDFDFD;" d="M262.275,234.35l3.591,9.493l11.891-0.42l3.634-15.811
		c3.821-0.81,13.181,2.596,17.831,2.894l2.292-17.196l20.369,2.715l2.038-17.677c3.498-0.78,7.593,0.427,11.324,0.648
		c-1.759-3.205-7.14-7.82-9.516-9.694c-4.851-1.687-43.034,23.38-50.543,30.785c-1.716,1.702-1.653,1.757-3.259,3.159
		C267.984,226.636,265.289,230.014,262.275,234.35L262.275,234.35z"/>
	<path style="fill-rule:evenodd;clip-rule:evenodd;fill:#FBFBFB;" d="M252.275,222.965l5.721,9.957
		c1.702-0.648,5.514-5.295,7.08-7.256c8.353-10.489,28.917-25.958,41.307-32.033c5.522-2.683,14.587-7.293,20.288-8.698
		c-2.243-1.932-6.761-3.544-10.236-4.466c-7.014-1.845-6.64-1.414-12.24,1.812c-10.582,6.104-13.682,8.515-22.499,15.189
		l-17.161,14.146c-1.489,1.347-2.462,2.655-3.902,3.884C257.682,218.01,255.16,219.99,252.275,222.965L252.275,222.965z"/>
	<path style="fill-rule:evenodd;clip-rule:evenodd;fill:#FBFBFB;" d="M324.422,218.74l-19.652-2.231l-2.741,18.502l-17.777-3.375
		c-1.131,3.384-2.805,8.385-2.14,11.4c15.545,1.063,12.683,1.748,27.99-10.812l36.365-27.725c1.797-1.699,0.783-0.097,0.945-1.664
		l-20.691-1.347L324.422,218.74L324.422,218.74z"/>
	<path style="fill-rule:evenodd;clip-rule:evenodd;fill:#FBFBFB;" d="M166.007,185.981c0.277,0.086,31.932-1.722,36.625-1.707
		c6.461,0.029,12.856,0.304,19.234,0.754c5.791,0.42,12.776,1.964,18.471,1.961l6.127-4.867c2.021-1.646,3.803-2.864,6.188-4.353
		c-15.465-1.751-30.576-1.898-46.409-0.081C197.095,178.719,172.955,182.692,166.007,185.981L166.007,185.981z"/>
	<path style="fill-rule:evenodd;clip-rule:evenodd;fill:#FBFBFB;" d="M166.007,198.102c17.985-1.2,29.873-2.153,47.993-0.975
		c5.059,0.342,10.999,1.799,15.664,1.471c2.012-3.493,4.978-5.246,6.674-8.58c-13.328-0.233-23.933-1.011-37.478,0.8
		C193.067,191.594,171.973,195.081,166.007,198.102L166.007,198.102z"/>
	<path style="fill-rule:evenodd;clip-rule:evenodd;fill:#FBFBFB;" d="M159.88,208.799c-0.697,0.686,1.224,0-1.342,1.276
		c9.309,0.077,20.91-1.855,31.284-2.117c5.592-0.132,10.855,0.225,16.41,0.42c5.225,0.202,10.547,1.336,15.615,1.316
		c1.491-1.324,4.664-6.262,5.678-8.592C184.314,199.032,168.172,208.842,159.88,208.799L159.88,208.799z"/>
	<path style="fill-rule:evenodd;clip-rule:evenodd;fill:#FDFCFA;" d="M158.573,224.269c7.774-0.159,19.085-1.929,27.702-2.649
		c11.028-0.942,20.063,0.55,30.581,0.656l3.398-8.278C204.898,213.154,170.281,217.851,158.573,224.269L158.573,224.269z"/>
	<path style="fill-rule:evenodd;clip-rule:evenodd;fill:#FBFBFB;" d="M159.036,235.786c0.363,0.128,21.48-2.521,25.068-2.723
		c10.538-0.553,19.706,0.244,29.974,0.429l1.828-7.665c-8.96-1.008-22.28,0.892-30.739,2.554
		C179.379,229.536,162.878,233.415,159.036,235.786L159.036,235.786z"/>
	<path style="fill-rule:evenodd;clip-rule:evenodd;fill:#FBFBFB;" d="M161.046,248.347c6.922-0.201,16.335-2.422,23.905-2.944
		l27.486-0.304l0.826-6.985C195.759,237.752,174.769,242.472,161.046,248.347L161.046,248.347z"/>
	<path style="fill-rule:evenodd;clip-rule:evenodd;fill:#FDFCFA;" d="M164.864,258.013c17.685-2.543,28.882-3.226,46.979-2.445
		l0.378-7.073C200.433,248.459,170.663,253.371,164.864,258.013L164.864,258.013z"/>
	<path style="fill-rule:evenodd;clip-rule:evenodd;fill:#FDFCFA;" d="M166.114,269.259c13.383-1.189,20.455-4.503,37.947-4.236
		c7.123,0.087,8.652,1.607,7.909-6.536c-11.264-0.236-24.946,3.081-35.64,6.551L166.114,269.259L166.114,269.259z"/>
	<path style="fill-rule:evenodd;clip-rule:evenodd;fill:#FBFBFB;" d="M171.305,278.927c6.216-0.918,12.548-2.533,19.237-3.412
		c7.838-1.03,14.426-0.939,22.243-1.22l-0.037-5.797C205.203,266.63,176.206,275.532,171.305,278.927L171.305,278.927z"/>
	<path style="fill-rule:evenodd;clip-rule:evenodd;fill:#FAFBFA;" d="M174.551,289.59c5.499-0.789,11.77-2.957,18.119-3.988
		c7.161-1.158,13.95-1.037,20.815-1.981c1.552-2.64,0.987-2.249,0.388-5.716C203.419,278.191,180.879,284.576,174.551,289.59
		L174.551,289.59z"/>
	<path style="fill-rule:evenodd;clip-rule:evenodd;fill:#FAFBFA;" d="M180.582,299.834l16.934-5.283
		c6.046-1.653,11.972-2.833,18.793-3.296l-0.962-5.77C205.578,287.134,186.767,294.214,180.582,299.834L180.582,299.834z"/>
	<path style="fill-rule:evenodd;clip-rule:evenodd;fill:#FAFBFA;" d="M185.253,307.695c14.843-3.689,15.6-5.969,33.735-7.725
		l-1.255-5.315C210.769,295.329,189.937,302.872,185.253,307.695L185.253,307.695z"/>
	<path style="fill-rule:evenodd;clip-rule:evenodd;fill:#1D1D1B;" d="M341.093,228.33c6.813,3.432,9.476,3.674,18.342,2.66
		c-0.907-3.674-3.536-5.575-7.535-6.45C347.431,223.558,342.902,223.866,341.093,228.33L341.093,228.33z"/>
	<path style="fill-rule:evenodd;clip-rule:evenodd;fill:#FAFBFA;" d="M349.625,199.916c-1.607-3.034-5.911-5.274-9.188-7.316
		c-3.15-1.935-6.332-4.043-10.204-5.12c0.912,1.161,2.217,3.066,3.331,4.19C341.468,199.652,338.024,199.242,349.625,199.916
		L349.625,199.916z"/>
	<path style="fill-rule:evenodd;clip-rule:evenodd;fill:#FDFCFA;" d="M253.014,248.459c3.444,0.631,5.523-0.242,7.938-1.203
		c1.201-5.394-3.409-7.219-8.81-8.659L253.014,248.459L253.014,248.459z"/>
	<polygon style="fill-rule:evenodd;clip-rule:evenodd;fill:#1D1D1B;" points="258.768,201.448 264.745,201.606 266.916,195.913 
		260.907,195.862 258.768,201.448 	"/>
	<path style="fill-rule:evenodd;clip-rule:evenodd;fill:#2A2621;" d="M235.166,231.056l6.024-0.066l1.967-5.529l-2.819-0.115
		C236.027,225.309,236.522,226.667,235.166,231.056L235.166,231.056z"/>
	<path style="fill-rule:evenodd;clip-rule:evenodd;fill:#1D1D1B;" d="M282.724,185.499l5.298-0.126
		c1.457-1.769,1.995-3.127,2.623-5.532C284.082,179.369,284.35,179.404,282.724,185.499L282.724,185.499z"/>
	<path style="fill-rule:evenodd;clip-rule:evenodd;fill:#1D1D1B;" d="M249.24,210.909l5.975-0.129l2.085-5.505l-4.86-0.2
		C250.268,206.299,249.885,208.497,249.24,210.909L249.24,210.909z"/>
	<polygon style="fill-rule:evenodd;clip-rule:evenodd;fill:#1D1D1B;" points="274.086,179.037 280.368,179.044 282.349,173.435 
		276.709,173.447 274.086,179.037 	"/>
	<polygon style="fill-rule:evenodd;clip-rule:evenodd;fill:#1D1D1B;" points="240.924,204.313 246.68,204.393 249.053,198.877 
		242.966,198.669 240.924,204.313 	"/>
	<polygon style="fill-rule:evenodd;clip-rule:evenodd;fill:#252521;" points="226.531,224.488 232.891,224.768 234.587,219.072 
		229.16,219.014 226.531,224.488 	"/>
	<polygon style="fill-rule:evenodd;clip-rule:evenodd;fill:#1D1D1B;" points="262.516,186.395 265.243,186.519 268.019,186.513 
		270.535,180.91 264.35,180.812 262.516,186.395 	"/>
	<polygon style="fill-rule:evenodd;clip-rule:evenodd;fill:#2A2621;" points="223.208,236.829 228.748,236.844 231.422,231.41 
		225.12,231.203 223.208,236.829 	"/>
	<path style="fill-rule:evenodd;clip-rule:evenodd;fill:#242421;" d="M241.054,220.086l5.701,0.265
		c1.192-1.952,1.989-3.582,2.229-5.738l-5.548,0.092L241.054,220.086L241.054,220.086z"/>
	<polygon style="fill-rule:evenodd;clip-rule:evenodd;fill:#1D1D1B;" points="270.659,192.87 276.527,192.907 278.937,187.295 
		273.069,187.305 270.659,192.87 	"/>
	<path style="fill-rule:evenodd;clip-rule:evenodd;fill:#1D1D1B;" d="M231.915,243.296l5.264-0.012l2.433-5.614l-5.442-0.099
		C232.862,239.27,231.932,240.857,231.915,243.296L231.915,243.296z"/>
	<polygon style="fill-rule:evenodd;clip-rule:evenodd;fill:#1D1D1B;" points="250.46,194.969 255.997,195.116 258.693,189.45 
		252.508,189.558 250.46,194.969 	"/>
	<path style="fill-rule:evenodd;clip-rule:evenodd;fill:#2A2621;" d="M232.73,213.572l5.465,0.386
		c1.564-2.004,2.013-3.334,2.474-5.528l-5.601-0.104L232.73,213.572L232.73,213.572z"/>
	<polygon style="fill-rule:evenodd;clip-rule:evenodd;fill:#242421;" points="233.199,261.919 228.037,261.884 226.565,266.731 
		231.302,266.575 233.199,261.919 	"/>
	<polygon style="fill-rule:evenodd;clip-rule:evenodd;fill:#242421;" points="227.236,269.584 222.241,269.651 220.665,274.568 
		225.549,274.254 227.236,269.584 	"/>
	<polygon style="fill-rule:evenodd;clip-rule:evenodd;fill:#2B2721;" points="234.285,274.966 229.404,274.922 227.694,279.734 
		232.497,279.78 234.285,274.966 	"/>
	<polygon style="fill-rule:evenodd;clip-rule:evenodd;fill:#252521;" points="226.099,256.498 221.201,256.647 219.405,261.363 
		224.198,261.309 226.099,256.498 	"/>
	<path style="fill-rule:evenodd;clip-rule:evenodd;fill:#21231D;" d="M234.169,250.322l-3.797-0.038
		c-1.99,1.339-2.076,2.321-2.724,4.686l4.947,0.074L234.169,250.322L234.169,250.322z"/>
	<path style="fill-rule:evenodd;clip-rule:evenodd;fill:#252521;" d="M220.72,249.691l3.976-0.006
		c1.716-1.565,1.854-2.415,2.439-4.846l-4.584,0.228C221.118,247.441,221.284,247.143,220.72,249.691L220.72,249.691z"/>
	<polygon style="fill-rule:evenodd;clip-rule:evenodd;fill:#242421;" points="229.22,281.599 224.426,281.683 222.71,286.279 
		227.57,286.356 229.22,281.599 	"/>
	<polygon style="fill-rule:evenodd;clip-rule:evenodd;fill:#2B2723;" points="236.257,286.854 231.523,286.976 229.908,291.706 
		234.512,291.683 236.257,286.854 	"/>
	<polygon style="fill-rule:evenodd;clip-rule:evenodd;fill:#252521;" points="232.891,294.415 228.399,294.415 226.588,299.187 
		231.296,299.189 232.891,294.415 	"/>
	<path style="fill-rule:evenodd;clip-rule:evenodd;fill:#FFFFFF;" d="M275.494,246.463h16.412c1.707,0,3.101,1.409,3.101,3.113l0,0
		c0,1.713-1.394,3.098-3.101,3.098h-16.412c-1.705,0-3.107-1.385-3.107-3.098l0,0C272.387,247.872,273.789,246.463,275.494,246.463
		L275.494,246.463z"/>
	<path style="fill-rule:evenodd;clip-rule:evenodd;fill:#FFFFFF;" d="M277.895,254.595h11.618c1.687,0,3.095,1.394,3.095,3.112l0,0
		c0,1.702-1.408,3.09-3.095,3.09h-11.618c-1.705,0-3.101-1.388-3.101-3.09l0,0C274.794,255.988,276.191,254.595,277.895,254.595
		L277.895,254.595z"/>
	<path style="fill-rule:evenodd;clip-rule:evenodd;fill:#FFFFFF;" d="M280.126,262.215h7.132c1.722,0,3.115,1.411,3.115,3.105l0,0
		c0,1.716-1.393,3.107-3.115,3.107h-7.132c-1.69,0-3.087-1.391-3.087-3.107l0,0C277.04,263.626,278.436,262.215,280.126,262.215
		L280.126,262.215z"/>
</g>
</svg>
