<?xml version="1.0" encoding="UTF-8"?>
<!DOCTYPE svg PUBLIC "-//W3C//DTD SVG 1.1//EN" "http://www.w3.org/Graphics/SVG/1.1/DTD/svg11.dtd">
<!-- Creator: CorelDRAW 2019 (64-Bit) -->
<svg xmlns="http://www.w3.org/2000/svg" xml:space="preserve" width="169.32mm" height="162.948mm" version="1.1" style="shape-rendering:geometricPrecision; text-rendering:geometricPrecision; image-rendering:optimizeQuality; fill-rule:evenodd; clip-rule:evenodd"
viewBox="0 0 163.8729 157.7054"
 xmlns:xlink="http://www.w3.org/1999/xlink"
 xmlns:xodm="http://www.corel.com/coreldraw/odm/2003">
 <defs>
  <style type="text/css">
   <![CDATA[
    .fil1 {fill:#FEFEFE}
    .fil3 {fill:#F299A2}
    .fil5 {fill:#EF828D}
    .fil4 {fill:#ED727C}
    .fil0 {fill:#E41D2C}
    .fil6 {fill:#A2A6BE}
    .fil2 {fill:#2B3064}
   ]]>
  </style>
 </defs>
 <g id="Layer_x0020_1">
  <metadata id="CorelCorpID_0Corel-Layer"/>
  <g id="_880038912">
   <path class="fil0" d="M68.7607 108.1582c0.3891,-0.1559 0.1811,-0.0767 0.3534,-0.046l-0.1047 0.1221c-0.0451,0.7072 -0.4532,2.0135 -0.6317,2.7579 -0.2156,0.8986 -0.4411,1.8098 -0.6578,2.7097 -0.7458,3.0972 -2.0384,7.9808 -2.599,10.8717 -0.4789,2.4696 1.302,3.3209 3.4523,2.4162 2.6645,-1.1211 3.4472,-5.7877 4.2904,-9.1806 0.449,-1.8069 0.8915,-3.5855 1.341,-5.3921 0.2442,-0.9817 1.0258,-4.6704 1.3503,-5.3267l7.9515 -1.2356c-0.2477,1.3541 -0.6867,2.8402 -1.0008,4.2035 -1.072,4.6534 -2.6701,12.0932 -4.6189,16.0524 -0.6518,1.3239 -1.2279,2.1395 -2.0788,3.0627 -1.5319,1.6621 -3.515,3.0081 -6.4796,3.8092 -2.7349,0.7388 -6.3775,1.127 -9.0013,0.079 -5.6663,-2.2635 -2.5665,-11.0092 -1.443,-15.481 0.2556,-1.0177 1.9025,-7.8366 2.0978,-8.206l7.779 -1.2164zm23.6713 -2.5526l0 0 0.1738 -1.1022 -7.3568 1.1515c-0.1868,1.4314 -0.5684,2.7764 -0.8826,4.1088l-7.0006 28.2436 8.9617 -6.5417c0.5353,-0.3877 0.4029,-0.3993 0.5977,-1.1832 0.3337,-1.3437 1.8815,-7.8385 2.1002,-8.2215 0.7222,0.457 0.8255,0.7789 2.0878,1.171 2.4178,0.7509 5.8455,-0.2325 7.7377,-1.5038 2.7789,-1.867 4.5409,-4.2826 5.5106,-7.6784 2.6847,-9.4006 -3.6096,-13.0471 -9.8464,-9.6627 -0.5573,0.3024 -1.6434,0.9724 -1.9335,1.3805 -0.2012,-0.0763 -0.1672,0.1977 -0.1497,-0.162zm-45.9272 -18.0853l0 0c0.2471,-0.1871 0.1339,-0.1233 0.4687,-0.1094l-0.1179 0.1884 -1.386 5.7073 -5.4342 0.8503 -4.8652 19.3554c-0.1724,0.3997 -5.0627,3.4652 -5.7893,3.9391 -0.5021,0.3273 -2.5284,1.7428 -2.8668,1.8245l5.9911 -23.9335 -7.6496 1.1995 3.6146 -6.0996c0.2981,-0.3294 4.4362,-0.8199 4.8202,-0.88 1.127,-0.176 12.4001,-2.0211 13.2142,-2.042zm39.1193 -0.8668l0 0 -6.9235 1.0722c-0.7262,2.4839 -1.2721,5.2335 -1.8881,7.749 -0.34,1.388 -0.7645,2.4743 -1.4696,3.4007 -0.353,0.464 -2.4056,1.909 -3.3455,0.9952 -0.584,-1.0305 2.0092,-9.6155 2.2714,-11.4517 -1.2379,0.1439 -2.5236,0.3882 -3.7529,0.5764 -0.6152,0.0943 -1.2486,0.1976 -1.8654,0.2934l-1.5917 0.263c-0.2421,0.0881 -0.1035,0.0304 -0.2222,0.1077 -0.5689,2.1186 -1.0006,4.407 -1.5136,6.5879 -0.4913,2.0883 -1.2721,4.9682 -0.6788,7.154 1.1893,4.3801 6.3387,3.7205 9.4526,1.6155 0.3632,-0.2455 0.9095,-0.713 1.2022,-0.8556l-0.2235 1.2652 6.8578 -1.0761c0.4608,-4.6331 3.7476,-15.5657 3.9208,-17.5935l0.1048 -0.1698 -0.3349 0.0664zm9.1662 -0.6908l0 0c-0.0043,0.3577 -0.0452,0.0759 0.1081,0.1716 0.943,-0.9238 2.4794,-1.7013 4.1772,-1.9674 2.2119,-0.3465 3.6145,0.4044 4.4749,1.637 0.9949,-0.8683 0.8123,-1.0174 2.3071,-1.968 2.8739,-1.8278 7.6979,-2.2134 8.7821,1.3692 0.6597,2.1799 -0.2374,5.3355 -0.7318,7.4343 -0.5399,2.2929 -1.0887,4.577 -1.6138,6.9222l-7.2439 1.1289c0.3556,-1.7871 2.7636,-10.4907 2.3123,-11.5806 -1.323,-0.5556 -2.3386,0.6551 -2.7447,1.5282 -0.4688,1.0086 -0.7432,2.2814 -1.0384,3.4582 -0.3886,1.55 -1.3725,6.0187 -1.7472,7.131l-7.1823 1.1123c0.2121,-1.707 2.9016,-10.7394 2.2598,-11.5606 -0.2665,-0.2042 -0.4223,-0.1944 -0.8719,-0.1093 -0.9039,0.1712 -1.3736,0.7625 -1.795,1.5672 -1.0037,1.9169 -2.3307,9.8566 -2.859,10.6275l-7.1468 1.1163c0.2586,-1.4534 0.6795,-2.9948 1.0282,-4.4487l2.9764 -13.3025 6.2494 -0.9529c0.2435,-0.1871 0.1328,-0.1224 0.4636,-0.1096l-0.1136 0.1949 -0.0508 0.6008zm-52.5074 24.5825l0 0c0.8154,-0.0786 6.9059,-0.9909 7.152,-1.1796 0.2082,-0.1814 0.2003,-0.4046 0.2993,-0.8404l1.6604 -6.8471c0.3119,-1.2775 0.7128,-2.4791 1.449,-3.3219 0.6576,-0.753 1.9504,-1.6579 3.3903,-1.1537 0.4172,1.8283 -2.116,9.52 -2.268,11.5139l7.3501 -1.1323 1.4786 -6.3906c0.446,-2.0195 1.2373,-4.6689 0.8768,-6.8389 -0.6531,-3.9294 -4.1672,-4.4881 -7.386,-3.3148 -1.589,0.5791 -1.7323,0.9697 -2.5929,1.4058l1.8909 -7.9595c-1.9889,0.228 -4.3155,0.6723 -6.3611,0.9766 -1.2221,0.1818 -0.9281,0.0995 -1.2135,1.3245l-4.7736 19.7341c-0.3093,1.2906 -0.7309,2.7408 -0.9523,4.0238zm80.5526 -17.9862l0 0c-0.5166,1.1921 -4.3154,1.1025 -5.73,0.9875 -0.2632,0.262 -3.315,4.8446 -3.3351,5.1384 5.5702,0.6904 11.266,-0.2314 14.2395,-3.3601 1.5849,-1.6676 2.8328,-4.6725 1.5307,-6.595 -1.5177,-2.2411 -5.4776,-1.7481 -6.31,-2.7181 0.2766,-0.7488 2.1559,-0.8897 3.1316,-0.9273 1.5805,-0.0607 2.2821,0.252 3.6517,0.4558l1.8251 -5.3341c-2.929,-0.3708 -4.9909,-0.6634 -7.8875,0.1179 -2.2228,0.5997 -4.1485,1.4604 -5.7559,3.0362 -0.7647,0.7498 -1.3537,1.493 -1.6683,2.6308 -0.3531,1.2765 -0.2562,2.7083 0.3313,3.729 1.407,2.4451 5.3214,1.777 5.977,2.839zm-108.3276 44.8223l0 0 -0.0557 0.2901 0.8645 -0.0424c1.0237,0.0658 8.2226,-0.3956 9.9077,-0.4822 3.3237,-0.1709 6.6318,-0.3354 9.9431,-0.5195 1.6575,-0.0921 8.7398,-0.6659 9.7742,-0.3417 2.6999,0.8458 5.2999,1.6314 7.8991,2.5799 6.2095,2.2664 10.726,4.0957 16.1977,7.1861 0.8787,0.4963 0.7306,0.6423 1.9534,0.6282 17.4096,-0.1992 34.4972,-2.6199 51.4052,-5.9806 1.4524,-0.2887 13.807,-2.7075 14.9356,-3.313 0.4985,-0.2673 1.0072,-0.8101 1.2319,-1.389 0.4889,-1.2605 -0.385,-3.0061 -0.8038,-4.0435l-3.0049 -7.4712c-2.0697,-5.1299 -1.8498,-3.4237 1.4012,-4.547 0.8805,-0.3043 1.602,-0.7626 1.8156,-1.6429 0.2942,-1.2126 -1.0791,-4.0994 -1.5391,-5.2158l-2.9406 -7.4425c-0.2329,-0.5938 -0.9565,-1.9765 -0.7602,-2.495 0.6959,-0.2959 1.6641,-0.0432 2.5862,-0.5045 2.8401,-1.4213 1.253,-4.0401 0.3249,-6.3518 -0.3704,-0.9223 -3.565,-8.6157 -3.3655,-8.9537 1.0624,-0.8042 3.2972,-0.163 3.9872,-1.989 0.5746,-1.5206 -0.5382,-3.5619 -1.0522,-4.8094 -1.1887,-2.8856 -2.3372,-5.7533 -3.5264,-8.6333 -1.2348,-2.9909 -2.1299,-6.233 -5.5648,-6.5891 -1.3585,-0.1408 -3.9021,0.4088 -5.3548,0.6011 -1.764,0.2334 -3.5662,0.4958 -5.3337,0.759 -7.0719,1.0527 -14.2108,2.0047 -21.2835,3.0161 -3.5652,0.5099 -7.0953,1.0482 -10.6593,1.5131 -0.9737,0.1271 -2.0022,0.0758 -1.978,-0.9931 0.0166,-0.7272 0.7824,-1.5547 1.1183,-2.0184 1.7669,-2.438 6.4445,-8.3567 7.4525,-10.6919 0.6387,-1.4798 1.0413,-3.2328 1.0044,-5.0649 -0.0568,-2.8261 -0.9288,-2.0572 0.0992,-3.4681 2.238,-3.0712 2.806,-6.9524 1.7119,-10.9492 -1.9017,-6.9465 -2.963,-11.2593 -7.1281,-17.194 -0.5877,-0.8373 -3.0305,-4.3943 -3.8713,-5.2034 -2.7231,-2.6204 -5.7596,-4.9809 -10.6862,-4.4737 -1.7991,0.1853 -3.2479,0.6615 -4.741,1.321 -0.9924,0.4381 -3.2855,1.7683 -3.7232,2.3696 -0.0081,0.6022 0.4575,0.9947 0.6452,1.5417 0.4711,-0.0943 1.0531,-0.397 1.5611,-0.5642 1.7178,-0.5656 3.5393,-0.6636 4.8825,0.4598 1.0378,0.8681 2.7033,3.8625 3.2882,5.035 1.3316,2.6702 2.4661,7.0224 0.4981,9.815 -0.4319,0.6127 -1.4533,1.6588 -2.2909,1.9148 0.3899,3.3848 -3.3506,7.3596 -5.5283,9.5344 -1.5105,1.5085 -0.8529,0.5729 -2.4424,2.6084 -1.2864,1.6473 -2.7272,4.1134 -3.4867,6.522 -0.8304,2.6332 -1.2951,4.726 -3.0429,7.0589 -4.2272,5.6419 -7.2326,4.1693 -10.727,9.3838 -1.4262,2.128 -1.8241,4.8654 -3.4567,6.6444 -1.0139,1.1048 -1.3302,1.3633 -3.2531,1.7936 -1.371,0.3068 -2.8347,0.5729 -4.2323,0.8251l-7.4012 1.3005c-0.5158,0.1012 -0.5427,0.1495 -0.6502,0.654l-5.4131 24.8889c-1.193,5.5038 -2.3649,11.0145 -3.598,16.5119 -0.6231,2.7777 -1.1998,5.5339 -1.8087,8.294 -0.2976,1.3492 -1.7027,7.482 -1.785,8.3279z"/>
   <path class="fil1" d="M64.2514 17.7987c0.8212,-0.3015 1.5218,-0.6608 2.5398,-0.8152 0.5406,-0.082 1.0883,-0.0982 1.6128,0.0658 1.9809,0.6194 4.989,6.9522 4.8759,10.3166 -0.0603,1.7947 -0.9653,3.6987 -2.4973,4.3304 -0.3482,-1.8154 -2.2019,-5.5388 -3.0217,-7.1817l-3.5095 -6.7159zm-48.9347 119.83l0 0c1.0237,0.0658 8.2226,-0.3956 9.9077,-0.4822 3.3237,-0.1709 6.6318,-0.3354 9.9431,-0.5195 1.6575,-0.0921 8.7398,-0.6659 9.7742,-0.3417 2.6999,0.8458 5.2999,1.6314 7.8991,2.5799 6.2095,2.2664 10.726,4.0957 16.1977,7.1861 0.8787,0.4963 0.7306,0.6423 1.9534,0.6282 17.4096,-0.1992 34.4972,-2.6199 51.4052,-5.9806 1.4524,-0.2887 13.807,-2.7075 14.9356,-3.313 0.4985,-0.2673 1.0072,-0.8101 1.2319,-1.389 0.4889,-1.2605 -0.385,-3.0061 -0.8038,-4.0435l-3.0049 -7.4712c-2.0697,-5.1299 -1.8498,-3.4237 1.4012,-4.547 0.8805,-0.3043 1.602,-0.7626 1.8156,-1.6429 0.2942,-1.2126 -1.0791,-4.0994 -1.5391,-5.2158l-2.9406 -7.4425c-0.2329,-0.5938 -0.9565,-1.9765 -0.7602,-2.495 0.6959,-0.2959 1.6641,-0.0432 2.5862,-0.5045 2.8401,-1.4213 1.253,-4.0401 0.3249,-6.3518 -0.3704,-0.9223 -3.565,-8.6157 -3.3655,-8.9537 1.0624,-0.8042 3.2972,-0.163 3.9872,-1.989 0.5746,-1.5206 -0.5382,-3.5619 -1.0522,-4.8094 -1.1887,-2.8856 -2.3372,-5.7533 -3.5264,-8.6333 -1.2348,-2.9909 -2.1299,-6.233 -5.5648,-6.5891 -1.3585,-0.1408 -3.9021,0.4088 -5.3548,0.6011 -1.764,0.2334 -3.5662,0.4958 -5.3337,0.759 -7.0719,1.0527 -14.2108,2.0047 -21.2835,3.0161 -3.5652,0.5099 -7.0953,1.0482 -10.6593,1.5131 -0.9737,0.1271 -2.0022,0.0758 -1.978,-0.9931 0.0166,-0.7272 0.7824,-1.5547 1.1183,-2.0184 1.7669,-2.438 6.4445,-8.3567 7.4525,-10.6919 0.6387,-1.4798 1.0413,-3.2328 1.0044,-5.0649 -0.0568,-2.8261 -0.9288,-2.0572 0.0992,-3.4681 2.238,-3.0712 2.806,-6.9524 1.7119,-10.9492 -1.9017,-6.9465 -2.963,-11.2593 -7.1281,-17.194 -0.5877,-0.8373 -3.0305,-4.3943 -3.8713,-5.2034 -2.7231,-2.6204 -5.7596,-4.9809 -10.6862,-4.4737 -1.7991,0.1853 -3.2479,0.6615 -4.741,1.321 -0.9924,0.4381 -3.2855,1.7683 -3.7232,2.3696 -0.0081,0.6022 0.4575,0.9947 0.6452,1.5417 0.4711,-0.0943 1.0531,-0.397 1.5611,-0.5642 1.7178,-0.5656 3.5393,-0.6636 4.8825,0.4598 1.0378,0.8681 2.7033,3.8625 3.2882,5.035 1.3316,2.6702 2.4661,7.0224 0.4981,9.815 -0.4319,0.6127 -1.4533,1.6588 -2.2909,1.9148 0.3899,3.3848 -3.3506,7.3596 -5.5283,9.5344 -1.5105,1.5085 -0.8529,0.5729 -2.4424,2.6084 -1.2864,1.6473 -2.7272,4.1134 -3.4867,6.522 -0.8304,2.6332 -1.2951,4.726 -3.0429,7.0589 -4.2272,5.6419 -7.2326,4.1693 -10.727,9.3838 -1.4262,2.128 -1.8241,4.8654 -3.4567,6.6444 -1.0139,1.1048 -1.3302,1.3633 -3.2531,1.7936 -1.371,0.3068 -2.8347,0.5729 -4.2323,0.8251l-7.4012 1.3005c-0.5158,0.1012 -0.5427,0.1495 -0.6502,0.654l-5.4131 24.8889c-1.193,5.5038 -2.3649,11.0145 -3.598,16.5119 -0.6231,2.7777 -1.1998,5.5339 -1.8087,8.294 -0.2976,1.3492 -1.7027,7.482 -1.785,8.3279 -0.2181,0.2416 -0.1077,0.0475 -0.1368,0.388l0.9455 -0.1403zm77.622 -73.5197l0 0 -0.2907 0.1215c0.0065,-0.4683 -0.0281,-0.1019 0.1307,-0.2483 0.6239,-0.6564 1.438,-2.0356 1.9368,-2.9809 2.8167,-5.3372 1.8512,-9.4272 2.0467,-10.1102 0.3324,-1.1622 2.6054,-3.7874 2.3786,-9.874 -0.1069,-2.8674 -1.0043,-5.5037 -1.6939,-8.1153 -1.3918,-5.2707 -3.4414,-9.8526 -5.9712,-13.7658 -2.5688,-3.9733 -5.1749,-7.7313 -9.0636,-10.5781 -6.7056,-4.9087 -15.3463,-3.9889 -22.0824,0.9414 -0.2855,0.209 -0.4402,0.3812 -0.7123,0.5956l-1.8506 1.7978c-0.3357,0.4133 -1.8354,2.28 -1.596,3.1724 0.089,0.3318 7.9094,12.8894 9.2747,17.752 0.285,1.0147 0.2183,0.9582 -0.2838,1.7158 -1.3442,2.0285 -3.0032,3.7113 -4.6352,5.1886 -0.5641,0.5105 -1.7038,2.0428 -2.2151,2.7421 -0.6931,0.9483 -1.2996,1.9619 -1.9093,3.0479 -1.7973,3.2024 -1.6731,4.1834 -2.7337,7.0865 -0.8527,2.3339 -2.4586,4.6035 -4.2988,5.5234 -4.1492,2.0742 -7.9349,5.6089 -9.6586,9.9841 -0.6897,1.751 -0.706,2.7897 -1.9385,3.0187l-8.3011 1.5234c-2.7885,0.5015 -5.1413,0.5414 -6.8538,2.9632 -0.8319,1.1769 -0.9231,2.0503 -1.2714,3.59 -3.6361,16.0675 -7.1279,32.2113 -10.7152,48.3099 -0.5941,2.6667 -1.1719,5.3562 -1.784,8.0394 -0.5882,2.5803 -1.3369,5.4861 -1.7788,8.0857 6.463,-0.2523 13.0304,-0.7442 19.4943,-1.1206 0.9146,-0.0533 16.6102,-0.7263 17.3859,-0.5697 0.5314,0.1073 1.3947,0.4131 1.9437,0.5925 7.1808,2.347 15.2549,5.3247 21.5786,9.1969 0.872,0.534 0.7584,0.6426 2.0257,0.6366 0.8423,-0.004 1.6832,-0.0012 2.5255,-0.009 13.8464,-0.1287 28.4869,-2.0291 41.8358,-4.3114 5.7948,-0.9908 11.4959,-2.1201 17.1748,-3.3085 2.821,-0.5904 5.5972,-1.2419 8.4117,-1.8754 1.389,-0.3125 2.793,-0.6358 4.1852,-0.958 0.804,-0.186 3.5774,-0.7276 4.1082,-1.0061l-7.0315 -16.946 5.443 -2.1902 -6.2346 -15.3928c0.3963,-0.1478 4.535,-2.7194 4.7667,-2.9653 -0.6492,-1.9188 -2.8683,-7.1384 -3.7822,-9.3885 -1.5617,-3.8451 -1.7079,-3.3173 -0.6119,-4.3745l3.3725 -3.165c-0.1165,-0.5952 -5.5309,-13.8329 -5.8829,-14.6866 -2.2456,-5.4455 -3.4874,-9.8753 -8.839,-11.6451 -2.9972,-0.9912 -6.0277,-0.262 -9.0933,0.1833l-17.9247 2.5368c-1.4854,0.2129 -8.0818,1.2296 -8.9811,1.2398z"/>
   <path class="fil2" d="M92.7786 63.9822c0.0731,0.17 -0.1834,0.1196 0.1601,0.1269 0.8992,-0.0102 7.4956,-1.0269 8.9811,-1.2398l17.9247 -2.5368c3.0656,-0.4453 6.0962,-1.1746 9.0933,-0.1833 5.3516,1.7698 6.5934,6.1996 8.839,11.6451 0.352,0.8537 5.7664,14.0914 5.8829,14.6866l-3.3725 3.165c-1.0961,1.0572 -0.9498,0.5294 0.6119,4.3745 0.9139,2.2501 3.133,7.4697 3.7822,9.3885 -0.2317,0.2459 -4.3704,2.8175 -4.7667,2.9653l6.2346 15.3928 -5.443 2.1902 7.0315 16.946c-0.5309,0.2784 -3.3043,0.82 -4.1082,1.0061 -1.3922,0.3222 -2.7962,0.6454 -4.1852,0.958 -2.8144,0.6334 -5.5907,1.285 -8.4117,1.8754 -5.6789,1.1884 -11.38,2.3178 -17.1748,3.3085 -13.349,2.2822 -27.9894,4.1827 -41.8358,4.3114 -0.8424,0.0078 -1.6832,0.005 -2.5255,0.009 -1.2673,0.006 -1.1537,-0.1027 -2.0257,-0.6366 -6.3237,-3.8722 -14.3978,-6.8499 -21.5786,-9.1969 -0.549,-0.1794 -1.4123,-0.4852 -1.9437,-0.5925 -0.7757,-0.1566 -16.4713,0.5163 -17.3859,0.5697 -6.4639,0.3765 -13.0313,0.8683 -19.4943,1.1206 0.4419,-2.5996 1.1905,-5.5054 1.7788,-8.0857 0.6121,-2.6832 1.1898,-5.3727 1.784,-8.0394 3.5874,-16.0987 7.0791,-32.2424 10.7152,-48.3099 0.3483,-1.5396 0.4395,-2.4131 1.2714,-3.59 1.7125,-2.4218 4.0653,-2.4617 6.8538,-2.9632l8.3011 -1.5234c1.2324,-0.229 1.2488,-1.2677 1.9385,-3.0187 1.7237,-4.3753 5.5095,-7.91 9.6586,-9.9841 1.8402,-0.9199 3.4461,-3.1895 4.2988,-5.5234 1.0606,-2.9031 0.9365,-3.8841 2.7337,-7.0865 0.6097,-1.086 1.2163,-2.0996 1.9093,-3.0479 0.5113,-0.6994 1.6509,-2.2316 2.2151,-2.7421 1.632,-1.4773 3.291,-3.1602 4.6352,-5.1886 0.5021,-0.7575 0.5688,-0.7011 0.2838,-1.7158 -1.3653,-4.8626 -9.1857,-17.4202 -9.2747,-17.752 -0.2393,-0.8924 1.2603,-2.7592 1.596,-3.1724l1.8506 -1.7978c0.2722,-0.2144 0.4268,-0.3866 0.7123,-0.5956 6.7361,-4.9303 15.3768,-5.8501 22.0824,-0.9414 3.8887,2.8468 6.4948,6.6048 9.0636,10.5781 2.5298,3.9132 4.5794,8.4951 5.9712,13.7658 0.6896,2.6116 1.5869,5.248 1.6939,8.1153 0.2268,6.0866 -2.0462,8.7118 -2.3786,9.874 -0.1955,0.683 0.77,4.773 -2.0467,10.1102 -0.4988,0.9453 -1.313,2.3245 -1.9368,2.9809zm-41.8956 -49.2443l0 0c0,0.8041 -0.0423,1.694 0.343,2.3694l1.8134 3.0504c1.1173,1.867 6.6358,11.1722 6.6358,12.726 0,0.3468 -0.9581,1.2521 -1.1932,1.5192 -0.5367,0.6093 -1.6728,1.5493 -2.7111,2.7139 -0.4359,0.4888 -0.8561,1.0547 -1.2403,1.5659 -0.8052,1.0715 -1.4816,2.1135 -2.2042,3.3143l-1.4165 2.699c-0.1543,0.3614 -0.3009,0.5752 -0.4559,0.9471 -0.5449,1.3087 -1.0375,2.5457 -1.4037,4.0211 -0.3289,1.3246 -1.0083,2.9221 -1.9184,3.6001l-3.4515 2.0673c-2.1258,1.4077 -4.1189,3.2569 -5.6526,5.2908 -0.8134,1.0786 -1.5163,2.1599 -2.1742,3.3445 -1.4746,2.6553 -0.3179,2.2492 -2.8482,2.6701 -1.573,0.2616 -3.1606,0.5727 -4.6909,0.8278 -3.5653,0.5946 -5.3305,0.8602 -8.0581,2.9789 -0.9181,0.7129 -1.9424,1.9448 -2.5168,3.0017 -0.3417,0.6286 -0.6202,1.1042 -0.8695,1.8431 -0.2641,0.7827 -0.4175,1.3809 -0.5861,2.2198 -0.901,4.4833 -2.066,8.9473 -3.0413,13.4208 -0.1639,0.7514 -0.3367,1.5106 -0.5023,2.2102 -0.1835,0.7753 -0.324,1.4929 -0.5244,2.2817l-10.6822 47.0289c-0.2506,1.1026 -1.4576,5.8782 -1.5336,6.7909 3.2048,0 6.2866,-0.4323 9.4506,-0.4641l2.2808 -0.1512c0.4167,-0.0631 0.7556,-0.0244 1.1794,-0.0365l4.7689 -0.282c0.5761,0.0052 0.7217,-0.0841 1.2113,-0.0981 0.8783,-0.0252 1.475,-0.0782 2.345,-0.0869l21.5187 -0.9384c0.5866,-0.0354 3.129,0.9056 3.8136,1.1338 4.8731,1.6238 9.7016,3.5234 14.2292,5.7872 1.6267,0.8134 3.2647,1.7091 4.7887,2.6942 0.3033,0.1961 1.3113,0.8601 1.6653,0.8601 1.5064,0 7.0281,0.1339 8.2705,-0.0541l9.8734 -0.5089c0.3559,-0.0176 0.9569,-0.0591 1.3908,-0.1057 0.8054,-0.0865 1.9103,-0.2185 2.7292,-0.2639 3.7805,-0.2095 12.0258,-1.3357 15.9514,-1.914 6.9236,-1.0198 13.5522,-2.204 20.377,-3.4743l7.3724 -1.5133c6.5531,-1.4037 12.9244,-2.8686 19.3765,-4.4749 0.7048,-0.1755 1.7348,-0.5438 2.3944,-0.5987 -0.0573,-0.6875 -5.0347,-12.2214 -5.5042,-13.3898 -0.3065,-0.7626 -0.6392,-1.5078 -0.9353,-2.2449 -0.1576,-0.392 -0.3195,-0.7536 -0.4677,-1.1224 -0.1419,-0.353 -0.3186,-0.7992 -0.4822,-1.1081 1.2575,-0.6654 2.7222,-1.1335 4.0344,-1.6713 0.4613,-0.189 0.9818,-0.3571 1.3907,-0.5735l-6.5474 -16.088 2.3763 -1.4586c0.4128,-0.2712 0.756,-0.45 1.1597,-0.711 0.4359,-0.2817 0.7773,-0.4882 1.2344,-0.73 -0.0828,-0.994 -5.4426,-13.0224 -5.5187,-13.9366 0.4001,-0.1068 0.7619,-0.6215 1.0522,-0.9119 0.5091,-0.509 0.9908,-1.0854 1.5528,-1.5338 0.55,-0.4387 1.0233,-1.0937 1.6042,-1.4827 -0.1941,-0.3665 -0.3475,-0.8217 -0.5213,-1.256l-7.7634 -19.2682c-0.7073,-1.7692 -1.3773,-3.3684 -2.3019,-4.9003 -0.6576,-1.0897 -1.3885,-2.1504 -2.25,-3.0815l-1.3805 -1.3318c-2.0987,-1.6165 -3.9668,-2.6741 -6.6635,-3.2512 -2.4406,-0.5223 -3.8494,-0.4039 -6.284,-0.0618 -1.065,0.1496 -2.0829,0.2584 -3.0633,0.3976 -2.058,0.2919 -4.1114,0.5411 -6.0925,0.8292l-10.4876 1.4846c-0.5268,0.0776 -1.0862,0.189 -1.5498,0.2276 0.0256,-0.3054 0.1258,-0.6579 0.1751,-0.9474 0.0625,-0.3663 0.1067,-0.6645 0.1607,-1.0553 0.25,-1.8097 -0.1519,-2.6634 0.5088,-4.168 1.0366,-2.3609 1.599,-4.8219 1.9367,-7.4169l0.1184 -2.2199c0,-2.1448 -0.3055,-4.0458 -0.8032,-6.0246 -1.999,-7.9473 -4.913,-15.9611 -9.8334,-22.5298 -0.9769,-1.3041 -1.8762,-2.7301 -3.0432,-3.8782 -0.2544,-0.2502 -0.296,-0.3594 -0.5148,-0.6078 -1.2592,-1.4301 -2.7644,-2.7131 -4.2853,-3.8523 -1.8155,-1.3601 -3.6265,-2.4551 -5.8921,-3.3676 -5.6334,-2.2688 -11.5444,-1.8749 -16.9965,0.4818 -0.5566,0.2405 -1.0063,0.4828 -1.5368,0.708 -1.0496,0.4454 -2.0016,1.026 -2.9661,1.617 -0.9239,0.5663 -1.8256,1.1277 -2.6039,1.8858 -0.7685,0.7487 -1.6054,1.457 -2.2747,2.3085 -1.2601,1.6029 -2.8451,3.9802 -2.8451,6.2277z"/>
   <path class="fil1" d="M94.5981 109.9371c1.2023,-0.3006 1.9464,-0.0343 2.2178,1.0365 0.6298,2.4845 -0.9067,5.8382 -3.6147,6.4977 -2.5145,0.6124 -2.7575,-2.2435 -2.0422,-4.0934 0.6186,-1.6 1.7394,-3.016 3.4392,-3.4408zm-2.0164 -4.1695l0 0c-0.156,0.1562 0.1712,0.1139 -0.1761,0.1567 -0.1005,-0.1592 -0.2319,-0.036 0.0264,-0.3187l0.1738 -1.1022 -7.3568 1.1515c-0.1868,1.4314 -0.5684,2.7764 -0.8826,4.1088l-7.0006 28.2436 8.9617 -6.5417c0.5353,-0.3877 0.4029,-0.3993 0.5977,-1.1832 0.3337,-1.3437 1.8815,-7.8385 2.1002,-8.2215 0.7222,0.457 0.8255,0.7789 2.0878,1.171 2.4178,0.7509 5.8455,-0.2325 7.7377,-1.5038 2.7789,-1.867 4.5409,-4.2826 5.5106,-7.6784 2.6847,-9.4006 -3.6096,-13.0471 -9.8464,-9.6627 -0.5573,0.3024 -1.6434,0.9724 -1.9335,1.3805z"/>
   <path class="fil1" d="M69.0093 108.2344l-0.2486 -0.0762 -7.779 1.2164c-0.1953,0.3694 -1.8422,7.1884 -2.0978,8.206 -1.1235,4.4718 -4.2233,13.2175 1.443,15.481 2.6238,1.0481 6.2664,0.6599 9.0013,-0.079 2.9647,-0.8011 4.9477,-2.147 6.4796,-3.8092 0.8509,-0.9232 1.427,-1.7388 2.0788,-3.0627 1.9487,-3.9592 3.5469,-11.399 4.6189,-16.0524 0.3142,-1.3633 0.7532,-2.8494 1.0008,-4.2035l-7.9515 1.2356c-0.3245,0.6564 -1.1061,4.3451 -1.3503,5.3267 -0.4496,1.8065 -0.892,3.5851 -1.341,5.3921 -0.8432,3.3929 -1.6259,8.0595 -4.2904,9.1806 -2.1503,0.9047 -3.9312,0.0534 -3.4523,-2.4162 0.5606,-2.8909 1.8532,-7.7745 2.599,-10.8717 0.2167,-0.8999 0.4422,-1.8111 0.6578,-2.7097 0.1785,-0.7445 0.5866,-2.0507 0.6317,-2.7579z"/>
   <path class="fil1" d="M94.8985 86.1342c-0.0973,0.1009 0.1061,0.0694 -0.253,0.1696 0.0431,-0.35 -0.0444,-0.1694 0.1449,-0.3412l0.0508 -0.6008c-0.1243,-0.2121 0.1381,-0.1297 -0.35,-0.0854l-6.2494 0.9529 -2.9764 13.3025c-0.3487,1.4539 -0.7696,2.9953 -1.0282,4.4487l7.1468 -1.1163c0.5282,-0.771 1.8552,-8.7106 2.859,-10.6275 0.4214,-0.8047 0.8912,-1.396 1.795,-1.5672 0.4497,-0.0852 0.6054,-0.0949 0.8719,0.1093 0.6419,0.8212 -2.0477,9.8537 -2.2598,11.5606l7.1823 -1.1123c0.3747,-1.1122 1.3586,-5.581 1.7472,-7.131 0.2952,-1.1769 0.5696,-2.4497 1.0384,-3.4582 0.4061,-0.8731 1.4216,-2.0838 2.7447,-1.5282 0.4513,1.09 -1.9568,9.7936 -2.3123,11.5806l7.2439 -1.1289c0.525,-2.3452 1.0739,-4.6293 1.6138,-6.9222 0.4944,-2.0987 1.3914,-5.2543 0.7318,-7.4343 -1.0842,-3.5826 -5.9082,-3.197 -8.7821,-1.3692 -1.4948,0.9506 -1.3122,1.0996 -2.3071,1.968 -0.8604,-1.2326 -2.2631,-1.9835 -4.4749,-1.637 -1.6979,0.2661 -3.2343,1.0436 -4.1772,1.9674z"/>
   <path class="fil1" d="M42.283 110.5451c0.8154,-0.0786 6.9059,-0.9909 7.152,-1.1796 0.2082,-0.1814 0.2003,-0.4046 0.2993,-0.8404l1.6604 -6.8471c0.3119,-1.2775 0.7128,-2.4791 1.449,-3.3219 0.6576,-0.753 1.9504,-1.6579 3.3903,-1.1537 0.4172,1.8283 -2.116,9.52 -2.268,11.5139l7.3501 -1.1323 1.4786 -6.3906c0.446,-2.0195 1.2373,-4.6689 0.8768,-6.8389 -0.6531,-3.9294 -4.1672,-4.4881 -7.386,-3.3148 -1.589,0.5791 -1.7323,0.9697 -2.5929,1.4058l1.8909 -7.9595c-1.9889,0.228 -4.3155,0.6723 -6.3611,0.9766 -1.2221,0.1818 -0.9281,0.0995 -1.2135,1.3245l-4.7736 19.7341c-0.3093,1.2906 -0.7309,2.7408 -0.9523,4.0238z"/>
   <path class="fil1" d="M46.8557 87.5993c-0.1213,-0.2031 0.1226,-0.1226 -0.3508,-0.0791 -0.8141,0.0209 -12.0872,1.866 -13.2142,2.042 -0.3839,0.0601 -4.5221,0.5507 -4.8202,0.88l-3.6146 6.0996 7.6496 -1.1995 -5.9911 23.9335c0.3384,-0.0818 2.3647,-1.4972 2.8668,-1.8245 0.7265,-0.4738 5.6169,-3.5393 5.7893,-3.9391l4.8652 -19.3554 5.4342 -0.8503 1.386 -5.7073z"/>
   <path class="fil1" d="M85.8542 86.7568c-0.0818,-0.1439 0.0994,-0.1133 -0.2301,-0.1034l-6.9235 1.0722c-0.7262,2.4839 -1.2721,5.2335 -1.8881,7.749 -0.34,1.388 -0.7645,2.4743 -1.4696,3.4007 -0.353,0.464 -2.4056,1.909 -3.3455,0.9952 -0.584,-1.0305 2.0092,-9.6155 2.2714,-11.4517 -1.2379,0.1439 -2.5236,0.3882 -3.7529,0.5764 -0.6152,0.0943 -1.2486,0.1976 -1.8654,0.2934l-1.5917 0.263c-0.2421,0.0881 -0.1035,0.0304 -0.2222,0.1077 -0.5689,2.1186 -1.0006,4.407 -1.5136,6.5879 -0.4913,2.0883 -1.2721,4.9682 -0.6788,7.154 1.1893,4.3801 6.3387,3.7205 9.4526,1.6155 0.3632,-0.2455 0.9095,-0.713 1.2022,-0.8556l-0.2235 1.2652 6.8578 -1.0761c0.4608,-4.6331 3.7476,-15.5657 3.9208,-17.5935z"/>
   <path class="fil1" d="M122.8356 92.5588c-0.5166,1.1921 -4.3154,1.1025 -5.73,0.9875 -0.2632,0.262 -3.315,4.8446 -3.3351,5.1384 5.5702,0.6904 11.266,-0.2314 14.2395,-3.3601 1.5849,-1.6676 2.8328,-4.6725 1.5307,-6.595 -1.5177,-2.2411 -5.4776,-1.7481 -6.31,-2.7181 0.2766,-0.7488 2.1559,-0.8897 3.1316,-0.9273 1.5805,-0.0607 2.2821,0.252 3.6517,0.4558l1.8251 -5.3341c-2.929,-0.3708 -4.9909,-0.6634 -7.8875,0.1179 -2.2228,0.5997 -4.1485,1.4604 -5.7559,3.0362 -0.7647,0.7498 -1.3537,1.493 -1.6683,2.6308 -0.3531,1.2765 -0.2562,2.7083 0.3313,3.729 1.407,2.4451 5.3214,1.777 5.977,2.839z"/>
   <path class="fil0" d="M64.2514 17.7987l3.5095 6.7159c0.8198,1.6429 2.6734,5.3663 3.0217,7.1817 1.532,-0.6317 2.437,-2.5356 2.4973,-4.3304 0.113,-3.3644 -2.8951,-9.6972 -4.8759,-10.3166 -0.5245,-0.164 -1.0722,-0.1478 -1.6128,-0.0658 -1.018,0.1544 -1.7186,0.5137 -2.5398,0.8152z"/>
   <path class="fil0" d="M94.5981 109.9371c-1.6998,0.4248 -2.8205,1.8408 -3.4392,3.4408 -0.7153,1.8499 -0.4723,4.7059 2.0422,4.0934 2.7081,-0.6595 4.2445,-4.0132 3.6147,-6.4977 -0.2714,-1.0708 -1.0154,-1.3372 -2.2178,-1.0365z"/>
   <path class="fil2" d="M156.6707 141.1035c0,-1.6543 1.4366,-3.1802 3.0867,-3.1802 0.7802,0 1.4592,0.1125 2.0834,0.6291 3.5768,2.9604 -1.1056,7.8665 -4.2132,4.7742 -0.5281,-0.5255 -0.957,-1.4009 -0.957,-2.2231zm-0.7482 -0.3742l0 0c0,1.4577 0.1556,2.1858 1.2373,3.2524 2.5887,2.5526 6.7131,0.3666 6.7131,-2.5977 0,-1.452 -0.2152,-2.131 -1.2382,-3.1578 -1.578,-1.584 -3.72,-1.4549 -5.459,-0.0788 -0.6129,0.4852 -1.2531,1.6928 -1.2531,2.5819z"/>
   <path class="fil2" d="M159.851 140.8228l-0.7483 0c0,-1.4353 -0.214,-1.2159 1.1224,-1.2159 0.512,0 0.9902,0.2028 0.889,0.6979 -0.1024,0.5022 -0.6959,0.518 -1.2631,0.518zm-1.5901 -0.4677l0 0 0 2.9931 0.8418 0 0 -1.8707c1.0751,0 0.7246,-0.212 1.7772,1.7772l1.0289 0c-0.3155,-0.5963 -0.7093,-1.1733 -1.0289,-1.7772 1.0793,-0.2514 1.1223,-0.5751 1.1223,-1.403 0,-1.4864 -2.2969,-1.1225 -3.8349,-1.1225 0,0.5934 0.0936,0.7809 0.0936,1.4031z"/>
   <path class="fil3" d="M15.3168 137.6288l-0.8645 0.0424 0.0557 -0.2901c-0.2181,0.2416 -0.1077,0.0475 -0.1368,0.388l0.9455 -0.1403z"/>
   <path class="fil4" d="M94.8985 86.1342c-0.1533,-0.0957 -0.1124,0.1861 -0.1081,-0.1716 -0.1893,0.1718 -0.1018,-0.0088 -0.1449,0.3412 0.3591,-0.1002 0.1557,-0.0686 0.253,-0.1696z"/>
   <path class="fil3" d="M92.5818 105.7676c-0.2012,-0.0763 -0.1672,0.1977 -0.1497,-0.162 -0.2583,0.2827 -0.1269,0.1595 -0.0264,0.3187 0.3474,-0.0428 0.0201,-0.0005 0.1761,-0.1567z"/>
   <path class="fil5" d="M94.8412 85.3618l0.1136 -0.1949c-0.3308,-0.0129 -0.2201,-0.0775 -0.4636,0.1096 0.4881,-0.0443 0.2257,-0.1268 0.35,0.0854z"/>
   <path class="fil5" d="M46.8557 87.5993l0.1179 -0.1884c-0.3348,-0.0139 -0.2216,-0.0777 -0.4687,0.1094 0.4735,-0.0436 0.2296,-0.1241 0.3508,0.0791z"/>
   <path class="fil6" d="M92.9387 64.109c-0.3435,-0.0073 -0.087,0.0432 -0.1601,-0.1269 -0.1587,0.1464 -0.1242,-0.22 -0.1307,0.2483l0.2907 -0.1215z"/>
   <path class="fil5" d="M69.0093 108.2344l0.1047 -0.1221c-0.1723,-0.0307 0.0357,-0.1099 -0.3534,0.046l0.2486 0.0762z"/>
   <path class="fil3" d="M85.8542 86.7568l0.1048 -0.1698 -0.3349 0.0664c0.3294,-0.01 0.1483,-0.0406 0.2301,0.1034z"/>
  </g>
 </g>
</svg>
