<?xml version="1.0" encoding="utf-8"?>
<!-- Generator: Adobe Illustrator 25.0.1, SVG Export Plug-In . SVG Version: 6.00 Build 0)  -->
<svg version="1.0" id="katman_1" xmlns="http://www.w3.org/2000/svg" xmlns:xlink="http://www.w3.org/1999/xlink" x="0px" y="0px"
	 viewBox="0 0 560 400" style="enable-background:new 0 0 560 400;" xml:space="preserve">
<style type="text/css">
	.st0{fill:#253C80;}
	.st1{fill:#DC4226;}
</style>
<g transform="matrix(1.63554 0 0 1.63554 -13.7435 125.427)">
	<g>
		<path class="st0" d="M52.5,62.2h-5.4L45,69.9h26.1l2-7.7h-6.3l6.3-25.8h4.3L77,40.7h9l3.6-13.6H46.3l-3.6,13.6h9.4l1.9-4.4h4.6
			L52.5,62.2z"/>
		<path class="st0" d="M120.5,27.1h20.1l-26.9,42.8H96.9l-2.4-35.1H91l2-7.7h22.3l-2,7.7h-3.8l-0.1,22l12.8-22H118L120.5,27.1z"/>
		<path class="st0" d="M172.1,39.8c0-4.3,1.4-8.1,3.1-12c-7.6-1.4-15.8-1.9-23.2,0c-4.2,1.1-8.6,3.7-10.9,7.5
			c-2.7,4.2-2.1,9.6,1.3,13.1c1.7,1.7,3.8,2.9,6,3.9c1.7,0.8,4.7,2.1,5.2,4.1c1.3,5.1-6.9,5.6-10.1,4.6v-4h-8.6l-3.3,11.9
			c7.7,1.9,15.7,2.6,23.4,0.8c4.6-1.1,8.8-3.5,11.9-7.2c2.6-3.2,4-9.1,1.3-12.6c-1.5-1.9-3.3-3.4-5.4-4.6c-2-1.2-4.2-1.9-6-3.3
			c-2.2-1.6-2.2-4.2,0.2-5.6c1.8-1.2,4.8-0.6,6.8-0.3l0.4,3.6L172.1,39.8L172.1,39.8z"/>
	</g>
	<path class="st1" d="M289.7,27c-3.6-1.4-6.9-1.3-10.6-0.4c-3.6,0.9-6.1,2.9-8.9,5.1s-5.8,4.4-9.1,5.8c-3.4,1.5-7.2,3-10.8,1.5
		c2.6,0.1,5.1-0.5,7.4-1.9c1.7-1.1,4.7-3.4,5.4-5.5h-3c2.2-2.4,4.9-4.2,7.9-5.3l-1.5-1.7c4-2.7,8.4-4,13.2-4.2
		c2.3-0.1,4.6,0.2,6.7,0.8c2.3,0.6,4,1.7,5.6,3.4L289.7,27z"/>
	<path class="st1" d="M232,36.6c-1.3,0-2.4,0.1-3.6,0.5c-1.2,0.4-2.3,0.8-3.5,1.3c-2.2,0.9-4.3,2.1-6.4,3.2c-0.9,0.5-2,1-3,1.2
		c-1.1,0.2-2.6,0.2-3.6-0.3c-1.1-0.5-2-1.1-2.9-1.9c-0.9-0.8-1.8-1.6-2.7-2.3c-1-0.6-2-1.1-3-1.7c0.5,0,2.8-0.1,2.2-1.1
		c-0.5-0.8-1.8-1.2-2.8-1.4c-2.3-0.5-4.6-0.5-6.8-0.5c1.9-1.6,4-2.5,6.6-2.5c2.4,0,4.3,1.1,6.3,2.3c1,0.6,2.2,1.7,3.2,2.4
		s2.1,1,3.2,1.4c2.1,0.7,4.7,0.4,6.8-0.4c1.7-0.6,3.3-1.4,5.2-1.4C228.8,35.1,230.4,35.6,232,36.6L232,36.6z"/>
	<path class="st1" d="M214.1,54.9c3.7-0.2,6.8-3.8,8.9-6.6c2.3-2.9,3.8-7.3,7.4-8.9c5.3-2.4,10.8-0.4,15.7,2.2
		c4.6,2.3,10.9,1.9,15.5-0.1c5-2.2,8.8-5.9,13.1-9.1c4-3,9.2-5.1,15.4-3.5l2.7-3.3l0.5,5.4l9.7,9.7l-1.9,2.3h-6.2v-1.5
		c-1.8-1.3-3.7-2.2-6-1.9c-2.4,0.3-4.9,1.4-4.6,4.2c0.3,1.9,3,3.6,4.4,4.6c1.9,1.3,3.9,2.5,5.9,3.7c4.1,2.6,8,5.4,11.8,8.4
		c3.6,2.8,7.2,5.7,9.9,9.3l-8.4-1.6c1.5-1.1-0.3-2.3-1.3-3.1c-1.3-1-2.6-1.8-4-2.6c-2.8-1.5-5.8-2.4-8.9-3.1
		c-5.9-1.5-13.6-2.4-18.8,1.4c-0.2,0.1-0.4,0.3-0.5,0.4l-2.9-2.5c-9.4,3.2-19.9,2.4-28.5-2.4c-3.6,2.5-7.7,3-11.8,3.5
		c-3.9,0.5-8,0.2-12-0.2c-9.6,7.9-22.6,12.6-34.8,8.4l8.2-2.1v1.8C201.6,67.6,208.9,61.5,214.1,54.9L214.1,54.9z"/>
</g>
</svg>
