<?xml version="1.0" encoding="UTF-8"?>
<svg xmlns="http://www.w3.org/2000/svg" xmlns:xlink="http://www.w3.org/1999/xlink" width="76pt" height="59pt" viewBox="0 0 76 59" version="1.1">
<g id="surface1">
<path style="fill:none;stroke-width:20.2466;stroke-linecap:round;stroke-linejoin:round;stroke:rgb(82.398987%,67.498779%,40.39917%);stroke-opacity:1;stroke-miterlimit:22.9256;" d="M 100.546875 380.898438 L 148.007813 380.898438 L 148.007813 372.695313 C 141.445313 371.5625 137.890625 368.007813 138.125 361.367188 L 162.109375 316.40625 L 181.953125 360.664063 C 183.867188 368.945313 178.984375 371.953125 170.390625 372.226563 L 170.390625 380.273438 L 205.46875 380.273438 L 205.46875 371.757813 C 199.804688 369.6875 196.757813 364.6875 194.179688 359.53125 L 160.039063 278.085938 L 150.3125 278.085938 L 109.023438 365.976563 L 100.742188 371.523438 Z M 232.773438 380.15625 L 282.96875 380.15625 L 282.96875 372.109375 C 276.289063 371.601563 271.835938 369.140625 270.742188 363.789063 L 270.742188 296.132813 C 271.601563 290.078125 276.015625 287.1875 282.421875 285.976563 L 282.421875 277.65625 L 233.007813 277.65625 L 233.007813 285.703125 C 237.695313 285.46875 241.875 286.835938 244.453125 293.515625 L 244.453125 365.859375 C 242.539063 370.390625 238.125 371.953125 232.773438 372.382813 Z M 387.304688 352.070313 L 397.421875 352.070313 L 395.625 374.6875 C 358.398438 390.15625 313.632813 383.398438 303.632813 339.765625 C 293.398438 294.921875 346.835938 262.5 398.203125 287.539063 L 398.203125 313.828125 L 387.578125 313.828125 C 385.898438 289.296875 364.882813 283.164063 349.0625 290.429688 C 323.359375 302.1875 323.710938 361.953125 351.328125 373.007813 C 364.375 378.242188 380.546875 373.4375 387.304688 352.070313 Z M 508.125 352.070313 L 518.28125 352.070313 L 516.445313 374.6875 C 479.21875 390.15625 434.453125 383.398438 424.492188 339.765625 C 414.21875 294.921875 467.65625 262.5 519.0625 287.539063 L 519.0625 313.828125 L 508.398438 313.828125 C 506.71875 289.296875 485.703125 283.164063 469.882813 290.429688 C 444.179688 302.1875 444.53125 361.953125 472.148438 373.007813 C 485.195313 378.242188 501.367188 373.4375 508.125 352.070313 Z M 598.476563 386.171875 C 627.382813 386.171875 650.820313 361.796875 650.820313 331.757813 C 650.820313 301.757813 627.382813 277.382813 598.476563 277.382813 C 569.570313 277.382813 546.09375 301.757813 546.09375 331.757813 C 546.09375 361.796875 569.570313 386.171875 598.476563 386.171875 Z M 598.476563 377.148438 C 612.929688 377.148438 624.648438 356.835938 624.648438 331.757813 C 624.648438 306.71875 612.929688 286.40625 598.476563 286.40625 C 583.984375 286.40625 572.265625 306.71875 572.265625 331.757813 C 572.265625 356.835938 583.984375 377.148438 598.476563 377.148438 Z M 598.476563 377.148438 " transform="matrix(0.1,0,0,-0.1,0,59)"/>
<path style=" stroke:none;fill-rule:evenodd;fill:rgb(82.398987%,67.498779%,40.39917%);fill-opacity:1;" d="M 10.054688 20.910156 L 14.800781 20.910156 L 14.800781 21.730469 C 14.144531 21.84375 13.789063 22.199219 13.8125 22.863281 L 16.210938 27.359375 L 18.195313 22.933594 C 18.386719 22.105469 17.898438 21.804688 17.039063 21.777344 L 17.039063 20.972656 L 20.546875 20.972656 L 20.546875 21.824219 C 19.980469 22.03125 19.675781 22.53125 19.417969 23.046875 L 16.003906 31.191406 L 15.03125 31.191406 L 10.902344 22.402344 L 10.074219 21.847656 Z M 23.277344 20.984375 L 28.296875 20.984375 L 28.296875 21.789063 C 27.628906 21.839844 27.183594 22.085938 27.074219 22.621094 L 27.074219 29.386719 C 27.160156 29.992188 27.601563 30.28125 28.242188 30.402344 L 28.242188 31.234375 L 23.300781 31.234375 L 23.300781 30.429688 C 23.769531 30.453125 24.1875 30.316406 24.445313 29.648438 L 24.445313 22.414063 C 24.253906 21.960938 23.8125 21.804688 23.277344 21.761719 Z M 38.730469 23.792969 L 39.742188 23.792969 L 39.5625 21.53125 C 35.839844 19.984375 31.363281 20.660156 30.363281 25.023438 C 29.339844 29.507813 34.683594 32.75 39.820313 30.246094 L 39.820313 27.617188 L 38.757813 27.617188 C 38.589844 30.070313 36.488281 30.683594 34.90625 29.957031 C 32.335938 28.78125 32.371094 22.804688 35.132813 21.699219 C 36.4375 21.175781 38.054688 21.65625 38.730469 23.792969 Z M 50.8125 23.792969 L 51.828125 23.792969 L 51.644531 21.53125 C 47.921875 19.984375 43.445313 20.660156 42.449219 25.023438 C 41.421875 29.507813 46.765625 32.75 51.90625 30.246094 L 51.90625 27.617188 L 50.839844 27.617188 C 50.671875 30.070313 48.570313 30.683594 46.988281 29.957031 C 44.417969 28.78125 44.453125 22.804688 47.214844 21.699219 C 48.519531 21.175781 50.136719 21.65625 50.8125 23.792969 Z M 59.847656 20.382813 C 62.738281 20.382813 65.082031 22.820313 65.082031 25.824219 C 65.082031 28.824219 62.738281 31.261719 59.847656 31.261719 C 56.957031 31.261719 54.609375 28.824219 54.609375 25.824219 C 54.609375 22.820313 56.957031 20.382813 59.847656 20.382813 Z M 59.847656 21.285156 C 61.292969 21.285156 62.464844 23.316406 62.464844 25.824219 C 62.464844 28.328125 61.292969 30.359375 59.847656 30.359375 C 58.398438 30.359375 57.226563 28.328125 57.226563 25.824219 C 57.226563 23.316406 58.398438 21.285156 59.847656 21.285156 "/>
<path style="fill:none;stroke-width:13.4977;stroke-linecap:round;stroke-linejoin:round;stroke:rgb(100%,100%,100%);stroke-opacity:1;stroke-miterlimit:22.9256;" d="M 100.546875 380.898438 L 148.007813 380.898438 L 148.007813 372.695313 C 141.445313 371.5625 137.890625 368.007813 138.125 361.367188 L 162.109375 316.40625 L 181.953125 360.664063 C 183.867188 368.945313 178.984375 371.953125 170.390625 372.226563 L 170.390625 380.273438 L 205.46875 380.273438 L 205.46875 371.757813 C 199.804688 369.6875 196.757813 364.6875 194.179688 359.53125 L 160.039063 278.085938 L 150.3125 278.085938 L 109.023438 365.976563 L 100.742188 371.523438 Z M 232.773438 380.15625 L 282.96875 380.15625 L 282.96875 372.109375 C 276.289063 371.601563 271.835938 369.140625 270.742188 363.789063 L 270.742188 296.132813 C 271.601563 290.078125 276.015625 287.1875 282.421875 285.976563 L 282.421875 277.65625 L 233.007813 277.65625 L 233.007813 285.703125 C 237.695313 285.46875 241.875 286.835938 244.453125 293.515625 L 244.453125 365.859375 C 242.539063 370.390625 238.125 371.953125 232.773438 372.382813 Z M 387.304688 352.070313 L 397.421875 352.070313 L 395.625 374.6875 C 358.398438 390.15625 313.632813 383.398438 303.632813 339.765625 C 293.398438 294.921875 346.835938 262.5 398.203125 287.539063 L 398.203125 313.828125 L 387.578125 313.828125 C 385.898438 289.296875 364.882813 283.164063 349.0625 290.429688 C 323.359375 302.1875 323.710938 361.953125 351.328125 373.007813 C 364.375 378.242188 380.546875 373.4375 387.304688 352.070313 Z M 508.125 352.070313 L 518.28125 352.070313 L 516.445313 374.6875 C 479.21875 390.15625 434.453125 383.398438 424.492188 339.765625 C 414.21875 294.921875 467.65625 262.5 519.0625 287.539063 L 519.0625 313.828125 L 508.398438 313.828125 C 506.71875 289.296875 485.703125 283.164063 469.882813 290.429688 C 444.179688 302.1875 444.53125 361.953125 472.148438 373.007813 C 485.195313 378.242188 501.367188 373.4375 508.125 352.070313 Z M 598.476563 386.171875 C 627.382813 386.171875 650.820313 361.796875 650.820313 331.757813 C 650.820313 301.757813 627.382813 277.382813 598.476563 277.382813 C 569.570313 277.382813 546.09375 301.757813 546.09375 331.757813 C 546.09375 361.796875 569.570313 386.171875 598.476563 386.171875 Z M 598.476563 377.148438 C 612.929688 377.148438 624.648438 356.835938 624.648438 331.757813 C 624.648438 306.71875 612.929688 286.40625 598.476563 286.40625 C 583.984375 286.40625 572.265625 306.71875 572.265625 331.757813 C 572.265625 356.835938 583.984375 377.148438 598.476563 377.148438 Z M 598.476563 377.148438 " transform="matrix(0.1,0,0,-0.1,0,59)"/>
<path style=" stroke:none;fill-rule:evenodd;fill:rgb(100%,100%,100%);fill-opacity:1;" d="M 10.054688 20.910156 L 14.800781 20.910156 L 14.800781 21.730469 C 14.144531 21.84375 13.789063 22.199219 13.8125 22.863281 L 16.210938 27.359375 L 18.195313 22.933594 C 18.386719 22.105469 17.898438 21.804688 17.039063 21.777344 L 17.039063 20.972656 L 20.546875 20.972656 L 20.546875 21.824219 C 19.980469 22.03125 19.675781 22.53125 19.417969 23.046875 L 16.003906 31.191406 L 15.03125 31.191406 L 10.902344 22.402344 L 10.074219 21.847656 Z M 23.277344 20.984375 L 28.296875 20.984375 L 28.296875 21.789063 C 27.628906 21.839844 27.183594 22.085938 27.074219 22.621094 L 27.074219 29.386719 C 27.160156 29.992188 27.601563 30.28125 28.242188 30.402344 L 28.242188 31.234375 L 23.300781 31.234375 L 23.300781 30.429688 C 23.769531 30.453125 24.1875 30.316406 24.445313 29.648438 L 24.445313 22.414063 C 24.253906 21.960938 23.8125 21.804688 23.277344 21.761719 Z M 38.730469 23.792969 L 39.742188 23.792969 L 39.5625 21.53125 C 35.839844 19.984375 31.363281 20.660156 30.363281 25.023438 C 29.339844 29.507813 34.683594 32.75 39.820313 30.246094 L 39.820313 27.617188 L 38.757813 27.617188 C 38.589844 30.070313 36.488281 30.683594 34.90625 29.957031 C 32.335938 28.78125 32.371094 22.804688 35.132813 21.699219 C 36.4375 21.175781 38.054688 21.65625 38.730469 23.792969 Z M 50.8125 23.792969 L 51.828125 23.792969 L 51.644531 21.53125 C 47.921875 19.984375 43.445313 20.660156 42.449219 25.023438 C 41.421875 29.507813 46.765625 32.75 51.90625 30.246094 L 51.90625 27.617188 L 50.839844 27.617188 C 50.671875 30.070313 48.570313 30.683594 46.988281 29.957031 C 44.417969 28.78125 44.453125 22.804688 47.214844 21.699219 C 48.519531 21.175781 50.136719 21.65625 50.8125 23.792969 Z M 59.847656 20.382813 C 62.738281 20.382813 65.082031 22.820313 65.082031 25.824219 C 65.082031 28.824219 62.738281 31.261719 59.847656 31.261719 C 56.957031 31.261719 54.609375 28.824219 54.609375 25.824219 C 54.609375 22.820313 56.957031 20.382813 59.847656 20.382813 Z M 59.847656 21.285156 C 61.292969 21.285156 62.464844 23.316406 62.464844 25.824219 C 62.464844 28.328125 61.292969 30.359375 59.847656 30.359375 C 58.398438 30.359375 57.226563 28.328125 57.226563 25.824219 C 57.226563 23.316406 58.398438 21.285156 59.847656 21.285156 "/>
<path style=" stroke:none;fill-rule:evenodd;fill:rgb(92.89856%,10.998535%,14.099121%);fill-opacity:1;" d="M 10.054688 20.910156 L 14.800781 20.910156 L 14.800781 21.730469 C 14.144531 21.84375 13.789063 22.199219 13.8125 22.863281 L 16.210938 27.359375 L 18.195313 22.933594 C 18.386719 22.105469 17.898438 21.804688 17.039063 21.777344 L 17.039063 20.972656 L 20.546875 20.972656 L 20.546875 21.824219 C 19.980469 22.03125 19.675781 22.53125 19.417969 23.046875 L 16.003906 31.191406 L 15.03125 31.191406 L 10.902344 22.402344 L 10.074219 21.847656 Z M 23.277344 20.984375 L 28.296875 20.984375 L 28.296875 21.789063 C 27.628906 21.839844 27.183594 22.085938 27.074219 22.621094 L 27.074219 29.386719 C 27.160156 29.992188 27.601563 30.28125 28.242188 30.402344 L 28.242188 31.234375 L 23.300781 31.234375 L 23.300781 30.429688 C 23.769531 30.453125 24.1875 30.316406 24.445313 29.648438 L 24.445313 22.414063 C 24.253906 21.960938 23.8125 21.804688 23.277344 21.761719 Z M 38.730469 23.792969 L 39.742188 23.792969 L 39.5625 21.53125 C 35.839844 19.984375 31.363281 20.660156 30.363281 25.023438 C 29.339844 29.507813 34.683594 32.75 39.820313 30.246094 L 39.820313 27.617188 L 38.757813 27.617188 C 38.589844 30.070313 36.488281 30.683594 34.90625 29.957031 C 32.335938 28.78125 32.371094 22.804688 35.132813 21.699219 C 36.4375 21.175781 38.054688 21.65625 38.730469 23.792969 Z M 50.8125 23.792969 L 51.828125 23.792969 L 51.644531 21.53125 C 47.921875 19.984375 43.445313 20.660156 42.449219 25.023438 C 41.421875 29.507813 46.765625 32.75 51.90625 30.246094 L 51.90625 27.617188 L 50.839844 27.617188 C 50.671875 30.070313 48.570313 30.683594 46.988281 29.957031 C 44.417969 28.78125 44.453125 22.804688 47.214844 21.699219 C 48.519531 21.175781 50.136719 21.65625 50.8125 23.792969 Z M 59.847656 20.382813 C 62.738281 20.382813 65.082031 22.820313 65.082031 25.824219 C 65.082031 28.824219 62.738281 31.261719 59.847656 31.261719 C 56.957031 31.261719 54.609375 28.824219 54.609375 25.824219 C 54.609375 22.820313 56.957031 20.382813 59.847656 20.382813 Z M 59.847656 21.285156 C 61.292969 21.285156 62.464844 23.316406 62.464844 25.824219 C 62.464844 28.328125 61.292969 30.359375 59.847656 30.359375 C 58.398438 30.359375 57.226563 28.328125 57.226563 25.824219 C 57.226563 23.316406 58.398438 21.285156 59.847656 21.285156 "/>
<path style=" stroke:none;fill-rule:nonzero;fill:rgb(92.89856%,10.998535%,14.099121%);fill-opacity:1;" d="M 8.34375 39.234375 L 8.34375 39.085938 C 8.585938 39.066406 8.738281 39.011719 8.804688 38.917969 C 8.871094 38.828125 8.902344 38.617188 8.902344 38.289063 L 8.902344 35.929688 C 8.902344 35.601563 8.871094 35.390625 8.804688 35.296875 C 8.738281 35.203125 8.585938 35.152344 8.34375 35.136719 L 8.34375 34.984375 L 10.121094 34.984375 L 10.121094 35.136719 C 9.878906 35.152344 9.726563 35.203125 9.664063 35.296875 C 9.597656 35.390625 9.5625 35.601563 9.5625 35.929688 L 9.5625 38.46875 C 9.5625 38.699219 9.589844 38.839844 9.640625 38.890625 C 9.691406 38.9375 9.828125 38.964844 10.058594 38.964844 L 10.515625 38.964844 C 10.867188 38.964844 11.140625 38.902344 11.34375 38.777344 C 11.546875 38.65625 11.722656 38.441406 11.867188 38.144531 L 12.03125 38.144531 L 11.863281 38.6875 L 11.691406 39.234375 Z M 13.792969 38.515625 L 15.292969 34.882813 L 15.4375 34.882813 L 16.984375 38.625 C 17.058594 38.816406 17.128906 38.933594 17.195313 38.988281 C 17.253906 39.039063 17.363281 39.074219 17.515625 39.085938 L 17.515625 39.234375 L 15.953125 39.234375 L 15.953125 39.085938 C 16.136719 39.085938 16.253906 39.046875 16.300781 38.976563 C 16.351563 38.90625 16.339844 38.789063 16.273438 38.625 L 15.933594 37.792969 L 14.402344 37.792969 L 14.136719 38.453125 C 14.050781 38.667969 14.03125 38.820313 14.085938 38.917969 C 14.144531 39.015625 14.277344 39.070313 14.496094 39.085938 L 14.496094 39.234375 L 13.222656 39.234375 L 13.222656 39.085938 C 13.375 39.058594 13.484375 39.011719 13.550781 38.945313 C 13.617188 38.878906 13.699219 38.738281 13.792969 38.515625 Z M 15.167969 35.921875 L 14.515625 37.523438 L 15.828125 37.523438 Z M 19.34375 38.289063 L 19.34375 35.929688 C 19.34375 35.601563 19.308594 35.390625 19.246094 35.296875 C 19.179688 35.203125 19.027344 35.152344 18.785156 35.136719 L 18.785156 34.984375 L 20.433594 34.984375 C 20.984375 34.984375 21.40625 35.082031 21.695313 35.273438 C 21.984375 35.464844 22.128906 35.746094 22.128906 36.117188 C 22.128906 36.464844 21.976563 36.742188 21.667969 36.945313 C 21.609375 36.984375 21.542969 37.023438 21.46875 37.054688 C 21.597656 37.101563 21.714844 37.15625 21.820313 37.226563 C 22.164063 37.445313 22.339844 37.726563 22.339844 38.066406 C 22.339844 38.488281 22.195313 38.785156 21.902344 38.964844 C 21.609375 39.144531 21.121094 39.234375 20.433594 39.234375 L 18.785156 39.234375 L 18.785156 39.085938 C 19.027344 39.066406 19.179688 39.011719 19.246094 38.917969 C 19.308594 38.828125 19.34375 38.617188 19.34375 38.289063 Z M 20.007813 35.613281 L 20.007813 36.921875 L 20.488281 36.921875 C 20.796875 36.921875 21.039063 36.847656 21.21875 36.699219 C 21.398438 36.550781 21.488281 36.34375 21.488281 36.089844 C 21.488281 35.832031 21.398438 35.628906 21.21875 35.476563 C 21.039063 35.328125 20.796875 35.253906 20.488281 35.253906 L 20.367188 35.253906 C 20.21875 35.253906 20.121094 35.277344 20.070313 35.324219 C 20.027344 35.367188 20.007813 35.464844 20.007813 35.613281 Z M 20.007813 37.21875 L 20.007813 38.605469 C 20.007813 38.761719 20.027344 38.855469 20.070313 38.902344 C 20.113281 38.941406 20.210938 38.964844 20.363281 38.964844 L 20.433594 38.964844 C 20.828125 38.964844 21.121094 38.894531 21.3125 38.75 C 21.5 38.609375 21.59375 38.390625 21.59375 38.09375 C 21.59375 37.804688 21.5 37.585938 21.3125 37.441406 C 21.121094 37.292969 20.847656 37.21875 20.484375 37.21875 Z M 25.878906 39.320313 C 25.28125 39.320313 24.796875 39.113281 24.414063 38.699219 C 24.035156 38.289063 23.84375 37.757813 23.84375 37.109375 C 23.84375 36.457031 24.035156 35.925781 24.414063 35.515625 C 24.796875 35.101563 25.28125 34.898438 25.878906 34.898438 C 26.476563 34.898438 26.96875 35.101563 27.347656 35.515625 C 27.726563 35.925781 27.917969 36.457031 27.917969 37.109375 C 27.917969 37.757813 27.726563 38.289063 27.347656 38.699219 C 26.96875 39.113281 26.476563 39.320313 25.878906 39.320313 Z M 25.878906 39.050781 C 26.277344 39.050781 26.59375 38.878906 26.824219 38.53125 C 27.054688 38.179688 27.171875 37.707031 27.171875 37.109375 C 27.171875 36.511719 27.054688 36.035156 26.824219 35.691406 C 26.59375 35.339844 26.277344 35.164063 25.878906 35.164063 C 25.480469 35.164063 25.167969 35.339844 24.9375 35.691406 C 24.703125 36.035156 24.589844 36.511719 24.589844 37.109375 C 24.589844 37.707031 24.703125 38.179688 24.9375 38.53125 C 25.167969 38.878906 25.480469 39.050781 25.878906 39.050781 Z M 29.882813 38.289063 L 29.882813 35.929688 C 29.882813 35.601563 29.851563 35.390625 29.789063 35.296875 C 29.71875 35.203125 29.570313 35.152344 29.324219 35.136719 L 29.324219 34.984375 L 30.960938 34.984375 C 31.519531 34.984375 31.945313 35.082031 32.238281 35.277344 C 32.527344 35.476563 32.675781 35.765625 32.675781 36.140625 C 32.675781 36.503906 32.523438 36.789063 32.21875 36.992188 C 32.050781 37.101563 31.851563 37.183594 31.613281 37.242188 L 32.675781 38.628906 C 32.828125 38.816406 32.9375 38.933594 33.019531 38.988281 C 33.097656 39.039063 33.214844 39.074219 33.367188 39.085938 L 33.367188 39.234375 L 32.304688 39.234375 L 30.84375 37.300781 L 30.546875 37.300781 L 30.546875 38.515625 C 30.546875 38.746094 30.578125 38.898438 30.644531 38.960938 C 30.710938 39.027344 30.863281 39.066406 31.101563 39.085938 L 31.101563 39.234375 L 29.324219 39.234375 L 29.324219 39.085938 C 29.570313 39.066406 29.71875 39.011719 29.789063 38.917969 C 29.851563 38.828125 29.882813 38.617188 29.882813 38.289063 Z M 30.546875 37.042969 L 30.960938 37.042969 C 31.277344 37.042969 31.519531 36.964844 31.683594 36.800781 C 31.847656 36.640625 31.929688 36.40625 31.929688 36.09375 C 31.929688 35.835938 31.84375 35.632813 31.667969 35.480469 C 31.496094 35.328125 31.257813 35.253906 30.960938 35.253906 L 30.910156 35.253906 C 30.761719 35.253906 30.660156 35.277344 30.617188 35.324219 C 30.570313 35.367188 30.546875 35.464844 30.546875 35.617188 Z M 35.058594 38.515625 L 36.558594 34.882813 L 36.699219 34.882813 L 38.246094 38.625 C 38.320313 38.816406 38.394531 38.933594 38.457031 38.988281 C 38.519531 39.039063 38.628906 39.074219 38.78125 39.085938 L 38.78125 39.234375 L 37.214844 39.234375 L 37.214844 39.085938 C 37.398438 39.085938 37.515625 39.046875 37.5625 38.976563 C 37.613281 38.90625 37.605469 38.789063 37.535156 38.625 L 37.195313 37.792969 L 35.667969 37.792969 L 35.402344 38.453125 C 35.3125 38.667969 35.296875 38.820313 35.351563 38.917969 C 35.40625 39.015625 35.542969 39.070313 35.757813 39.085938 L 35.757813 39.234375 L 34.484375 39.234375 L 34.484375 39.085938 C 34.640625 39.058594 34.75 39.011719 34.816406 38.945313 C 34.882813 38.878906 34.964844 38.738281 35.058594 38.515625 Z M 36.433594 35.921875 L 35.777344 37.523438 L 37.089844 37.523438 Z M 41.550781 38.285156 L 41.550781 35.253906 L 41.082031 35.253906 C 40.820313 35.253906 40.625 35.316406 40.5 35.441406 C 40.378906 35.566406 40.292969 35.785156 40.25 36.09375 L 40.09375 36.09375 L 40.117188 35.539063 L 40.144531 34.984375 L 43.625 34.984375 L 43.648438 35.535156 L 43.671875 36.09375 L 43.515625 36.09375 C 43.472656 35.785156 43.390625 35.566406 43.265625 35.441406 C 43.140625 35.316406 42.945313 35.253906 42.683594 35.253906 L 42.214844 35.253906 L 42.214844 38.285156 C 42.214844 38.617188 42.25 38.828125 42.324219 38.917969 C 42.394531 39.011719 42.570313 39.066406 42.839844 39.085938 L 42.839844 39.234375 L 40.925781 39.234375 L 40.925781 39.085938 C 41.199219 39.066406 41.371094 39.011719 41.445313 38.917969 C 41.515625 38.828125 41.550781 38.617188 41.550781 38.285156 Z M 47.144531 39.320313 C 46.546875 39.320313 46.058594 39.113281 45.679688 38.699219 C 45.296875 38.289063 45.105469 37.757813 45.105469 37.109375 C 45.105469 36.457031 45.296875 35.925781 45.679688 35.515625 C 46.058594 35.101563 46.546875 34.898438 47.144531 34.898438 C 47.742188 34.898438 48.230469 35.101563 48.613281 35.515625 C 48.992188 35.925781 49.179688 36.457031 49.179688 37.109375 C 49.179688 37.757813 48.992188 38.289063 48.613281 38.699219 C 48.230469 39.113281 47.742188 39.320313 47.144531 39.320313 Z M 47.144531 39.050781 C 47.542969 39.050781 47.859375 38.878906 48.089844 38.53125 C 48.320313 38.179688 48.433594 37.707031 48.433594 37.109375 C 48.433594 36.511719 48.320313 36.035156 48.089844 35.691406 C 47.859375 35.339844 47.542969 35.164063 47.144531 35.164063 C 46.746094 35.164063 46.433594 35.339844 46.203125 35.691406 C 45.96875 36.035156 45.851563 36.511719 45.851563 37.109375 C 45.851563 37.707031 45.96875 38.179688 46.203125 38.53125 C 46.433594 38.878906 46.746094 39.050781 47.144531 39.050781 Z M 51.148438 38.289063 L 51.148438 35.929688 C 51.148438 35.601563 51.117188 35.390625 51.050781 35.296875 C 50.984375 35.203125 50.832031 35.152344 50.589844 35.136719 L 50.589844 34.984375 L 52.226563 34.984375 C 52.785156 34.984375 53.210938 35.082031 53.503906 35.277344 C 53.792969 35.476563 53.941406 35.765625 53.941406 36.140625 C 53.941406 36.503906 53.789063 36.789063 53.484375 36.992188 C 53.316406 37.101563 53.113281 37.183594 52.878906 37.242188 L 53.941406 38.628906 C 54.089844 38.816406 54.203125 38.933594 54.285156 38.988281 C 54.363281 39.039063 54.480469 39.074219 54.632813 39.085938 L 54.632813 39.234375 L 53.570313 39.234375 L 52.109375 37.300781 L 51.8125 37.300781 L 51.8125 38.515625 C 51.8125 38.746094 51.84375 38.898438 51.910156 38.960938 C 51.972656 39.027344 52.125 39.066406 52.367188 39.085938 L 52.367188 39.234375 L 50.589844 39.234375 L 50.589844 39.085938 C 50.832031 39.066406 50.984375 39.011719 51.050781 38.917969 C 51.117188 38.828125 51.148438 38.617188 51.148438 38.289063 Z M 51.8125 37.042969 L 52.222656 37.042969 C 52.539063 37.042969 52.78125 36.964844 52.949219 36.800781 C 53.113281 36.640625 53.191406 36.40625 53.191406 36.09375 C 53.191406 35.835938 53.109375 35.632813 52.933594 35.480469 C 52.757813 35.328125 52.523438 35.253906 52.222656 35.253906 L 52.171875 35.253906 C 52.023438 35.253906 51.925781 35.277344 51.878906 35.324219 C 51.832031 35.367188 51.8125 35.464844 51.8125 35.617188 Z M 56.359375 38.289063 L 56.359375 35.929688 C 56.359375 35.597656 56.332031 35.386719 56.265625 35.292969 C 56.199219 35.203125 56.046875 35.148438 55.804688 35.136719 L 55.804688 34.984375 L 57.582031 34.984375 L 57.582031 35.136719 C 57.34375 35.148438 57.1875 35.203125 57.121094 35.292969 C 57.058594 35.386719 57.023438 35.597656 57.023438 35.929688 L 57.023438 38.289063 C 57.023438 38.617188 57.058594 38.828125 57.121094 38.921875 C 57.1875 39.015625 57.34375 39.066406 57.582031 39.085938 L 57.582031 39.234375 L 55.804688 39.234375 L 55.804688 39.085938 C 56.046875 39.066406 56.199219 39.011719 56.265625 38.921875 C 56.332031 38.828125 56.359375 38.617188 56.359375 38.289063 Z M 58.941406 39.234375 L 58.941406 39.085938 C 59.183594 39.066406 59.335938 39.015625 59.398438 38.921875 C 59.464844 38.828125 59.496094 38.617188 59.496094 38.289063 L 59.496094 35.929688 C 59.496094 35.597656 59.464844 35.386719 59.398438 35.292969 C 59.335938 35.203125 59.183594 35.148438 58.941406 35.136719 L 58.941406 34.984375 L 62.257813 34.984375 L 62.273438 35.449219 L 62.292969 35.917969 L 62.144531 35.917969 C 62.109375 35.671875 62.035156 35.5 61.917969 35.402344 C 61.800781 35.304688 61.621094 35.253906 61.371094 35.253906 L 60.523438 35.253906 C 60.375 35.253906 60.277344 35.277344 60.230469 35.324219 C 60.183594 35.367188 60.160156 35.464844 60.160156 35.617188 L 60.160156 36.910156 L 61.101563 36.910156 C 61.347656 36.910156 61.527344 36.867188 61.628906 36.78125 C 61.730469 36.691406 61.78125 36.539063 61.78125 36.324219 L 61.929688 36.324219 L 61.929688 37.769531 L 61.78125 37.769531 C 61.78125 37.550781 61.730469 37.402344 61.628906 37.3125 C 61.527344 37.222656 61.347656 37.179688 61.101563 37.179688 L 60.160156 37.179688 L 60.160156 38.605469 C 60.160156 38.761719 60.179688 38.855469 60.226563 38.902344 C 60.269531 38.941406 60.363281 38.964844 60.515625 38.964844 L 61.171875 38.964844 C 61.484375 38.964844 61.738281 38.902344 61.929688 38.777344 C 62.117188 38.65625 62.285156 38.441406 62.433594 38.144531 L 62.59375 38.144531 L 62.425781 38.6875 L 62.257813 39.234375 Z M 66.53125 36.253906 C 66.460938 35.929688 66.320313 35.664063 66.113281 35.464844 C 65.90625 35.265625 65.667969 35.164063 65.40625 35.164063 C 65.222656 35.164063 65.078125 35.222656 64.96875 35.34375 C 64.859375 35.464844 64.804688 35.628906 64.804688 35.828125 C 64.804688 35.980469 64.867188 36.121094 64.984375 36.261719 C 65.105469 36.394531 65.296875 36.535156 65.5625 36.6875 C 66.027344 36.953125 66.34375 37.191406 66.523438 37.398438 C 66.699219 37.605469 66.789063 37.847656 66.789063 38.125 C 66.789063 38.492188 66.660156 38.78125 66.410156 39 C 66.160156 39.214844 65.820313 39.320313 65.390625 39.320313 C 65.15625 39.320313 64.929688 39.261719 64.707031 39.144531 C 64.617188 39.09375 64.539063 39.082031 64.476563 39.09375 C 64.414063 39.113281 64.367188 39.164063 64.335938 39.246094 L 64.3125 39.300781 L 64.160156 39.300781 L 63.984375 37.917969 L 64.136719 37.917969 C 64.230469 38.253906 64.398438 38.523438 64.628906 38.734375 C 64.863281 38.945313 65.113281 39.050781 65.386719 39.050781 C 65.621094 39.050781 65.8125 38.980469 65.949219 38.84375 C 66.085938 38.703125 66.15625 38.515625 66.15625 38.273438 C 66.15625 38.121094 66.082031 37.96875 65.933594 37.816406 C 65.785156 37.667969 65.546875 37.496094 65.214844 37.304688 C 64.855469 37.101563 64.589844 36.898438 64.414063 36.691406 C 64.242188 36.484375 64.152344 36.273438 64.152344 36.054688 C 64.152344 35.714844 64.261719 35.433594 64.472656 35.21875 C 64.683594 35.003906 64.957031 34.898438 65.292969 34.898438 C 65.539063 34.898438 65.777344 34.957031 66.003906 35.070313 C 66.074219 35.105469 66.140625 35.113281 66.210938 35.09375 C 66.277344 35.078125 66.328125 35.039063 66.355469 34.980469 L 66.398438 34.898438 L 66.550781 34.898438 L 66.683594 36.253906 L 66.53125 36.253906 "/>
<path style=" stroke:none;fill-rule:nonzero;fill:rgb(82.398987%,67.498779%,40.39917%);fill-opacity:1;" d="M 66.511719 19.695313 C 66.683594 19.695313 66.851563 19.738281 67.015625 19.828125 C 67.179688 19.914063 67.304688 20.039063 67.394531 20.207031 C 67.488281 20.367188 67.53125 20.539063 67.53125 20.714844 C 67.53125 20.894531 67.488281 21.0625 67.398438 21.222656 C 67.308594 21.386719 67.179688 21.511719 67.019531 21.601563 C 66.859375 21.691406 66.6875 21.734375 66.511719 21.734375 C 66.335938 21.734375 66.167969 21.691406 66.003906 21.601563 C 65.84375 21.511719 65.714844 21.386719 65.628906 21.222656 C 65.535156 21.0625 65.492188 20.894531 65.492188 20.714844 C 65.492188 20.539063 65.535156 20.367188 65.628906 20.207031 C 65.71875 20.039063 65.847656 19.914063 66.011719 19.828125 C 66.175781 19.738281 66.34375 19.695313 66.511719 19.695313 Z M 66.511719 19.863281 C 66.371094 19.863281 66.230469 19.902344 66.09375 19.976563 C 65.957031 20.046875 65.851563 20.15625 65.777344 20.289063 C 65.699219 20.425781 65.660156 20.570313 65.660156 20.714844 C 65.660156 20.863281 65.699219 21.003906 65.773438 21.140625 C 65.847656 21.273438 65.953125 21.378906 66.089844 21.453125 C 66.222656 21.527344 66.367188 21.566406 66.511719 21.566406 C 66.660156 21.566406 66.800781 21.527344 66.9375 21.453125 C 67.070313 21.378906 67.175781 21.273438 67.25 21.140625 C 67.324219 21.003906 67.363281 20.863281 67.363281 20.714844 C 67.363281 20.570313 67.324219 20.425781 67.25 20.289063 C 67.171875 20.15625 67.066406 20.046875 66.929688 19.976563 C 66.792969 19.902344 66.65625 19.863281 66.511719 19.863281 Z M 66.0625 21.28125 L 66.0625 20.183594 L 66.441406 20.183594 C 66.574219 20.183594 66.664063 20.191406 66.722656 20.214844 C 66.78125 20.234375 66.828125 20.269531 66.859375 20.320313 C 66.894531 20.371094 66.910156 20.421875 66.910156 20.480469 C 66.910156 20.558594 66.882813 20.628906 66.824219 20.691406 C 66.769531 20.75 66.691406 20.78125 66.597656 20.789063 C 66.636719 20.804688 66.667969 20.824219 66.691406 20.847656 C 66.734375 20.890625 66.789063 20.964844 66.851563 21.066406 L 66.988281 21.28125 L 66.773438 21.28125 L 66.675781 21.105469 C 66.597656 20.972656 66.535156 20.886719 66.488281 20.851563 C 66.457031 20.824219 66.410156 20.816406 66.347656 20.816406 L 66.242188 20.816406 L 66.242188 21.28125 Z M 66.242188 20.660156 L 66.457031 20.660156 C 66.558594 20.660156 66.628906 20.648438 66.667969 20.617188 C 66.707031 20.585938 66.722656 20.546875 66.722656 20.496094 C 66.722656 20.464844 66.714844 20.433594 66.695313 20.410156 C 66.679688 20.382813 66.652344 20.363281 66.621094 20.351563 C 66.589844 20.339844 66.53125 20.332031 66.445313 20.332031 L 66.242188 20.332031 L 66.242188 20.660156 "/>
</g>
</svg>
